<?xml version="1.0" encoding="utf-8"?>
<!-- Generator: Adobe Illustrator 16.0.0, SVG Export Plug-In . SVG Version: 6.00 Build 0)  -->
<!DOCTYPE svg PUBLIC "-//W3C//DTD SVG 1.1//EN" "http://www.w3.org/Graphics/SVG/1.1/DTD/svg11.dtd">
<svg version="1.1" id="レイヤー_1" xmlns="http://www.w3.org/2000/svg" xmlns:xlink="http://www.w3.org/1999/xlink" x="0px"
	 y="0px" width="96.325px" height="96.325px" viewBox="0 0 96.325 96.325" enable-background="new 0 0 96.325 96.325"
	 xml:space="preserve">
<path fill="none" stroke="#FFFFFF" stroke-width="4" stroke-linecap="square" stroke-linejoin="round" stroke-miterlimit="10" d="
	M53.395,43.974H39.102c0,0-11.9-6.841-13.622-8.277c-1.879-1.391-6.162-2.309-7.673-0.661c-1.509,1.643-2.965,4.748,0.994,8.706
	c2.871,2.872,23.768,16.168,23.768,16.168c1.06,0.75,2.376,1.043,3.653,0.809l20.226-4.603c0.535-0.097,1.086,0.051,1.501,0.404
	l17.812,17.321"/>
<path fill="none" stroke="#FFFFFF" stroke-width="4" stroke-linecap="round" stroke-linejoin="round" stroke-miterlimit="10" d="
	M93.42,57.292L73.995,41.815c-3.351-3.349-6.381-7.337-15.954-7.337c-3.449,0-11.208-0.009-13.123,0
	c-6.017,0.027-6.632,2.79-6.632,4.905c0,3.08,5.068,4.592,7.186,4.592"/>
<circle fill="none" stroke="#FFFFFF" stroke-width="4" stroke-linecap="round" stroke-linejoin="round" stroke-miterlimit="10" cx="48.163" cy="48.162" r="46.163"/>
<rect y="0" fill="none" width="96.325" height="96.325"/>
</svg>
