<?xml version="1.0" encoding="utf-8"?>
<!-- Generator: Adobe Illustrator 16.0.0, SVG Export Plug-In . SVG Version: 6.00 Build 0)  -->
<!DOCTYPE svg PUBLIC "-//W3C//DTD SVG 1.1//EN" "http://www.w3.org/Graphics/SVG/1.1/DTD/svg11.dtd">
<svg version="1.1" id="レイヤー_1" xmlns="http://www.w3.org/2000/svg" xmlns:xlink="http://www.w3.org/1999/xlink" x="0px"
	 y="0px" width="200.395px" height="121.326px" viewBox="0 0 200.395 121.326" enable-background="new 0 0 200.395 121.326"
	 xml:space="preserve">
<g>
	<defs>
		<rect id="SVGID_1_" width="200.395" height="121.326"/>
	</defs>
	<clipPath id="SVGID_2_">
		<use xlink:href="#SVGID_1_"  overflow="visible"/>
	</clipPath>
	<g clip-path="url(#SVGID_2_)">
		<defs>
			<rect id="SVGID_3_" width="200.395" height="121.326"/>
		</defs>
		<clipPath id="SVGID_4_">
			<use xlink:href="#SVGID_3_"  overflow="visible"/>
		</clipPath>
		<path clip-path="url(#SVGID_4_)" fill="#70A71B" d="M42.796,14.772c0,1.5,1.216,2.716,2.716,2.716s2.716-1.216,2.716-2.716
			s-1.216-2.716-2.716-2.716S42.796,13.272,42.796,14.772"/>
		<path clip-path="url(#SVGID_4_)" fill="#70A71B" d="M41.729,31.55l6.953-2.878v-9.005c0-1.303-1.323-2.188-2.527-1.69
			l-3.297,1.365c-0.684,0.283-1.129,0.95-1.129,1.689V31.55z"/>
		
			<path clip-path="url(#SVGID_4_)" fill="none" stroke="#70A71B" stroke-width="2" stroke-linecap="round" stroke-miterlimit="10" d="
			M52.95,17.564c0,0-3.368,3.311-6.358,1.398"/>
		
			<line clip-path="url(#SVGID_4_)" fill="none" stroke="#70A71B" stroke-width="2" stroke-linecap="round" stroke-miterlimit="10" x1="42.489" y1="21.051" x2="38.263" y2="26.872"/>
		
			<polyline clip-path="url(#SVGID_4_)" fill="none" stroke="#70A71B" stroke-width="2" stroke-linecap="round" stroke-miterlimit="10" points="
			47.161,27.967 47.161,36.384 45.512,35.634 		"/>
		
			<polyline clip-path="url(#SVGID_4_)" fill="none" stroke="#70A71B" stroke-width="2" stroke-linecap="round" stroke-miterlimit="10" points="
			43.862,29.634 43.862,38.051 42.212,37.301 		"/>
		<g opacity="0.2" clip-path="url(#SVGID_4_)">
			<g>
				<defs>
					<rect id="SVGID_5_" y="20.073" width="200.395" height="101.253"/>
				</defs>
				<clipPath id="SVGID_6_">
					<use xlink:href="#SVGID_5_"  overflow="visible"/>
				</clipPath>
				<g clip-path="url(#SVGID_6_)">
					<defs>
						<polygon id="SVGID_7_" points="113.684,121.326 0,73.66 86.711,20.073 200.395,67.739 						"/>
					</defs>
					<clipPath id="SVGID_8_">
						<use xlink:href="#SVGID_7_"  overflow="visible"/>
					</clipPath>
					
						<linearGradient id="SVGID_9_" gradientUnits="userSpaceOnUse" x1="4.882812e-04" y1="121.3262" x2="1.0005" y2="121.3262" gradientTransform="matrix(200.3953 0 0 -200.3953 0 24383.8984)">
						<stop  offset="0" style="stop-color:#001336"/>
						<stop  offset="1" style="stop-color:#FFFFFF"/>
					</linearGradient>
					<rect y="20.073" clip-path="url(#SVGID_8_)" fill="url(#SVGID_9_)" width="200.395" height="101.253"/>
				</g>
			</g>
		</g>
		<polygon clip-path="url(#SVGID_4_)" fill="#F9F9F9" points="113.685,101.253 0,53.587 86.711,0 200.396,47.666 		"/>
		<path clip-path="url(#SVGID_4_)" fill="#5380E3" d="M140.992,80.278c0,1.5,1.216,2.716,2.716,2.716s2.716-1.216,2.716-2.716
			s-1.216-2.716-2.716-2.716S140.992,78.778,140.992,80.278"/>
		<path clip-path="url(#SVGID_4_)" fill="#5380E3" d="M139.925,97.056l6.954-2.878v-9.005c0-1.303-1.324-2.188-2.527-1.69
			l-3.298,1.365c-0.683,0.283-1.129,0.949-1.129,1.689V97.056z"/>
		
			<path clip-path="url(#SVGID_4_)" fill="none" stroke="#5380E3" stroke-width="2" stroke-linecap="round" stroke-miterlimit="10" d="
			M139.925,83.343c0,0,7.853,3.039,4.863,1.126"/>
		
			<line clip-path="url(#SVGID_4_)" fill="none" stroke="#5380E3" stroke-width="2" stroke-linecap="round" stroke-miterlimit="10" x1="140.686" y1="86.557" x2="136.226" y2="87.323"/>
		
			<polyline clip-path="url(#SVGID_4_)" fill="none" stroke="#5380E3" stroke-width="2" stroke-linecap="round" stroke-miterlimit="10" points="
			145.357,93.474 145.357,101.891 143.707,101.141 		"/>
		
			<polyline clip-path="url(#SVGID_4_)" fill="none" stroke="#5380E3" stroke-width="2" stroke-linecap="round" stroke-miterlimit="10" points="
			142.059,95.14 142.059,103.557 140.408,102.807 		"/>
		<path clip-path="url(#SVGID_4_)" fill="#FF5936" d="M158.09,69.997c0,1.5,1.217,2.716,2.717,2.716s2.716-1.216,2.716-2.716
			s-1.216-2.716-2.716-2.716S158.09,68.497,158.09,69.997"/>
		<path clip-path="url(#SVGID_4_)" fill="#FF5936" d="M157.023,86.775l6.954-2.878v-9.005c0-1.303-1.324-2.188-2.528-1.69
			l-3.297,1.365c-0.683,0.283-1.129,0.95-1.129,1.689V86.775z"/>
		
			<path clip-path="url(#SVGID_4_)" fill="none" stroke="#FF5936" stroke-width="2" stroke-linecap="round" stroke-miterlimit="10" d="
			M157.023,73.062c0,0,7.853,3.039,4.863,1.126"/>
		
			<line clip-path="url(#SVGID_4_)" fill="none" stroke="#FF5936" stroke-width="2" stroke-linecap="round" stroke-miterlimit="10" x1="157.784" y1="76.275" x2="153.324" y2="77.042"/>
		
			<polyline clip-path="url(#SVGID_4_)" fill="none" stroke="#FF5936" stroke-width="2" stroke-linecap="round" stroke-miterlimit="10" points="
			162.456,83.192 162.456,91.609 160.806,90.859 		"/>
		
			<polyline clip-path="url(#SVGID_4_)" fill="none" stroke="#FF5936" stroke-width="2" stroke-linecap="round" stroke-miterlimit="10" points="
			159.157,84.859 159.157,93.276 157.507,92.526 		"/>
		<path clip-path="url(#SVGID_4_)" fill="#FFB400" d="M173.834,60.977c0,1.5,1.216,2.716,2.716,2.716s2.716-1.216,2.716-2.716
			s-1.216-2.716-2.716-2.716S173.834,59.477,173.834,60.977"/>
		<path clip-path="url(#SVGID_4_)" fill="#FFB400" d="M172.767,77.755l6.954-2.878v-9.005c0-1.303-1.324-2.188-2.528-1.69
			l-3.297,1.365c-0.683,0.283-1.129,0.949-1.129,1.689V77.755z"/>
		
			<path clip-path="url(#SVGID_4_)" fill="none" stroke="#FFB400" stroke-width="2" stroke-linecap="round" stroke-miterlimit="10" d="
			M181.715,59.907c0,0-1.096,7.174-4.085,5.261"/>
		
			<line clip-path="url(#SVGID_4_)" fill="none" stroke="#FFB400" stroke-width="2" stroke-linecap="round" stroke-miterlimit="10" x1="173.527" y1="67.255" x2="169.067" y2="68.021"/>
		
			<polyline clip-path="url(#SVGID_4_)" fill="none" stroke="#FFB400" stroke-width="2" stroke-linecap="round" stroke-miterlimit="10" points="
			178.199,74.172 178.199,82.589 176.549,81.839 		"/>
		
			<polyline clip-path="url(#SVGID_4_)" fill="none" stroke="#FFB400" stroke-width="2" stroke-linecap="round" stroke-miterlimit="10" points="
			174.9,75.839 174.9,84.256 173.25,83.506 		"/>
		<polygon clip-path="url(#SVGID_4_)" fill="#DCDDDD" points="47.885,63.963 17.937,51.406 40.779,37.29 70.727,49.847 		"/>
		<polygon clip-path="url(#SVGID_4_)" fill="#80808B" points="59.851,68.828 55.021,66.803 58.705,64.526 63.534,66.551 		"/>
		<polygon clip-path="url(#SVGID_4_)" fill="#80808B" points="66.499,64.597 61.669,62.572 65.353,60.294 70.183,62.319 		"/>
		<polygon clip-path="url(#SVGID_4_)" fill="#80808B" points="73.146,60.697 68.316,58.672 72.001,56.396 76.831,58.42 		"/>
		<polygon clip-path="url(#SVGID_4_)" fill="#80808B" points="79.729,56.464 74.898,54.439 78.582,52.162 83.412,54.187 		"/>
		<polygon clip-path="url(#SVGID_4_)" fill="#80808B" points="86.275,52.454 81.445,50.429 85.13,48.152 89.96,50.177 		"/>
		<polygon clip-path="url(#SVGID_4_)" fill="#80808B" points="92.924,48.223 88.094,46.197 91.778,43.92 96.607,45.945 		"/>
		<polygon clip-path="url(#SVGID_4_)" fill="#80808B" points="99.572,44.323 94.742,42.298 98.426,40.021 103.256,42.046 		"/>
		<polygon clip-path="url(#SVGID_4_)" fill="#80808B" points="106.153,40.09 101.323,38.065 105.007,35.788 109.837,37.813 		"/>
		<polygon clip-path="url(#SVGID_4_)" fill="#80808B" points="112.701,36.08 107.871,34.055 111.555,31.778 116.385,33.803 		"/>
		<polygon clip-path="url(#SVGID_4_)" fill="#80808B" points="119.282,31.846 114.452,29.821 118.136,27.544 122.966,29.569 		"/>
		<polygon clip-path="url(#SVGID_4_)" fill="#80808B" points="125.83,27.836 121,25.812 124.684,23.535 129.514,25.56 		"/>
		<polygon clip-path="url(#SVGID_4_)" fill="#80808B" points="68.755,72.95 63.925,70.925 67.609,68.648 72.439,70.673 		"/>
		<polygon clip-path="url(#SVGID_4_)" fill="#80808B" points="75.403,68.718 70.573,66.693 74.257,64.416 79.087,66.441 		"/>
		<polygon clip-path="url(#SVGID_4_)" fill="#80808B" points="82.052,64.819 77.222,62.794 80.905,60.517 85.735,62.542 		"/>
		<polygon clip-path="url(#SVGID_4_)" fill="#80808B" points="88.633,60.585 83.803,58.561 87.486,56.284 92.316,58.309 		"/>
		<polygon clip-path="url(#SVGID_4_)" fill="#80808B" points="95.181,56.576 90.351,54.551 94.034,52.273 98.864,54.299 		"/>
		<polygon clip-path="url(#SVGID_4_)" fill="#80808B" points="101.828,52.344 96.998,50.319 100.683,48.042 105.513,50.067 		"/>
		<polygon clip-path="url(#SVGID_4_)" fill="#80808B" points="108.477,48.445 103.646,46.42 107.33,44.143 112.16,46.168 		"/>
		<polygon clip-path="url(#SVGID_4_)" fill="#80808B" points="115.058,44.211 110.228,42.187 113.912,39.909 118.742,41.935 		"/>
		<polygon clip-path="url(#SVGID_4_)" fill="#80808B" points="121.605,40.202 116.775,38.177 120.46,35.899 125.289,37.925 		"/>
		<polygon clip-path="url(#SVGID_4_)" fill="#80808B" points="128.187,35.968 123.356,33.943 127.041,31.666 131.871,33.691 		"/>
		<polygon clip-path="url(#SVGID_4_)" fill="#80808B" points="134.734,31.958 129.904,29.933 133.589,27.656 138.419,29.681 		"/>
		<polygon clip-path="url(#SVGID_4_)" fill="#80808B" points="77.659,77.161 72.829,75.136 76.514,72.859 81.344,74.884 		"/>
		<polygon clip-path="url(#SVGID_4_)" fill="#80808B" points="84.308,72.93 79.478,70.905 83.161,68.628 87.991,70.653 		"/>
		<polygon clip-path="url(#SVGID_4_)" fill="#80808B" points="90.956,69.031 86.126,67.005 89.81,64.729 94.64,66.753 		"/>
		<polygon clip-path="url(#SVGID_4_)" fill="#80808B" points="97.537,64.797 92.707,62.772 96.391,60.495 101.221,62.52 		"/>
		<polygon clip-path="url(#SVGID_4_)" fill="#80808B" points="104.085,60.787 99.255,58.762 102.938,56.485 107.769,58.51 		"/>
		<polygon clip-path="url(#SVGID_4_)" fill="#80808B" points="110.732,56.556 105.903,54.531 109.587,52.254 114.417,54.279 		"/>
		<polygon clip-path="url(#SVGID_4_)" fill="#80808B" points="117.381,52.656 112.551,50.631 116.235,48.354 121.065,50.379 		"/>
		<polygon clip-path="url(#SVGID_4_)" fill="#80808B" points="123.962,48.423 119.132,46.398 122.816,44.121 127.646,46.146 		"/>
		<polygon clip-path="url(#SVGID_4_)" fill="#80808B" points="130.51,44.413 125.68,42.388 129.364,40.111 134.194,42.136 		"/>
		<polygon clip-path="url(#SVGID_4_)" fill="#80808B" points="137.091,40.18 132.261,38.155 135.945,35.877 140.775,37.903 		"/>
		<polygon clip-path="url(#SVGID_4_)" fill="#80808B" points="143.639,36.17 138.809,34.145 142.493,31.868 147.323,33.893 		"/>
		<polygon clip-path="url(#SVGID_4_)" fill="#80808B" points="86.564,81.283 81.734,79.258 85.418,76.981 90.248,79.006 		"/>
		<polygon clip-path="url(#SVGID_4_)" fill="#80808B" points="93.212,77.051 88.382,75.026 92.066,72.75 96.896,74.774 		"/>
		<polygon clip-path="url(#SVGID_4_)" fill="#80808B" points="99.86,73.152 95.03,71.127 98.714,68.85 103.544,70.875 		"/>
		<polygon clip-path="url(#SVGID_4_)" fill="#80808B" points="106.441,68.919 101.611,66.894 105.296,64.617 110.126,66.642 		"/>
		<polygon clip-path="url(#SVGID_4_)" fill="#80808B" points="112.989,64.909 108.159,62.884 111.843,60.607 116.673,62.632 		"/>
		<polygon clip-path="url(#SVGID_4_)" fill="#80808B" points="119.638,60.677 114.808,58.652 118.491,56.375 123.321,58.4 		"/>
		<polygon clip-path="url(#SVGID_4_)" fill="#80808B" points="126.285,56.778 121.455,54.753 125.14,52.476 129.97,54.501 		"/>
		<polygon clip-path="url(#SVGID_4_)" fill="#80808B" points="132.867,52.544 128.037,50.52 131.721,48.243 136.551,50.268 		"/>
		<polygon clip-path="url(#SVGID_4_)" fill="#80808B" points="139.414,48.535 134.584,46.51 138.269,44.233 143.099,46.258 		"/>
		<polygon clip-path="url(#SVGID_4_)" fill="#80808B" points="145.996,44.301 141.166,42.276 144.85,40 149.68,42.024 		"/>
		<polygon clip-path="url(#SVGID_4_)" fill="#80808B" points="152.543,40.292 147.714,38.267 151.397,35.989 156.228,38.015 		"/>
		<polygon clip-path="url(#SVGID_4_)" fill="none" stroke="#DCDDDD" stroke-miterlimit="10" points="78.855,44.025 48.907,31.468 
			86.136,8.376 116.082,20.932 		"/>
		
			<line clip-path="url(#SVGID_4_)" fill="none" stroke="#DCDDDD" stroke-miterlimit="10" x1="59.866" y1="35.838" x2="97.094" y2="12.745"/>
		
			<line clip-path="url(#SVGID_4_)" fill="none" stroke="#DCDDDD" stroke-miterlimit="10" x1="67.157" y1="39.139" x2="104.385" y2="16.046"/>
	</g>
</g>
</svg>
