<?xml version="1.0" encoding="utf-8"?>
<!-- Generator: Adobe Illustrator 16.0.0, SVG Export Plug-In . SVG Version: 6.00 Build 0)  -->
<!DOCTYPE svg PUBLIC "-//W3C//DTD SVG 1.1//EN" "http://www.w3.org/Graphics/SVG/1.1/DTD/svg11.dtd">
<svg version="1.1" id="レイヤー_1" xmlns="http://www.w3.org/2000/svg" xmlns:xlink="http://www.w3.org/1999/xlink" x="0px"
	 y="0px" width="200.113px" height="160.068px" viewBox="0 0 200.113 160.068" enable-background="new 0 0 200.113 160.068"
	 xml:space="preserve">
<g>
	<defs>
		<rect id="SVGID_1_" width="200.113" height="160.068"/>
	</defs>
	<clipPath id="SVGID_2_">
		<use xlink:href="#SVGID_1_"  overflow="visible"/>
	</clipPath>
	<g clip-path="url(#SVGID_2_)">
		<defs>
			<rect id="SVGID_3_" width="200.113" height="160.068"/>
		</defs>
		<clipPath id="SVGID_4_">
			<use xlink:href="#SVGID_3_"  overflow="visible"/>
		</clipPath>
		<g opacity="0.2" clip-path="url(#SVGID_4_)">
			<g>
				<defs>
					<rect id="SVGID_5_" x="52.511" y="71.491" width="147.603" height="77.308"/>
				</defs>
				<clipPath id="SVGID_6_">
					<use xlink:href="#SVGID_5_"  overflow="visible"/>
				</clipPath>
				<g clip-path="url(#SVGID_6_)">
					<defs>
						<polygon id="SVGID_7_" points="138.99,71.491 200.113,96.258 113.634,148.798 52.511,124.031 						"/>
					</defs>
					<clipPath id="SVGID_8_">
						<use xlink:href="#SVGID_7_"  overflow="visible"/>
					</clipPath>

						<linearGradient id="SVGID_9_" gradientUnits="userSpaceOnUse" x1="0" y1="160.0679" x2="1" y2="160.0679" gradientTransform="matrix(87.6875 -87.6875 -87.6875 -87.6875 14118.4131 14189.8867)">
						<stop  offset="0" style="stop-color:#001336"/>
						<stop  offset="1" style="stop-color:#FFFFFF"/>
					</linearGradient>
					<polygon clip-path="url(#SVGID_8_)" fill="url(#SVGID_9_)" points="13.857,110.144 126.312,-2.31 238.767,110.144
						126.312,222.599 					"/>
				</g>
			</g>
		</g>
	</g>
	<polygon clip-path="url(#SVGID_2_)" fill="#D1E1CC" points="65.085,0 52.51,7.456 113.107,32.531 125.682,25.075 	"/>
	<polygon clip-path="url(#SVGID_2_)" fill="#C1D4BC" points="113.107,149.307 52.511,124.231 52.511,7.456 113.107,32.532 	"/>
	<polygon clip-path="url(#SVGID_2_)" fill="#70A71B" points="113.107,149.307 125.682,141.852 125.682,25.076 113.107,32.532 	"/>
	<polygon clip-path="url(#SVGID_2_)" fill="#FFFFFF" points="107.417,125.915 58.201,105.548 58.201,20.776 107.417,41.143 	"/>
	<polygon clip-path="url(#SVGID_2_)" fill="#DCDDDD" points="107.417,53.305 58.201,32.939 58.201,20.777 107.417,41.143 	"/>
	<polygon clip-path="url(#SVGID_2_)" fill="#DCDDDD" points="101.581,88.145 62.933,72.152 62.933,62.601 101.581,78.594 	"/>
	<g clip-path="url(#SVGID_2_)">
		<defs>
			<rect id="SVGID_10_" width="200.113" height="160.068"/>
		</defs>
		<clipPath id="SVGID_11_">
			<use xlink:href="#SVGID_10_"  overflow="visible"/>
		</clipPath>
		<path clip-path="url(#SVGID_11_)" fill="#70A71B" d="M100.053,116.408L63.616,101.33c-0.414-0.171-0.683-0.574-0.683-1.022v-7.156
			c0-0.789,0.801-1.323,1.529-1.021l36.436,15.077c0.413,0.171,0.683,0.575,0.683,1.021v7.157
			C101.581,116.173,100.78,116.708,100.053,116.408"/>
		<polygon clip-path="url(#SVGID_11_)" fill="#DCDDDD" points="101.581,100.917 62.933,84.924 62.933,75.373 101.581,91.366 		"/>
		<polygon clip-path="url(#SVGID_11_)" fill="#70A71B" points="101.581,100.917 94.183,97.696 94.183,88.145 101.581,91.366 		"/>
		<path clip-path="url(#SVGID_11_)" fill="#D1E1CC" d="M83.753,127.041c0,2.707-2.194,4.396-4.901,3.775
			c-2.707-0.622-4.901-3.32-4.901-6.027s2.194-4.397,4.901-3.775S83.753,124.333,83.753,127.041"/>
		<polygon clip-path="url(#SVGID_11_)" fill="#80808B" points="67.428,42.558 67.428,46.321 70.12,47.433 70.12,43.669 		"/>
		<polygon clip-path="url(#SVGID_11_)" fill="#80808B" points="71.922,44.413 71.922,48.176 74.614,49.288 74.614,45.524 		"/>
		<polygon clip-path="url(#SVGID_11_)" fill="#80808B" points="62.933,40.703 62.933,44.466 65.625,45.578 65.625,41.814 		"/>
		<polygon clip-path="url(#SVGID_11_)" fill="#80808B" points="76.417,46.269 76.417,50.032 79.108,51.144 79.108,47.379 		"/>
		<polygon clip-path="url(#SVGID_11_)" fill="#80808B" points="67.428,49.021 67.428,52.784 70.12,53.896 70.12,50.132 		"/>
		<polygon clip-path="url(#SVGID_11_)" fill="#80808B" points="71.922,50.876 71.922,54.64 74.614,55.751 74.614,51.988 		"/>
		<polygon clip-path="url(#SVGID_11_)" fill="#80808B" points="62.933,47.166 62.933,50.929 65.625,52.041 65.625,48.277 		"/>
		<polygon clip-path="url(#SVGID_11_)" fill="#80808B" points="76.417,52.732 76.417,56.496 79.108,57.607 79.108,53.843 		"/>
		<polygon clip-path="url(#SVGID_11_)" fill="#80808B" points="67.428,55.485 67.428,59.248 70.12,60.36 70.12,56.596 		"/>
		<polygon clip-path="url(#SVGID_11_)" fill="#80808B" points="71.922,57.34 71.922,61.103 74.614,62.215 74.614,58.451 		"/>
		<polygon clip-path="url(#SVGID_11_)" fill="#80808B" points="62.933,53.629 62.933,57.393 65.625,58.504 65.625,54.74 		"/>
		<polygon clip-path="url(#SVGID_11_)" fill="#80808B" points="76.417,59.195 76.417,62.959 79.108,64.07 79.108,60.306 		"/>
		<polygon clip-path="url(#SVGID_11_)" fill="#80808B" points="80.911,48.124 80.911,51.888 83.603,52.999 83.603,49.234 		"/>
		<polygon clip-path="url(#SVGID_11_)" fill="#80808B" points="80.911,54.587 80.911,58.351 83.603,59.462 83.603,55.698 		"/>
		<polygon clip-path="url(#SVGID_11_)" fill="#80808B" points="80.911,61.05 80.911,64.814 83.603,65.925 83.603,62.161 		"/>
		<polygon clip-path="url(#SVGID_11_)" fill="#80808B" points="85.405,49.979 85.405,53.742 88.098,54.854 88.098,51.09 		"/>
		<polygon clip-path="url(#SVGID_11_)" fill="#80808B" points="89.9,51.834 89.9,55.597 92.592,56.709 92.592,52.945 		"/>
		<polygon clip-path="url(#SVGID_11_)" fill="#80808B" points="94.395,53.689 94.395,57.453 97.086,58.564 97.086,54.8 		"/>
		<polygon clip-path="url(#SVGID_11_)" fill="#80808B" points="85.405,56.442 85.405,60.205 88.098,61.317 88.098,57.553 		"/>
		<polygon clip-path="url(#SVGID_11_)" fill="#80808B" points="89.9,58.297 89.9,62.06 92.592,63.172 92.592,59.408 		"/>
		<polygon clip-path="url(#SVGID_11_)" fill="#80808B" points="94.395,60.152 94.395,63.917 97.086,65.027 97.086,61.264 		"/>
		<polygon clip-path="url(#SVGID_11_)" fill="#80808B" points="85.405,62.905 85.405,66.668 88.098,67.78 88.098,64.017 		"/>
		<polygon clip-path="url(#SVGID_11_)" fill="#80808B" points="89.9,64.761 89.9,68.523 92.592,69.636 92.592,65.872 		"/>
		<polygon clip-path="url(#SVGID_11_)" fill="#80808B" points="94.395,66.616 94.395,70.38 97.086,71.491 97.086,67.727 		"/>
		<polygon clip-path="url(#SVGID_11_)" fill="#80808B" points="98.889,55.544 98.889,59.308 101.581,60.419 101.581,56.655 		"/>
		<polygon clip-path="url(#SVGID_11_)" fill="#80808B" points="98.889,62.008 98.889,65.771 101.581,66.883 101.581,63.119 		"/>
		<polygon clip-path="url(#SVGID_11_)" fill="#80808B" points="98.889,68.471 98.889,72.235 101.581,73.346 101.581,69.582 		"/>
		<path clip-path="url(#SVGID_11_)" fill="#FFB400" d="M41.925,41.283c-3.228,2.58-5.08,6.426-5.08,10.553
			c0,4.126,1.851,7.971,5.078,10.551l-4.494,5.624c-4.947-3.953-7.784-9.849-7.784-16.175c0-6.328,2.838-12.224,7.785-16.178
			L41.925,41.283z"/>
		<path clip-path="url(#SVGID_11_)" fill="#FFB400" d="M31.341,73.235l-4.783,5.382c-7.646-6.796-12.032-16.558-12.032-26.781
			c0-10.224,4.385-19.985,12.031-26.781l4.783,5.382c-6.11,5.43-9.614,13.23-9.614,21.399C21.726,60.004,25.23,67.804,31.341,73.235
			"/>
		<path clip-path="url(#SVGID_11_)" fill="#FFB400" d="M21.109,20.105C12.27,28.256,7.2,39.821,7.2,51.835
			c0,12.014,5.069,23.578,13.907,31.728l-4.881,5.293C5.914,79.348,0,65.854,0,51.835c0-14.02,5.915-27.515,16.229-37.024
			L21.109,20.105z"/>
		<path clip-path="url(#SVGID_11_)" fill="#5380E3" d="M74.561,130.78c0,1.5-1.216,2.716-2.716,2.716s-2.716-1.216-2.716-2.716
			s1.216-2.716,2.716-2.716S74.561,129.28,74.561,130.78"/>
		<path clip-path="url(#SVGID_11_)" fill="#5380E3" d="M75.627,147.558l-6.954-2.878v-9.005c0-1.303,1.324-2.188,2.528-1.69
			l3.297,1.365c0.683,0.283,1.129,0.949,1.129,1.689V147.558z"/>

			<path clip-path="url(#SVGID_11_)" fill="none" stroke="#5380E3" stroke-width="2" stroke-linecap="round" stroke-miterlimit="10" d="
			M65.734,138.821c0,0,2.041-1.938,5.031-3.851"/>

			<line clip-path="url(#SVGID_11_)" fill="none" stroke="#5380E3" stroke-width="2" stroke-linecap="round" stroke-miterlimit="10" x1="74.867" y1="137.059" x2="79.327" y2="130.78"/>

			<polyline clip-path="url(#SVGID_11_)" fill="none" stroke="#5380E3" stroke-width="2" stroke-linecap="round" stroke-miterlimit="10" points="
			70.195,143.975 70.195,152.392 71.845,151.642 		"/>

			<polyline clip-path="url(#SVGID_11_)" fill="none" stroke="#5380E3" stroke-width="2" stroke-linecap="round" stroke-miterlimit="10" points="
			73.494,145.642 73.494,154.059 75.144,153.309 		"/>
		<path clip-path="url(#SVGID_11_)" fill="#FF5936" d="M39.166,113.437c0,1.5,1.216,2.716,2.716,2.716s2.716-1.216,2.716-2.716
			s-1.216-2.716-2.716-2.716S39.166,111.937,39.166,113.437"/>
		<path clip-path="url(#SVGID_11_)" fill="#FF5936" d="M39.166,129.867l6.954-2.878v-9.005c0-1.303-1.324-2.188-2.528-1.69
			l-3.297,1.365c-0.683,0.283-1.129,0.949-1.129,1.689V129.867z"/>

			<path clip-path="url(#SVGID_11_)" fill="none" stroke="#FF5936" stroke-width="2" stroke-linecap="round" stroke-miterlimit="10" d="
			M49.86,118.572c0,0-2.082-1.678-5.832-1.292"/>

			<line clip-path="url(#SVGID_11_)" fill="none" stroke="#FF5936" stroke-width="2" stroke-linecap="round" stroke-miterlimit="10" x1="39.926" y1="119.367" x2="35.465" y2="124.2"/>

			<polyline clip-path="url(#SVGID_11_)" fill="none" stroke="#FF5936" stroke-width="2" stroke-linecap="round" stroke-miterlimit="10" points="
			44.598,126.284 40.323,134.701 42.274,135.617 		"/>

			<polyline clip-path="url(#SVGID_11_)" fill="none" stroke="#FF5936" stroke-width="2" stroke-linecap="round" stroke-miterlimit="10" points="
			41.299,127.951 46.549,134.701 48.5,134.158 		"/>
		<path clip-path="url(#SVGID_11_)" fill="#FFB400" d="M94.271,137.417c0,1.5,1.216,2.716,2.716,2.716s2.716-1.216,2.716-2.716
			s-1.216-2.716-2.716-2.716S94.271,135.917,94.271,137.417"/>
		<path clip-path="url(#SVGID_11_)" fill="#FFB400" d="M94.271,153.846l6.954-2.878v-9.005c0-1.303-1.324-2.188-2.528-1.69
			l-3.297,1.365c-0.683,0.283-1.129,0.95-1.129,1.689V153.846z"/>

			<path clip-path="url(#SVGID_11_)" fill="none" stroke="#FFB400" stroke-width="2" stroke-linecap="round" stroke-miterlimit="10" d="
			M104.038,138c0,0-3.302,5.599-4.905,3.259"/>

			<line clip-path="url(#SVGID_11_)" fill="none" stroke="#FFB400" stroke-width="2" stroke-linecap="round" stroke-miterlimit="10" x1="95.031" y1="143.347" x2="90.57" y2="148.18"/>

			<polyline clip-path="url(#SVGID_11_)" fill="none" stroke="#FFB400" stroke-width="2" stroke-linecap="round" stroke-miterlimit="10" points="
			99.703,150.263 95.428,158.68 92.801,157.446 		"/>

			<polyline clip-path="url(#SVGID_11_)" fill="none" stroke="#FFB400" stroke-width="2" stroke-linecap="round" stroke-miterlimit="10" points="
			97.747,151.357 101.653,158.68 100.621,159.068 		"/>
	</g>
</g>
</svg>
