<?xml version="1.0" encoding="utf-8"?>
<!-- Generator: Adobe Illustrator 15.0.0, SVG Export Plug-In . SVG Version: 6.00 Build 0)  -->
<!DOCTYPE svg PUBLIC "-//W3C//DTD SVG 1.1//EN" "http://www.w3.org/Graphics/SVG/1.1/DTD/svg11.dtd">
<svg version="1.1" id="レイヤー_1" xmlns="http://www.w3.org/2000/svg" xmlns:xlink="http://www.w3.org/1999/xlink" x="0px"
	 y="0px" width="200.395px" height="121.326px" viewBox="0 0 200.395 121.326" enable-background="new 0 0 200.395 121.326"
	 xml:space="preserve">
<g>
	<defs>
		<rect id="SVGID_1_" width="200.395" height="121.326"/>
	</defs>
	<clipPath id="SVGID_2_">
		<use xlink:href="#SVGID_1_"  overflow="visible"/>
	</clipPath>
	<g clip-path="url(#SVGID_2_)">
		<defs>
			<rect id="SVGID_3_" width="200.395" height="121.326"/>
		</defs>
		<clipPath id="SVGID_4_">
			<use xlink:href="#SVGID_3_"  overflow="visible"/>
		</clipPath>
		<path clip-path="url(#SVGID_4_)" fill="#70A71B" d="M42.795,14.771c0,1.5,1.216,2.716,2.716,2.716s2.717-1.216,2.717-2.716
			s-1.217-2.716-2.717-2.716S42.795,13.271,42.795,14.771"/>
		<path clip-path="url(#SVGID_4_)" fill="#70A71B" d="M41.729,31.55l6.954-2.877v-9.006c0-1.303-1.324-2.187-2.528-1.689
			l-3.297,1.364c-0.683,0.283-1.129,0.95-1.129,1.689V31.55z"/>
		
			<path clip-path="url(#SVGID_4_)" fill="none" stroke="#70A71B" stroke-width="2" stroke-linecap="round" stroke-miterlimit="10" d="
			M52.95,17.564c0,0-3.369,3.311-6.358,1.398"/>
		
			<line clip-path="url(#SVGID_4_)" fill="none" stroke="#70A71B" stroke-width="2" stroke-linecap="round" stroke-miterlimit="10" x1="42.49" y1="21.05" x2="38.262" y2="26.872"/>
		
			<polyline clip-path="url(#SVGID_4_)" fill="none" stroke="#70A71B" stroke-width="2" stroke-linecap="round" stroke-miterlimit="10" points="
			47.161,27.967 47.161,36.384 45.512,35.634 		"/>
		
			<polyline clip-path="url(#SVGID_4_)" fill="none" stroke="#70A71B" stroke-width="2" stroke-linecap="round" stroke-miterlimit="10" points="
			43.862,29.634 43.862,38.051 42.212,37.301 		"/>
		<g opacity="0.2" clip-path="url(#SVGID_4_)">
			<g>
				<defs>
					<rect id="SVGID_5_" y="20.073" width="200.395" height="101.253"/>
				</defs>
				<clipPath id="SVGID_6_">
					<use xlink:href="#SVGID_5_"  overflow="visible"/>
				</clipPath>
				<g clip-path="url(#SVGID_6_)">
					<defs>
						<polygon id="SVGID_7_" points="113.684,121.326 0,73.66 86.711,20.073 200.395,67.739 						"/>
					</defs>
					<clipPath id="SVGID_8_">
						<use xlink:href="#SVGID_7_"  overflow="visible"/>
					</clipPath>
					
						<linearGradient id="SVGID_9_" gradientUnits="userSpaceOnUse" x1="9.765625e-004" y1="121.3262" x2="1.001" y2="121.3262" gradientTransform="matrix(200.3953 0 0 -200.3953 -0.0325 24383.9297)">
						<stop  offset="0" style="stop-color:#001336"/>
						<stop  offset="1" style="stop-color:#FFFFFF"/>
					</linearGradient>
					<rect y="20.073" clip-path="url(#SVGID_8_)" fill="url(#SVGID_9_)" width="200.395" height="101.253"/>
				</g>
			</g>
		</g>
		<polygon clip-path="url(#SVGID_4_)" fill="#F9F9F9" points="113.685,101.253 0,53.587 86.711,0 200.396,47.667 		"/>
		<path clip-path="url(#SVGID_4_)" fill="#5380E3" d="M140.992,80.278c0,1.5,1.216,2.716,2.716,2.716s2.717-1.216,2.717-2.716
			s-1.217-2.717-2.717-2.717S140.992,78.778,140.992,80.278"/>
		<path clip-path="url(#SVGID_4_)" fill="#5380E3" d="M139.926,97.057l6.953-2.878v-9.005c0-1.304-1.323-2.188-2.527-1.689
			l-3.297,1.364c-0.685,0.282-1.129,0.949-1.129,1.688V97.057z"/>
		
			<path clip-path="url(#SVGID_4_)" fill="none" stroke="#5380E3" stroke-width="2" stroke-linecap="round" stroke-miterlimit="10" d="
			M139.926,83.343c0,0,7.852,3.039,4.861,1.127"/>
		
			<line clip-path="url(#SVGID_4_)" fill="none" stroke="#5380E3" stroke-width="2" stroke-linecap="round" stroke-miterlimit="10" x1="140.686" y1="86.558" x2="136.226" y2="87.323"/>
		
			<polyline clip-path="url(#SVGID_4_)" fill="none" stroke="#5380E3" stroke-width="2" stroke-linecap="round" stroke-miterlimit="10" points="
			145.357,93.474 145.357,101.891 143.708,101.141 		"/>
		
			<polyline clip-path="url(#SVGID_4_)" fill="none" stroke="#5380E3" stroke-width="2" stroke-linecap="round" stroke-miterlimit="10" points="
			142.059,95.141 142.059,103.558 140.409,102.808 		"/>
		<path clip-path="url(#SVGID_4_)" fill="#FF5936" d="M158.091,69.997c0,1.5,1.216,2.716,2.716,2.716s2.717-1.216,2.717-2.716
			s-1.217-2.718-2.717-2.718S158.091,68.497,158.091,69.997"/>
		<path clip-path="url(#SVGID_4_)" fill="#FF5936" d="M157.023,86.775l6.954-2.878v-9.007c0-1.303-1.323-2.187-2.527-1.688
			l-3.297,1.364c-0.685,0.281-1.13,0.948-1.13,1.688V86.775z"/>
		
			<path clip-path="url(#SVGID_4_)" fill="none" stroke="#FF5936" stroke-width="2" stroke-linecap="round" stroke-miterlimit="10" d="
			M157.023,73.062c0,0,7.853,3.039,4.862,1.127"/>
		
			<line clip-path="url(#SVGID_4_)" fill="none" stroke="#FF5936" stroke-width="2" stroke-linecap="round" stroke-miterlimit="10" x1="157.784" y1="76.275" x2="153.324" y2="77.041"/>
		
			<polyline clip-path="url(#SVGID_4_)" fill="none" stroke="#FF5936" stroke-width="2" stroke-linecap="round" stroke-miterlimit="10" points="
			162.456,83.192 162.456,91.609 160.807,90.859 		"/>
		
			<polyline clip-path="url(#SVGID_4_)" fill="none" stroke="#FF5936" stroke-width="2" stroke-linecap="round" stroke-miterlimit="10" points="
			159.157,84.859 159.157,93.275 157.508,92.525 		"/>
		<path clip-path="url(#SVGID_4_)" fill="#FFB400" d="M173.834,60.977c0,1.5,1.216,2.716,2.716,2.716s2.717-1.216,2.717-2.716
			s-1.217-2.716-2.717-2.716S173.834,59.477,173.834,60.977"/>
		<path clip-path="url(#SVGID_4_)" fill="#FFB400" d="M172.768,77.755l6.953-2.877v-9.007c0-1.303-1.323-2.187-2.527-1.688
			l-3.297,1.364c-0.685,0.282-1.129,0.949-1.129,1.688V77.755z"/>
		
			<path clip-path="url(#SVGID_4_)" fill="none" stroke="#FFB400" stroke-width="2" stroke-linecap="round" stroke-miterlimit="10" d="
			M181.715,59.906c0,0-1.097,7.173-4.085,5.261"/>
		
			<line clip-path="url(#SVGID_4_)" fill="none" stroke="#FFB400" stroke-width="2" stroke-linecap="round" stroke-miterlimit="10" x1="173.527" y1="67.256" x2="169.067" y2="68.021"/>
		
			<polyline clip-path="url(#SVGID_4_)" fill="none" stroke="#FFB400" stroke-width="2" stroke-linecap="round" stroke-miterlimit="10" points="
			178.199,74.173 178.199,82.589 176.55,81.839 		"/>
		
			<polyline clip-path="url(#SVGID_4_)" fill="none" stroke="#FFB400" stroke-width="2" stroke-linecap="round" stroke-miterlimit="10" points="
			174.9,75.839 174.9,84.256 173.251,83.506 		"/>
		<polygon clip-path="url(#SVGID_4_)" fill="#80808B" points="59.851,68.828 55.021,66.804 58.705,64.525 63.535,66.552 		"/>
		<polygon clip-path="url(#SVGID_4_)" fill="#80808B" points="66.499,64.597 61.669,62.572 65.353,60.295 70.183,62.32 		"/>
		<polygon clip-path="url(#SVGID_4_)" fill="#80808B" points="73.146,60.697 68.317,58.672 72,56.396 76.831,58.42 		"/>
		<polygon clip-path="url(#SVGID_4_)" fill="#80808B" points="79.728,56.464 74.898,54.439 78.582,52.162 83.412,54.187 		"/>
		<polygon clip-path="url(#SVGID_4_)" fill="#80808B" points="86.275,52.454 81.446,50.429 85.129,48.153 89.959,50.178 		"/>
		<polygon clip-path="url(#SVGID_4_)" fill="#80808B" points="92.924,48.222 88.094,46.197 91.778,43.92 96.608,45.946 		"/>
		<polygon clip-path="url(#SVGID_4_)" fill="#80808B" points="99.572,44.323 94.742,42.298 98.426,40.022 103.256,42.047 		"/>
		<polygon clip-path="url(#SVGID_4_)" fill="#80808B" points="106.153,40.089 101.324,38.064 105.007,35.789 109.837,37.813 		"/>
		<polygon clip-path="url(#SVGID_4_)" fill="#80808B" points="112.701,36.08 107.872,34.055 111.555,31.778 116.385,33.804 		"/>
		<polygon clip-path="url(#SVGID_4_)" fill="#80808B" points="119.282,31.846 114.453,29.821 118.136,27.544 122.966,29.57 		"/>
		<polygon clip-path="url(#SVGID_4_)" fill="#80808B" points="125.83,27.837 121.001,25.812 124.684,23.535 129.514,25.56 		"/>
		<polygon clip-path="url(#SVGID_4_)" fill="#80808B" points="68.755,72.95 63.925,70.925 67.609,68.647 72.439,70.674 		"/>
		<polygon clip-path="url(#SVGID_4_)" fill="#80808B" points="75.403,68.719 70.573,66.693 74.257,64.416 79.087,66.442 		"/>
		<polygon clip-path="url(#SVGID_4_)" fill="#80808B" points="82.051,64.819 77.222,62.794 80.905,60.517 85.735,62.543 		"/>
		<polygon clip-path="url(#SVGID_4_)" fill="#80808B" points="88.632,60.585 83.803,58.561 87.486,56.284 92.316,58.309 		"/>
		<polygon clip-path="url(#SVGID_4_)" fill="#80808B" points="95.18,56.575 90.351,54.55 94.034,52.274 98.864,54.299 		"/>
		<polygon clip-path="url(#SVGID_4_)" fill="#80808B" points="101.829,52.344 96.999,50.319 100.683,48.043 105.513,50.068 		"/>
		<polygon clip-path="url(#SVGID_4_)" fill="#80808B" points="108.477,48.445 103.647,46.42 107.33,44.143 112.16,46.168 		"/>
		<polygon clip-path="url(#SVGID_4_)" fill="#80808B" points="115.058,44.212 110.229,42.187 113.911,39.91 118.742,41.935 		"/>
		<polygon clip-path="url(#SVGID_4_)" fill="#80808B" points="121.605,40.201 116.776,38.176 120.459,35.9 125.289,37.925 		"/>
		<polygon clip-path="url(#SVGID_4_)" fill="#80808B" points="128.187,35.968 123.357,33.943 127.04,31.667 131.871,33.692 		"/>
		<polygon clip-path="url(#SVGID_4_)" fill="#80808B" points="134.734,31.958 129.905,29.933 133.588,27.656 138.419,29.682 		"/>
		<polygon clip-path="url(#SVGID_4_)" fill="#80808B" points="77.659,77.161 72.83,75.137 76.513,72.86 81.343,74.885 		"/>
		<polygon clip-path="url(#SVGID_4_)" fill="#80808B" points="84.308,72.93 79.478,70.905 83.162,68.628 87.992,70.653 		"/>
		<polygon clip-path="url(#SVGID_4_)" fill="#80808B" points="90.956,69.031 86.126,67.006 89.81,64.729 94.64,66.754 		"/>
		<polygon clip-path="url(#SVGID_4_)" fill="#80808B" points="97.537,64.798 92.707,62.772 96.391,60.496 101.221,62.521 		"/>
		<polygon clip-path="url(#SVGID_4_)" fill="#80808B" points="104.085,60.788 99.255,58.762 102.938,56.485 107.769,58.51 		"/>
		<polygon clip-path="url(#SVGID_4_)" fill="#80808B" points="110.733,56.556 105.903,54.531 109.587,52.254 114.417,54.279 		"/>
		<polygon clip-path="url(#SVGID_4_)" fill="#80808B" points="117.381,52.656 112.552,50.631 116.234,48.354 121.065,50.38 		"/>
		<polygon clip-path="url(#SVGID_4_)" fill="#80808B" points="123.963,48.423 119.133,46.398 122.816,44.121 127.646,46.147 		"/>
		<polygon clip-path="url(#SVGID_4_)" fill="#80808B" points="130.51,44.413 125.681,42.388 129.363,40.111 134.194,42.136 		"/>
		<polygon clip-path="url(#SVGID_4_)" fill="#80808B" points="137.092,40.18 132.262,38.155 135.945,35.878 140.775,37.903 		"/>
		<polygon clip-path="url(#SVGID_4_)" fill="#80808B" points="143.64,36.169 138.81,34.145 142.493,31.869 147.323,33.894 		"/>
		<polygon clip-path="url(#SVGID_4_)" fill="#80808B" points="86.564,81.283 81.734,79.258 85.418,76.981 90.248,79.007 		"/>
		<polygon clip-path="url(#SVGID_4_)" fill="#80808B" points="93.212,77.052 88.382,75.026 92.066,72.749 96.896,74.775 		"/>
		<polygon clip-path="url(#SVGID_4_)" fill="#80808B" points="99.86,73.152 95.03,71.128 98.714,68.85 103.544,70.876 		"/>
		<polygon clip-path="url(#SVGID_4_)" fill="#80808B" points="106.441,68.919 101.612,66.895 105.295,64.616 110.126,66.643 		"/>
		<polygon clip-path="url(#SVGID_4_)" fill="#80808B" points="112.989,64.909 108.16,62.884 111.843,60.607 116.673,62.633 		"/>
		<polygon clip-path="url(#SVGID_4_)" fill="#80808B" points="119.638,60.677 114.808,58.652 118.491,56.375 123.321,58.4 		"/>
		<polygon clip-path="url(#SVGID_4_)" fill="#80808B" points="126.286,56.778 121.456,54.753 125.14,52.477 129.97,54.502 		"/>
		<polygon clip-path="url(#SVGID_4_)" fill="#80808B" points="132.867,52.544 128.037,50.52 131.721,48.243 136.551,50.269 		"/>
		<polygon clip-path="url(#SVGID_4_)" fill="#80808B" points="139.415,48.535 134.585,46.51 138.269,44.233 143.099,46.258 		"/>
		<polygon clip-path="url(#SVGID_4_)" fill="#80808B" points="145.996,44.301 141.166,42.276 144.85,40 149.68,42.024 		"/>
		<polygon clip-path="url(#SVGID_4_)" fill="#80808B" points="152.544,40.292 147.714,38.266 151.397,35.99 156.228,38.015 		"/>
		<polygon clip-path="url(#SVGID_4_)" fill="none" stroke="#DCDDDD" stroke-miterlimit="10" points="50.715,61.916 20.767,49.359 
			86.136,8.376 116.083,20.933 		"/>
		
			<line clip-path="url(#SVGID_4_)" fill="none" stroke="#DCDDDD" stroke-miterlimit="10" x1="31.725" y1="53.729" x2="97.093" y2="12.746"/>
		
			<line clip-path="url(#SVGID_4_)" fill="none" stroke="#DCDDDD" stroke-miterlimit="10" x1="39.016" y1="57.029" x2="104.385" y2="16.046"/>
		<polygon clip-path="url(#SVGID_4_)" fill="#80808B" points="31.152,49.947 28.172,48.697 30.445,47.292 33.425,48.542 		"/>
		<polygon clip-path="url(#SVGID_4_)" fill="#80808B" points="35.254,47.336 32.274,46.086 34.547,44.682 37.528,45.931 		"/>
		<polygon clip-path="url(#SVGID_4_)" fill="#80808B" points="39.357,44.93 36.377,43.68 38.65,42.276 41.63,43.525 		"/>
		<polygon clip-path="url(#SVGID_4_)" fill="#80808B" points="43.418,42.317 40.438,41.067 42.711,39.664 45.691,40.913 		"/>
		<polygon clip-path="url(#SVGID_4_)" fill="#80808B" points="47.458,39.843 44.479,38.593 46.751,37.189 49.732,38.438 		"/>
		<polygon clip-path="url(#SVGID_4_)" fill="#80808B" points="51.561,37.231 48.581,35.981 50.854,34.578 53.834,35.827 		"/>
		<polygon clip-path="url(#SVGID_4_)" fill="#80808B" points="39.919,53.756 36.939,52.506 39.212,51.103 42.192,52.352 		"/>
		<polygon clip-path="url(#SVGID_4_)" fill="#80808B" points="44.022,51.146 41.042,49.896 43.315,48.491 46.295,49.74 		"/>
		<polygon clip-path="url(#SVGID_4_)" fill="#80808B" points="48.125,48.739 45.145,47.489 47.417,46.085 50.397,47.334 		"/>
		<polygon clip-path="url(#SVGID_4_)" fill="#80808B" points="52.186,46.126 49.206,44.876 51.479,43.473 54.459,44.722 		"/>
		<polygon clip-path="url(#SVGID_4_)" fill="#80808B" points="56.226,43.652 53.246,42.402 55.52,40.998 58.5,42.248 		"/>
		<polygon clip-path="url(#SVGID_4_)" fill="#80808B" points="60.329,41.042 57.349,39.792 59.622,38.386 62.602,39.636 		"/>
	</g>
</g>
</svg>
