<?xml version="1.0" encoding="utf-8"?>
<!-- Generator: Adobe Illustrator 15.0.0, SVG Export Plug-In . SVG Version: 6.00 Build 0)  -->
<!DOCTYPE svg PUBLIC "-//W3C//DTD SVG 1.1//EN" "http://www.w3.org/Graphics/SVG/1.1/DTD/svg11.dtd">
<svg version="1.1" id="レイヤー_1" xmlns="http://www.w3.org/2000/svg" xmlns:xlink="http://www.w3.org/1999/xlink" x="0px"
	 y="0px" width="226.196px" height="153.369px" viewBox="0 0 226.196 153.369" enable-background="new 0 0 226.196 153.369"
	 xml:space="preserve">
<g>
	<defs>
		<rect id="SVGID_1_" width="226.196" height="153.369"/>
	</defs>
	<clipPath id="SVGID_2_">
		<use xlink:href="#SVGID_1_"  overflow="visible"/>
	</clipPath>
	<g clip-path="url(#SVGID_2_)">
		<defs>
			<rect id="SVGID_3_" width="226.196" height="153.369"/>
		</defs>
		<clipPath id="SVGID_4_">
			<use xlink:href="#SVGID_3_"  overflow="visible"/>
		</clipPath>
		<g opacity="0.2" clip-path="url(#SVGID_4_)">
			<g>
				<defs>
					<rect id="SVGID_5_" x="65.916" y="70.291" width="160.28" height="83.078"/>
				</defs>
				<clipPath id="SVGID_6_">
					<use xlink:href="#SVGID_5_"  overflow="visible"/>
				</clipPath>
				<g clip-path="url(#SVGID_6_)">
					<defs>
						<polygon id="SVGID_7_" points="152.395,70.291 226.196,100.829 139.717,153.369 65.916,122.831 						"/>
					</defs>
					<clipPath id="SVGID_8_">
						<use xlink:href="#SVGID_7_"  overflow="visible"/>
					</clipPath>

						<linearGradient id="SVGID_9_" gradientUnits="userSpaceOnUse" x1="0" y1="153.3691" x2="1" y2="153.3691" gradientTransform="matrix(91.1411 -91.1411 -91.1411 -91.1411 14078.7109 14135.5625)">
						<stop  offset="0" style="stop-color:#001336"/>
						<stop  offset="1" style="stop-color:#FFFFFF"/>
					</linearGradient>
					<polygon clip-path="url(#SVGID_8_)" fill="url(#SVGID_9_)" points="24.377,111.83 146.056,-9.849 267.735,111.83
						146.056,233.509 					"/>
				</g>
			</g>
		</g>
		<path clip-path="url(#SVGID_4_)" fill="#FFB400" d="M58.266,114.396c0,1.5-1.216,2.716-2.716,2.716s-2.716-1.216-2.716-2.716
			s1.216-2.716,2.716-2.716S58.266,112.896,58.266,114.396"/>
		<path clip-path="url(#SVGID_4_)" fill="#FFB400" d="M59.333,131.175l-6.954-2.877v-9.006c0-1.303,1.324-2.188,2.528-1.69
			l3.297,1.365c0.683,0.283,1.129,0.949,1.129,1.689V131.175z"/>

			<path clip-path="url(#SVGID_4_)" fill="none" stroke="#FFB400" stroke-width="2" stroke-linecap="round" stroke-miterlimit="10" d="
			M48.622,125.231c0,0,2.858-4.73,5.849-6.644"/>

			<line clip-path="url(#SVGID_4_)" fill="none" stroke="#FFB400" stroke-width="2" stroke-linecap="round" stroke-miterlimit="10" x1="58.572" y1="120.676" x2="63.032" y2="125.898"/>

			<polyline clip-path="url(#SVGID_4_)" fill="none" stroke="#FFB400" stroke-width="2" stroke-linecap="round" stroke-miterlimit="10" points="
			53.9,127.592 53.9,136.009 55.55,135.259 		"/>

			<polyline clip-path="url(#SVGID_4_)" fill="none" stroke="#FFB400" stroke-width="2" stroke-linecap="round" stroke-miterlimit="10" points="
			57.199,129.259 57.199,137.676 58.848,136.926 		"/>
		<path clip-path="url(#SVGID_4_)" fill="#5380E3" d="M44.161,89.501c0,1.5,1.216,2.716,2.716,2.716s2.716-1.216,2.716-2.716
			s-1.216-2.716-2.716-2.716S44.161,88.001,44.161,89.501"/>
		<path clip-path="url(#SVGID_4_)" fill="#5380E3" d="M43.094,106.28l6.954-2.879v-9.005c0-1.303-1.324-2.188-2.527-1.689
			l-3.298,1.365c-0.683,0.282-1.129,0.948-1.129,1.688V106.28z"/>

			<path clip-path="url(#SVGID_4_)" fill="none" stroke="#5380E3" stroke-width="2" stroke-linecap="round" stroke-miterlimit="10" d="
			M52.042,88.432c0,0-1.095,7.173-4.085,5.261"/>

			<line clip-path="url(#SVGID_4_)" fill="none" stroke="#5380E3" stroke-width="2" stroke-linecap="round" stroke-miterlimit="10" x1="43.855" y1="95.78" x2="40.03" y2="89.501"/>

			<polyline clip-path="url(#SVGID_4_)" fill="none" stroke="#5380E3" stroke-width="2" stroke-linecap="round" stroke-miterlimit="10" points="
			48.527,102.697 48.527,111.114 46.878,110.364 		"/>

			<polyline clip-path="url(#SVGID_4_)" fill="none" stroke="#5380E3" stroke-width="2" stroke-linecap="round" stroke-miterlimit="10" points="
			45.228,104.363 45.228,112.78 43.579,112.03 		"/>
		<path clip-path="url(#SVGID_4_)" fill="#FF5936" d="M106.097,112.818c0,1.5-1.216,2.716-2.716,2.716s-2.717-1.216-2.717-2.716
			s1.217-2.716,2.717-2.716S106.097,111.318,106.097,112.818"/>
		<path clip-path="url(#SVGID_4_)" fill="#FF5936" d="M106.097,129.248l-6.954-2.877v-9.006c0-1.303,1.324-2.188,2.528-1.689
			l3.297,1.364c0.683,0.283,1.129,0.95,1.129,1.689V129.248z"/>

			<path clip-path="url(#SVGID_4_)" fill="none" stroke="#FF5936" stroke-width="2" stroke-linecap="round" stroke-miterlimit="10" d="
			M99.773,106.999c0,0-2.289,9.276,1.461,9.662"/>

			<line clip-path="url(#SVGID_4_)" fill="none" stroke="#FF5936" stroke-width="2" stroke-linecap="round" stroke-miterlimit="10" x1="105.336" y1="118.749" x2="108.726" y2="110.447"/>

			<polyline clip-path="url(#SVGID_4_)" fill="none" stroke="#FF5936" stroke-width="2" stroke-linecap="round" stroke-miterlimit="10" points="
			100.664,125.666 104.939,134.083 102.988,134.999 		"/>

			<polyline clip-path="url(#SVGID_4_)" fill="none" stroke="#FF5936" stroke-width="2" stroke-linecap="round" stroke-miterlimit="10" points="
			103.963,127.332 98.713,134.082 96.763,133.539 		"/>
		<polygon clip-path="url(#SVGID_4_)" fill="#EFEFEF" points="66.472,93.303 139.717,123.211 139.717,58.793 66.472,28.886 		"/>
		<path clip-path="url(#SVGID_4_)" fill="#DCDDDD" d="M96.269,83.843l43.448-25.05L96.08,79.104l-29.608-50.22l29.419,54.804
			C96.004,83.835,96.155,83.896,96.269,83.843"/>
		<polygon clip-path="url(#SVGID_4_)" fill="#DCDDDD" points="139.717,123.211 139.717,121.26 108.641,83.315 		"/>
		<polygon clip-path="url(#SVGID_4_)" fill="#DCDDDD" points="66.472,93.303 66.472,91.352 97.548,78.786 		"/>
		<g opacity="0.1" clip-path="url(#SVGID_4_)">
			<g>
				<defs>
					<rect id="SVGID_10_" x="17.718" y="2.219" width="76.217" height="54.6"/>
				</defs>
				<clipPath id="SVGID_11_">
					<use xlink:href="#SVGID_10_"  overflow="visible"/>
				</clipPath>
				<g clip-path="url(#SVGID_11_)">
					<defs>
						<path id="SVGID_12_" d="M90.975,26.889L21.062,2.327c-1.492-0.525-3.344,0.955-3.344,2.671v22.707
							c0,2.104,1.131,3.802,2.961,4.445l46.049,16.178l5.952,8.433v-6.342l17.911,6.293c1.492,0.524,3.344-0.956,3.344-2.672V31.334
							C93.935,29.229,92.805,27.532,90.975,26.889"/>
					</defs>
					<clipPath id="SVGID_13_">
						<use xlink:href="#SVGID_12_"  overflow="visible"/>
					</clipPath>

						<linearGradient id="SVGID_14_" gradientUnits="userSpaceOnUse" x1="9.765625e-004" y1="153.3691" x2="1.001" y2="153.3691" gradientTransform="matrix(76.2168 -16.5566 0 -76.2168 17.6895 11727.0723)">
						<stop  offset="0" style="stop-color:#FFFFFF"/>
						<stop  offset="1" style="stop-color:#001336"/>
					</linearGradient>
					<polygon clip-path="url(#SVGID_13_)" fill="url(#SVGID_14_)" points="17.718,1.802 93.935,-14.754 93.935,57.236
						17.718,73.793 					"/>
				</g>
			</g>
		</g>
		<path clip-path="url(#SVGID_4_)" fill="#80808B" d="M17.844,29.931l69.913,24.562c1.491,0.524,3.343-0.955,3.343-2.671V29.115
			c0-2.105-1.13-3.802-2.96-4.445L18.227,0.108c-1.492-0.524-3.343,0.955-3.343,2.671v22.707
			C14.884,27.591,16.014,29.288,17.844,29.931"/>
		<path clip-path="url(#SVGID_4_)" fill="#FFFFFF" d="M19.906,12.456c0.121-0.248,0.258-0.423,0.412-0.523
			c0.154-0.102,0.325-0.115,0.512-0.042c0.182,0.071,0.35,0.197,0.502,0.38c0.151,0.183,0.281,0.429,0.389,0.74
			c0.108,0.31,0.191,0.691,0.249,1.143c0.059,0.452,0.087,0.986,0.085,1.602l-0.019,5.473l-1.158-0.451l0.019-5.489
			c0.001-0.279-0.009-0.516-0.031-0.712c-0.021-0.196-0.053-0.359-0.096-0.488c-0.043-0.13-0.095-0.231-0.158-0.304
			c-0.062-0.072-0.136-0.125-0.22-0.158c-0.114-0.045-0.211-0.031-0.29,0.039c-0.079,0.072-0.147,0.186-0.201,0.341l-0.022,6.382
			l-1.154-0.45l0.042-12.345l1.154,0.449L19.906,12.456z"/>
		<path clip-path="url(#SVGID_4_)" fill="#FFFFFF" d="M25.495,11.729l-0.007,2.138l0.591,0.231l-0.006,1.712l-0.591-0.231
			l-0.014,4.316c-0.001,0.182,0.005,0.334,0.017,0.457c0.011,0.123,0.031,0.223,0.06,0.301c0.028,0.078,0.064,0.138,0.107,0.179
			c0.044,0.041,0.097,0.074,0.159,0.098c0.058,0.023,0.11,0.038,0.157,0.045c0.048,0.008,0.087,0.009,0.116,0.005l-0.013,1.766
			c-0.088,0.03-0.182,0.046-0.283,0.046c-0.1,0.001-0.218-0.024-0.354-0.078c-0.171-0.066-0.326-0.173-0.465-0.321
			c-0.138-0.148-0.257-0.345-0.355-0.589c-0.098-0.245-0.174-0.542-0.226-0.889c-0.052-0.348-0.077-0.752-0.075-1.212l0.015-4.574
			l-0.51-0.198l0.006-1.712l0.51,0.198l0.007-2.138L25.495,11.729z"/>
		<path clip-path="url(#SVGID_4_)" fill="#FFFFFF" d="M29.313,13.217l-0.007,2.138l0.591,0.231l-0.006,1.712L29.3,17.067
			l-0.014,4.317c-0.001,0.182,0.005,0.333,0.016,0.456c0.012,0.123,0.032,0.223,0.06,0.301c0.029,0.078,0.065,0.139,0.108,0.179
			c0.044,0.041,0.096,0.074,0.159,0.099c0.057,0.022,0.109,0.037,0.157,0.045c0.048,0.007,0.086,0.009,0.116,0.005l-0.014,1.765
			c-0.087,0.03-0.181,0.046-0.282,0.047c-0.1,0-0.219-0.025-0.355-0.078c-0.17-0.067-0.326-0.174-0.464-0.322
			c-0.138-0.147-0.257-0.344-0.355-0.589c-0.099-0.245-0.174-0.541-0.226-0.889c-0.052-0.348-0.077-0.751-0.076-1.212l0.016-4.574
			l-0.51-0.198l0.006-1.712l0.51,0.198l0.007-2.138L29.313,13.217z"/>
		<path clip-path="url(#SVGID_4_)" fill="#FFFFFF" d="M35.203,22.281c-0.005,1.366-0.127,2.367-0.368,3.003
			c-0.24,0.637-0.595,0.863-1.066,0.68c-0.187-0.074-0.352-0.213-0.494-0.418c-0.142-0.206-0.265-0.466-0.367-0.78l-0.014,4.043
			l-1.154-0.45l0.041-12.039l1.068,0.416l0.038,0.811c0.107-0.264,0.235-0.45,0.384-0.558c0.149-0.108,0.323-0.123,0.521-0.046
			c0.475,0.185,0.831,0.67,1.067,1.453c0.235,0.784,0.351,1.889,0.346,3.314L35.203,22.281z M34.055,21.262
			c0.001-0.413-0.008-0.769-0.029-1.07c-0.021-0.3-0.055-0.552-0.104-0.756c-0.048-0.204-0.111-0.364-0.188-0.48
			c-0.077-0.115-0.173-0.196-0.287-0.241c-0.122-0.047-0.226-0.037-0.312,0.031c-0.086,0.069-0.156,0.187-0.208,0.354l-0.014,4.075
			c0.049,0.196,0.116,0.36,0.201,0.493c0.085,0.133,0.193,0.224,0.323,0.275c0.229,0.089,0.388-0.04,0.477-0.386
			c0.09-0.346,0.136-0.92,0.139-1.724L34.055,21.262z"/>
		<path clip-path="url(#SVGID_4_)" fill="#FFFFFF" d="M37.268,19.424c0-0.176,0.017-0.335,0.048-0.476
			c0.032-0.14,0.077-0.255,0.137-0.345c0.058-0.09,0.128-0.151,0.21-0.183c0.082-0.033,0.175-0.029,0.278,0.011
			c0.101,0.04,0.192,0.108,0.275,0.204c0.083,0.096,0.153,0.213,0.213,0.348c0.059,0.137,0.105,0.287,0.135,0.452
			c0.031,0.165,0.046,0.336,0.045,0.512c0,0.177-0.016,0.336-0.048,0.476c-0.032,0.141-0.078,0.254-0.138,0.341
			s-0.132,0.146-0.215,0.178c-0.083,0.032-0.175,0.028-0.275-0.011c-0.104-0.04-0.196-0.109-0.277-0.204
			c-0.082-0.097-0.152-0.211-0.209-0.344c-0.059-0.132-0.103-0.281-0.134-0.446C37.282,19.771,37.267,19.601,37.268,19.424
			 M37.246,25.999c0-0.177,0.017-0.335,0.048-0.476c0.032-0.141,0.077-0.255,0.137-0.345c0.058-0.09,0.128-0.151,0.211-0.184
			c0.081-0.033,0.173-0.028,0.277,0.012c0.1,0.039,0.192,0.107,0.274,0.203c0.084,0.098,0.154,0.213,0.214,0.349
			c0.059,0.136,0.105,0.286,0.135,0.452c0.031,0.164,0.046,0.335,0.045,0.512c0,0.177-0.016,0.336-0.049,0.476
			c-0.031,0.141-0.077,0.254-0.137,0.34c-0.061,0.087-0.132,0.146-0.216,0.178c-0.082,0.032-0.174,0.029-0.275-0.011
			c-0.103-0.04-0.196-0.108-0.276-0.204c-0.082-0.096-0.152-0.211-0.21-0.343c-0.058-0.133-0.102-0.282-0.133-0.446
			C37.26,26.347,37.245,26.176,37.246,25.999"/>
		<polygon clip-path="url(#SVGID_4_)" fill="#FFFFFF" points="41.101,29.666 40.257,29.337 42.081,17.324 42.925,17.653 		"/>
		<polygon clip-path="url(#SVGID_4_)" fill="#FFFFFF" points="45.118,31.231 44.274,30.902 46.098,18.891 46.942,19.219 		"/>
		<path clip-path="url(#SVGID_4_)" fill="#FFFFFF" d="M52.518,19.838c2.079,0.811,3.746,4.772,3.732,8.87
			c-0.013,4.097-1.703,6.751-3.782,5.94c-2.078-0.81-3.745-4.771-3.732-8.869C48.75,21.649,50.455,19.034,52.518,19.838"/>
		<path clip-path="url(#SVGID_4_)" fill="#FFFFFF" d="M62.121,23.581c2.08,0.811,3.746,4.772,3.732,8.87
			c-0.013,4.097-1.702,6.751-3.782,5.94c-2.078-0.81-3.745-4.771-3.731-8.869C58.353,25.392,60.059,22.777,62.121,23.581"/>
		<path clip-path="url(#SVGID_4_)" fill="#FFFFFF" d="M71.726,27.325c2.079,0.81,3.746,4.771,3.732,8.869
			c-0.013,4.098-1.703,6.751-3.782,5.941c-2.078-0.81-3.745-4.772-3.732-8.87C67.958,29.135,69.664,26.521,71.726,27.325"/>
		<path clip-path="url(#SVGID_4_)" fill="#FFFFFF" d="M81.329,31.068c2.08,0.81,3.747,4.771,3.732,8.869
			c-0.013,4.098-1.702,6.751-3.782,5.941c-2.078-0.81-3.745-4.772-3.731-8.87C77.561,32.878,79.267,30.264,81.329,31.068"/>
		<polyline clip-path="url(#SVGID_4_)" fill="#80808B" points="69.845,44.875 69.845,54.542 62.263,43.801 		"/>
		<g opacity="0.1" clip-path="url(#SVGID_4_)">
			<g>
				<defs>
					<rect id="SVGID_15_" x="4.046" y="27.369" width="24.721" height="33.817"/>
				</defs>
				<clipPath id="SVGID_16_">
					<use xlink:href="#SVGID_15_"  overflow="visible"/>
				</clipPath>
				<g clip-path="url(#SVGID_16_)">
					<defs>
						<polygon id="SVGID_17_" points="25.116,51.746 28.767,27.369 5.973,42.431 12.708,45.708 4.046,58.627 8.827,61.186
							17.607,48.092 						"/>
					</defs>
					<clipPath id="SVGID_18_">
						<use xlink:href="#SVGID_17_"  overflow="visible"/>
					</clipPath>

						<linearGradient id="SVGID_19_" gradientUnits="userSpaceOnUse" x1="0" y1="153.3438" x2="1" y2="153.3438" gradientTransform="matrix(23.0467 3.4932 8.2527 -12.3082 -1259.6781 1930.0509)">
						<stop  offset="0" style="stop-color:#FFFFFF"/>
						<stop  offset="1" style="stop-color:#001336"/>
					</linearGradient>
					<polygon clip-path="url(#SVGID_18_)" fill="url(#SVGID_19_)" points="6.327,23.968 49.35,30.489 26.486,64.587 -16.537,58.066
											"/>
				</g>
			</g>
		</g>
		<polygon clip-path="url(#SVGID_4_)" fill="#FFFFFF" points="25.721,26.414 2.928,41.476 9.662,44.752 1,57.672 5.781,60.23
			14.561,47.137 22.071,50.791 		"/>

			<polygon clip-path="url(#SVGID_4_)" fill="none" stroke="#FFB400" stroke-width="2" stroke-linecap="round" stroke-linejoin="round" stroke-miterlimit="10" points="
			25.721,26.414 2.928,41.476 9.662,44.752 1,57.672 5.781,60.23 14.561,47.137 22.071,50.791 		"/>
	</g>
</g>
</svg>
