<?xml version="1.0" encoding="utf-8"?>
<!-- Generator: Adobe Illustrator 16.0.0, SVG Export Plug-In . SVG Version: 6.00 Build 0)  -->
<!DOCTYPE svg PUBLIC "-//W3C//DTD SVG 1.1//EN" "http://www.w3.org/Graphics/SVG/1.1/DTD/svg11.dtd">
<svg version="1.1" id="レイヤー_1" xmlns="http://www.w3.org/2000/svg" xmlns:xlink="http://www.w3.org/1999/xlink" x="0px"
	 y="0px" width="526.9px" height="232.7px" viewBox="0 0 526.9 232.7" style="enable-background:new 0 0 526.9 232.7;"
	 xml:space="preserve">
<style type="text/css">
<![CDATA[
	.st0{fill:#FFFFFF;}
]]>
</style>
<path class="st0" d="M423.6,159.1c-5.5,0.4-11.4,5.4-13,11.4c-1.6,5.8,1.5,10.4,7.2,9.9c5.5-0.4,11.4-5.6,13-11.4
	C432.4,163.1,429.2,158.7,423.6,159.1 M425.2,169.4c-0.7,2.6-3.3,4.9-5.8,5.1c-2.5,0.2-4-1.8-3.2-4.4c0.7-2.7,3.4-5,5.9-5.1
	C424.5,164.8,426,166.7,425.2,169.4"/>
<path class="st0" d="M125.3,157.1c-3.8,0.3-12.3,2.1-19.6,3.8c-5.4,1.3-9.4,6.6-9.6,12.7c17-4.9,22-6.4,26.4-6.7
	c5-0.3,8.5,2.3,6.8,9c-3.6,14.4-18.8,15.9-32.6,17l-0.3,9.6c22.5-1.7,37.6-8.2,42.3-27.2C141.9,162.6,135.4,156.4,125.3,157.1"/>
<path class="st0" d="M329.2,137.9c-1.4-0.2-3.1-0.5-6.3-0.3c-6.2,0.4-13.4,2-16,2.5c-2.7,0.6-15.8,3.8-18.8,4.4l-1.2,11.4
	c7-2.5,24.6-7.7,32.4-8.2c6.9-0.5,10.8,2.9,8.6,11.1c-1,3.7-3.6,9.4-11.3,13.9c-8,4.8-18.5,5.6-22.8,6c-2.6,0.2-4.3,0.3-6.2,0.3
	l-0.6,10.2c11.9-0.7,20.2-2,27.5-5c5.9-2.4,19.6-11,23.4-25.2c3.2-12.1-1.6-16.8-2.8-18.1C335.2,141,333.2,138.7,329.2,137.9"/>
<path class="st0" d="M370.7,153.1c4.8-3.3,18-12.8,29.4-22l-9.2-5.1c-6,5.3-11.7,9.9-25.9,21.3c-6.2,4.9-8.7,7-9.5,10.2
	c-1.2,4.3,1.5,6.3,6.3,9.8c6.3,4.8,13.6,10.1,20.4,17.5l11.8-8.5c-6-6.3-19.3-14.3-24.1-17.2c-1.7-1-2.6-1.5-2.3-2.8
	C367.8,155.2,369.4,154,370.7,153.1"/>
<path class="st0" d="M253.8,106.3c16.3-0.9,27.7-35.6,29.5-41.3c6.8,0.3,11.5,4.7,8.6,15.6c-3.6,13.8-12.9,18-19.9,19.6l-0.1,9.9
	c4.4-1,10.7-3.1,16-7.3c7.9-6.4,11.9-14.3,13.9-21.7c5-18.7-4.6-26.4-18.6-25.8c-20.1,0.9-33.8,17.5-37.7,32.2
	C242.9,97.9,245.6,106.8,253.8,106.3 M255.2,86.9c0.4-1.7,4.2-16.1,18.7-21c-5.3,15.8-12.2,29-16.8,29.2
	C253.7,95.3,254.6,89.4,255.2,86.9"/>
<polygon class="st0" points="502.7,51.6 500.8,42.4 494.2,44.1 496.1,53.4 "/>
<polygon class="st0" points="510.6,39.8 504,41.5 505.8,50.8 512.4,49.1 "/>
<path class="st0" d="M480.3,54.2l-5.2,0.2c2.3-5.4,3.3-8.1,4.3-10.6l-9.9-0.3c-1,3-2.4,6.7-4.2,11.3l-6.3,0.3
	c-4.2,0.2-7.8,3.2-9,7.3l-0.7,2.6l12.1-0.7c-9.5,19.9-14.4,26.3-18.3,30.7l7.6,4.5c8.5-11.3,14.8-23.5,20.3-35.7l4.9-0.3
	c5.8-0.3,5,2.8,3.6,7.8c-1.3,4.5-4.5,13.2-7,15.8c-0.9,1-2.3,2.2-5.3,2.4c-1,0.1-1.8,0-2.7,0l-2.5,9.5c1.3,0.1,2.8,0.1,4.5,0
	c3.1-0.2,7.3-0.7,11.6-5.1c5.4-5.6,9.7-19.2,10.7-22.7C491.1,62.8,492.4,53.6,480.3,54.2"/>
<path class="st0" d="M494,56.9c0.6,2.3,2,7.8-2.1,23.5l10.7-1.6c2.9-12.5,2.7-19.9,1.2-25.1L494,56.9z"/>
<polygon class="st0" points="337.4,129.1 338.1,139 344.8,137.9 344.1,128.1 "/>
<polygon class="st0" points="347.4,127.6 348,137.4 354.7,136.4 354.1,126.6 "/>
<path class="st0" d="M39.2,168.9c-4.3,3.7-6.2,6.9-6.8,9.3c-1.1,4.7,1.4,6.7,5.3,9.9c6.3,5.1,14.6,11.7,21.3,19.5l11.7-9.2
	c-6.2-6.9-15.5-13-24-18.5c-2.4-1.6-2.9-2.1-2.6-3.3s1.3-2,2.2-2.6c10.1-7.9,20.2-15.7,30-24.3l-8.5-5.8
	C59.9,151.3,59.2,151.9,39.2,168.9"/>
<polygon class="st0" points="67.9,171.2 74.5,170.1 73.8,159.6 67.1,160.7 "/>
<polygon class="st0" points="77,159.1 77.8,169.6 84.4,168.5 83.7,158 "/>
<path class="st0" d="M119.2,112.1c5.8-10.4,13.5-25.4,18-35.9l12.1-0.6l2.6-10.3l-10.6,0.5c0.4-1,2.5-6.2,3-7.5l-10.2,0
	c-0.7,2.3-1.3,4.1-2.7,7.9l-0.9,0c-5.2,0.2-9.8,4.3-11.2,10l-0.2,0.8l8.2-0.4c-4.9,11.7-13,26.4-17.3,32.8L119.2,112.1z"/>
<path class="st0" d="M154.3,105.5c2,2.6,3.8,4.9,4.9,6.8l8-10.6c-1.1-1.5-2.7-3.6-9.2-8.1l3.8-16.2l6.8-0.3l0.1-0.5l2.8-11.1l-2,0.1
	l-0.7,2.8L154.1,69l-1.6,7.2l-3.3,14.5c-1.1-0.1-2.1-0.1-3.6,0c-12,0.6-17.6,8.8-19.1,14.8c-1.9,7.5,1.5,13.4,11.7,12.8
	c6.8-0.4,13.4-3.7,15.6-11.4L154.3,105.5z M146.1,104.3c-0.4,1.7-1.2,4.6-6.2,4.8c-5.2,0.3-5-2.9-4.7-4.3c1.2-4.6,6.8-5,7.7-5.1
	c2.1-0.1,3.1,0.3,4.1,0.7L146.1,104.3z"/>
<path class="st0" d="M202.6,150.7l-0.7,2.6c-11.7,3-15.8,4.1-21.3,6.2c-1-1.5-0.6-3.5,1.1-10.3c0.8-3.3,1.5-5.7,2.4-8.9l-1.4,0.1
	c-5.4,0.3-10.2,4.7-11.5,10.6c-0.3,1.3-0.6,2.8-0.9,4.3c-1.1,5.8-0.1,7.4,0.4,8.5c-5.3,2.8-17.3,9.2-20.3,21.1
	c-1.3,5.2,0,9.6,3.8,11.9c3.2,1.9,7.3,3.3,21.8,2.2c8.1-0.6,13.8-1.5,17.6-2.1l2.8-11.1c-8.3,1.6-15.7,2.3-20.4,2.7
	c-9.4,0.7-16.5,1.1-14.9-5.4c2.4-9.6,24.9-16.4,40-18.9l2.8-11.4l0.6-2.2L202.6,150.7z"/>
<path class="st0" d="M80.8,80.6c-3.1,0.1-5.2,0.5-6.4,0.7c0.3-1.4,0.8-3.1,1.1-4.4l27.4-1.3l0.3-1.2h0l2.9-11.7l-2,0.1l-0.7,2.8
	l-25.2,1.1l1.5-5.4L70,61.8l-1.3,5.4l-2.8,0.1c-5.4,0.2-10.1,4.5-11.6,10.4l0,0.1l11.8-0.6c-0.4,1.5-0.9,3.6-1.6,7.2
	C57.3,88,47.7,95.7,45,106.7c-1,4.3-2.1,13.6,8.6,13c12.5-0.7,26.7-17.8,32.2-29.3c6.3,2.2,4.7,8.4,4.5,9.4c-1,4.1-4,7.6-7.5,9.6
	c-2.6,1.5-4.4,2.1-7.4,2.6l0,9.4c8.1-1.7,20.6-6.4,24.3-21.4C103.1,86.4,94.9,79.9,80.8,80.6 M61.9,108.5c-2.4,1.5-4.1,1.7-4.7,1.7
	c-4,0.2-3.2-4-3-4.9c1.4-5.7,6.9-9.6,8.5-10.8C61.8,101.4,61.7,105.4,61.9,108.5 M71,100.4c0.2-3.5,0.8-6.9,1.5-10.3
	c2.7-0.6,4.3-0.7,5.8-0.7C76.8,92.3,75,95.8,71,100.4"/>
<path class="st0" d="M184.1,115.7c9.9-18.6,13.2-26.2,19.6-42.2l15.2-0.7l0.3-1.3h0l3-11.4l-2,0.1l-0.7,2.7l-11.9,0.5
	c1.8-4.8,2-5.3,2.7-7.1l-9.8-0.3c-1.1,3.5-1.7,5.4-2.6,7.9l-3.9,0.2c-5,0.2-9.4,4.1-10.8,9.4l-0.3,1l11.2-0.5
	c-5,12.3-11.9,27.7-19.1,38.8L184.1,115.7z"/>
<path class="st0" d="M211.1,95.9l-9.5,0.5c-1.8,2.9-2.4,5-2.6,6c-1.6,6.1,2.2,8.7,3.4,9.4c3.3,1.9,8.1,2,17.2,1.5
	c4.8-0.3,6.6-0.5,8.2-0.7l2.6-10.4c-2.3,0.4-5.1,0.9-12.9,1.3c-6.1,0.3-9.6,0.1-8.7-3.5C208.9,98.5,210,97.1,211.1,95.9"/>
<path class="st0" d="M209.1,88c4.3-1.8,8.7-3.2,17.4-3.7c2.7-0.1,4.5-0.1,6.4-0.1l2.6-10.3c-13.4,0.4-20.7,2.3-27,5.5L209.1,88z"/>
<path class="st0" d="M363.2,64.8l-18.3,0.9l-6.7,24.8c-1.2,4.6,1.8,5.5,4.1,5.4l16.7-0.9c6.5-0.4,8.6-6.6,11-14.4l-8.8,0.4
	c-1.4,4.7-2.3,5.2-4.1,5.3l-7.3,0.4c-1.3,0.1-1.9,0.1-1.5-1.5l3-11.1l18.5-0.9l4.3-15.9l0,0l3-10.9l-2,0.1l-0.7,2.6L356,49.9
	c-4.5,0.2-8.5,3.5-9.7,8.1l-0.4,1.3l19.1-0.9L363.2,64.8z"/>
<path class="st0" d="M314.6,80.3c-2,8.6-4.7,16-9,22.4l3.3,8.5c1.5-2,3.8-4.8,6.7-11.4c1.9,5.4,5.8,9.1,18.3,8.4l27.9-1.6l4.2-9.2
	l-29.7,1.6c-4.9,0.3-7.5-0.2-9.5-0.8l2-7.5l7.3-0.4l2.4-8.8l-7.3,0.4l1.4-5.1l8.2-0.4l2.4-8.8l-8.2,0.4l1.2-4.4l7.3-0.3l2.4-8.9
	l-7.3,0.3l1.5-5.7l-8.5,0.4L330,55l-1.6,0.1c-4.5,0.2-8.5,3.6-9.7,8.2l-0.3,1.1l9.2-0.4l-1.2,4.4l-10.6,0.5l-2.4,8.9l11.8-0.6
	L321,92.6c-0.7-1.8-1-3.2-1.2-4.4c1.1-3.3,1.6-5.2,2.3-7.9L314.6,80.3z"/>
<path class="st0" d="M442.4,49.1l-0.7,2.6l-5.3,0.2c1.6-2,3.2-4.4,4.1-5.9l-8.4-1.3c-1,1.9-3.1,5.4-4.7,7.6l-2.4,0.1l2-7.3l-8.1,0.3
	l-2,7.3l-3.4,0.2l2-7.3l-8.1,0.3l-2,7.3l-2.6,0.1c0.1-3.3-0.1-5.2-0.5-7.4l-9.3,2.1c0.5,1.9,0.9,3.8,1.1,5.7
	c-4.5,0.2-8.5,3.5-9.8,8.1l-0.1,0.2l13.4-0.6c0.2,1,0.3,1.6,0.3,3.2l-12.3,0.6l-2,7.2l22-1.1l-0.7,2.6l-20.3,1l-1.7,6.2l20.3-1
	l-0.7,2.6l-24.3,1.3l-2,7.5l17.4-0.9c-8.9,4.9-17.2,7.2-19.6,7.9l2,8.4c13.2-4.7,18-8,23.3-12.2l-3.2,11.5l9-0.5l3.2-11.7
	c4.7,5.7,8.4,7.5,17.1,10l7-9c-3.6-0.5-10.4-1.7-16.2-5.6l17.4-0.9l2.1-7.4l-24,1.2l0.7-2.6l20.4-1l1.7-6.1l-20.4,1l0.7-2.6l22-1.1
	l2-7.1l-12.3,0.6l1.9-3.3l11.3-0.5l2-0.1v0h0l0.5-1.6l2.5-8.8L442.4,49.1z M417.1,63.8l-9.9,0.5c-0.1-0.4-0.2-2.7-0.3-3.2l12.1-0.6
	C417.9,62.6,417.4,63.2,417.1,63.8"/>
<path class="st0" d="M227.5,180.2l5.2-20.5l-15.7,1.1l-2.4,9.4l6.7-0.5l-3.4,13.3c-1.4,1.2-3.1,2.7-9,6.2l0.9,10.1
	c6.1-4.5,9.1-7.4,11.3-9.7c0.9,2.7,2.4,7.3,15.5,6.3l27.2-2.1l4.4-9.7l-27.5,2.1C235,186.7,227.6,187.2,227.5,180.2"/>
<polygon class="st0" points="237.9,145.3 225.4,135.9 219.7,144.4 232.2,153.8 "/>
<path class="st0" d="M278.1,140.3l-2-8.4c-14,4.7-25.5,5.6-31,5.9l-5.8,22.5c-1.6,6.3-4.5,12.7-9.1,18l5.8,6.2
	c2.3-2.5,4.8-5.8,7.2-10.7c1.8-3.5,3.7-8.2,4.6-11.8l0.4-1.4l8-0.6l-5.6,21.4l9.1-0.7l5.6-21.3l9-0.6l1.5-5.9l1.6-6l-2,0.1l-0.7,2.7
	l-24.1,1.6l1.5-5.7C262.8,144.3,270.6,142.4,278.1,140.3"/>
<polygon class="st0" points="463.5,222.6 454.8,222.6 456.8,214 465.5,214 "/>
<polygon class="st0" points="453.5,228.2 448,228.2 449.2,222.6 454.8,222.6 "/>
<polygon class="st0" points="486.2,194.6 483.2,194.6 483.9,191.5 486.9,191.5 "/>
<polygon class="st0" points="479.3,215.8 474.5,215.8 475.6,211.1 480.4,211.1 "/>
<polygon class="st0" points="487.9,224.5 485,224.5 485.7,221.6 488.6,221.6 "/>
<polygon class="st0" points="21.8,225.2 13.1,225.2 15.1,216.5 23.8,216.5 "/>
<polygon class="st0" points="26.1,232.7 20.5,232.7 21.8,227.2 27.4,227.2 "/>
<polygon class="st0" points="167.1,25.7 162.3,25.7 163.5,20.9 168.2,20.9 "/>
<polygon class="st0" points="229.4,17.5 221.7,17.5 223.5,9.7 231.2,9.7 "/>
<polygon class="st0" points="192.1,10.1 189.2,10.1 189.9,7.2 192.8,7.2 "/>
<polygon class="st0" points="521.1,11.7 512.4,11.7 514.5,3 523.1,3 "/>
<polygon class="st0" points="526.2,3 523.1,3 523.8,0 526.9,0 "/>
<polygon class="st0" points="15.9,126.4 12.9,126.4 13.6,123.4 16.6,123.4 "/>
<polygon class="st0" points="4.8,109.7 0,109.7 1.1,104.9 5.9,104.9 "/>
<polygon class="st0" points="23.1,119.3 20.2,119.3 20.8,116.4 23.8,116.4 "/>
<polygon class="st0" points="8.8,104.9 5.9,104.9 6.6,102 9.5,102 "/>
</svg>
