<?xml version="1.0" encoding="utf-8"?>
<!-- Generator: Adobe Illustrator 16.0.0, SVG Export Plug-In . SVG Version: 6.00 Build 0)  -->
<!DOCTYPE svg PUBLIC "-//W3C//DTD SVG 1.1//EN" "http://www.w3.org/Graphics/SVG/1.1/DTD/svg11.dtd">
<svg version="1.1" id="レイヤー_1" xmlns="http://www.w3.org/2000/svg" xmlns:xlink="http://www.w3.org/1999/xlink" x="0px"
	 y="0px" width="322.685px" height="149.711px" viewBox="0 0 322.685 149.711" enable-background="new 0 0 322.685 149.711"
	 xml:space="preserve">
<g>
	<defs>
		<rect id="SVGID_1_" width="322.685" height="149.711"/>
	</defs>
	<clipPath id="SVGID_2_">
		<use xlink:href="#SVGID_1_"  overflow="visible"/>
	</clipPath>
	<path clip-path="url(#SVGID_2_)" d="M129.162,56.075c0.554-1.516,0.969-3.046,1.245-4.59l1.242-6.876
		c0.229-1.442,0.315-2.881,0.258-4.318c-0.057-1.436-0.275-2.804-0.655-4.106c-0.379-1.301-0.937-2.514-1.674-3.635
		c-0.74-1.123-1.682-2.095-2.83-2.915c-1.151-0.822-2.521-1.459-4.112-1.91c-1.597-0.453-3.436-0.666-5.519-0.639
		c-2.213,0.031-4.252,0.302-6.113,0.814c-1.869,0.514-3.569,1.217-5.1,2.111c-1.536,0.897-2.907,1.956-4.108,3.178
		c-1.206,1.225-2.254,2.554-3.143,3.986c-0.892,1.435-1.636,2.945-2.232,4.529c-0.597,1.585-1.046,3.19-1.345,4.813l-1.386,7.202
		c-0.25,1.527-0.332,3.025-0.243,4.493c0.087,1.467,0.349,2.855,0.787,4.159c0.437,1.304,1.066,2.495,1.888,3.571
		c0.82,1.075,1.856,1.984,3.105,2.728c1.246,0.743,2.697,1.291,4.352,1.647c1.649,0.353,3.528,0.464,5.635,0.335
		c2.193-0.137,4.202-0.496,6.03-1.073c1.819-0.574,3.466-1.316,4.941-2.223c1.471-0.902,2.779-1.949,3.925-3.136
		c1.143-1.184,2.133-2.459,2.969-3.823C127.913,59.034,128.607,57.594,129.162,56.075 M121.897,42.862
		c-0.094,0.786-0.188,1.504-0.282,2.156l-1.235,7.098c-0.212,1.195-0.519,2.444-0.92,3.747c-0.402,1.305-0.992,2.514-1.774,3.628
		c-0.783,1.115-1.788,2.047-3.015,2.795c-1.231,0.751-2.771,1.165-4.624,1.241c-1.159,0.045-2.116-0.089-2.867-0.403
		c-0.753-0.314-1.355-0.741-1.806-1.281c-0.451-0.54-0.781-1.178-0.988-1.911c-0.208-0.733-0.33-1.492-0.367-2.276
		c-0.036-0.784-0.012-1.572,0.074-2.363c0.085-0.792,0.177-1.521,0.275-2.187l1.28-7.199c0.146-0.821,0.334-1.683,0.566-2.586
		c0.231-0.902,0.534-1.787,0.911-2.657c0.376-0.868,0.825-1.696,1.346-2.482c0.519-0.785,1.153-1.478,1.901-2.079
		c0.746-0.598,1.612-1.071,2.595-1.419c0.981-0.346,2.104-0.525,3.366-0.536c1.139-0.007,2.075,0.167,2.808,0.519
		c0.732,0.352,1.31,0.825,1.734,1.416c0.423,0.592,0.717,1.27,0.881,2.033c0.164,0.764,0.252,1.549,0.264,2.357
		C122.032,41.282,121.991,42.078,121.897,42.862"/>
	<path clip-path="url(#SVGID_2_)" d="M171.398,53.532l1.348-0.088l0.32-1.506l-1.407,0.09c0.001-0.004,0.002-0.008,0.002-0.012
		l-1.949,0.136l-6.951,0.442l-0.261,1.213c-0.15,0.599-0.317,1.183-0.52,1.739c-0.332,0.912-0.792,1.711-1.38,2.398
		c-0.59,0.686-1.348,1.246-2.273,1.676c-0.928,0.432-2.086,0.67-3.475,0.716c-1.067,0.041-1.934-0.094-2.6-0.405
		c-0.668-0.311-1.182-0.738-1.545-1.283c-0.362-0.545-0.604-1.173-0.724-1.882c-0.122-0.711-0.165-1.449-0.132-2.216
		c0.033-0.766,0.104-1.53,0.214-2.292c0.11-0.762,0.208-1.458,0.297-2.089l1.184-6.992c0.11-0.777,0.257-1.588,0.444-2.434
		c0.185-0.844,0.426-1.664,0.721-2.458c0.295-0.793,0.66-1.548,1.097-2.264c0.435-0.715,0.973-1.347,1.614-1.895
		c0.64-0.548,1.393-0.98,2.258-1.298c0.862-0.317,1.863-0.479,3.001-0.488c1.306-0.014,2.314,0.182,3.027,0.588
		c0.713,0.405,1.217,0.942,1.514,1.607c0.297,0.666,0.456,1.431,0.478,2.298c0.021,0.867,0,1.762-0.064,2.687l9.084-0.411
		c0-1.895-0.228-3.668-0.684-5.322c-0.457-1.655-1.206-3.085-2.248-4.293c-1.046-1.21-2.408-2.156-4.091-2.839
		c-1.69-0.685-3.78-1.008-6.276-0.966c-2.943,0.038-5.537,0.569-7.776,1.593c-2.251,1.031-4.173,2.381-5.761,4.053
		c-1.594,1.679-2.871,3.596-3.829,5.749c-0.96,2.159-1.641,4.374-2.045,6.643l-1.279,6.99c-0.224,1.429-0.315,2.84-0.269,4.235
		c0.045,1.393,0.241,2.715,0.59,3.966c0.347,1.251,0.863,2.403,1.546,3.459c0.682,1.055,1.558,1.948,2.626,2.682
		c1.066,0.732,2.339,1.274,3.818,1.628c1.474,0.353,3.173,0.469,5.093,0.353c2.562-0.151,4.871-0.641,6.932-1.469
		c2.053-0.824,3.812-1.897,5.284-3.221c1.467-1.318,2.651-2.856,3.555-4.612C170.579,56.424,171.078,55.022,171.398,53.532"/>
	<path clip-path="url(#SVGID_2_)" d="M310.031,28.588c-0.24-1.036-0.591-2.002-1.056-2.897c-0.467-0.896-1.06-1.673-1.782-2.33
		c-0.724-0.658-1.585-1.171-2.584-1.537c-1.003-0.368-2.156-0.546-3.462-0.535c-1.384,0.013-2.659,0.217-3.822,0.611
		c-1.167,0.396-2.228,0.942-3.182,1.639c-0.956,0.699-1.81,1.527-2.557,2.483c-0.75,0.958-1.4,1.998-1.954,3.121
		c-0.553,1.124-1.015,2.308-1.384,3.551c-0.37,1.243-0.648,2.504-0.834,3.779l-0.858,5.656c-0.155,1.199-0.206,2.378-0.151,3.534
		c0.054,1.156,0.217,2.25,0.488,3.282c0.271,1.032,0.661,1.976,1.171,2.834c0.508,0.857,1.15,1.586,1.927,2.188
		c0.774,0.602,1.676,1.053,2.705,1.355c1.026,0.301,2.197,0.414,3.511,0.34c1.37-0.08,2.625-0.336,3.769-0.769
		c1.139-0.431,2.171-0.996,3.096-1.695c0.923-0.697,1.744-1.509,2.464-2.437c0.718-0.924,1.341-1.923,1.867-2.996
		c0.524-1.072,0.962-2.206,1.311-3.406c0.35-1.198,0.611-2.408,0.785-3.63l0.783-5.449c0.144-1.143,0.198-2.285,0.162-3.427
		C310.407,30.713,310.271,29.624,310.031,28.588 M304.146,33.813c-0.06,0.622-0.118,1.19-0.178,1.706l-0.774,5.611
		c-0.133,0.944-0.325,1.93-0.577,2.958c-0.252,1.029-0.622,1.979-1.112,2.852c-0.489,0.874-1.119,1.6-1.887,2.178
		c-0.77,0.578-1.732,0.887-2.89,0.925c-0.724,0.022-1.32-0.095-1.788-0.352c-0.471-0.257-0.846-0.601-1.126-1.033
		c-0.281-0.431-0.486-0.938-0.615-1.519c-0.129-0.58-0.205-1.181-0.229-1.799c-0.021-0.619-0.008-1.241,0.047-1.864
		c0.053-0.624,0.109-1.198,0.171-1.723l0.797-5.669c0.091-0.647,0.208-1.326,0.352-2.036c0.145-0.71,0.334-1.407,0.569-2.09
		c0.234-0.683,0.513-1.333,0.839-1.951c0.324-0.616,0.72-1.159,1.186-1.628c0.467-0.468,1.008-0.836,1.622-1.104
		c0.613-0.268,1.314-0.402,2.105-0.402c0.714,0.002,1.3,0.145,1.759,0.429c0.459,0.284,0.822,0.662,1.087,1.133
		c0.267,0.472,0.45,1.011,0.555,1.617c0.102,0.606,0.157,1.229,0.165,1.869C304.23,32.562,304.204,33.193,304.146,33.813"/>
	<path clip-path="url(#SVGID_2_)" d="M46.119,122.921l1.455-7.902c0.249-1.353,0.608-2.764,1.078-4.232
		c0.469-1.467,1.151-2.834,2.045-4.1c0.892-1.263,2.05-2.332,3.472-3.208c1.416-0.873,3.208-1.396,5.372-1.57
		c1.454-0.118,2.595-0.008,3.427,0.327c0.828,0.336,1.457,0.815,1.884,1.437c0.426,0.621,0.693,1.356,0.8,2.206
		c0.106,0.849,0.159,1.739,0.159,2.672l11.009-1.257c-0.025-2.14-0.338-4.057-0.936-5.753c-0.6-1.698-1.553-3.121-2.861-4.269
		c-1.313-1.149-3.025-1.98-5.14-2.489c-2.125-0.512-4.715-0.635-7.777-0.366c-2.512,0.213-4.814,0.655-6.9,1.329
		c-2.097,0.676-4.003,1.536-5.715,2.58c-1.72,1.048-3.242,2.254-4.567,3.619c-1.329,1.369-2.486,2.838-3.47,4.403
		c-0.986,1.569-1.805,3.222-2.454,4.957c-0.652,1.736-1.147,3.483-1.488,5.239l-1.577,7.924c-0.285,1.692-0.392,3.33-0.32,4.915
		c0.07,1.583,0.355,3.062,0.854,4.438c0.497,1.375,1.213,2.613,2.149,3.713c0.933,1.097,2.111,1.991,3.532,2.678
		c1.416,0.688,3.088,1.146,5.011,1.379c1.914,0.231,4.112,0.172,6.586-0.18c1.779-0.245,3.592-0.608,5.44-1.09
		c1.84-0.479,3.627-1.076,5.359-1.792c1.726-0.713,3.351-1.54,4.88-2.483c1.522-0.938,2.876-1.999,4.061-3.177l3.614-18.604
		l-15.205,1.888c-2.433,0.303-4.525,1.887-4.949,3.758l-0.861,3.795l8.158-1.071l-2.056,8.464c-1.134,0.63-2.256,1.171-3.366,1.623
		c-1.115,0.455-2.354,0.769-3.719,0.94c-1.397,0.178-2.564,0.147-3.5-0.091c-0.938-0.239-1.691-0.623-2.257-1.153
		c-0.568-0.529-0.97-1.178-1.206-1.942c-0.236-0.764-0.382-1.572-0.437-2.423c-0.056-0.852-0.035-1.724,0.062-2.616
		C45.861,124.543,45.979,123.705,46.119,122.921"/>
	<path clip-path="url(#SVGID_2_)" d="M157.709,90.697c-0.691-1.038-1.57-1.916-2.641-2.635c-1.074-0.722-2.352-1.249-3.836-1.583
		c-1.489-0.335-3.204-0.424-5.146-0.266c-2.063,0.173-3.964,0.564-5.698,1.177c-1.741,0.614-3.326,1.402-4.752,2.362
		c-1.431,0.964-2.707,2.074-3.826,3.328c-1.123,1.258-2.098,2.607-2.926,4.046c-0.83,1.442-1.523,2.945-2.078,4.511
		c-0.556,1.567-0.973,3.145-1.252,4.729l-1.29,7.034c-0.233,1.489-0.308,2.939-0.226,4.35c0.081,1.41,0.325,2.732,0.733,3.963
		c0.406,1.231,0.992,2.341,1.757,3.327c0.763,0.986,1.727,1.799,2.891,2.439c1.159,0.639,2.511,1.078,4.052,1.317
		c1.536,0.239,3.286,0.23,5.249-0.026c2.043-0.269,3.916-0.739,5.619-1.41c1.697-0.669,3.232-1.486,4.608-2.454
		c1.371-0.964,2.591-2.056,3.66-3.274c1.066-1.215,1.99-2.508,2.77-3.879c0.778-1.369,1.426-2.803,1.944-4.305
		c0.517-1.5,0.904-3.004,1.162-4.512l1.158-6.723c0.214-1.407,0.295-2.803,0.242-4.187c-0.054-1.385-0.257-2.692-0.611-3.926
		C158.919,92.869,158.397,91.733,157.709,90.697 M150.544,101.146c-0.088,0.765-0.175,1.465-0.263,2.099l-1.152,6.933
		c-0.197,1.169-0.483,2.394-0.857,3.678c-0.375,1.285-0.926,2.488-1.655,3.613c-0.73,1.126-1.666,2.09-2.81,2.889
		c-1.148,0.801-2.583,1.297-4.31,1.485c-1.08,0.116-1.971,0.047-2.671-0.209c-0.702-0.257-1.263-0.631-1.682-1.124
		c-0.421-0.492-0.728-1.088-0.921-1.782s-0.307-1.419-0.341-2.173c-0.034-0.755-0.012-1.517,0.068-2.286s0.165-1.479,0.256-2.127
		l1.193-7.028c0.136-0.803,0.311-1.646,0.527-2.533c0.215-0.885,0.498-1.758,0.849-2.622c0.35-0.861,0.768-1.688,1.253-2.479
		c0.485-0.791,1.075-1.5,1.772-2.127c0.695-0.625,1.502-1.138,2.418-1.535c0.915-0.397,1.961-0.642,3.138-0.732
		c1.062-0.079,1.935,0.029,2.618,0.323c0.682,0.294,1.221,0.712,1.617,1.257c0.394,0.545,0.668,1.18,0.822,1.907
		c0.153,0.728,0.235,1.48,0.246,2.26C150.67,99.61,150.631,100.381,150.544,101.146"/>
	<path clip-path="url(#SVGID_2_)" d="M195.084,84.529c-1.05-0.726-2.328-1.224-3.838-1.497c-1.516-0.272-3.192-0.333-5.031-0.182
		l-9.655,0.963c-1.858,0.186-3.454,1.508-3.773,3.131l-7.335,37.356l14.986-2.234c2.127-0.299,4.071-0.821,5.839-1.567
		c1.757-0.742,3.279-1.694,4.568-2.854c1.284-1.155,2.314-2.501,3.092-4.04c0.774-1.535,1.239-3.242,1.397-5.123
		c0.059-0.79,0.044-1.578-0.045-2.366c-0.088-0.787-0.284-1.526-0.587-2.218c-0.304-0.691-0.741-1.292-1.311-1.803
		c-0.571-0.512-1.312-0.877-2.221-1.095c2.032-1.091,3.635-2.397,4.809-3.921c1.171-1.521,1.843-3.284,2.018-5.298
		c0.136-1.712-0.054-3.167-0.569-4.366C196.911,86.215,196.13,85.253,195.084,84.529 M186.937,109.511
		c-0.121,0.753-0.335,1.467-0.646,2.142c-0.31,0.677-0.716,1.281-1.218,1.818c-0.502,0.536-1.106,0.986-1.812,1.35
		c-0.707,0.364-1.506,0.618-2.397,0.762l-5.146,0.673l2.091-10.655l6.238-0.775c0.784-0.048,1.392,0.063,1.823,0.333
		c0.43,0.27,0.74,0.634,0.931,1.092c0.189,0.458,0.28,0.978,0.27,1.558C187.061,108.388,187.016,108.956,186.937,109.511
		 M189.357,93.586c-0.238,1.587-0.896,2.873-1.973,3.86c-1.078,0.99-2.523,1.614-4.336,1.869l-4.138,0.45l1.952-9.895l4.992-0.522
		c0.8-0.052,1.455,0.016,1.964,0.206c0.508,0.188,0.892,0.471,1.15,0.845s0.412,0.833,0.463,1.379
		C189.481,92.324,189.456,92.928,189.357,93.586"/>
	<path clip-path="url(#SVGID_2_)" d="M283.32,22.316l-19.82,0.637c-1.489,0.048-2.769,1.125-3.027,2.555l-0.625,3.455l8.504-0.341
		l-5.168,29.205l7.07-0.562l5.069-28.922l8.271-0.332l0.003-0.013h0.006l1.264-7.002l-1.314,0.04L283.32,22.316z"/>
	<path clip-path="url(#SVGID_2_)" d="M80.272,65.111L62.676,66.37l8.367-37.227l-7.281,0.234c-2.418,0.078-4.495,1.469-4.91,3.297
		l-9.59,42.203l29.301-2.328l2.17-0.172l0.009-0.001l2.086-9.09l-2.17,0.151L80.272,65.111z"/>
	<path clip-path="url(#SVGID_2_)" d="M114.774,124.371l-16.292,2.3l7.743-36.337l-6.738,0.686c-2.237,0.227-4.158,1.697-4.542,3.481
		l-8.867,41.176l27.112-4.041l2.01-0.3l0.009-0.001l1.932-8.88l-2.01,0.28L114.774,124.371z"/>
	<path clip-path="url(#SVGID_2_)" d="M260.376,104.307l-11.232,1.585l5.33-30.014l-4.639,0.472
		c-1.538,0.157-2.857,1.346-3.121,2.819l-6.075,33.924l18.643-2.778l1.39-0.208h0.006l1.337-7.347l-1.391,0.193L260.376,104.307z"/>
	<path clip-path="url(#SVGID_2_)" d="M240.382,53.615l-11.937,0.854l5.665-30.571l-4.931,0.159
		c-1.634,0.052-3.037,1.186-3.318,2.686l-6.462,34.562l19.819-1.574l1.476-0.117l0.007-0.001l1.42-7.479l-1.478,0.103
		L240.382,53.615z"/>
	<path clip-path="url(#SVGID_2_)" d="M204.742,26.271l1.374-0.047l0.296-1.435l-1.879,0.061l-5.031,0.161l-0.34,0.011
		c-1.402,0.045-2.685,0.805-3.292,1.953l-19.975,37.787l9.56-0.76l3.829-8.155l11.447-0.798l0.729,7.682l8.553-0.679L204.742,26.271
		z M192.423,49.198l6.525-13.835l1.199,13.358L192.423,49.198z"/>
	<path clip-path="url(#SVGID_2_)" d="M228.602,79.891l0.277-1.408l-1.762,0.18l-4.719,0.479l-0.317,0.032
		c-1.314,0.134-2.517,0.952-3.085,2.102l-18.704,37.831l8.948-1.334l3.585-8.132l10.727-1.495l0.684,7.393l8.021-1.195
		l-4.942-34.318L228.602,79.891z M215.766,103.008l6.115-13.808l1.124,12.856L215.766,103.008z"/>
	<polygon clip-path="url(#SVGID_2_)" points="13.346,141.08 5.321,141.08 7.184,133.807 15.209,133.807 	"/>
	<polygon clip-path="url(#SVGID_2_)" points="17.333,145.736 12.195,145.736 13.388,141.08 18.526,141.08 	"/>
	<polygon clip-path="url(#SVGID_2_)" points="294.128,82.935 286.104,82.935 287.967,75.662 295.991,75.662 	"/>
	<polygon clip-path="url(#SVGID_2_)" points="259.081,4.318 254.316,4.318 255.423,0 260.188,0 	"/>
	<polygon clip-path="url(#SVGID_2_)" points="320.821,21.288 312.796,21.288 314.659,14.015 322.685,14.015 	"/>
	<polygon clip-path="url(#SVGID_2_)" points="284.91,87.591 279.772,87.591 280.965,82.935 286.103,82.935 	"/>
	<polygon clip-path="url(#SVGID_2_)" points="295.631,98.541 292.826,98.541 293.477,95.999 296.282,95.999 	"/>
	<polygon clip-path="url(#SVGID_2_)" points="247.169,9.466 244.363,9.466 245.015,6.924 247.819,6.924 	"/>
	<polygon clip-path="url(#SVGID_2_)" points="22.5,72.35 18.214,72.35 19.209,68.467 23.495,68.467 	"/>
	<polygon clip-path="url(#SVGID_2_)" points="308.739,77.229 304.309,77.229 305.338,73.214 309.769,73.214 	"/>
	<polygon clip-path="url(#SVGID_2_)" points="6.769,50.909 0,50.909 1.572,44.775 8.341,44.775 	"/>
	<polygon clip-path="url(#SVGID_2_)" points="316.784,84.519 314.079,84.519 314.707,82.068 317.412,82.068 	"/>
	<polygon clip-path="url(#SVGID_2_)" points="135.438,148.456 131.007,148.456 132.037,144.441 136.467,144.441 	"/>
	<polygon clip-path="url(#SVGID_2_)" points="155.842,149.711 148.642,149.711 150.314,143.186 157.514,143.186 	"/>
	<polygon clip-path="url(#SVGID_2_)" points="141.327,143.531 138.622,143.531 139.25,141.08 141.955,141.08 	"/>
	<polygon clip-path="url(#SVGID_2_)" points="32.634,63.268 28.501,63.268 29.462,59.524 33.593,59.524 	"/>
	<polygon clip-path="url(#SVGID_2_)" points="65.826,108.571 78.958,107.12 79.208,105.67 66.076,107.121 	"/>
</g>
</svg>
