<?xml version="1.0" encoding="utf-8"?>
<!-- Generator: Adobe Illustrator 15.0.0, SVG Export Plug-In . SVG Version: 6.00 Build 0)  -->
<!DOCTYPE svg PUBLIC "-//W3C//DTD SVG 1.1//EN" "http://www.w3.org/Graphics/SVG/1.1/DTD/svg11.dtd">
<svg version="1.1" id="レイヤー_1" xmlns="http://www.w3.org/2000/svg" xmlns:xlink="http://www.w3.org/1999/xlink" x="0px"
	 y="0px" width="530.157px" height="483.097px" viewBox="0 0 530.157 483.097" enable-background="new 0 0 530.157 483.097"
	 xml:space="preserve">
<g>
	<defs>
		<rect id="SVGID_1_" width="530.157" height="483.097"/>
	</defs>
	<clipPath id="SVGID_2_">
		<use xlink:href="#SVGID_1_"  overflow="visible"/>
	</clipPath>
	<g clip-path="url(#SVGID_2_)">
		<defs>
			<rect id="SVGID_3_" width="530.157" height="483.097"/>
		</defs>
		<clipPath id="SVGID_4_">
			<use xlink:href="#SVGID_3_"  overflow="visible"/>
		</clipPath>
		<g opacity="0.2" clip-path="url(#SVGID_4_)">
			<g>
				<defs>
					<rect id="SVGID_5_" x="167.206" y="228.969" width="294.333" height="141.22"/>
				</defs>
				<clipPath id="SVGID_6_">
					<use xlink:href="#SVGID_5_"  overflow="visible"/>
				</clipPath>
				<g clip-path="url(#SVGID_6_)">
					<defs>
						<polygon id="SVGID_7_" points="284.753,228.969 461.539,301.174 343.993,370.189 167.206,297.984 						"/>
					</defs>
					<clipPath id="SVGID_8_">
						<use xlink:href="#SVGID_7_"  overflow="visible"/>
					</clipPath>
					<defs>
						<filter id="Adobe_OpacityMaskFilter" filterUnits="userSpaceOnUse" x="96.596" y="81.803" width="435.552" height="435.553">
							<feColorMatrix  type="matrix" values="1 0 0 0 0  0 1 0 0 0  0 0 1 0 0  0 0 0 1 0"/>
						</filter>
					</defs>
					<mask maskUnits="userSpaceOnUse" x="96.596" y="81.803" width="435.552" height="435.553" id="SVGID_9_">
						<g filter="url(#Adobe_OpacityMaskFilter)">
							
								<linearGradient id="SVGID_10_" gradientUnits="userSpaceOnUse" x1="0" y1="483.0962" x2="1" y2="483.0962" gradientTransform="matrix(145.5712 -145.5712 -145.5712 -145.5712 70566.5938 70697.3828)">
								<stop  offset="0" style="stop-color:#FFFFFF"/>
								<stop  offset="0.1566" style="stop-color:#FCFCFC"/>
								<stop  offset="0.2915" style="stop-color:#F1F1F1"/>
								<stop  offset="0.4184" style="stop-color:#DFDFDF"/>
								<stop  offset="0.5404" style="stop-color:#C6C6C6"/>
								<stop  offset="0.659" style="stop-color:#A6A6A6"/>
								<stop  offset="0.7749" style="stop-color:#7E7E7E"/>
								<stop  offset="0.8875" style="stop-color:#505050"/>
								<stop  offset="0.997" style="stop-color:#1B1B1B"/>
								<stop  offset="1" style="stop-color:#1A1A1A"/>
							</linearGradient>
							<polygon clip-path="url(#SVGID_8_)" fill="url(#SVGID_10_)" points="96.596,299.58 314.372,81.803 532.148,299.58 
								314.372,517.356 							"/>
						</g>
					</mask>
					
						<linearGradient id="SVGID_11_" gradientUnits="userSpaceOnUse" x1="0" y1="483.0962" x2="1" y2="483.0962" gradientTransform="matrix(145.5712 -145.5712 -145.5712 -145.5712 70566.5938 70697.3828)">
						<stop  offset="0" style="stop-color:#001336"/>
						<stop  offset="0.1494" style="stop-color:#031639"/>
						<stop  offset="0.2782" style="stop-color:#0E2041"/>
						<stop  offset="0.3993" style="stop-color:#20304F"/>
						<stop  offset="0.5159" style="stop-color:#394863"/>
						<stop  offset="0.6292" style="stop-color:#59657C"/>
						<stop  offset="0.74" style="stop-color:#818A9B"/>
						<stop  offset="0.8488" style="stop-color:#B0B6C1"/>
						<stop  offset="0.9533" style="stop-color:#E5E7EA"/>
						<stop  offset="1" style="stop-color:#FFFFFF"/>
					</linearGradient>
					<polygon clip-path="url(#SVGID_8_)" mask="url(#SVGID_9_)" fill="url(#SVGID_11_)" points="96.596,299.58 314.372,81.803 
						532.148,299.58 314.372,517.356 					"/>
				</g>
			</g>
		</g>
		<path clip-path="url(#SVGID_4_)" fill="#F7F7F7" d="M500.029,127.184c-0.045,6.993-4.792,10.836-10.604,8.584
			c-5.81-2.252-10.482-9.746-10.438-16.739c0.046-6.993,4.793-10.836,10.603-8.584C495.4,112.697,500.074,120.191,500.029,127.184"
			/>
		<path clip-path="url(#SVGID_4_)" fill="#F7F7F7" d="M508.658,120.374c-0.045,6.993-4.792,10.836-10.604,8.584
			c-5.81-2.252-10.482-9.746-10.438-16.739c0.046-6.993,4.793-10.836,10.603-8.584S508.703,113.38,508.658,120.374"/>
		<path clip-path="url(#SVGID_4_)" fill="#F7F7F7" d="M521.107,129.561c-0.046,6.992-4.793,10.836-10.604,8.584
			c-5.81-2.252-10.483-9.747-10.437-16.739c0.045-6.993,4.792-10.836,10.602-8.584S521.152,122.568,521.107,129.561"/>
		<path clip-path="url(#SVGID_4_)" fill="#F7F7F7" d="M518.856,140.406c-0.045,6.993-4.792,10.836-10.603,8.584
			s-10.483-9.746-10.438-16.739c0.045-6.992,4.792-10.836,10.604-8.584C514.229,125.919,518.901,133.414,518.856,140.406"/>
		<path clip-path="url(#SVGID_4_)" fill="#F7F7F7" d="M530.156,140.489c-0.039,6.047-4.144,9.37-9.168,7.423
			c-5.024-1.947-9.066-8.429-9.026-14.476c0.039-6.047,4.145-9.37,9.168-7.423C526.154,127.961,530.196,134.442,530.156,140.489"/>
		<polygon clip-path="url(#SVGID_4_)" fill="#F7F7F7" points="488.176,135.194 519.772,147.44 516.96,135.692 500.048,124.434 
			487.544,123.401 		"/>
		
			<linearGradient id="SVGID_12_" gradientUnits="userSpaceOnUse" x1="0" y1="483.0972" x2="1" y2="483.0972" gradientTransform="matrix(147.308 0 0 -147.308 263.5054 71282.625)">
			<stop  offset="0" style="stop-color:#C5C6C6"/>
			<stop  offset="1" style="stop-color:#80808B"/>
		</linearGradient>
		<path clip-path="url(#SVGID_4_)" fill="url(#SVGID_12_)" d="M264.246,107.874c55.926,0.577,106.494,8.134,145.95,20.296
			c0.264,0.081,0.411,0.361,0.33,0.625c-0.081,0.264-0.361,0.412-0.625,0.331c-39.338-12.127-89.824-19.677-145.666-20.252
			c-0.276-0.003-0.498-0.229-0.495-0.505C263.744,108.092,263.97,107.871,264.246,107.874z"/>
		<path clip-path="url(#SVGID_4_)" fill="#FFD266" d="M192.082,122.457c0,27.083-21.955,49.037-49.037,49.037
			s-49.037-21.954-49.037-49.037c0-27.082,21.955-49.037,49.037-49.037S192.082,95.375,192.082,122.457"/>
		<g clip-path="url(#SVGID_4_)">
			<g>
				<defs>
					<rect id="SVGID_13_" x="132.603" y="76.158" width="14.725" height="6.313"/>
				</defs>
				<clipPath id="SVGID_14_">
					<use xlink:href="#SVGID_13_"  overflow="visible"/>
				</clipPath>
				<path clip-path="url(#SVGID_14_)" fill="#EFEFEF" d="M147.328,79.315c0,1.743-3.296,3.156-7.363,3.156
					c-4.066,0-7.362-1.413-7.362-3.156c0-1.744,3.296-3.157,7.362-3.157C144.032,76.158,147.328,77.571,147.328,79.315"/>
			</g>
		</g>
		<path clip-path="url(#SVGID_4_)" fill="#E3E5E5" d="M166.728,130.743v235.32h0.194c3.069,19.693,43.453,34.392,90.835,33.279
			c44.207-1.038,79.576-15.6,83.639-33.279v-235.32H166.728z"/>
		<path clip-path="url(#SVGID_4_)" fill="#F7F7F7" d="M341.395,129.712c0,19.196-36.591,35.617-83.638,36.723
			c-49.298,1.157-91.029-14.8-91.029-35.693c0-20.892,41.731-37.342,91.029-36.765C304.804,94.526,341.395,110.517,341.395,129.712"
			/>
		
			<linearGradient id="SVGID_15_" gradientUnits="userSpaceOnUse" x1="0" y1="483.0972" x2="1" y2="483.0972" gradientTransform="matrix(95.8373 0 0 -95.8373 12.7397 46476.6875)">
			<stop  offset="0" style="stop-color:#C5C6C6"/>
			<stop  offset="1" style="stop-color:#80808B"/>
		</linearGradient>
		<path clip-path="url(#SVGID_4_)" fill="url(#SVGID_15_)" d="M28.423,229.085c-9.913-9.635-15.408-20.208-15.407-31.387
			c0.08-29.367,37.553-54.722,94.7-71.02c0.265-0.076,0.542,0.079,0.618,0.344c0.076,0.266-0.079,0.542-0.344,0.618
			c-57.073,16.22-94.054,41.648-93.974,70.058c0,10.836,5.315,21.149,15.104,30.67c0.198,0.192,0.202,0.509,0.01,0.707
			C28.938,229.273,28.622,229.278,28.423,229.085z"/>
		<path clip-path="url(#SVGID_4_)" fill="#98B3EE" d="M98.074,242.145c0,27.082-21.955,49.037-49.037,49.037S0,269.227,0,242.145
			s21.955-49.037,49.037-49.037S98.074,215.063,98.074,242.145"/>
		<g clip-path="url(#SVGID_4_)">
			<g>
				<defs>
					<rect id="SVGID_16_" x="42.534" y="202.161" width="14.725" height="6.313"/>
				</defs>
				<clipPath id="SVGID_17_">
					<use xlink:href="#SVGID_16_"  overflow="visible"/>
				</clipPath>
				<path clip-path="url(#SVGID_17_)" fill="#EFEFEF" d="M57.259,205.318c0,1.743-3.296,3.156-7.363,3.156
					c-4.066,0-7.363-1.413-7.363-3.156c0-1.744,3.297-3.157,7.363-3.157C53.963,202.161,57.259,203.574,57.259,205.318"/>
			</g>
		</g>
		<path clip-path="url(#SVGID_4_)" fill="#FF9B86" d="M492.154,136.581c0,27.082-21.955,49.037-49.037,49.037
			c-27.083,0-49.037-21.955-49.037-49.037c0-27.083,21.954-49.037,49.037-49.037C470.199,87.543,492.154,109.498,492.154,136.581"/>
		
			<linearGradient id="SVGID_18_" gradientUnits="userSpaceOnUse" x1="0" y1="483.0972" x2="1" y2="483.0972" gradientTransform="matrix(115.205 0 0 -115.205 380.1745 55867.8555)">
			<stop  offset="0" style="stop-color:#C5C6C6"/>
			<stop  offset="1" style="stop-color:#80808B"/>
		</linearGradient>
		<path clip-path="url(#SVGID_4_)" fill="url(#SVGID_18_)" d="M467.563,154.251c17.551,12.189,27.539,26.125,27.545,40.944
			c-0.104,31.717-45.43,59.807-114.091,75.899c-0.27,0.063-0.538-0.104-0.601-0.373c-0.063-0.269,0.104-0.538,0.373-0.601
			c68.588-15.997,113.423-44.257,113.318-74.926c0.006-14.33-9.691-28.02-27.115-40.123c-0.227-0.158-0.283-0.469-0.125-0.696
			C467.024,154.149,467.336,154.093,467.563,154.251z"/>
		<path clip-path="url(#SVGID_4_)" fill="#A9CA76" d="M414.104,270.067c0,27.082-21.955,49.037-49.037,49.037
			c-27.083,0-49.037-21.955-49.037-49.037s21.954-49.037,49.037-49.037C392.148,221.03,414.104,242.985,414.104,270.067"/>
		<g clip-path="url(#SVGID_4_)">
			<g>
				<defs>
					<rect id="SVGID_19_" x="356.213" y="231.087" width="14.725" height="6.314"/>
				</defs>
				<clipPath id="SVGID_20_">
					<use xlink:href="#SVGID_19_"  overflow="visible"/>
				</clipPath>
				<path clip-path="url(#SVGID_20_)" fill="#EFEFEF" d="M370.938,234.244c0,1.744-3.296,3.157-7.362,3.157
					s-7.362-1.413-7.362-3.157c0-1.743,3.296-3.156,7.362-3.156S370.938,232.5,370.938,234.244"/>
			</g>
		</g>
		
			<linearGradient id="SVGID_21_" gradientUnits="userSpaceOnUse" x1="4.882813e-004" y1="483.0972" x2="1.0005" y2="483.0972" gradientTransform="matrix(258.227 0 0 -258.227 77.0977 125019.8438)">
			<stop  offset="0" style="stop-color:#C5C6C6"/>
			<stop  offset="1" style="stop-color:#80808B"/>
		</linearGradient>
		<path clip-path="url(#SVGID_4_)" fill="url(#SVGID_21_)" d="M334.584,279.553c-22.075,2.993-45.684,4.85-70.333,5.358
			c-4.656,0.097-9.288,0.145-13.891,0.145c-67.701-0.001-129.285-10.306-172.751-27.154c-0.257-0.1-0.385-0.389-0.285-0.646
			c0.1-0.258,0.389-0.386,0.646-0.285c43.301,16.787,104.793,27.088,172.39,27.086c4.596,0,9.221-0.048,13.87-0.144
			c24.612-0.509,48.184-2.362,70.219-5.35c0.273-0.037,0.525,0.154,0.563,0.428S334.857,279.516,334.584,279.553z"/>
		<g opacity="0.29" clip-path="url(#SVGID_4_)">
			<g>
				<defs>
					<rect id="SVGID_22_" x="113.853" y="90.43" width="16.799" height="16.798"/>
				</defs>
				<clipPath id="SVGID_23_">
					<use xlink:href="#SVGID_22_"  overflow="visible"/>
				</clipPath>
				<path clip-path="url(#SVGID_23_)" fill="#FFFFFF" d="M130.651,98.829c0,4.64-3.76,8.399-8.399,8.399s-8.399-3.759-8.399-8.399
					c0-4.639,3.76-8.398,8.399-8.398S130.651,94.189,130.651,98.829"/>
			</g>
		</g>
		<g opacity="0.29" clip-path="url(#SVGID_4_)">
			<g>
				<defs>
					<rect id="SVGID_24_" x="413.925" y="104.553" width="16.799" height="16.799"/>
				</defs>
				<clipPath id="SVGID_25_">
					<use xlink:href="#SVGID_24_"  overflow="visible"/>
				</clipPath>
				<path clip-path="url(#SVGID_25_)" fill="#FFFFFF" d="M430.724,112.953c0,4.639-3.76,8.399-8.399,8.399
					c-4.639,0-8.398-3.76-8.398-8.399s3.76-8.399,8.398-8.399C426.964,104.554,430.724,108.313,430.724,112.953"/>
			</g>
		</g>
		<g opacity="0.29" clip-path="url(#SVGID_4_)">
			<g>
				<defs>
					<rect id="SVGID_26_" x="335.875" y="238.04" width="16.798" height="16.798"/>
				</defs>
				<clipPath id="SVGID_27_">
					<use xlink:href="#SVGID_26_"  overflow="visible"/>
				</clipPath>
				<path clip-path="url(#SVGID_27_)" fill="#FFFFFF" d="M352.673,246.439c0,4.639-3.76,8.399-8.399,8.399
					c-4.639,0-8.398-3.761-8.398-8.399c0-4.639,3.76-8.398,8.398-8.398C348.913,238.041,352.673,241.8,352.673,246.439"/>
			</g>
		</g>
		<g opacity="0.29" clip-path="url(#SVGID_4_)">
			<g>
				<defs>
					<rect id="SVGID_28_" x="19.845" y="210.118" width="16.798" height="16.798"/>
				</defs>
				<clipPath id="SVGID_29_">
					<use xlink:href="#SVGID_28_"  overflow="visible"/>
				</clipPath>
				<path clip-path="url(#SVGID_29_)" fill="#FFFFFF" d="M36.644,218.517c0,4.639-3.761,8.399-8.399,8.399
					c-4.639,0-8.4-3.76-8.4-8.399s3.761-8.399,8.4-8.399C32.883,210.118,36.644,213.878,36.644,218.517"/>
			</g>
		</g>
		<g clip-path="url(#SVGID_4_)">
			<g>
				<defs>
					<rect id="SVGID_30_" x="438.396" y="92.958" width="14.725" height="6.314"/>
				</defs>
				<clipPath id="SVGID_31_">
					<use xlink:href="#SVGID_30_"  overflow="visible"/>
				</clipPath>
				<path clip-path="url(#SVGID_31_)" fill="#EFEFEF" d="M453.121,96.116c0,1.743-3.296,3.156-7.362,3.156s-7.362-1.413-7.362-3.156
					c0-1.744,3.296-3.157,7.362-3.157S453.121,94.372,453.121,96.116"/>
			</g>
		</g>
		<g opacity="0.15" clip-path="url(#SVGID_4_)">
			<g>
				<defs>
					<rect id="SVGID_32_" x="229.606" y="96.156" width="94.391" height="46.731"/>
				</defs>
				<clipPath id="SVGID_33_">
					<use xlink:href="#SVGID_32_"  overflow="visible"/>
				</clipPath>
				<g clip-path="url(#SVGID_33_)">
					<defs>
						<path id="SVGID_34_" d="M264.851,142.887l59.146-34.727c-9.815-5.398-23.249-9.615-38.925-12.004l-55.466,32.566
							L264.851,142.887z"/>
					</defs>
					<clipPath id="SVGID_35_">
						<use xlink:href="#SVGID_34_"  overflow="visible"/>
					</clipPath>
					<defs>
						
							<filter id="Adobe_OpacityMaskFilter_1_" filterUnits="userSpaceOnUse" x="229.606" y="96.156" width="94.391" height="46.731">
							<feColorMatrix  type="matrix" values="1 0 0 0 0  0 1 0 0 0  0 0 1 0 0  0 0 0 1 0"/>
						</filter>
					</defs>
					<mask maskUnits="userSpaceOnUse" x="229.606" y="96.156" width="94.391" height="46.731" id="SVGID_36_">
						<g filter="url(#Adobe_OpacityMaskFilter_1_)">
							
								<linearGradient id="SVGID_37_" gradientUnits="userSpaceOnUse" x1="0" y1="483.0972" x2="1" y2="483.0972" gradientTransform="matrix(94.3914 0 0 -94.3914 229.6028 45719.7461)">
								<stop  offset="0" style="stop-color:#FFFFFF"/>
								<stop  offset="0.1566" style="stop-color:#FCFCFC"/>
								<stop  offset="0.2915" style="stop-color:#F1F1F1"/>
								<stop  offset="0.4184" style="stop-color:#DFDFDF"/>
								<stop  offset="0.5404" style="stop-color:#C6C6C6"/>
								<stop  offset="0.659" style="stop-color:#A6A6A6"/>
								<stop  offset="0.7749" style="stop-color:#7E7E7E"/>
								<stop  offset="0.8875" style="stop-color:#505050"/>
								<stop  offset="0.997" style="stop-color:#1B1B1B"/>
								<stop  offset="1" style="stop-color:#1A1A1A"/>
							</linearGradient>
							<rect x="229.606" y="96.156" clip-path="url(#SVGID_35_)" fill="url(#SVGID_37_)" width="94.391" height="46.731"/>
						</g>
					</mask>
					
						<linearGradient id="SVGID_38_" gradientUnits="userSpaceOnUse" x1="0" y1="483.0972" x2="1" y2="483.0972" gradientTransform="matrix(94.3914 0 0 -94.3914 229.6028 45719.7461)">
						<stop  offset="0" style="stop-color:#001336"/>
						<stop  offset="0.1494" style="stop-color:#031639"/>
						<stop  offset="0.2782" style="stop-color:#0E2041"/>
						<stop  offset="0.3993" style="stop-color:#20304F"/>
						<stop  offset="0.5159" style="stop-color:#394863"/>
						<stop  offset="0.6292" style="stop-color:#59657C"/>
						<stop  offset="0.74" style="stop-color:#818A9B"/>
						<stop  offset="0.8488" style="stop-color:#B0B6C1"/>
						<stop  offset="0.9533" style="stop-color:#E5E7EA"/>
						<stop  offset="1" style="stop-color:#FFFFFF"/>
					</linearGradient>
					
						<rect x="229.606" y="96.156" clip-path="url(#SVGID_35_)" mask="url(#SVGID_36_)" fill="url(#SVGID_38_)" width="94.391" height="46.731"/>
				</g>
			</g>
		</g>
		<rect x="291.785" y="383.149" clip-path="url(#SVGID_4_)" fill="#DAC57E" width="3.059" height="26.767"/>
		<path clip-path="url(#SVGID_4_)" fill="#FFD266" d="M303.779,390.973l-9.7-26.546c-0.26-0.713-1.268-0.713-1.528,0l-9.699,26.546
			h0.043c-0.023,0.111-0.043,0.222-0.043,0.335c0,2.26,4.684,4.092,10.464,4.092c5.779,0,10.464-1.832,10.464-4.092
			c0-0.113-0.021-0.224-0.043-0.335H303.779z"/>
		<path clip-path="url(#SVGID_4_)" fill="#FFE272" d="M303.779,379.094l-9.7-26.546c-0.26-0.714-1.268-0.714-1.528,0l-9.699,26.546
			h0.043c-0.023,0.11-0.043,0.222-0.043,0.335c0,2.26,4.684,4.092,10.464,4.092c5.779,0,10.464-1.832,10.464-4.092
			c0-0.113-0.021-0.225-0.043-0.335H303.779z"/>
		<path clip-path="url(#SVGID_4_)" fill="#DAC57E" d="M294.845,409.916c0,0.307-0.686,0.555-1.529,0.555
			c-0.845,0-1.53-0.248-1.53-0.555c0-0.306,0.686-0.555,1.53-0.555C294.159,409.361,294.845,409.61,294.845,409.916"/>
		<rect x="331.995" y="364.509" clip-path="url(#SVGID_4_)" fill="#DAC57E" width="3.059" height="26.766"/>
		<path clip-path="url(#SVGID_4_)" fill="#FFD266" d="M343.989,372.333l-9.7-26.547c-0.26-0.713-1.269-0.713-1.528,0l-9.7,26.547
			h0.044c-0.023,0.11-0.044,0.222-0.044,0.334c0,2.26,4.685,4.092,10.465,4.092c5.779,0,10.464-1.832,10.464-4.092
			c0-0.112-0.021-0.224-0.043-0.334H343.989z"/>
		<path clip-path="url(#SVGID_4_)" fill="#FFE272" d="M343.989,360.453l-9.7-26.546c-0.26-0.713-1.269-0.713-1.528,0l-9.7,26.546
			h0.044c-0.023,0.111-0.044,0.222-0.044,0.335c0,2.26,4.685,4.092,10.465,4.092c5.779,0,10.464-1.832,10.464-4.092
			c0-0.113-0.021-0.224-0.043-0.335H343.989z"/>
		<path clip-path="url(#SVGID_4_)" fill="#DAC57E" d="M335.055,391.275c0,0.306-0.686,0.555-1.529,0.555
			c-0.845,0-1.53-0.249-1.53-0.555c0-0.307,0.686-0.555,1.53-0.555C334.369,390.72,335.055,390.968,335.055,391.275"/>
		<rect x="315.648" y="378.244" clip-path="url(#SVGID_4_)" fill="#DAC57E" width="2.584" height="22.614"/>
		<path clip-path="url(#SVGID_4_)" fill="#FFD266" d="M325.781,384.853l-8.195-22.43c-0.221-0.603-1.072-0.603-1.293,0l-8.194,22.43
			h0.037c-0.021,0.094-0.037,0.187-0.037,0.283c0,1.909,3.958,3.457,8.841,3.457c4.884,0,8.842-1.548,8.842-3.457
			c0-0.097-0.017-0.189-0.037-0.283H325.781z"/>
		<path clip-path="url(#SVGID_4_)" fill="#FFE272" d="M325.781,374.816l-8.195-22.43c-0.221-0.603-1.072-0.603-1.293,0l-8.194,22.43
			h0.037c-0.021,0.094-0.037,0.187-0.037,0.283c0,1.909,3.958,3.457,8.841,3.457c4.884,0,8.842-1.548,8.842-3.457
			c0-0.097-0.017-0.189-0.037-0.283H325.781z"/>
		<path clip-path="url(#SVGID_4_)" fill="#DAC57E" d="M318.232,400.858c0,0.259-0.579,0.469-1.292,0.469
			c-0.715,0-1.292-0.21-1.292-0.469s0.577-0.469,1.292-0.469C317.653,400.389,318.232,400.599,318.232,400.858"/>
		<rect x="154.687" y="337.921" clip-path="url(#SVGID_4_)" fill="#DAC57E" width="2.584" height="22.614"/>
		<path clip-path="url(#SVGID_4_)" fill="#FFD266" d="M164.82,344.531l-8.195-22.43c-0.221-0.603-1.072-0.603-1.292,0l-8.196,22.43
			h0.037c-0.02,0.094-0.037,0.188-0.037,0.283c0,1.909,3.959,3.457,8.842,3.457c4.883,0,8.841-1.548,8.841-3.457
			c0-0.096-0.017-0.189-0.036-0.283H164.82z"/>
		<path clip-path="url(#SVGID_4_)" fill="#FFE272" d="M164.82,334.494l-8.195-22.43c-0.221-0.603-1.072-0.603-1.292,0l-8.196,22.43
			h0.037c-0.02,0.094-0.037,0.188-0.037,0.283c0,1.909,3.959,3.457,8.842,3.457c4.883,0,8.841-1.548,8.841-3.457
			c0-0.096-0.017-0.189-0.036-0.283H164.82z"/>
		<path clip-path="url(#SVGID_4_)" fill="#DAC57E" d="M157.271,360.536c0,0.26-0.579,0.469-1.292,0.469s-1.292-0.209-1.292-0.469
			c0-0.259,0.579-0.469,1.292-0.469S157.271,360.277,157.271,360.536"/>
		<rect x="162.118" y="357.938" clip-path="url(#SVGID_4_)" fill="#DAC57E" width="3.058" height="26.767"/>
		<path clip-path="url(#SVGID_4_)" fill="#FFD266" d="M174.111,365.762l-9.7-26.546c-0.26-0.713-1.268-0.713-1.529,0l-9.699,26.546
			h0.043c-0.023,0.111-0.043,0.222-0.043,0.335c0,2.26,4.685,4.092,10.464,4.092c5.779,0,10.464-1.832,10.464-4.092
			c0-0.113-0.021-0.224-0.043-0.335H174.111z"/>
		<path clip-path="url(#SVGID_4_)" fill="#FFE272" d="M174.111,353.883l-9.7-26.546c-0.26-0.713-1.268-0.713-1.529,0l-9.699,26.546
			h0.043c-0.023,0.11-0.043,0.222-0.043,0.335c0,2.26,4.685,4.092,10.464,4.092c5.779,0,10.464-1.832,10.464-4.092
			c0-0.113-0.021-0.225-0.043-0.335H174.111z"/>
		<path clip-path="url(#SVGID_4_)" fill="#DAC57E" d="M165.176,384.705c0,0.307-0.685,0.555-1.529,0.555
			c-0.845,0-1.529-0.248-1.529-0.555c0-0.306,0.684-0.555,1.529-0.555C164.491,384.15,165.176,384.399,165.176,384.705"/>
		<path clip-path="url(#SVGID_4_)" fill="#FFB400" d="M136.09,56.79c0,1.5,1.216,2.716,2.716,2.716s2.717-1.216,2.717-2.716
			c0-1.501-1.217-2.717-2.717-2.717S136.09,55.289,136.09,56.79"/>
		<path clip-path="url(#SVGID_4_)" fill="#FFB400" d="M136.09,73.219l6.954-2.878v-9.006c0-1.303-1.324-2.188-2.528-1.689
			l-3.297,1.364c-0.683,0.283-1.129,0.95-1.129,1.689V73.219z"/>
		
			<path clip-path="url(#SVGID_4_)" fill="none" stroke="#FFB400" stroke-width="2" stroke-linecap="round" stroke-miterlimit="10" d="
			M146.785,61.923c0,0-2.082-1.678-5.832-1.292"/>
		
			<line clip-path="url(#SVGID_4_)" fill="none" stroke="#FFB400" stroke-width="2" stroke-linecap="round" stroke-miterlimit="10" x1="136.851" y1="62.719" x2="132.39" y2="67.552"/>
		
			<polyline clip-path="url(#SVGID_4_)" fill="none" stroke="#FFB400" stroke-width="2" stroke-linecap="round" stroke-miterlimit="10" points="
			141.523,69.636 137.248,78.052 139.199,78.969 		"/>
		
			<polyline clip-path="url(#SVGID_4_)" fill="none" stroke="#FFB400" stroke-width="2" stroke-linecap="round" stroke-miterlimit="10" points="
			138.224,71.302 143.474,78.052 145.425,77.509 		"/>
		<path clip-path="url(#SVGID_4_)" fill="#70A71B" d="M208.609,117.148c0,1.5,1.216,2.716,2.716,2.716s2.716-1.216,2.716-2.716
			s-1.216-2.717-2.716-2.717S208.609,115.648,208.609,117.148"/>
		<path clip-path="url(#SVGID_4_)" fill="#70A71B" d="M207.542,133.926l6.954-2.878v-9.006c0-1.303-1.324-2.186-2.528-1.688
			l-3.297,1.364c-0.683,0.282-1.129,0.949-1.129,1.689V133.926z"/>
		
			<path clip-path="url(#SVGID_4_)" fill="none" stroke="#70A71B" stroke-width="2" stroke-linecap="round" stroke-miterlimit="10" d="
			M218.253,118.685c0,0-2.858,4.566-5.848,2.654"/>
		
			<line clip-path="url(#SVGID_4_)" fill="none" stroke="#70A71B" stroke-width="2" stroke-linecap="round" stroke-miterlimit="10" x1="208.303" y1="123.426" x2="218.253" y2="124.705"/>
		
			<polyline clip-path="url(#SVGID_4_)" fill="none" stroke="#70A71B" stroke-width="2" stroke-linecap="round" stroke-miterlimit="10" points="
			212.975,130.343 212.975,138.76 214.055,139.593 		"/>
		
			<polyline clip-path="url(#SVGID_4_)" fill="none" stroke="#70A71B" stroke-width="2" stroke-linecap="round" stroke-miterlimit="10" points="
			209.676,132.01 209.676,140.426 210.756,141.26 		"/>
		<path clip-path="url(#SVGID_4_)" fill="#35846F" d="M361.165,210.965c0,1.5,1.216,2.716,2.716,2.716s2.716-1.216,2.716-2.716
			s-1.216-2.717-2.716-2.717S361.165,209.465,361.165,210.965"/>
		<path clip-path="url(#SVGID_4_)" fill="#35846F" d="M360.099,227.744l6.953-2.878v-9.006c0-1.303-1.323-2.186-2.527-1.688
			l-3.297,1.364c-0.684,0.282-1.129,0.949-1.129,1.689V227.744z"/>
		
			<path clip-path="url(#SVGID_4_)" fill="none" stroke="#35846F" stroke-width="2" stroke-linecap="round" stroke-miterlimit="10" d="
			M370.81,221.8c0,0-2.858-4.731-5.849-6.644"/>
		
			<line clip-path="url(#SVGID_4_)" fill="none" stroke="#35846F" stroke-width="2" stroke-linecap="round" stroke-miterlimit="10" x1="360.859" y1="217.244" x2="355.809" y2="218.84"/>
		
			<polyline clip-path="url(#SVGID_4_)" fill="none" stroke="#35846F" stroke-width="2" stroke-linecap="round" stroke-miterlimit="10" points="
			365.531,224.161 365.531,232.578 363.881,231.828 		"/>
		
			<polyline clip-path="url(#SVGID_4_)" fill="none" stroke="#35846F" stroke-width="2" stroke-linecap="round" stroke-miterlimit="10" points="
			362.231,225.828 362.231,234.244 360.582,233.494 		"/>
		<path clip-path="url(#SVGID_4_)" fill="#FF5936" d="M450.621,74.279c0,1.5-1.216,2.717-2.716,2.717s-2.717-1.217-2.717-2.717
			s1.217-2.716,2.717-2.716S450.621,72.779,450.621,74.279"/>
		<path clip-path="url(#SVGID_4_)" fill="#FF5936" d="M450.621,90.708l-6.954-2.877v-9.006c0-1.303,1.324-2.187,2.528-1.689
			l3.297,1.364c0.683,0.283,1.129,0.95,1.129,1.689V90.708z"/>
		
			<path clip-path="url(#SVGID_4_)" fill="none" stroke="#FF5936" stroke-width="2" stroke-linecap="round" stroke-miterlimit="10" d="
			M439.927,79.414c0,0,2.082-1.678,5.832-1.292"/>
		
			<line clip-path="url(#SVGID_4_)" fill="none" stroke="#FF5936" stroke-width="2" stroke-linecap="round" stroke-miterlimit="10" x1="449.86" y1="80.209" x2="454.321" y2="85.042"/>
		
			<polyline clip-path="url(#SVGID_4_)" fill="none" stroke="#FF5936" stroke-width="2" stroke-linecap="round" stroke-miterlimit="10" points="
			445.188,87.126 449.464,95.542 447.513,96.459 		"/>
		
			<polyline clip-path="url(#SVGID_4_)" fill="none" stroke="#FF5936" stroke-width="2" stroke-linecap="round" stroke-miterlimit="10" points="
			448.488,88.792 443.238,95.542 441.287,95 		"/>
		<path clip-path="url(#SVGID_4_)" fill="#5380E3" d="M45.034,181.471c0,1.5,1.216,2.716,2.716,2.716s2.716-1.216,2.716-2.716
			c0-1.501-1.216-2.717-2.716-2.717S45.034,179.97,45.034,181.471"/>
		<path clip-path="url(#SVGID_4_)" fill="#5380E3" d="M45.034,197.901l6.954-2.878v-9.006c0-1.303-1.324-2.187-2.528-1.689
			l-3.297,1.364c-0.684,0.283-1.129,0.95-1.129,1.689V197.901z"/>
		
			<path clip-path="url(#SVGID_4_)" fill="none" stroke="#5380E3" stroke-width="2" stroke-linecap="round" stroke-miterlimit="10" d="
			M54.927,189.163c0,0-2.041-1.937-5.031-3.85"/>
		
			<line clip-path="url(#SVGID_4_)" fill="none" stroke="#5380E3" stroke-width="2" stroke-linecap="round" stroke-miterlimit="10" x1="45.794" y1="187.401" x2="43.147" y2="193.901"/>
		
			<polyline clip-path="url(#SVGID_4_)" fill="none" stroke="#5380E3" stroke-width="2" stroke-linecap="round" stroke-miterlimit="10" points="
			50.466,194.318 50.466,202.734 52.417,203.651 		"/>
		
			<polyline clip-path="url(#SVGID_4_)" fill="none" stroke="#5380E3" stroke-width="2" stroke-linecap="round" stroke-miterlimit="10" points="
			47.167,195.984 47.167,204.401 49.118,205.318 		"/>
		<path clip-path="url(#SVGID_4_)" fill="#231815" d="M212.521,224.92l-21.427-3.498v-2.39l21.427,3.498
			c1.357,0.222,2.46-0.702,2.46-2.058c0-1.357-1.103-2.641-2.46-2.863l-7.806-1.274c-2.674-0.436-4.85-2.967-4.85-5.641
			c0-2.674,2.176-4.495,4.85-4.058l56.473,9.219v2.389l-56.473-9.219c-1.357-0.221-2.461,0.703-2.461,2.059
			c0,1.357,1.104,2.641,2.461,2.862l7.806,1.274c2.674,0.436,4.85,2.968,4.85,5.642C217.371,223.537,215.195,225.357,212.521,224.92
			"/>
		<path clip-path="url(#SVGID_4_)" fill="#D7000F" d="M234.904,223.676c-9.654-1.576-17.509-10.713-17.509-20.367
			c0-9.655,7.855-16.228,17.509-14.652c9.655,1.577,17.509,10.713,17.509,20.369C252.413,218.68,244.559,225.252,234.904,223.676
			 M234.904,191.047c-8.337-1.361-15.12,4.314-15.12,12.651c0,8.338,6.783,16.228,15.12,17.588
			c8.337,1.362,15.12-4.314,15.12-12.651S243.241,192.408,234.904,191.047"/>
		<path clip-path="url(#SVGID_4_)" fill="#231815" d="M242.647,243.304c0,0.674-0.548,1.133-1.222,1.021
			c-0.674-0.109-1.222-0.747-1.222-1.42V238.3l-1.362-0.223v4.606c0,1.424,1.159,2.772,2.584,3.005
			c1.424,0.232,2.583-0.738,2.583-2.162v-4.604l-1.361-0.221V243.304z"/>
		<path clip-path="url(#SVGID_4_)" fill="#231815" d="M218.329,247.23l-2.486-0.406v7.073l2.635,0.43
			c1.325,0.216,2.402-0.577,2.402-1.769c0-0.646-0.315-1.298-0.868-1.802c0.335-0.303,0.518-0.721,0.518-1.188
			C220.53,248.477,219.542,247.427,218.329,247.23 M217.22,251.024l1.258,0.205c0.574,0.094,1.04,0.59,1.04,1.106
			c0,0.516-0.466,0.859-1.04,0.767l-1.258-0.206V251.024z M218.329,249.965l-1.109-0.181v-1.511l1.109,0.181
			c0.463,0.074,0.839,0.476,0.839,0.893C219.167,249.763,218.792,250.041,218.329,249.965"/>
		<polygon clip-path="url(#SVGID_4_)" fill="#231815" points="200.078,244.25 200.078,251.323 201.454,251.547 201.454,248.5 
			203.729,248.872 203.729,251.919 205.105,252.144 205.105,245.071 203.729,244.846 203.729,247.626 201.454,247.255 
			201.454,244.475 		"/>
		<path clip-path="url(#SVGID_4_)" fill="#231815" d="M211.647,246.139v4.651c0,0.646-0.526,1.087-1.173,0.981
			c-0.646-0.105-1.173-0.718-1.173-1.364v-4.651l-1.363-0.222v4.65c0,1.398,1.137,2.722,2.536,2.95s2.537-0.724,2.537-2.122v-4.651
			L211.647,246.139z"/>
		<polygon clip-path="url(#SVGID_4_)" fill="#231815" points="230.835,238.016 232.851,238.345 232.851,244.173 234.227,244.398 
			234.227,238.57 236.244,238.9 236.244,237.654 230.835,236.771 		"/>
		<polygon clip-path="url(#SVGID_4_)" fill="#231815" points="207.704,234.241 209.72,234.57 209.72,240.396 211.096,240.622 
			211.096,234.794 213.113,235.124 213.113,233.878 207.704,232.995 		"/>
		<path clip-path="url(#SVGID_4_)" fill="#231815" d="M250.244,239.939l-2.93-0.475v7.07l1.377,0.225v-2.671l1.553,0.253
			c1.214,0.198,2.201-0.628,2.201-1.84C252.445,241.286,251.458,240.137,250.244,239.939 M251.083,242.277
			c0,0.463-0.376,0.778-0.839,0.703l-1.553-0.254v-1.678l1.553,0.253C250.707,241.377,251.083,241.814,251.083,242.277"/>
		<path clip-path="url(#SVGID_4_)" fill="#231815" d="M216.792,239.965l2.222,0.362l0.521,1.673l1.389,0.226l-2.307-7.385
			l-0.021-0.068l-1.387-0.226l-2.33,6.692l1.388,0.227L216.792,239.965z M217.173,238.865l0.729-2.095l0.729,2.333L217.173,238.865z
			"/>
		<path clip-path="url(#SVGID_4_)" fill="#231815" d="M202.747,235.033c-0.645-0.206-1.061-0.52-1.173-0.882
			c-0.083-0.269,0.019-0.55,0.26-0.714c0.565-0.386,1.681-0.09,2.595,0.691l0.07,0.059l0.765-0.881l-0.03-0.024
			c-1.445-1.233-3.257-1.608-4.308-0.893c-0.613,0.418-0.862,1.165-0.635,1.902c0.261,0.846,1.074,1.542,2.23,1.911
			c1.798,0.576,1.701,1.159,1.649,1.474c-0.025,0.148-0.235,0.399-0.712,0.484c-0.386,0.067-1.425,0.095-2.733-1.145l-0.069-0.064
			l-0.816,0.839l0.014,0.014c0.931,0.88,1.911,1.411,2.911,1.574c0.511,0.083,0.913,0.049,1.16,0.005
			c0.858-0.153,1.459-0.655,1.569-1.312C205.649,237.136,205.3,235.849,202.747,235.033"/>
		<path clip-path="url(#SVGID_4_)" fill="#231815" d="M210.314,258.303c-1.424-0.232-2.583,0.737-2.583,2.161v2.138
			c0,1.424,1.159,2.772,2.583,3.005c1.425,0.232,2.583-0.737,2.583-2.161v-2.138C212.897,259.884,211.74,258.537,210.314,258.303
			 M211.537,263.223c0,0.674-0.548,1.133-1.222,1.022c-0.674-0.109-1.222-0.747-1.222-1.421v-2.138c0-0.674,0.548-1.133,1.222-1.022
			c0.674,0.109,1.222,0.748,1.222,1.422v1.417V263.223z"/>
		<path clip-path="url(#SVGID_4_)" fill="#231815" d="M233.529,262.093c-1.424-0.232-2.583,0.737-2.583,2.161v2.138
			c0,1.424,1.159,2.772,2.583,3.005c1.425,0.232,2.583-0.737,2.583-2.162v-2.137C236.112,263.673,234.954,262.326,233.529,262.093
			 M234.751,267.013c0,0.674-0.548,1.133-1.222,1.022c-0.674-0.11-1.222-0.748-1.222-1.422v-2.137c0-0.674,0.548-1.133,1.222-1.023
			c0.674,0.11,1.222,0.747,1.222,1.422v1.418V267.013z"/>
		<polygon clip-path="url(#SVGID_4_)" fill="#231815" points="225.976,263.434 224.537,260.741 223.13,260.511 225.288,264.594 
			225.288,267.936 226.664,268.161 226.664,264.817 228.822,261.44 227.416,261.21 		"/>
		<polygon clip-path="url(#SVGID_4_)" fill="#231815" points="199.94,257.97 201.955,258.299 201.955,264.126 203.332,264.352 
			203.332,258.524 205.348,258.853 205.348,257.608 199.94,256.725 		"/>
		<path clip-path="url(#SVGID_4_)" fill="#231815" d="M228.791,243.51l-1.709-3.05c0.924-0.13,1.558-0.872,1.558-1.848
			c0-1.213-0.987-2.361-2.2-2.559l-2.929-0.476v7.07l1.376,0.225v-2.672l0.734,0.12l1.654,2.941L228.791,243.51z M224.886,237.162
			l1.553,0.253c0.462,0.076,0.839,0.514,0.839,0.976c0,0.463-0.377,0.779-0.839,0.703l-1.553-0.253V237.162z"/>
		<polygon clip-path="url(#SVGID_4_)" fill="#231815" points="221.117,267.255 218.458,262.81 221.122,260.183 219.479,259.915 
			217.215,262.115 217.215,259.545 215.839,259.321 215.839,266.393 217.215,266.618 217.215,264.035 217.513,263.741 
			219.514,266.994 		"/>
		<path clip-path="url(#SVGID_4_)" fill="#FFFFFF" d="M54.908,274.723c-0.058,8.891-6.092,13.777-13.479,10.914
			c-7.387-2.863-13.329-12.392-13.271-21.282s6.092-13.776,13.479-10.913C49.024,256.305,54.966,265.833,54.908,274.723"/>
		<path clip-path="url(#SVGID_4_)" fill="#FFFFFF" d="M65.878,266.065c-0.058,8.891-6.093,13.776-13.48,10.913
			c-7.387-2.863-13.328-12.392-13.271-21.282c0.058-8.89,6.093-13.777,13.48-10.913C59.995,247.646,65.937,257.174,65.878,266.065"
			/>
		<path clip-path="url(#SVGID_4_)" fill="#FFFFFF" d="M81.706,277.745c-0.058,8.891-6.093,13.777-13.479,10.914
			c-7.388-2.863-13.329-12.393-13.272-21.282c0.058-8.891,6.093-13.777,13.48-10.913C75.822,259.327,81.764,268.854,81.706,277.745"
			/>
		<path clip-path="url(#SVGID_4_)" fill="#FFFFFF" d="M72.682,281.499c-0.058,8.891-6.093,13.776-13.48,10.913
			c-7.387-2.862-13.328-12.391-13.271-21.281c0.058-8.891,6.093-13.777,13.48-10.914C66.798,263.08,72.74,272.608,72.682,281.499"/>
		<path clip-path="url(#SVGID_4_)" fill="#FFFFFF" d="M93.211,291.638c-0.05,7.688-5.269,11.913-11.656,9.438
			c-6.388-2.476-11.526-10.715-11.476-18.403c0.05-7.688,5.269-11.913,11.656-9.438C88.123,275.711,93.261,283.951,93.211,291.638"
			/>
		<polygon clip-path="url(#SVGID_4_)" fill="#FFFFFF" points="39.837,284.907 80.008,300.476 76.435,285.54 54.931,271.227 
			39.036,269.914 		"/>
		<path clip-path="url(#SVGID_4_)" fill="#FFFFFF" d="M187.953,308.311v78.979c8.451,3.998,19.017,7.182,30.936,9.283v-78.98
			C206.97,315.493,196.404,312.309,187.953,308.311"/>
		<path clip-path="url(#SVGID_4_)" fill="#FFFFFF" d="M257.757,320.378c-12.79,0.3-25.056-0.563-36.23-2.354v78.979
			c11.174,1.791,23.44,2.655,36.23,2.354c0.126-0.002,0.25-0.008,0.376-0.012v-78.979
			C258.007,320.369,257.883,320.375,257.757,320.378"/>
		<polygon clip-path="url(#SVGID_4_)" fill="#98B3EE" points="216.054,365.75 213.554,365.135 213.554,354.385 216.054,355 		"/>
		<polygon clip-path="url(#SVGID_4_)" fill="#98B3EE" points="224.362,366.467 226.862,366.981 226.862,356.231 224.362,355.717 		
			"/>
		<path clip-path="url(#SVGID_4_)" fill="#E3E5E5" d="M457.001,51.404c0-12.936-12.569-27.036-28.074-31.496
			c-15.505-4.461-28.073,2.409-28.073,15.345c0,12.789,12.289,26.712,27.553,31.335l4.292,6.018l-0.571-5.096
			C446.686,70.832,457.001,63.77,457.001,51.404"/>
		<polygon clip-path="url(#SVGID_4_)" fill="#96B1EE" points="443.339,62.08 414.515,50.268 414.515,27.064 443.339,38.876 		"/>
	</g>
	<g clip-path="url(#SVGID_2_)">
		<defs>
			<polygon id="SVGID_39_" points="414.515,50.268 443.338,62.08 443.338,38.876 414.515,27.065 			"/>
		</defs>
		<clipPath id="SVGID_40_">
			<use xlink:href="#SVGID_39_"  overflow="visible"/>
		</clipPath>
		<path clip-path="url(#SVGID_40_)" fill="none" stroke="#FFFFFF" stroke-miterlimit="10" d="M413.732,43.331
			c0.782,0.7,1.3,1.241,1.3,1.241l2.601-2.241l2.502,1.801l0.8-1.801l1.501,4.902l3.501-8.604l1.102,5.943l1.889-5.543l2.113,8.204
			l1.5-2.661l1.201,2.661l2.001-1.001l1.399,4.203l3.002-5.863v5.863l3.901-5.903"/>
	</g>
	<g clip-path="url(#SVGID_2_)">
		<defs>
			<rect id="SVGID_41_" width="530.157" height="483.097"/>
		</defs>
		<clipPath id="SVGID_42_">
			<use xlink:href="#SVGID_41_"  overflow="visible"/>
		</clipPath>
		<path clip-path="url(#SVGID_42_)" fill="#E3E5E5" d="M153.697,32.856c0-12.935-12.569-27.036-28.074-31.496
			C110.118-3.1,97.55,3.77,97.55,16.705c0,12.789,12.289,26.712,27.553,31.335l4.292,6.019l-0.572-5.097
			C143.382,52.284,153.697,45.222,153.697,32.856"/>
		<polygon clip-path="url(#SVGID_42_)" fill="#ABABB3" points="135.142,41.681 116.104,34.218 116.104,8.517 135.142,15.981 		"/>
		<polygon clip-path="url(#SVGID_42_)" fill="#FFFFFF" points="122.257,17.417 118.933,16.112 118.933,12.788 122.257,14.091 		"/>
		<polygon clip-path="url(#SVGID_42_)" fill="#FFFFFF" points="127.286,19.387 123.961,18.083 123.961,14.759 127.286,16.062 		"/>
		<polygon clip-path="url(#SVGID_42_)" fill="#FFFFFF" points="132.314,21.359 128.989,20.055 128.989,16.73 132.314,18.034 		"/>
		<polygon clip-path="url(#SVGID_42_)" fill="#FFFFFF" points="122.257,22.505 118.933,21.203 118.933,17.877 122.257,19.181 		"/>
		<polygon clip-path="url(#SVGID_42_)" fill="#FFFFFF" points="127.286,24.477 123.961,23.173 123.961,19.848 127.286,21.152 		"/>
		<polygon clip-path="url(#SVGID_42_)" fill="#FFFFFF" points="132.314,26.449 128.989,25.145 128.989,21.82 132.314,23.124 		"/>
		<polygon clip-path="url(#SVGID_42_)" fill="#FFFFFF" points="122.257,27.595 118.933,26.292 118.933,22.967 122.257,24.271 		"/>
		<polygon clip-path="url(#SVGID_42_)" fill="#FFFFFF" points="127.286,29.567 123.961,28.263 123.961,24.938 127.286,26.242 		"/>
		<polygon clip-path="url(#SVGID_42_)" fill="#FFFFFF" points="132.314,31.539 128.989,30.234 128.989,26.91 132.314,28.213 		"/>
		<path clip-path="url(#SVGID_42_)" fill="#E3E5E5" d="M58.441,153.717c0-12.936-12.569-27.036-28.074-31.496
			c-15.505-4.461-28.073,2.409-28.073,15.345c0,12.789,12.289,26.712,27.553,31.335l4.292,6.018l-0.572-5.096
			C48.126,173.145,58.441,166.083,58.441,153.717"/>
		<path clip-path="url(#SVGID_42_)" fill="#E3E5E5" d="M403.906,192.086c0-12.935-12.569-27.036-28.074-31.496
			S347.76,163,347.76,175.936c0,12.789,12.288,26.713,27.553,31.336l-1.143,4.72l4.862-3.799
			C393.592,211.514,403.906,204.453,403.906,192.086"/>
		<polygon clip-path="url(#SVGID_42_)" fill="#FFFFFF" points="387.062,200.569 364.784,191.752 364.784,169.474 387.062,178.292 		
			"/>
		<polygon clip-path="url(#SVGID_42_)" fill="#ABABB3" points="382.803,183.425 369.043,177.98 369.043,176.099 382.803,181.545 		
			"/>
		<polygon clip-path="url(#SVGID_42_)" fill="#ABABB3" points="382.803,187.217 369.043,181.771 369.043,179.891 382.803,185.337 		
			"/>
		<polygon clip-path="url(#SVGID_42_)" fill="#ABABB3" points="382.803,190.98 369.043,185.534 369.043,183.654 382.803,189.099 		
			"/>
		<polygon clip-path="url(#SVGID_42_)" fill="#80808B" points="375.816,194.212 377.015,190.646 379.857,191.771 379.857,194.612 		
			"/>
		<polygon clip-path="url(#SVGID_42_)" fill="#A9CA76" points="379.857,194.613 377.015,190.646 388.588,183.654 391.43,187.621 		
			"/>
		<path clip-path="url(#SVGID_42_)" fill="#FF9B86" d="M35.554,138.47c0,3.347-2.713,5.008-6.06,3.71
			c-3.346-1.298-6.059-5.063-6.059-8.409c0-3.347,2.713-5.008,6.059-3.71C32.841,131.359,35.554,135.123,35.554,138.47"/>
		<path clip-path="url(#SVGID_42_)" fill="#FF9B86" d="M29.494,143.055c-4.833-1.874-8.751,0.524-8.751,5.358v5.788l17.502,6.788
			v-5.788C38.245,150.367,34.327,144.93,29.494,143.055"/>
		
			<rect x="376.251" y="92.854" transform="matrix(-0.7071 0.7071 -0.7071 -0.7071 716.6539 -103.9489)" clip-path="url(#SVGID_42_)" fill="#FFB400" width="7.211" height="7.212"/>
		
			<rect x="413.62" y="233.203" transform="matrix(-0.7071 0.7071 -0.7071 -0.7071 879.6912 109.2115)" clip-path="url(#SVGID_42_)" fill="#FFB400" width="7.211" height="7.211"/>
		
			<rect x="361.312" y="101.076" transform="matrix(-0.7071 0.7071 -0.7071 -0.7071 693.7336 -80.6752)" clip-path="url(#SVGID_42_)" fill="#FFB400" width="4.527" height="4.527"/>
		
			<rect x="455.161" y="201.811" transform="matrix(-0.707 0.7072 -0.7072 -0.707 924.1347 24.4618)" clip-path="url(#SVGID_42_)" fill="#FFB400" width="3.68" height="3.679"/>
		
			<rect x="120.418" y="252.999" transform="matrix(-0.7072 0.707 -0.707 -0.7072 388.8954 348.6124)" clip-path="url(#SVGID_42_)" fill="#FFB400" width="3.68" height="3.679"/>
		
			<rect x="64.315" y="74.963" transform="matrix(-0.7071 0.7071 -0.7071 -0.7071 173.5458 86.9421)" clip-path="url(#SVGID_42_)" fill="#FFB400" width="8.902" height="8.902"/>
		
			<rect x="196.712" y="88.638" transform="matrix(-0.7072 0.707 -0.707 -0.7072 404.8782 14.8884)" clip-path="url(#SVGID_42_)" fill="#FFB400" width="5.287" height="5.287"/>
		
			<rect x="110.248" y="237.692" transform="matrix(-0.7071 0.7071 -0.7071 -0.7071 364.9831 331.4138)" clip-path="url(#SVGID_42_)" fill="#FFB400" width="7.211" height="7.211"/>
		<polygon clip-path="url(#SVGID_42_)" fill="#D1E1CC" points="264.807,75.388 229.605,60.822 247.206,49.945 282.407,64.511 		"/>
		<polygon clip-path="url(#SVGID_42_)" fill="#C1D4BC" points="264.807,143.224 229.605,128.658 229.605,60.822 264.807,75.388 		
			"/>
		<polygon clip-path="url(#SVGID_42_)" fill="#FFFFFF" points="234.335,74.298 233.104,73.788 233.104,70.517 234.335,71.027 		"/>
		<polygon clip-path="url(#SVGID_42_)" fill="#FFFFFF" points="234.335,78.975 233.104,78.465 233.104,75.194 234.335,75.704 		"/>
		<polygon clip-path="url(#SVGID_42_)" fill="#FFFFFF" points="234.335,83.652 233.104,83.142 233.104,79.87 234.335,80.38 		"/>
		<polygon clip-path="url(#SVGID_42_)" fill="#FFFFFF" points="234.335,88.329 233.104,87.819 233.104,84.546 234.335,85.057 		"/>
		<polygon clip-path="url(#SVGID_42_)" fill="#FFFFFF" points="234.335,93.004 233.104,92.495 233.104,89.223 234.335,89.733 		"/>
		<polygon clip-path="url(#SVGID_42_)" fill="#FFFFFF" points="234.335,97.681 233.104,97.171 233.104,93.9 234.335,94.41 		"/>
		<polygon clip-path="url(#SVGID_42_)" fill="#FFFFFF" points="234.335,102.358 233.104,101.848 233.104,98.577 234.335,99.087 		
			"/>
		<polygon clip-path="url(#SVGID_42_)" fill="#FFFFFF" points="234.335,107.035 233.104,106.525 233.104,103.252 234.335,103.763 		
			"/>
		<polygon clip-path="url(#SVGID_42_)" fill="#FFFFFF" points="234.335,111.711 233.104,111.201 233.104,107.929 234.335,108.439 		
			"/>
		<polygon clip-path="url(#SVGID_42_)" fill="#FFFFFF" points="236.462,75.173 235.231,74.663 235.231,71.392 236.462,71.902 		"/>
		<polygon clip-path="url(#SVGID_42_)" fill="#FFFFFF" points="236.462,79.85 235.231,79.34 235.231,76.069 236.462,76.579 		"/>
		<polygon clip-path="url(#SVGID_42_)" fill="#FFFFFF" points="236.462,84.527 235.231,84.017 235.231,80.746 236.462,81.256 		"/>
		<polygon clip-path="url(#SVGID_42_)" fill="#FFFFFF" points="236.462,89.204 235.231,88.694 235.231,85.421 236.462,85.932 		"/>
		<polygon clip-path="url(#SVGID_42_)" fill="#FFFFFF" points="236.462,93.88 235.231,93.371 235.231,90.098 236.462,90.608 		"/>
		<polygon clip-path="url(#SVGID_42_)" fill="#FFFFFF" points="236.462,98.556 235.231,98.047 235.231,94.775 236.462,95.285 		"/>
		<polygon clip-path="url(#SVGID_42_)" fill="#FFFFFF" points="236.462,103.233 235.231,102.723 235.231,99.452 236.462,99.962 		
			"/>
		<polygon clip-path="url(#SVGID_42_)" fill="#FFFFFF" points="236.462,107.91 235.231,107.4 235.231,104.129 236.462,104.639 		"/>
		<polygon clip-path="url(#SVGID_42_)" fill="#FFFFFF" points="236.462,112.586 235.231,112.076 235.231,108.805 236.462,109.315 		
			"/>
		<polygon clip-path="url(#SVGID_42_)" fill="#FFFFFF" points="238.588,76.059 237.357,75.549 237.357,72.277 238.588,72.787 		"/>
		<polygon clip-path="url(#SVGID_42_)" fill="#FFFFFF" points="238.588,80.736 237.357,80.226 237.357,76.954 238.588,77.464 		"/>
		<polygon clip-path="url(#SVGID_42_)" fill="#FFFFFF" points="238.588,85.412 237.357,84.901 237.357,81.63 238.588,82.141 		"/>
		<polygon clip-path="url(#SVGID_42_)" fill="#FFFFFF" points="238.588,90.088 237.357,89.579 237.357,86.308 238.588,86.817 		"/>
		<polygon clip-path="url(#SVGID_42_)" fill="#FFFFFF" points="238.588,94.765 237.357,94.255 237.357,90.984 238.588,91.494 		"/>
		<polygon clip-path="url(#SVGID_42_)" fill="#FFFFFF" points="238.588,99.442 237.357,98.932 237.357,95.661 238.588,96.171 		"/>
		<polygon clip-path="url(#SVGID_42_)" fill="#FFFFFF" points="238.588,104.119 237.357,103.609 237.357,100.337 238.588,100.847 		
			"/>
		<polygon clip-path="url(#SVGID_42_)" fill="#FFFFFF" points="238.588,108.795 237.357,108.286 237.357,105.013 238.588,105.523 		
			"/>
		<polygon clip-path="url(#SVGID_42_)" fill="#FFFFFF" points="238.588,113.471 237.357,112.961 237.357,109.69 238.588,110.2 		"/>
		<polygon clip-path="url(#SVGID_42_)" fill="#FFFFFF" points="240.715,76.939 239.484,76.429 239.484,73.158 240.715,73.668 		"/>
		<polygon clip-path="url(#SVGID_42_)" fill="#FFFFFF" points="240.715,81.616 239.484,81.105 239.484,77.834 240.715,78.345 		"/>
		<polygon clip-path="url(#SVGID_42_)" fill="#FFFFFF" points="240.715,86.292 239.484,85.783 239.484,82.512 240.715,83.021 		"/>
		<polygon clip-path="url(#SVGID_42_)" fill="#FFFFFF" points="240.715,90.969 239.484,90.459 239.484,87.187 240.715,87.697 		"/>
		<polygon clip-path="url(#SVGID_42_)" fill="#FFFFFF" points="240.715,95.646 239.484,95.136 239.484,91.864 240.715,92.374 		"/>
		<polygon clip-path="url(#SVGID_42_)" fill="#FFFFFF" points="240.715,100.322 239.484,99.812 239.484,96.541 240.715,97.051 		"/>
		<polygon clip-path="url(#SVGID_42_)" fill="#FFFFFF" points="240.715,104.999 239.484,104.488 239.484,101.217 240.715,101.728 		
			"/>
		<polygon clip-path="url(#SVGID_42_)" fill="#FFFFFF" points="240.715,109.675 239.484,109.166 239.484,105.894 240.715,106.404 		
			"/>
		<polygon clip-path="url(#SVGID_42_)" fill="#FFFFFF" points="240.715,114.352 239.484,113.842 239.484,110.57 240.715,111.08 		
			"/>
		<polygon clip-path="url(#SVGID_42_)" fill="#FFFFFF" points="242.841,77.82 241.61,77.31 241.61,74.038 242.841,74.548 		"/>
		<polygon clip-path="url(#SVGID_42_)" fill="#FFFFFF" points="242.841,82.496 241.61,81.986 241.61,78.714 242.841,79.225 		"/>
		<polygon clip-path="url(#SVGID_42_)" fill="#FFFFFF" points="242.841,87.172 241.61,86.663 241.61,83.392 242.841,83.901 		"/>
		<polygon clip-path="url(#SVGID_42_)" fill="#FFFFFF" points="242.841,91.849 241.61,91.339 241.61,88.068 242.841,88.578 		"/>
		<polygon clip-path="url(#SVGID_42_)" fill="#FFFFFF" points="242.841,96.526 241.61,96.016 241.61,92.745 242.841,93.255 		"/>
		<polygon clip-path="url(#SVGID_42_)" fill="#FFFFFF" points="242.841,101.203 241.61,100.692 241.61,97.42 242.841,97.931 		"/>
		<polygon clip-path="url(#SVGID_42_)" fill="#FFFFFF" points="242.841,105.879 241.61,105.37 241.61,102.097 242.841,102.607 		"/>
		<polygon clip-path="url(#SVGID_42_)" fill="#FFFFFF" points="242.841,110.555 241.61,110.045 241.61,106.774 242.841,107.284 		
			"/>
		<polygon clip-path="url(#SVGID_42_)" fill="#FFFFFF" points="242.841,115.232 241.61,114.722 241.61,111.451 242.841,111.961 		
			"/>
		<polygon clip-path="url(#SVGID_42_)" fill="#FFFFFF" points="244.968,78.705 243.737,78.195 243.737,74.923 244.968,75.434 		"/>
		<polygon clip-path="url(#SVGID_42_)" fill="#FFFFFF" points="244.968,83.381 243.737,82.871 243.737,79.6 244.968,80.11 		"/>
		<polygon clip-path="url(#SVGID_42_)" fill="#FFFFFF" points="244.968,88.058 243.737,87.548 243.737,84.276 244.968,84.786 		"/>
		<polygon clip-path="url(#SVGID_42_)" fill="#FFFFFF" points="244.968,92.735 243.737,92.225 243.737,88.953 244.968,89.463 		"/>
		<polygon clip-path="url(#SVGID_42_)" fill="#FFFFFF" points="244.968,97.411 243.737,96.9 243.737,93.629 244.968,94.14 		"/>
		<polygon clip-path="url(#SVGID_42_)" fill="#FFFFFF" points="244.968,102.087 243.737,101.578 243.737,98.306 244.968,98.816 		
			"/>
		<polygon clip-path="url(#SVGID_42_)" fill="#FFFFFF" points="244.968,106.764 243.737,106.254 243.737,102.983 244.968,103.493 		
			"/>
		<polygon clip-path="url(#SVGID_42_)" fill="#FFFFFF" points="244.968,111.441 243.737,110.931 243.737,107.659 244.968,108.169 		
			"/>
		<polygon clip-path="url(#SVGID_42_)" fill="#FFFFFF" points="244.968,116.118 243.737,115.608 243.737,112.335 244.968,112.846 		
			"/>
		<polygon clip-path="url(#SVGID_42_)" fill="#FFFFFF" points="247.094,79.58 245.863,79.07 245.863,75.798 247.094,76.309 		"/>
		<polygon clip-path="url(#SVGID_42_)" fill="#FFFFFF" points="247.094,84.256 245.863,83.746 245.863,80.475 247.094,80.985 		"/>
		<polygon clip-path="url(#SVGID_42_)" fill="#FFFFFF" points="247.094,88.933 245.863,88.423 245.863,85.152 247.094,85.662 		"/>
		<polygon clip-path="url(#SVGID_42_)" fill="#FFFFFF" points="247.094,93.61 245.863,93.1 245.863,89.829 247.094,90.338 		"/>
		<polygon clip-path="url(#SVGID_42_)" fill="#FFFFFF" points="247.094,98.287 245.863,97.776 245.863,94.504 247.094,95.015 		"/>
		<polygon clip-path="url(#SVGID_42_)" fill="#FFFFFF" points="247.094,102.962 245.863,102.454 245.863,99.181 247.094,99.691 		
			"/>
		<polygon clip-path="url(#SVGID_42_)" fill="#FFFFFF" points="247.094,107.639 245.863,107.129 245.863,103.858 247.094,104.368 		
			"/>
		<polygon clip-path="url(#SVGID_42_)" fill="#FFFFFF" points="247.094,112.316 245.863,111.806 245.863,108.535 247.094,109.045 		
			"/>
		<polygon clip-path="url(#SVGID_42_)" fill="#FFFFFF" points="247.094,116.993 245.863,116.483 245.863,113.212 247.094,113.722 		
			"/>
		<polygon clip-path="url(#SVGID_42_)" fill="#FFFFFF" points="249.221,80.456 247.99,79.946 247.99,76.673 249.221,77.184 		"/>
		<polygon clip-path="url(#SVGID_42_)" fill="#FFFFFF" points="249.221,85.132 247.99,84.622 247.99,81.35 249.221,81.86 		"/>
		<polygon clip-path="url(#SVGID_42_)" fill="#FFFFFF" points="249.221,89.808 247.99,89.298 247.99,86.027 249.221,86.537 		"/>
		<polygon clip-path="url(#SVGID_42_)" fill="#FFFFFF" points="249.221,94.485 247.99,93.975 247.99,90.704 249.221,91.214 		"/>
		<polygon clip-path="url(#SVGID_42_)" fill="#FFFFFF" points="249.221,99.162 247.99,98.651 247.99,95.38 249.221,95.891 		"/>
		<polygon clip-path="url(#SVGID_42_)" fill="#FFFFFF" points="249.221,103.838 247.99,103.329 247.99,100.056 249.221,100.566 		
			"/>
		<polygon clip-path="url(#SVGID_42_)" fill="#FFFFFF" points="249.221,108.515 247.99,108.005 247.99,104.733 249.221,105.243 		
			"/>
		<polygon clip-path="url(#SVGID_42_)" fill="#FFFFFF" points="249.221,113.191 247.99,112.681 247.99,109.41 249.221,109.92 		"/>
		<polygon clip-path="url(#SVGID_42_)" fill="#FFFFFF" points="249.221,117.868 247.99,117.358 247.99,114.087 249.221,114.597 		
			"/>
		<polygon clip-path="url(#SVGID_42_)" fill="#FFFFFF" points="234.335,116.387 233.104,115.877 233.104,112.606 234.335,113.116 		
			"/>
		<polygon clip-path="url(#SVGID_42_)" fill="#FFFFFF" points="234.335,121.064 233.104,120.554 233.104,117.283 234.335,117.793 		
			"/>
		<polygon clip-path="url(#SVGID_42_)" fill="#FFFFFF" points="236.462,117.263 235.231,116.753 235.231,113.481 236.462,113.991 		
			"/>
		<polygon clip-path="url(#SVGID_42_)" fill="#FFFFFF" points="236.462,121.94 235.231,121.43 235.231,118.158 236.462,118.668 		
			"/>
		<polygon clip-path="url(#SVGID_42_)" fill="#FFFFFF" points="238.588,118.148 237.357,117.638 237.357,114.367 238.588,114.877 		
			"/>
		<polygon clip-path="url(#SVGID_42_)" fill="#FFFFFF" points="238.588,122.825 237.357,122.315 237.357,119.043 238.588,119.554 		
			"/>
		<polygon clip-path="url(#SVGID_42_)" fill="#FFFFFF" points="240.715,119.029 239.484,118.519 239.484,115.247 240.715,115.757 		
			"/>
		<polygon clip-path="url(#SVGID_42_)" fill="#FFFFFF" points="240.715,123.705 239.484,123.195 239.484,119.923 240.715,120.434 		
			"/>
		<polygon clip-path="url(#SVGID_42_)" fill="#FFFFFF" points="242.841,119.909 241.61,119.399 241.61,116.127 242.841,116.638 		
			"/>
		<polygon clip-path="url(#SVGID_42_)" fill="#FFFFFF" points="242.841,124.585 241.61,124.076 241.61,120.805 242.841,121.313 		
			"/>
		<polygon clip-path="url(#SVGID_42_)" fill="#FFFFFF" points="244.968,120.793 243.737,120.285 243.737,117.013 244.968,117.522 		
			"/>
		<polygon clip-path="url(#SVGID_42_)" fill="#FFFFFF" points="244.968,125.47 243.737,124.96 243.737,121.689 244.968,122.199 		
			"/>
		<polygon clip-path="url(#SVGID_42_)" fill="#FFFFFF" points="247.094,121.669 245.863,121.159 245.863,117.887 247.094,118.397 		
			"/>
		<polygon clip-path="url(#SVGID_42_)" fill="#FFFFFF" points="247.094,126.346 245.863,125.836 245.863,122.564 247.094,123.074 		
			"/>
		<polygon clip-path="url(#SVGID_42_)" fill="#FFFFFF" points="249.221,122.544 247.99,122.034 247.99,118.763 249.221,119.273 		
			"/>
		<polygon clip-path="url(#SVGID_42_)" fill="#FFFFFF" points="249.221,127.221 247.99,126.711 247.99,123.44 249.221,123.95 		"/>
		<polygon clip-path="url(#SVGID_42_)" fill="#FFFFFF" points="234.335,125.816 233.104,125.306 233.104,122.035 234.335,122.545 		
			"/>
		<polygon clip-path="url(#SVGID_42_)" fill="#FFFFFF" points="236.462,126.692 235.231,126.182 235.231,122.91 236.462,123.42 		
			"/>
		<polygon clip-path="url(#SVGID_42_)" fill="#FFFFFF" points="238.588,127.577 237.357,127.067 237.357,123.796 238.588,124.306 		
			"/>
		<polygon clip-path="url(#SVGID_42_)" fill="#FFFFFF" points="240.715,128.458 239.484,127.947 239.484,124.675 240.715,125.186 		
			"/>
		<polygon clip-path="url(#SVGID_42_)" fill="#FFFFFF" points="242.841,129.337 241.61,128.828 241.61,125.556 242.841,126.066 		
			"/>
		<polygon clip-path="url(#SVGID_42_)" fill="#FFFFFF" points="244.968,130.222 243.737,129.712 243.737,126.441 244.968,126.951 		
			"/>
		<polygon clip-path="url(#SVGID_42_)" fill="#FFFFFF" points="247.094,131.098 245.863,130.588 245.863,127.316 247.094,127.826 		
			"/>
		<polygon clip-path="url(#SVGID_42_)" fill="#FFFFFF" points="249.221,131.973 247.99,131.463 247.99,128.192 249.221,128.702 		
			"/>
		<polygon clip-path="url(#SVGID_42_)" fill="#FFFFFF" points="251.347,81.331 250.116,80.821 250.116,77.55 251.347,78.06 		"/>
		<polygon clip-path="url(#SVGID_42_)" fill="#FFFFFF" points="251.347,86.007 250.116,85.497 250.116,82.225 251.347,82.735 		"/>
		<polygon clip-path="url(#SVGID_42_)" fill="#FFFFFF" points="251.347,90.684 250.116,90.174 250.116,86.902 251.347,87.412 		"/>
		<polygon clip-path="url(#SVGID_42_)" fill="#FFFFFF" points="251.347,95.36 250.116,94.851 250.116,91.579 251.347,92.089 		"/>
		<polygon clip-path="url(#SVGID_42_)" fill="#FFFFFF" points="251.347,100.037 250.116,99.526 250.116,96.255 251.347,96.766 		"/>
		<polygon clip-path="url(#SVGID_42_)" fill="#FFFFFF" points="251.347,104.713 250.116,104.204 250.116,100.933 251.347,101.442 		
			"/>
		<polygon clip-path="url(#SVGID_42_)" fill="#FFFFFF" points="251.347,109.39 250.116,108.88 250.116,105.609 251.347,106.119 		
			"/>
		<polygon clip-path="url(#SVGID_42_)" fill="#FFFFFF" points="251.347,114.067 250.116,113.557 250.116,110.285 251.347,110.795 		
			"/>
		<polygon clip-path="url(#SVGID_42_)" fill="#FFFFFF" points="251.347,118.744 250.116,118.234 250.116,114.962 251.347,115.472 		
			"/>
		<polygon clip-path="url(#SVGID_42_)" fill="#FFFFFF" points="253.474,82.215 252.243,81.705 252.243,78.434 253.474,78.944 		"/>
		<polygon clip-path="url(#SVGID_42_)" fill="#FFFFFF" points="253.474,86.892 252.243,86.382 252.243,83.111 253.474,83.621 		"/>
		<polygon clip-path="url(#SVGID_42_)" fill="#FFFFFF" points="253.474,91.569 252.243,91.059 252.243,87.788 253.474,88.298 		"/>
		<polygon clip-path="url(#SVGID_42_)" fill="#FFFFFF" points="253.474,96.246 252.243,95.736 252.243,92.464 253.474,92.975 		"/>
		<polygon clip-path="url(#SVGID_42_)" fill="#FFFFFF" points="253.474,100.922 252.243,100.413 252.243,97.14 253.474,97.65 		"/>
		<polygon clip-path="url(#SVGID_42_)" fill="#FFFFFF" points="253.474,105.599 252.243,105.089 252.243,101.817 253.474,102.327 		
			"/>
		<polygon clip-path="url(#SVGID_42_)" fill="#FFFFFF" points="253.474,110.275 252.243,109.765 252.243,106.494 253.474,107.004 		
			"/>
		<polygon clip-path="url(#SVGID_42_)" fill="#FFFFFF" points="253.474,114.952 252.243,114.442 252.243,111.171 253.474,111.681 		
			"/>
		<polygon clip-path="url(#SVGID_42_)" fill="#FFFFFF" points="253.474,119.628 252.243,119.118 252.243,115.847 253.474,116.357 		
			"/>
		<polygon clip-path="url(#SVGID_42_)" fill="#FFFFFF" points="255.6,83.096 254.369,82.586 254.369,79.315 255.6,79.824 		"/>
		<polygon clip-path="url(#SVGID_42_)" fill="#FFFFFF" points="255.6,87.773 254.369,87.263 254.369,83.991 255.6,84.501 		"/>
		<polygon clip-path="url(#SVGID_42_)" fill="#FFFFFF" points="255.6,92.45 254.369,91.94 254.369,88.667 255.6,89.178 		"/>
		<polygon clip-path="url(#SVGID_42_)" fill="#FFFFFF" points="255.6,97.125 254.369,96.616 254.369,93.344 255.6,93.854 		"/>
		<polygon clip-path="url(#SVGID_42_)" fill="#FFFFFF" points="255.6,101.802 254.369,101.292 254.369,98.021 255.6,98.531 		"/>
		<polygon clip-path="url(#SVGID_42_)" fill="#FFFFFF" points="255.6,106.479 254.369,105.969 254.369,102.698 255.6,103.208 		"/>
		<polygon clip-path="url(#SVGID_42_)" fill="#FFFFFF" points="255.6,111.156 254.369,110.646 254.369,107.374 255.6,107.884 		"/>
		<polygon clip-path="url(#SVGID_42_)" fill="#FFFFFF" points="255.6,115.833 254.369,115.322 254.369,112.05 255.6,112.561 		"/>
		<polygon clip-path="url(#SVGID_42_)" fill="#FFFFFF" points="255.6,120.508 254.369,119.999 254.369,116.727 255.6,117.237 		"/>
		<polygon clip-path="url(#SVGID_42_)" fill="#FFFFFF" points="257.727,83.976 256.496,83.466 256.496,80.195 257.727,80.705 		"/>
		<polygon clip-path="url(#SVGID_42_)" fill="#FFFFFF" points="257.727,88.653 256.496,88.143 256.496,84.872 257.727,85.382 		"/>
		<polygon clip-path="url(#SVGID_42_)" fill="#FFFFFF" points="257.727,93.33 256.496,92.82 256.496,89.548 257.727,90.059 		"/>
		<polygon clip-path="url(#SVGID_42_)" fill="#FFFFFF" points="257.727,98.006 256.496,97.496 256.496,94.224 257.727,94.734 		"/>
		<polygon clip-path="url(#SVGID_42_)" fill="#FFFFFF" points="257.727,102.683 256.496,102.173 256.496,98.901 257.727,99.411 		
			"/>
		<polygon clip-path="url(#SVGID_42_)" fill="#FFFFFF" points="257.727,107.359 256.496,106.849 256.496,103.578 257.727,104.088 		
			"/>
		<polygon clip-path="url(#SVGID_42_)" fill="#FFFFFF" points="257.727,112.036 256.496,111.525 256.496,108.254 257.727,108.765 		
			"/>
		<polygon clip-path="url(#SVGID_42_)" fill="#FFFFFF" points="257.727,116.712 256.496,116.203 256.496,112.931 257.727,113.441 		
			"/>
		<polygon clip-path="url(#SVGID_42_)" fill="#FFFFFF" points="257.727,121.389 256.496,120.879 256.496,117.608 257.727,118.117 		
			"/>
		<polygon clip-path="url(#SVGID_42_)" fill="#FFFFFF" points="259.853,84.862 258.622,84.352 258.622,81.08 259.853,81.59 		"/>
		<polygon clip-path="url(#SVGID_42_)" fill="#FFFFFF" points="259.853,89.539 258.622,89.029 258.622,85.756 259.853,86.267 		"/>
		<polygon clip-path="url(#SVGID_42_)" fill="#FFFFFF" points="259.853,94.214 258.622,93.705 258.622,90.434 259.853,90.943 		"/>
		<polygon clip-path="url(#SVGID_42_)" fill="#FFFFFF" points="259.853,98.891 258.622,98.381 258.622,95.11 259.853,95.62 		"/>
		<polygon clip-path="url(#SVGID_42_)" fill="#FFFFFF" points="259.853,103.568 258.622,103.058 258.622,99.787 259.853,100.297 		
			"/>
		<polygon clip-path="url(#SVGID_42_)" fill="#FFFFFF" points="259.853,108.245 258.622,107.734 258.622,104.462 259.853,104.973 		
			"/>
		<polygon clip-path="url(#SVGID_42_)" fill="#FFFFFF" points="259.853,112.921 258.622,112.412 258.622,109.139 259.853,109.649 		
			"/>
		<polygon clip-path="url(#SVGID_42_)" fill="#FFFFFF" points="259.853,117.597 258.622,117.088 258.622,113.816 259.853,114.326 		
			"/>
		<polygon clip-path="url(#SVGID_42_)" fill="#FFFFFF" points="259.853,122.274 258.622,121.764 258.622,118.493 259.853,119.003 		
			"/>
		<polygon clip-path="url(#SVGID_42_)" fill="#FFFFFF" points="251.347,123.419 250.116,122.909 250.116,119.638 251.347,120.148 		
			"/>
		<polygon clip-path="url(#SVGID_42_)" fill="#FFFFFF" points="251.347,128.096 250.116,127.586 250.116,124.315 251.347,124.825 		
			"/>
		<polygon clip-path="url(#SVGID_42_)" fill="#FFFFFF" points="253.474,124.305 252.243,123.795 252.243,120.524 253.474,121.034 		
			"/>
		<polygon clip-path="url(#SVGID_42_)" fill="#FFFFFF" points="253.474,128.982 252.243,128.472 252.243,125.2 253.474,125.71 		"/>
		<polygon clip-path="url(#SVGID_42_)" fill="#FFFFFF" points="255.6,125.185 254.369,124.675 254.369,121.404 255.6,121.914 		"/>
		<polygon clip-path="url(#SVGID_42_)" fill="#FFFFFF" points="255.6,129.862 254.369,129.352 254.369,126.081 255.6,126.591 		"/>
		<polygon clip-path="url(#SVGID_42_)" fill="#FFFFFF" points="257.727,126.066 256.496,125.556 256.496,122.284 257.727,122.794 		
			"/>
		<polygon clip-path="url(#SVGID_42_)" fill="#FFFFFF" points="257.727,130.742 256.496,130.233 256.496,126.96 257.727,127.471 		
			"/>
		<polygon clip-path="url(#SVGID_42_)" fill="#FFFFFF" points="259.853,126.951 258.622,126.441 258.622,123.169 259.853,123.68 		
			"/>
		<polygon clip-path="url(#SVGID_42_)" fill="#FFFFFF" points="259.853,131.627 258.622,131.117 258.622,127.846 259.853,128.356 		
			"/>
		<polygon clip-path="url(#SVGID_42_)" fill="#FFFFFF" points="251.347,132.848 250.116,132.338 250.116,129.067 251.347,129.577 		
			"/>
		<polygon clip-path="url(#SVGID_42_)" fill="#FFFFFF" points="253.474,133.734 252.243,133.224 252.243,129.952 253.474,130.462 		
			"/>
		<polygon clip-path="url(#SVGID_42_)" fill="#FFFFFF" points="255.6,134.614 254.369,134.104 254.369,130.833 255.6,131.343 		"/>
		<polygon clip-path="url(#SVGID_42_)" fill="#FFFFFF" points="257.727,135.495 256.496,134.984 256.496,131.712 257.727,132.223 		
			"/>
		<polygon clip-path="url(#SVGID_42_)" fill="#FFFFFF" points="259.853,136.379 258.622,135.87 258.622,132.598 259.853,133.108 		
			"/>
		<polygon clip-path="url(#SVGID_42_)" fill="#70A71B" points="264.807,143.224 282.407,132.347 282.407,64.511 264.807,75.388 		
			"/>
		<path clip-path="url(#SVGID_42_)" fill="#70A71B" d="M301.431,124.274c0,1.5-1.217,2.717-2.717,2.717s-2.716-1.217-2.716-2.717
			s1.216-2.716,2.716-2.716S301.431,122.774,301.431,124.274"/>
		<path clip-path="url(#SVGID_42_)" fill="#70A71B" d="M302.497,141.052l-6.954-2.877v-9.006c0-1.303,1.324-2.187,2.527-1.689
			l3.298,1.364c0.683,0.283,1.129,0.95,1.129,1.689V141.052z"/>
		
			<path clip-path="url(#SVGID_42_)" fill="none" stroke="#70A71B" stroke-width="2" stroke-linecap="round" stroke-miterlimit="10" d="
			M291.786,135.109c0,0,2.858-4.731,5.849-6.644"/>
		
			<line clip-path="url(#SVGID_42_)" fill="none" stroke="#70A71B" stroke-width="2" stroke-linecap="round" stroke-miterlimit="10" x1="301.736" y1="130.553" x2="306.786" y2="132.148"/>
		
			<polyline clip-path="url(#SVGID_42_)" fill="none" stroke="#70A71B" stroke-width="2" stroke-linecap="round" stroke-miterlimit="10" points="
			297.064,137.47 297.064,145.886 295.984,146.72 		"/>
		
			<polyline clip-path="url(#SVGID_42_)" fill="none" stroke="#70A71B" stroke-width="2" stroke-linecap="round" stroke-miterlimit="10" points="
			300.364,139.136 300.364,147.553 299.284,148.386 		"/>
		<path clip-path="url(#SVGID_42_)" fill="#70A71B" d="M299.756,88.253c0,1.5-1.217,2.716-2.717,2.716s-2.716-1.216-2.716-2.716
			c0-1.501,1.216-2.717,2.716-2.717S299.756,86.752,299.756,88.253"/>
		<path clip-path="url(#SVGID_42_)" fill="#70A71B" d="M300.822,105.032l-6.954-2.878v-9.006c0-1.303,1.324-2.188,2.527-1.689
			l3.298,1.364c0.683,0.283,1.129,0.95,1.129,1.689V105.032z"/>
		
			<path clip-path="url(#SVGID_42_)" fill="none" stroke="#70A71B" stroke-width="2" stroke-linecap="round" stroke-miterlimit="10" d="
			M289.841,97.442c0,0,3.129-3.085,6.118-4.998"/>
		
			<line clip-path="url(#SVGID_42_)" fill="none" stroke="#70A71B" stroke-width="2" stroke-linecap="round" stroke-miterlimit="10" x1="300.062" y1="94.532" x2="304.289" y2="100.353"/>
		
			<polyline clip-path="url(#SVGID_42_)" fill="none" stroke="#70A71B" stroke-width="2" stroke-linecap="round" stroke-miterlimit="10" points="
			295.39,101.449 295.39,109.865 292.853,111.16 		"/>
		
			<polyline clip-path="url(#SVGID_42_)" fill="none" stroke="#70A71B" stroke-width="2" stroke-linecap="round" stroke-miterlimit="10" points="
			298.689,103.115 298.689,111.532 296.152,112.826 		"/>
		<path clip-path="url(#SVGID_42_)" fill="#70A71B" d="M259.889,389.691c0,1.501-1.216,2.717-2.716,2.717
			c-1.501,0-2.717-1.216-2.717-2.717c0-1.5,1.216-2.716,2.717-2.716C258.673,386.975,259.889,388.191,259.889,389.691"/>
		<path clip-path="url(#SVGID_42_)" fill="#70A71B" d="M260.956,406.47l-6.954-2.878v-9.006c0-1.304,1.324-2.188,2.528-1.689
			l3.297,1.364c0.683,0.283,1.129,0.95,1.129,1.688V406.47z"/>
		
			<path clip-path="url(#SVGID_42_)" fill="none" stroke="#70A71B" stroke-width="2" stroke-linecap="round" stroke-miterlimit="10" d="
			M250.245,391.228c0,0,2.858,4.566,5.849,2.654"/>
		
			<line clip-path="url(#SVGID_42_)" fill="none" stroke="#70A71B" stroke-width="2" stroke-linecap="round" stroke-miterlimit="10" x1="260.195" y1="395.97" x2="250.245" y2="397.25"/>
		
			<polyline clip-path="url(#SVGID_42_)" fill="none" stroke="#70A71B" stroke-width="2" stroke-linecap="round" stroke-miterlimit="10" points="
			255.523,402.887 255.523,411.303 254.443,412.137 		"/>
		
			<polyline clip-path="url(#SVGID_42_)" fill="none" stroke="#70A71B" stroke-width="2" stroke-linecap="round" stroke-miterlimit="10" points="
			258.822,404.553 258.822,412.97 257.742,413.803 		"/>
		<path clip-path="url(#SVGID_42_)" fill="#70A71B" d="M186.726,378.853c0,1.5-1.216,2.716-2.716,2.716s-2.716-1.216-2.716-2.716
			c0-1.501,1.216-2.717,2.716-2.717S186.726,377.352,186.726,378.853"/>
		<path clip-path="url(#SVGID_42_)" fill="#70A71B" d="M187.792,395.631l-6.954-2.878v-9.006c0-1.303,1.324-2.188,2.527-1.689
			l3.298,1.364c0.683,0.283,1.129,0.95,1.129,1.689V395.631z"/>
		
			<path clip-path="url(#SVGID_42_)" fill="none" stroke="#70A71B" stroke-width="2" stroke-linecap="round" stroke-miterlimit="10" d="
			M177.081,389.688c0,0,2.859-4.731,5.849-6.646"/>
		
			<line clip-path="url(#SVGID_42_)" fill="none" stroke="#70A71B" stroke-width="2" stroke-linecap="round" stroke-miterlimit="10" x1="187.032" y1="385.131" x2="192.082" y2="386.727"/>
		
			<polyline clip-path="url(#SVGID_42_)" fill="none" stroke="#70A71B" stroke-width="2" stroke-linecap="round" stroke-miterlimit="10" points="
			182.36,392.048 182.36,400.464 181.28,401.298 		"/>
		
			<polyline clip-path="url(#SVGID_42_)" fill="none" stroke="#70A71B" stroke-width="2" stroke-linecap="round" stroke-miterlimit="10" points="
			185.659,393.714 185.659,402.131 184.579,402.964 		"/>
		<path clip-path="url(#SVGID_42_)" fill="#FF5936" d="M176.333,411.628c0,1.5,1.216,2.716,2.716,2.716s2.716-1.216,2.716-2.716
			s-1.216-2.716-2.716-2.716S176.333,410.128,176.333,411.628"/>
		<path clip-path="url(#SVGID_42_)" fill="#FF5936" d="M175.266,428.407l6.954-2.878v-9.005c0-1.303-1.324-2.188-2.527-1.689
			l-3.298,1.364c-0.683,0.283-1.129,0.949-1.129,1.689V428.407z"/>
		
			<path clip-path="url(#SVGID_42_)" fill="none" stroke="#FF5936" stroke-width="2" stroke-linecap="round" stroke-miterlimit="10" d="
			M186.487,414.421c0,0-3.369,3.311-6.358,1.398"/>
		
			<line clip-path="url(#SVGID_42_)" fill="none" stroke="#FF5936" stroke-width="2" stroke-linecap="round" stroke-miterlimit="10" x1="176.026" y1="417.908" x2="171.799" y2="423.728"/>
		
			<polyline clip-path="url(#SVGID_42_)" fill="none" stroke="#FF5936" stroke-width="2" stroke-linecap="round" stroke-miterlimit="10" points="
			180.698,424.824 180.698,433.241 183.235,434.535 		"/>
		
			<polyline clip-path="url(#SVGID_42_)" fill="none" stroke="#FF5936" stroke-width="2" stroke-linecap="round" stroke-miterlimit="10" points="
			177.399,426.491 177.399,434.908 179.936,436.202 		"/>
		<path clip-path="url(#SVGID_42_)" fill="#5380E3" d="M208.167,412.82c0,1.5-1.216,2.716-2.716,2.716s-2.716-1.216-2.716-2.716
			s1.216-2.717,2.716-2.717S208.167,411.32,208.167,412.82"/>
		<path clip-path="url(#SVGID_42_)" fill="#5380E3" d="M209.234,429.598l-6.954-2.878v-9.006c0-1.303,1.324-2.188,2.527-1.689
			l3.298,1.365c0.683,0.282,1.129,0.949,1.129,1.688V429.598z"/>
		
			<path clip-path="url(#SVGID_42_)" fill="none" stroke="#5380E3" stroke-width="2" stroke-linecap="round" stroke-miterlimit="10" d="
			M198.522,423.655c0,0,2.859-4.731,5.849-6.645"/>
		
			<line clip-path="url(#SVGID_42_)" fill="none" stroke="#5380E3" stroke-width="2" stroke-linecap="round" stroke-miterlimit="10" x1="208.473" y1="419.098" x2="210.389" y2="426.015"/>
		
			<polyline clip-path="url(#SVGID_42_)" fill="none" stroke="#5380E3" stroke-width="2" stroke-linecap="round" stroke-miterlimit="10" points="
			203.801,426.015 203.801,434.432 205.451,433.682 		"/>
		
			<polyline clip-path="url(#SVGID_42_)" fill="none" stroke="#5380E3" stroke-width="2" stroke-linecap="round" stroke-miterlimit="10" points="
			207.101,427.682 207.101,436.098 208.75,435.348 		"/>
		<path clip-path="url(#SVGID_42_)" fill="#5380E3" d="M160.982,448.036c0,1.5-1.216,2.716-2.716,2.716s-2.717-1.216-2.717-2.716
			s1.217-2.716,2.717-2.716S160.982,446.536,160.982,448.036"/>
		<path clip-path="url(#SVGID_42_)" fill="#5380E3" d="M162.049,464.814l-6.954-2.877v-9.006c0-1.303,1.324-2.188,2.527-1.689
			l3.298,1.364c0.683,0.283,1.129,0.949,1.129,1.689V464.814z"/>
		
			<path clip-path="url(#SVGID_42_)" fill="none" stroke="#5380E3" stroke-width="2" stroke-linecap="round" stroke-miterlimit="10" d="
			M151.337,458.871c0,0,2.859-4.731,5.849-6.644"/>
		
			<line clip-path="url(#SVGID_42_)" fill="none" stroke="#5380E3" stroke-width="2" stroke-linecap="round" stroke-miterlimit="10" x1="161.288" y1="454.315" x2="166.728" y2="457.958"/>
		
			<polyline clip-path="url(#SVGID_42_)" fill="none" stroke="#5380E3" stroke-width="2" stroke-linecap="round" stroke-miterlimit="10" points="
			156.616,461.231 156.616,469.648 158.265,468.898 		"/>
		
			<polyline clip-path="url(#SVGID_42_)" fill="none" stroke="#5380E3" stroke-width="2" stroke-linecap="round" stroke-miterlimit="10" points="
			159.916,462.898 163.184,469.648 164.833,468.898 		"/>
		<path clip-path="url(#SVGID_42_)" fill="#5380E3" d="M251.107,39.288c0,1.501-1.216,2.717-2.716,2.717s-2.717-1.216-2.717-2.717
			c0-1.5,1.217-2.716,2.717-2.716S251.107,37.788,251.107,39.288"/>
		<path clip-path="url(#SVGID_42_)" fill="#5380E3" d="M252.173,56.067l-6.954-2.878v-9.006c0-1.303,1.324-2.187,2.528-1.689
			l3.297,1.364c0.683,0.283,1.129,0.95,1.129,1.689V56.067z"/>
		
			<path clip-path="url(#SVGID_42_)" fill="none" stroke="#5380E3" stroke-width="2" stroke-linecap="round" stroke-miterlimit="10" d="
			M239.516,39.288c0,0,0.675,5.467,7.795,4.191"/>
		
			<line clip-path="url(#SVGID_42_)" fill="none" stroke="#5380E3" stroke-width="2" stroke-linecap="round" stroke-miterlimit="10" x1="251.413" y1="45.567" x2="256.463" y2="47.163"/>
		
			<polyline clip-path="url(#SVGID_42_)" fill="none" stroke="#5380E3" stroke-width="2" stroke-linecap="round" stroke-miterlimit="10" points="
			246.741,52.484 246.741,60.9 245.22,61.592 		"/>
		
			<polyline clip-path="url(#SVGID_42_)" fill="none" stroke="#5380E3" stroke-width="2" stroke-linecap="round" stroke-miterlimit="10" points="
			250.04,54.15 250.04,62.567 248.391,63.317 		"/>
		<g clip-path="url(#SVGID_42_)">
			<g>
				<defs>
					<rect id="SVGID_43_" x="248.664" y="60.207" width="14.726" height="6.314"/>
				</defs>
				<clipPath id="SVGID_44_">
					<use xlink:href="#SVGID_43_"  overflow="visible"/>
				</clipPath>
				<path clip-path="url(#SVGID_44_)" fill="#EFEFEF" d="M263.39,63.364c0,1.744-3.296,3.157-7.363,3.157
					c-4.066,0-7.362-1.413-7.362-3.157c0-1.743,3.296-3.156,7.362-3.156C260.094,60.208,263.39,61.621,263.39,63.364"/>
			</g>
		</g>
		<rect x="255.087" y="33.53" clip-path="url(#SVGID_42_)" fill="#80808B" width="1.86" height="29.334"/>
		<path clip-path="url(#SVGID_42_)" fill="#80808B" d="M256.947,62.864c0,0.343-0.417,0.621-0.93,0.621
			c-0.513,0-0.93-0.278-0.93-0.621c0-0.344,0.417-0.622,0.93-0.622C256.53,62.242,256.947,62.52,256.947,62.864"/>
		<polygon clip-path="url(#SVGID_42_)" fill="#FF7A5E" points="280.949,35.554 255.087,48.485 255.087,22.623 		"/>
		<polygon clip-path="url(#SVGID_42_)" fill="#FF5936" points="280.949,35.554 255.087,48.485 255.087,29.617 		"/>
		<path clip-path="url(#SVGID_42_)" fill="#FFB400" d="M131.582,408.175c0,1.5,1.216,2.717,2.716,2.717s2.717-1.217,2.717-2.717
			s-1.217-2.716-2.717-2.716S131.582,406.675,131.582,408.175"/>
		<path clip-path="url(#SVGID_42_)" fill="#FFB400" d="M131.582,424.605l6.954-2.878v-9.005c0-1.303-1.324-2.188-2.527-1.689
			l-3.298,1.364c-0.683,0.283-1.129,0.949-1.129,1.689V424.605z"/>
		
			<path clip-path="url(#SVGID_42_)" fill="none" stroke="#FFB400" stroke-width="2" stroke-linecap="round" stroke-miterlimit="10" d="
			M143.66,412.018c0,0-3.466-0.386-7.215,0"/>
		
			<polyline clip-path="url(#SVGID_42_)" fill="none" stroke="#FFB400" stroke-width="2" stroke-linecap="round" stroke-miterlimit="10" points="
			137.015,421.022 132.741,429.439 134.691,430.356 		"/>
		
			<polyline clip-path="url(#SVGID_42_)" fill="none" stroke="#FFB400" stroke-width="2" stroke-linecap="round" stroke-miterlimit="10" points="
			133.715,422.689 138.965,429.439 140.917,428.896 		"/>
		
			<line clip-path="url(#SVGID_42_)" fill="none" stroke="#FFB400" stroke-width="2" stroke-linecap="round" stroke-miterlimit="10" x1="132.343" y1="414.106" x2="129.365" y2="421.649"/>
		<path clip-path="url(#SVGID_42_)" fill="#FF5936" d="M242.391,398.377c0,1.5-1.216,2.716-2.716,2.716s-2.716-1.216-2.716-2.716
			s1.216-2.717,2.716-2.717S242.391,396.877,242.391,398.377"/>
		<path clip-path="url(#SVGID_42_)" fill="#FF5936" d="M243.458,415.156l-6.954-2.878v-9.006c0-1.303,1.324-2.188,2.528-1.689
			l3.297,1.365c0.683,0.282,1.129,0.949,1.129,1.689V415.156z"/>
		
			<path clip-path="url(#SVGID_42_)" fill="none" stroke="#FF5936" stroke-width="2" stroke-linecap="round" stroke-miterlimit="10" d="
			M232.747,409.212c0,0,2.858-4.731,5.849-6.646"/>
		
			<line clip-path="url(#SVGID_42_)" fill="none" stroke="#FF5936" stroke-width="2" stroke-linecap="round" stroke-miterlimit="10" x1="242.697" y1="404.656" x2="246.914" y2="403.523"/>
		
			<polyline clip-path="url(#SVGID_42_)" fill="none" stroke="#FF5936" stroke-width="2" stroke-linecap="round" stroke-miterlimit="10" points="
			238.025,411.573 236.144,419.391 238.025,420.69 		"/>
		
			<polyline clip-path="url(#SVGID_42_)" fill="none" stroke="#FF5936" stroke-width="2" stroke-linecap="round" stroke-miterlimit="10" points="
			241.324,413.24 242.633,419.391 244.282,418.641 		"/>
		<path clip-path="url(#SVGID_42_)" fill="#FF5936" d="M209.729,144.976c0,1.5-1.216,2.716-2.716,2.716s-2.717-1.216-2.717-2.716
			c0-1.501,1.217-2.717,2.717-2.717S209.729,143.475,209.729,144.976"/>
		<path clip-path="url(#SVGID_42_)" fill="#FF5936" d="M209.729,161.406l-6.954-2.878v-9.006c0-1.303,1.324-2.187,2.528-1.689
			l3.297,1.364c0.683,0.283,1.129,0.95,1.129,1.689V161.406z"/>
		
			<path clip-path="url(#SVGID_42_)" fill="none" stroke="#FF5936" stroke-width="2" stroke-linecap="round" stroke-miterlimit="10" d="
			M200.395,154.548c0,0,2.38-3.643,4.472-5.73"/>
		
			<polyline clip-path="url(#SVGID_42_)" fill="none" stroke="#FF5936" stroke-width="2" stroke-linecap="round" stroke-miterlimit="10" points="
			200.395,166.064 201.979,165.485 201.826,160.152 204.867,158.945 		"/>
		
			<polyline clip-path="url(#SVGID_42_)" fill="none" stroke="#FF5936" stroke-width="2" stroke-linecap="round" stroke-miterlimit="10" points="
			203.677,167.064 205.261,166.485 205.108,161.152 208.149,159.945 		"/>
		
			<line clip-path="url(#SVGID_42_)" fill="none" stroke="#FF5936" stroke-width="2" stroke-linecap="round" stroke-miterlimit="10" x1="208.934" y1="151.411" x2="211.912" y2="158.954"/>
		<path clip-path="url(#SVGID_42_)" fill="#5380E3" d="M134.533,374.695c0,1.5,1.216,2.716,2.716,2.716s2.716-1.216,2.716-2.716
			c0-1.501-1.216-2.717-2.716-2.717S134.533,373.194,134.533,374.695"/>
		<path clip-path="url(#SVGID_42_)" fill="#5380E3" d="M134.533,391.125l6.954-2.878v-9.006c0-1.304-1.324-2.188-2.528-1.689
			l-3.297,1.364c-0.683,0.283-1.129,0.95-1.129,1.688V391.125z"/>
		
			<path clip-path="url(#SVGID_42_)" fill="none" stroke="#5380E3" stroke-width="2" stroke-linecap="round" stroke-miterlimit="10" d="
			M144.426,385.929c0,0-2.041-5.479-5.031-7.393"/>
		
			<line clip-path="url(#SVGID_42_)" fill="none" stroke="#5380E3" stroke-width="2" stroke-linecap="round" stroke-miterlimit="10" x1="135.293" y1="380.625" x2="129.366" y2="380.625"/>
		
			<polyline clip-path="url(#SVGID_42_)" fill="none" stroke="#5380E3" stroke-width="2" stroke-linecap="round" stroke-miterlimit="10" points="
			139.965,387.542 139.965,395.958 143.045,395.97 		"/>
		
			<polyline clip-path="url(#SVGID_42_)" fill="none" stroke="#5380E3" stroke-width="2" stroke-linecap="round" stroke-miterlimit="10" points="
			136.666,389.208 136.666,397.625 138.617,398.542 		"/>
		<polygon clip-path="url(#SVGID_42_)" fill="#FFFFFF" points="29.494,156.378 27.543,153.67 29.494,147.789 28.204,145.998 
			29.494,145.208 30.785,146.999 29.494,147.789 31.445,155.184 		"/>
		<path clip-path="url(#SVGID_42_)" fill="#FFB400" d="M209.982,458.265c0,1.5,1.216,2.716,2.716,2.716s2.717-1.216,2.717-2.716
			s-1.217-2.716-2.717-2.716S209.982,456.765,209.982,458.265"/>
		<path clip-path="url(#SVGID_42_)" fill="#FFB400" d="M208.916,475.043l6.954-2.878v-9.005c0-1.303-1.324-2.188-2.528-1.689
			l-3.297,1.364c-0.684,0.282-1.129,0.949-1.129,1.689V475.043z"/>
		
			<path clip-path="url(#SVGID_42_)" fill="none" stroke="#FFB400" stroke-width="2" stroke-linecap="round" stroke-miterlimit="10" d="
			M219.627,469.1c0,0-2.859-4.731-5.849-6.644"/>
		
			<line clip-path="url(#SVGID_42_)" fill="none" stroke="#FFB400" stroke-width="2" stroke-linecap="round" stroke-miterlimit="10" x1="209.676" y1="464.544" x2="204.626" y2="466.139"/>
		
			<polyline clip-path="url(#SVGID_42_)" fill="none" stroke="#FFB400" stroke-width="2" stroke-linecap="round" stroke-miterlimit="10" points="
			214.348,471.46 214.348,479.877 212.699,479.127 		"/>
		
			<polyline clip-path="url(#SVGID_42_)" fill="none" stroke="#FFB400" stroke-width="2" stroke-linecap="round" stroke-miterlimit="10" points="
			211.049,473.127 211.049,481.544 209.399,480.794 		"/>
		<path clip-path="url(#SVGID_42_)" fill="#70A71B" d="M192.248,441.298c0,1.5-1.216,2.717-2.716,2.717s-2.717-1.217-2.717-2.717
			s1.217-2.716,2.717-2.716S192.248,439.798,192.248,441.298"/>
		<path clip-path="url(#SVGID_42_)" fill="#70A71B" d="M193.314,458.077l-6.954-2.877v-9.006c0-1.303,1.324-2.188,2.528-1.689
			l3.297,1.364c0.683,0.283,1.129,0.95,1.129,1.689V458.077z"/>
		
			<path clip-path="url(#SVGID_42_)" fill="none" stroke="#70A71B" stroke-width="2" stroke-linecap="round" stroke-miterlimit="10" d="
			M184.009,441.298c0,0,1.453,6.104,4.443,4.191"/>
		
			<line clip-path="url(#SVGID_42_)" fill="none" stroke="#70A71B" stroke-width="2" stroke-linecap="round" stroke-miterlimit="10" x1="192.554" y1="447.578" x2="198.523" y2="444.015"/>
		
			<polyline clip-path="url(#SVGID_42_)" fill="none" stroke="#70A71B" stroke-width="2" stroke-linecap="round" stroke-miterlimit="10" points="
			187.882,454.494 187.882,462.911 185.345,464.205 		"/>
		
			<polyline clip-path="url(#SVGID_42_)" fill="none" stroke="#70A71B" stroke-width="2" stroke-linecap="round" stroke-miterlimit="10" points="
			191.181,456.161 191.181,464.578 188.644,465.872 		"/>
		<path clip-path="url(#SVGID_42_)" fill="#FFB400" d="M226.646,125.839c0,1.5,1.216,2.717,2.716,2.717s2.717-1.217,2.717-2.717
			s-1.217-2.716-2.717-2.716S226.646,124.339,226.646,125.839"/>
		<path clip-path="url(#SVGID_42_)" fill="#FFB400" d="M225.579,142.618l6.954-2.877v-9.006c0-1.303-1.324-2.187-2.527-1.689
			l-3.298,1.364c-0.683,0.283-1.129,0.949-1.129,1.689V142.618z"/>
		
			<path clip-path="url(#SVGID_42_)" fill="none" stroke="#FFB400" stroke-width="2" stroke-linecap="round" stroke-miterlimit="10" d="
			M236.291,136.674c0,0-2.859-4.731-5.849-6.644"/>
		
			<line clip-path="url(#SVGID_42_)" fill="none" stroke="#FFB400" stroke-width="2" stroke-linecap="round" stroke-miterlimit="10" x1="226.34" y1="132.119" x2="221.29" y2="133.714"/>
		
			<polyline clip-path="url(#SVGID_42_)" fill="none" stroke="#FFB400" stroke-width="2" stroke-linecap="round" stroke-miterlimit="10" points="
			231.012,139.035 231.012,147.452 229.363,146.702 		"/>
		
			<polyline clip-path="url(#SVGID_42_)" fill="none" stroke="#FFB400" stroke-width="2" stroke-linecap="round" stroke-miterlimit="10" points="
			227.713,140.702 227.713,149.119 226.063,148.369 		"/>
		<polygon clip-path="url(#SVGID_42_)" fill="#FFB400" points="237.457,36.083 229.857,31.521 232.894,28.483 		"/>
		<polygon clip-path="url(#SVGID_42_)" fill="#FFB400" points="235.794,39.093 227.194,41.24 227.194,36.947 		"/>
		<polygon clip-path="url(#SVGID_42_)" fill="#FFB400" points="240.467,34.42 242.613,25.819 238.321,25.819 		"/>
		<path clip-path="url(#SVGID_42_)" fill="#80808B" d="M339.936,48.301c-6.572-9.062-11.83-4.507-11.83-4.507
			c5.483-2.549,11.83,7.53,11.83,7.53s6.346-4.507,11.83,2.854C351.766,54.178,346.508,45.009,339.936,48.301"/>
		<path clip-path="url(#SVGID_42_)" fill="#80808B" d="M358.484,78.341c-5.415-7.466-9.746-3.713-9.746-3.713
			c4.518-2.099,9.746,6.203,9.746,6.203s5.229-3.714,9.746,2.352C368.23,83.183,363.899,75.628,358.484,78.341"/>
	</g>
</g>
</svg>
