<?xml version="1.0" encoding="utf-8"?>
<!-- Generator: Adobe Illustrator 20.1.0, SVG Export Plug-In . SVG Version: 6.00 Build 0)  -->
<svg version="1.1" id="_x32_" xmlns="http://www.w3.org/2000/svg" xmlns:xlink="http://www.w3.org/1999/xlink" x="0px" y="0px"
	 width="512px" height="512px" viewBox="0 0 512 512" style="enable-background:new 0 0 512 512;" xml:space="preserve">
<style type="text/css">
	.st0{fill:#BAB3A4;}
</style>
<g>
	<path class="st0" d="M497,258.8L262.1,23.9c-9-9-20.9-14.3-33.6-14.9L53.7,0.1C39.3-0.7,25.2,4.8,15,15C4.8,25.2-0.7,39.3,0.1,53.8
		L9,228.5c0.6,12.7,5.9,24.6,14.9,33.6L258.8,497c20,20,52.4,20,72.4,0L497,331.1C517,311.2,517,278.8,497,258.8z M154.6,154.6
		c-16.4,16.4-43.1,16.4-59.5,0S78.6,111.5,95,95s43.1-16.4,59.5,0S171,138.1,154.6,154.6z"/>
</g>
</svg>
