<?xml version="1.0" encoding="utf-8"?>
<!-- Generator: Adobe Illustrator 20.1.0, SVG Export Plug-In . SVG Version: 6.00 Build 0)  -->
<svg version="1.1" id="レイヤー_1" xmlns="http://www.w3.org/2000/svg" xmlns:xlink="http://www.w3.org/1999/xlink" x="0px"
	 y="0px" width="336.5px" height="195.3px" viewBox="0 0 336.5 195.3" style="enable-background:new 0 0 336.5 195.3;"
	 xml:space="preserve">
<style type="text/css">
	.st0{opacity:0.2;}
	.st1{fill:url(#SVGID_1_);}
	.st2{fill:url(#SVGID_2_);}
	.st3{fill:#E1E1E1;}
	.st4{fill:#D5D5D9;}
	.st5{fill:#FF5936;}
	.st6{fill:none;stroke:#FF5936;stroke-width:2;stroke-linecap:round;stroke-miterlimit:10;}
	.st7{fill:#70A71B;}
	.st8{fill:none;stroke:#70A71B;stroke-width:2;stroke-linecap:round;stroke-miterlimit:10;}
	.st9{fill:#80808B;}
	.st10{fill:#EFEFEF;}
	.st11{fill:#FFFFFF;}
	.st12{fill:#FFB400;}
	.st13{fill:#95959E;}
	.st14{fill:#D1E1CC;}
	.st15{fill:none;stroke:#FFB400;stroke-width:2;stroke-linecap:round;stroke-miterlimit:10;}
	.st16{fill:#5380E3;}
	.st17{fill:none;stroke:#5380E3;stroke-width:2;stroke-linecap:round;stroke-miterlimit:10;}
	.st18{fill:#FFD266;}
	.st19{fill:#FFC333;}
	.st20{fill:#4A4A5A;}
	.st21{fill:#757582;}
	.st22{fill:#7599E9;}
	.st23{fill:#98B3EE;}
	.st24{fill:#FF7A5E;}
	.st25{fill:#FF9B86;}
	.st26{fill:#C1D4BC;}
	.st27{fill:#F7F7F7;}
	.st28{opacity:3.000000e-02;fill:url(#SVGID_3_);}
	.st29{fill:#DCDDDD;}
</style>
<g class="st0">
	<linearGradient id="SVGID_1_" gradientUnits="userSpaceOnUse" x1="119.7323" y1="165.4755" x2="180.6722" y2="-1.9556">
		<stop  offset="0" style="stop-color:#001336"/>
		<stop  offset="1" style="stop-color:#FFFFFF"/>
	</linearGradient>
	<polygon class="st1" points="191.6,2 300,46.6 108.8,161.5 0.4,116.9 	"/>
</g>
<g class="st0">
	<linearGradient id="SVGID_2_" gradientUnits="userSpaceOnUse" x1="211.8836" y1="197.7927" x2="254.0182" y2="82.0289">
		<stop  offset="0" style="stop-color:#001336"/>
		<stop  offset="1" style="stop-color:#FFFFFF"/>
	</linearGradient>
	<polygon class="st2" points="261.6,84.8 336.5,115.6 204.3,195 129.4,164.2 	"/>
</g>
<g>
	<g>
		<polygon class="st3" points="128.7,26.7 237.7,72 109,150 0,104.7 		"/>
	</g>
	<path class="st4" d="M180,91c-5.4,12.3-28.1,20.1-50.6,17.4S92.9,93.6,98.3,81.2c5.4-12.3,28.1-20.1,50.6-17.4S185.4,78.6,180,91z"
		/>
	<g>
		<g>
			<circle class="st5" cx="62.7" cy="73.6" r="2.7"/>
			<path class="st5" d="M65.4,90.1l-7-2.9v-9c0-1.3,1.3-2.2,2.5-1.7l3.3,1.4c0.7,0.3,1.1,0.9,1.1,1.7V90.1z"/>
			<path class="st6" d="M54.3,78.5c0,0,3.2,2.8,6.3-1"/>
			<polyline class="st6" points="60,86.5 64.3,94.9 62.3,95.8 			"/>
			<polyline class="st6" points="63.3,88.1 58,94.9 56.1,94.3 			"/>
		</g>
	</g>
	<path class="st6" d="M60.6,86.5"/>
	<path class="st6" d="M64.7,79.6"/>
	<path class="st6" d="M60.6,86.5"/>
	<path class="st6" d="M64.7,79.6"/>
	<g>
		<g>
			<circle class="st7" cx="124.2" cy="54.3" r="2.7"/>
			<path class="st7" d="M120.4,71.1l7-2.9v-9c0-1.3-1.3-2.2-2.5-1.7l-3.3,1.4c-0.7,0.3-1.1,0.9-1.1,1.7V71.1z"/>
			<path class="st8" d="M131.6,57.1c0,0-3.4,3.3-6.4,1.4"/>
			<line class="st8" x1="121.2" y1="60.6" x2="116.9" y2="66.4"/>
			<polyline class="st8" points="125.8,67.5 125.8,76 128.4,77.3 			"/>
			<polyline class="st8" points="122.5,69.2 122.5,77.6 125.1,78.9 			"/>
		</g>
		<g>
			<path class="st9" d="M140.9,103.5h-0.5c-0.3,0-0.6-0.3-0.6-0.6V89.5h1.8v13.4C141.5,103.2,141.2,103.5,140.9,103.5z"/>
			<path class="st9" d="M108.8,89.8h-0.5c-0.3,0-0.6-0.3-0.6-0.6V75.8h1.8v13.4C109.5,89.5,109.2,89.8,108.8,89.8z"/>
		</g>
		<g>
			<path class="st9" d="M171.2,84.9h-0.5c-0.3,0-0.6-0.3-0.6-0.6V70.9h1.8v13.4C171.9,84.6,171.6,84.9,171.2,84.9z"/>
		</g>
		<g>
			<polygon class="st10" points="140.6,92.6 107.7,79 107.7,75.8 140.6,89.5 			"/>
			<g>
				<g>
					<polygon class="st11" points="139,57.2 171.9,70.9 140.6,89.5 107.7,75.8 					"/>
				</g>
				<polygon class="st10" points="140.6,92.6 171.9,74 171.9,70.9 140.6,89.5 				"/>
			</g>
		</g>
		<g>
			<circle class="st5" cx="157" cy="72.9" r="2.7"/>
			<path class="st5" d="M153.2,89.7l7-2.9v-9c0-1.3-1.3-2.2-2.5-1.7l-3.3,1.4c-0.7,0.3-1.1,0.9-1.1,1.7V89.7z"/>
			<path class="st6" d="M164.2,76.8c0,0-3.2,2.2-6.1,0.3"/>
			<line class="st6" x1="153.9" y1="79.2" x2="147.4" y2="81.3"/>
			<polyline class="st6" points="158.6,86.1 158.6,94.5 157,93.8 			"/>
			<polyline class="st6" points="155.3,87.8 155.3,96.2 153.7,95.4 			"/>
		</g>
	</g>
	<g>
		<polygon class="st10" points="79.2,108.2 29.3,87.2 29.3,78 79.2,99 		"/>
		<g>
			<g>
				<polygon class="st11" points="37.1,73.4 86.9,94.4 79.2,99 29.3,78 				"/>
			</g>
		</g>
	</g>
	<path class="st11" d="M141,11.9c-0.1-10.8-11.2-15-24.8-9.4S91.7,21.4,91.8,32.2c0.1,10.7,11,14.9,24.3,9.6l2.3,3.5l0.9-4.9
		C132.1,34.4,141.1,22.2,141,11.9z"/>
	<g>
		<g>
			<polygon class="st9" points="105.9,29.1 102.9,30.4 102.9,33.4 105.9,32.1 			"/>
			<polygon class="st9" points="111,26.8 108,28.2 108,31.2 111,29.8 			"/>
			<polygon class="st9" points="116.1,24.5 113.1,25.9 113.1,28.9 116.1,27.5 			"/>
			<polygon class="st9" points="121.2,22.3 118.2,23.6 118.2,26.6 121.2,25.3 			"/>
			<polygon class="st9" points="126.3,20 123.3,21.3 123.3,24.3 126.3,23 			"/>
			<polygon class="st9" points="131.4,17.7 128.4,19.1 128.4,22.1 131.4,20.7 			"/>
		</g>
		<g>
			<polygon class="st9" points="105.9,23.8 102.9,25.1 102.9,28.1 105.9,26.8 			"/>
			<polygon class="st9" points="111,21.5 108,22.8 108,25.8 111,24.5 			"/>
			<polygon class="st9" points="116.1,19.2 113.1,20.6 113.1,23.6 116.1,22.2 			"/>
			<polygon class="st9" points="121.2,16.9 118.2,18.3 118.2,21.3 121.2,19.9 			"/>
			<polygon class="st9" points="126.3,14.7 123.3,16 123.3,19 126.3,17.7 			"/>
			<polygon class="st9" points="131.4,12.4 128.4,13.7 128.4,16.7 131.4,15.4 			"/>
		</g>
	</g>
	<g>
		<circle class="st7" cx="40.9" cy="77.6" r="2.7"/>
		<path class="st7" d="M44.7,94.4l-7-2.9v-9c0-1.3,1.3-2.2,2.5-1.7l3.3,1.4c0.7,0.3,1.1,0.9,1.1,1.7V94.4z"/>
		<path class="st8" d="M34,88.4c0,0,2.9-4.7,5.8-6.6"/>
		<line class="st8" x1="44" y1="83.9" x2="48.4" y2="89.1"/>
		<polyline class="st8" points="39.3,90.8 39.3,99.2 40.9,98.4 		"/>
		<polyline class="st8" points="42.6,92.4 42.6,100.9 44.2,100.1 		"/>
	</g>
	<line class="st6" x1="64.7" y1="79.6" x2="60.6" y2="86.5"/>
	<g>
		<g>
			<path class="st11" d="M199.3,39.1c0,9.1-7.8,15.1-17.5,13.3c-9.7-1.8-17.5-10.7-17.5-19.8s7.8-15.1,17.5-13.3
				C191.4,21.1,199.3,30,199.3,39.1z"/>
			<path class="st11" d="M180.7,52.6c0,1.6-1.8,2.6-4,2.2c-2.2-0.4-4-2-4-3.7c0-1.6,1.8-2.6,4-2.2C178.9,49.4,180.7,51,180.7,52.6z"
				/>
			<path class="st11" d="M174.8,58.7c0,1-0.8,1.7-1.9,1.5c-1-0.2-1.9-1.2-1.9-2.2s0.8-1.7,1.9-1.5C173.9,56.6,174.8,57.6,174.8,58.7
				z"/>
			<path class="st11" d="M170.3,62.3c0,0.6-0.5,1.1-1.2,0.9c-0.6-0.1-1.2-0.7-1.2-1.4c0-0.6,0.5-1.1,1.2-0.9
				C169.8,61.1,170.3,61.7,170.3,62.3z"/>
		</g>
		<g>
			<g>
				<path class="st12" d="M182.9,41.4l-2.7-0.8v-3c0-1.1,0.5-1.9,1.4-2.3l1.9-0.9c0.5-0.2,0.8-0.7,0.8-1.3c0-1.7-1.3-3-2.6-3.4
					c-1.4-0.4-2.5,0.4-2.5,1.8v1.7l-2.7-0.8v-1.7c0-2.9,2.3-4.5,5.2-3.6c2.6,0.8,5.3,3.6,5.3,6.9c0,1.4-0.7,2.6-1.8,3.1l-1.9,0.9
					c-0.2,0.1-0.3,0.3-0.3,0.5V41.4z"/>
			</g>
			<polygon class="st12" points="182.9,45 180.2,44.2 180.2,41.3 182.9,42.1 			"/>
		</g>
	</g>
</g>
<polygon class="st13" points="109,161.7 0,116.3 0,104.7 109,150 "/>
<polygon class="st9" points="109,161.7 237.7,83.7 237.7,72 109,150 "/>
<polygon class="st13" points="204,195.3 129.4,164 129.4,155.9 204,187.2 "/>
<polygon class="st9" points="204,195.3 293.1,141.3 293.1,133.2 204,187.2 "/>
<g>
	<g>
		<g>
			<polygon class="st14" points="217.8,102.3 292.6,133.4 204.2,187 129.4,155.9 			"/>
		</g>
	</g>
	<polygon class="st9" points="185.3,133.4 166.8,124.6 176.2,122.7 	"/>
	<g>
		<polygon class="st10" points="285.4,137.9 211.8,106.8 211.8,100.7 285.4,131.8 		"/>
		<g>
			<g>
				<polygon class="st11" points="219.5,96.1 293.1,127.2 285.4,131.8 211.8,100.7 				"/>
			</g>
			<polygon class="st3" points="285.4,137.9 293.1,133.3 293.1,127.2 285.4,131.8 			"/>
		</g>
	</g>
	<g>
		<polygon class="st10" points="204,187.2 154.2,166.1 154.2,160.1 204,181.1 		"/>
		<g>
			<g>
				<polygon class="st11" points="161.9,155.5 211.7,176.5 204,181.1 154.2,160.1 				"/>
			</g>
			<polygon class="st3" points="204,187.2 211.7,182.6 211.7,176.5 204,181.1 			"/>
		</g>
	</g>
	<g>
		<circle class="st12" cx="219.9" cy="140.9" r="2.3"/>
		<path class="st12" d="M223.3,152.2l-7.7,0.1l0.7-7.2c0-1.1,1.1-2.1,2.2-1.8l2.8,0.7c0.6,0.1,1,0.6,1,1.3L223.3,152.2z"/>
		<path class="st15" d="M213.1,150.2c0,0,2.4-4,5-5.7"/>
		<path class="st15" d="M221.1,144.8c2.6,0,4.5-2.3,4.5-2.3"/>
		<polyline class="st15" points="217.6,151.6 216,156.5 217.6,157.5 		"/>
		<polyline class="st15" points="220.4,151.9 221.6,157 223,156.4 		"/>
	</g>
	<g>
		<circle class="st16" cx="234.6" cy="136.1" r="2.3"/>
		<path class="st16" d="M237.7,150.2l-7-1.7l1.2-8.8c0-1,1-1.6,1.9-1.2l2.4,1c0.5,0.2,0.8,0.7,0.8,1.2L237.7,150.2z"/>
		<path class="st17" d="M229,142.7c0,0,2.1-1.4,4.3-3.1"/>
		<line class="st17" x1="236.3" y1="140.7" x2="239" y2="146.6"/>
		<polyline class="st17" points="232.9,145.8 236.1,152 234.6,152.7 		"/>
		<polyline class="st17" points="234.5,147.1 231.5,152 230,151.6 		"/>
	</g>
	<polygon class="st11" points="251.3,98 240.3,101.7 240.3,119 262.3,128 262.3,110.7 	"/>
	<g>
		<g>
			<polygon class="st18" points="247.2,125.7 235,120.7 240.2,117.5 252.4,122.5 			"/>
			<polygon class="st19" points="247.2,128.6 235,123.6 235,120.7 247.2,125.7 			"/>
			<polygon class="st12" points="247.2,128.6 252.4,125.4 252.4,122.5 247.2,125.7 			"/>
		</g>
		<g>
			<polygon class="st18" points="243.8,121.7 237.3,119.1 242.5,115.8 249,118.5 			"/>
			<polygon class="st19" points="244.8,124.7 236.3,121.2 237.3,119.1 243.8,121.7 			"/>
			<polygon class="st12" points="244.8,124.6 250,121.4 249,118.5 243.8,121.7 			"/>
			<polygon class="st11" points="245.1,124.2 249.5,121.4 248.7,118.9 244.3,121.7 			"/>
		</g>
		<g>
			<path class="st11" d="M249.3,126.2c0,0.3-0.2,0.7-0.4,0.7c-0.3,0.1-0.5-0.1-0.5-0.5s0.2-0.7,0.4-0.7
				C249.1,125.7,249.3,125.9,249.3,126.2z"/>
			<path class="st11" d="M251.8,124.5c0,0.3-0.2,0.7-0.4,0.7c-0.3,0.1-0.5-0.1-0.5-0.5c0-0.3,0.2-0.7,0.4-0.7
				C251.6,124,251.8,124.2,251.8,124.5z"/>
		</g>
		<g>
			<path class="st20" d="M238.8,124.7c0.1,0.9-0.5,1.5-1.3,1.5c-0.8,0-1.5-0.8-1.6-1.6s0.5-1.5,1.3-1.5
				C237.9,123.1,238.6,123.9,238.8,124.7z"/>
			<path class="st21" d="M238,124.7c0.1,0.4-0.2,0.8-0.6,0.7c-0.4,0-0.8-0.4-0.8-0.8c-0.1-0.4,0.2-0.8,0.6-0.7
				C237.6,123.9,238,124.2,238,124.7z"/>
		</g>
		<g>
			<path class="st20" d="M245.8,127.6c0.1,0.9-0.5,1.5-1.3,1.5c-0.8,0-1.5-0.8-1.6-1.6s0.5-1.5,1.3-1.5
				C245,126,245.7,126.7,245.8,127.6z"/>
			<path class="st21" d="M245.1,127.5c0.1,0.4-0.2,0.8-0.6,0.7c-0.4,0-0.8-0.4-0.8-0.8c-0.1-0.4,0.2-0.8,0.6-0.7
				C244.7,126.7,245,127.1,245.1,127.5z"/>
		</g>
	</g>
	<g>
		<path class="st22" d="M254.6,137.9v5.2c0,1.5,2.6,2.6,5.7,2.6c3.1,0,5.7-1.2,5.7-2.6v-5.2H254.6z"/>
		<ellipse class="st23" cx="260.3" cy="137.8" rx="5.7" ry="2.6"/>
	</g>
	<g>
		<path class="st19" d="M256.3,132.6v5.2c0,1.5,2.6,2.6,5.7,2.6c3.1,0,5.7-1.2,5.7-2.6v-5.2H256.3z"/>
		<ellipse class="st18" cx="262" cy="132.6" rx="5.7" ry="2.6"/>
	</g>
	<g>
		<path class="st24" d="M255.5,126.2v5.2c0,1.5,2.6,2.6,5.7,2.6c3.1,0,5.7-1.2,5.7-2.6v-5.2H255.5z"/>
		<ellipse class="st25" cx="261.2" cy="126.1" rx="5.7" ry="2.6"/>
	</g>
	<g>
		<path class="st24" d="M170.5,148.5v5.2c0,1.5,2.6,2.6,5.7,2.6c3.1,0,5.7-1.2,5.7-2.6v-5.2H170.5z"/>
		<ellipse class="st25" cx="176.2" cy="148.5" rx="5.7" ry="2.6"/>
	</g>
	<g>
		<g>
			<path class="st9" d="M207.2,132.7h-0.5c-0.3,0-0.6-0.3-0.6-0.6v-11.4h1.8v11.4C207.8,132.4,207.6,132.7,207.2,132.7z"/>
			<path class="st9" d="M224,132.7h-0.5c-0.3,0-0.6-0.3-0.6-0.6v-11.4h1.8v11.4C224.7,132.4,224.4,132.7,224,132.7z"/>
		</g>
		<g>
			<path class="st10" d="M203.4,122.8v2.3c0,3.1,5.4,5.5,12,5.5c6.6,0,12-2.5,12-5.5v-2.3H203.4z"/>
			<ellipse class="st11" cx="215.4" cy="122.7" rx="12" ry="5.5"/>
		</g>
	</g>
	<g>
		<polygon class="st18" points="195.2,158.2 181.2,157.1 189.9,150.7 		"/>
		<polygon class="st19" points="195.2,162 181.2,160.9 181.2,157.1 195.2,158.2 		"/>
	</g>
	<g>
		<g>
			<polygon class="st14" points="210.7,119.9 216.8,122.4 212.8,124.8 206.7,122.3 			"/>
		</g>
		<g>
			<polygon class="st10" points="210.9,120.4 211.8,120.8 209,122.5 208,122.1 			"/>
		</g>
		<polygon class="st26" points="212.8,125.5 206.7,123 206.7,122.3 212.8,124.8 		"/>
		<polygon class="st10" points="212.8,125.5 216.8,123.1 216.8,122.4 212.8,124.8 		"/>
	</g>
</g>
<polygon class="st11" points="51.9,115.3 41.4,111 76.5,90.1 86.9,94.4 "/>
<polygon class="st11" points="51.9,115.3 41.4,111 41.4,121.9 51.9,126.2 "/>
<polygon class="st10" points="51.9,126.2 86.9,105.3 86.9,94.4 51.9,115.3 "/>
<g>
	<polygon class="st3" points="179.4,105.2 202.1,123.2 185.3,133.4 162.6,115.4 	"/>
</g>
<g>
	<circle class="st7" cx="202" cy="130.9" r="2.7"/>
	<path class="st7" d="M198.3,147.7l7-2.9v-9c0-1.3-1.3-2.2-2.5-1.7l-3.3,1.4c-0.7,0.3-1.1,0.9-1.1,1.7V147.7z"/>
	<path class="st8" d="M209.5,133.7c0,0-3.4,3.3-6.4,1.4"/>
	<line class="st8" x1="199" y1="137.2" x2="194.8" y2="143"/>
	<polyline class="st8" points="203.7,144.1 203.7,152.5 206.2,153.8 	"/>
	<polyline class="st8" points="200.4,145.7 200.4,154.2 202.9,155.4 	"/>
</g>
<g>
	<circle class="st16" cx="123.2" cy="77.5" r="2.7"/>
	<path class="st16" d="M127,94.3l-7-2.9v-9c0-1.3,1.3-2.2,2.5-1.7l3.3,1.4c0.7,0.3,1.1,0.9,1.1,1.7V94.3z"/>
	<path class="st17" d="M116.3,88.3c0,0,2.9-4.7,5.8-6.6"/>
	<line class="st17" x1="126.2" y1="83.8" x2="131.3" y2="85.4"/>
	<polyline class="st17" points="121.6,90.7 121.6,99.1 123.2,98.3 	"/>
	<polyline class="st17" points="124.9,92.3 124.9,100.8 126.5,100 	"/>
</g>
<g>
	<circle class="st12" cx="66.6" cy="102.1" r="2.7"/>
	<path class="st12" d="M62.8,118.9l7-2.9v-9c0-1.3-1.3-2.2-2.5-1.7l-3.3,1.4c-0.7,0.3-1.1,0.9-1.1,1.7V118.9z"/>
	<path class="st15" d="M73,110.9c0,0-2.4-2.7-5.3-4.6"/>
	<line class="st15" x1="63.6" y1="108.4" x2="59.7" y2="113.5"/>
	<polyline class="st15" points="68.3,115.3 68.3,123.7 66.6,123 	"/>
	<polyline class="st15" points="65,117 65,125.4 63.3,124.7 	"/>
</g>
<g>
	<g>
		<g>
			<polygon class="st7" points="142.7,65.9 154.4,70.8 138.6,80.2 126.9,75.3 			"/>
		</g>
		<g>
			<polygon class="st3" points="136,69.6 147.7,74.4 138.6,79.8 126.9,75 			"/>
		</g>
		<g>
			<polygon class="st3" points="142.9,65.4 154.6,70.3 147.7,74.4 136,69.6 			"/>
		</g>
		<path class="st27" d="M135.8,69.5c-0.5-0.2-1.2,0.1-1.2,0.1l-7.7,4.6l11.7,4.9l7.7-4.6c0,0,0.7-0.4,1.2-0.1L135.8,69.5z"/>
		<linearGradient id="SVGID_3_" gradientUnits="userSpaceOnUse" x1="142.9826" y1="69.8444" x2="138.23" y2="74.597">
			<stop  offset="0" style="stop-color:#001336"/>
			<stop  offset="0.1397" style="stop-color:#041639"/>
			<stop  offset="0.2671" style="stop-color:#0F2142"/>
			<stop  offset="0.3899" style="stop-color:#213250"/>
			<stop  offset="0.5097" style="stop-color:#3B4A65"/>
			<stop  offset="0.6275" style="stop-color:#5D697F"/>
			<stop  offset="0.7436" style="stop-color:#868FA0"/>
			<stop  offset="0.8586" style="stop-color:#B7BDC7"/>
			<stop  offset="0.9698" style="stop-color:#EFF0F2"/>
			<stop  offset="1" style="stop-color:#FFFFFF"/>
		</linearGradient>
		<path class="st28" d="M135.8,69.5c-0.5-0.2-1.2,0.1-1.2,0.1l-0.8,0.5l11.7,4.9l0.8-0.5c0,0,0.7-0.4,1.2-0.1L135.8,69.5z"/>
		<path class="st27" d="M135.8,69.5C135.7,69.5,135.7,69.5,135.8,69.5c-0.6-0.3-0.6-1.1-0.1-1.4l6.3-4.2l11.7,4.8l-6.3,4.2
			c-0.5,0.3-0.5,1.1,0,1.3c0,0,0.1,0,0.1,0L135.8,69.5z"/>
	</g>
	<g>
		<polygon class="st29" points="132.4,71.9 135.1,73 131.5,75 128.8,73.9 		"/>
	</g>
	<g>
		<polygon class="st29" points="142.1,64.5 144.8,65.6 141.3,67.9 138.6,66.8 		"/>
	</g>
	<g>
		<polygon class="st29" points="143.5,67.4 146.2,68.5 142.7,70.8 140,69.7 		"/>
	</g>
	<g>
		<polygon class="st29" points="149.3,67.6 152,68.7 148.5,71 145.8,69.9 		"/>
	</g>
	<g>
		<g>
			<g>
				<polygon class="st9" points="132.9,75.8 132.5,75.6 132.8,75.4 133.3,75.6 				"/>
				<polygon class="st9" points="133.6,75.4 133.1,75.2 133.4,75 133.9,75.2 				"/>
				<polygon class="st9" points="134.2,75.1 133.7,74.9 134.1,74.7 134.5,74.8 				"/>
				<polygon class="st9" points="134.8,74.7 134.3,74.5 134.7,74.3 135.1,74.5 				"/>
				<polygon class="st9" points="135.4,74.3 134.9,74.1 135.3,73.9 135.7,74.1 				"/>
			</g>
			<g>
				<polygon class="st9" points="136,73.9 135.5,73.7 135.9,73.5 136.3,73.7 				"/>
				<polygon class="st9" points="136.6,73.5 136.1,73.4 136.5,73.2 136.9,73.3 				"/>
				<polygon class="st9" points="137.2,73.1 136.7,73 137.1,72.8 137.5,72.9 				"/>
				<polygon class="st9" points="137.8,72.8 137.3,72.6 137.7,72.4 138.1,72.6 				"/>
				<polygon class="st9" points="138.4,72.4 137.9,72.2 138.3,72 138.7,72.2 				"/>
				<polygon class="st9" points="139,72 138.5,71.8 138.9,71.6 139.3,71.8 				"/>
			</g>
		</g>
		<g>
			<g>
				<polygon class="st9" points="133.8,76.2 133.3,76 133.7,75.8 134.1,75.9 				"/>
				<polygon class="st9" points="134.4,75.8 133.9,75.6 134.3,75.4 134.7,75.6 				"/>
				<polygon class="st9" points="135,75.4 134.5,75.2 134.9,75 135.3,75.2 				"/>
				<polygon class="st9" points="135.6,75 135.1,74.8 135.5,74.6 135.9,74.8 				"/>
				<polygon class="st9" points="136.2,74.6 135.7,74.5 136.1,74.3 136.5,74.4 				"/>
			</g>
			<g>
				<polygon class="st9" points="136.8,74.3 136.3,74.1 136.7,73.9 137.1,74 				"/>
				<polygon class="st9" points="137.4,73.9 137,73.7 137.3,73.5 137.7,73.7 				"/>
				<polygon class="st9" points="138,73.5 137.6,73.3 137.9,73.1 138.3,73.3 				"/>
				<polygon class="st9" points="138.6,73.1 138.2,73 138.5,72.7 138.9,72.9 				"/>
				<polygon class="st9" points="139.2,72.7 138.8,72.6 139.1,72.4 139.5,72.5 				"/>
				<polygon class="st9" points="139.8,72.4 139.4,72.2 139.7,72 140.1,72.2 				"/>
			</g>
		</g>
		<g>
			<g>
				<polygon class="st9" points="134.6,76.5 134.1,76.3 134.5,76.1 134.9,76.3 				"/>
				<polygon class="st9" points="135.2,76.1 134.8,76 135.1,75.7 135.5,75.9 				"/>
				<polygon class="st9" points="135.8,75.8 135.4,75.6 135.7,75.4 136.1,75.6 				"/>
				<polygon class="st9" points="136.4,75.4 136,75.2 136.3,75 136.7,75.2 				"/>
				<polygon class="st9" points="137,75 136.6,74.8 136.9,74.6 137.3,74.8 				"/>
			</g>
			<g>
				<polygon class="st9" points="137.6,74.6 137.2,74.4 137.5,74.2 137.9,74.4 				"/>
				<polygon class="st9" points="138.2,74.3 137.8,74.1 138.1,73.9 138.6,74 				"/>
				<polygon class="st9" points="138.8,73.9 138.4,73.7 138.7,73.5 139.2,73.7 				"/>
				<polygon class="st9" points="139.4,73.5 139,73.3 139.3,73.1 139.8,73.3 				"/>
				<polygon class="st9" points="140,73.1 139.6,72.9 139.9,72.7 140.4,72.9 				"/>
				<polygon class="st9" points="140.6,72.7 140.2,72.6 140.5,72.4 141,72.5 				"/>
			</g>
		</g>
		<g>
			<g>
				<polygon class="st9" points="135.4,76.9 135,76.7 135.3,76.5 135.7,76.7 				"/>
				<polygon class="st9" points="136,76.5 135.6,76.3 135.9,76.1 136.4,76.3 				"/>
				<polygon class="st9" points="136.6,76.1 136.2,75.9 136.5,75.7 137,75.9 				"/>
				<polygon class="st9" points="137.2,75.7 136.8,75.6 137.1,75.3 137.6,75.5 				"/>
				<polygon class="st9" points="137.8,75.4 137.4,75.2 137.7,75 138.2,75.2 				"/>
			</g>
			<g>
				<polygon class="st9" points="138.4,75 138,74.8 138.3,74.6 138.8,74.8 				"/>
				<polygon class="st9" points="139,74.6 138.6,74.4 138.9,74.2 139.4,74.4 				"/>
				<polygon class="st9" points="139.6,74.2 139.2,74 139.5,73.8 140,74 				"/>
				<polygon class="st9" points="140.2,73.8 139.8,73.7 140.1,73.5 140.6,73.6 				"/>
				<polygon class="st9" points="140.8,73.5 140.4,73.3 140.7,73.1 141.2,73.2 				"/>
				<polygon class="st9" points="141.4,73.1 141,72.9 141.3,72.7 141.8,72.9 				"/>
			</g>
		</g>
	</g>
</g>
<g>
	<path class="st11" d="M79.3,56.4c0-7.4-6.9-15.5-15.4-18.1s-15.4,1.4-15.4,8.8c0,7.4,6.7,15.4,15.1,18L63.5,68l2.1-2.4
		C73.6,67.6,79.3,63.5,79.3,56.4z"/>
	<g>
		<g>
			<polygon class="st9" points="57.1,47.5 54.9,46.5 54.9,44.3 57.1,45.3 			"/>
			<polygon class="st9" points="60.9,49.2 58.7,48.2 58.7,46 60.9,47 			"/>
			<polygon class="st9" points="64.6,50.9 62.4,49.9 62.4,47.7 64.6,48.7 			"/>
			<polygon class="st9" points="68.4,52.6 66.2,51.6 66.2,49.4 68.4,50.3 			"/>
			<polygon class="st9" points="72.2,54.2 69.9,53.2 69.9,51 72.2,52 			"/>
		</g>
		<g>
			<polygon class="st9" points="57.1,51.4 54.9,50.5 54.9,48.2 57.1,49.2 			"/>
			<polygon class="st9" points="60.9,53.1 58.7,52.1 58.7,49.9 60.9,50.9 			"/>
			<polygon class="st9" points="64.6,54.8 62.4,53.8 62.4,51.6 64.6,52.6 			"/>
			<polygon class="st9" points="68.4,56.5 66.2,55.5 66.2,53.3 68.4,54.3 			"/>
			<polygon class="st9" points="72.2,58.2 69.9,57.2 69.9,55 72.2,55.9 			"/>
		</g>
	</g>
</g>
<g>
	<g>
		<polygon class="st23" points="175.3,138.7 184.8,142.7 177.1,147.3 167.5,143.3 		"/>
	</g>
	<polygon class="st22" points="177,151.1 167.5,147.1 167.5,143.3 177,147.3 	"/>
	<polygon class="st16" points="184.8,146.6 177,151.1 177,147.3 184.8,142.7 	"/>
</g>
</svg>
