<?xml version="1.0" encoding="utf-8"?>
<!-- Generator: Adobe Illustrator 20.1.0, SVG Export Plug-In . SVG Version: 6.00 Build 0)  -->
<svg version="1.1" id="レイヤー_1" xmlns="http://www.w3.org/2000/svg" xmlns:xlink="http://www.w3.org/1999/xlink" x="0px"
	 y="0px" width="358.2px" height="195.6px" viewBox="0 0 358.2 195.6" style="enable-background:new 0 0 358.2 195.6;"
	 xml:space="preserve">
<style type="text/css">
	.st0{opacity:0.1;}
	.st1{fill:url(#SVGID_1_);}
	.st2{fill:#E1E1E1;}
	.st3{fill:#FFFFFF;}
	.st4{fill:#FFB400;}
	.st5{fill:#FF9B86;}
	.st6{fill:#FFD266;}
	.st7{fill:#98B3EE;}
	.st8{fill:#DCDDDD;}
	.st9{fill:#80808B;}
	.st10{fill:#EFEFEF;}
	.st11{fill:none;stroke:#FFB400;stroke-width:2;stroke-linecap:round;stroke-linejoin:round;stroke-miterlimit:10;}
	.st12{fill:#95959E;}
	.st13{fill:none;stroke:#FFB400;stroke-width:2;stroke-linecap:round;stroke-miterlimit:10;}
	.st14{fill:none;stroke:#5380E3;stroke-width:2;stroke-linecap:round;stroke-linejoin:round;stroke-miterlimit:10;}
	.st15{fill:#5380E3;}
	.st16{fill:none;stroke:#5380E3;stroke-width:2;stroke-linecap:round;stroke-miterlimit:10;}
	.st17{fill:none;stroke:#FF5936;stroke-width:2;stroke-linecap:round;stroke-linejoin:round;stroke-miterlimit:10;}
	.st18{fill:#FF5936;}
	.st19{fill:none;stroke:#FF5936;stroke-width:2;stroke-linecap:round;stroke-miterlimit:10;}
	.st20{fill:#70A71B;}
	.st21{fill:none;stroke:#70A71B;stroke-width:2;stroke-linecap:round;stroke-miterlimit:10;}
	.st22{fill:none;stroke:#80808B;stroke-miterlimit:10;}
</style>
<g class="st0">
	<linearGradient id="SVGID_1_" gradientUnits="userSpaceOnUse" x1="148.5403" y1="187.9987" x2="210.4209" y2="17.9831">
		<stop  offset="0" style="stop-color:#001336"/>
		<stop  offset="1" style="stop-color:#FFFFFF"/>
	</linearGradient>
	<polygon class="st1" points="190.7,10.8 358.2,79.2 168.3,195.2 0.8,126.8 	"/>
</g>
<g>
	<polygon class="st2" points="114.1,44.8 282.4,113.7 168.4,183.9 0,114.9 	"/>
</g>
<g>
	<g>
		<path class="st3" d="M110,33.6c0,9.1-7.8,15.1-17.5,13.3S75,36.3,75,27.1S82.8,12,92.5,13.8S110,24.5,110,33.6z"/>
		<path class="st3" d="M98.5,48.1c0,1.6-1.8,2.6-4,2.2c-2.2-0.4-4-2-4-3.7s1.8-2.6,4-2.2C96.7,44.8,98.5,46.5,98.5,48.1z"/>
		<path class="st3" d="M99.6,55.2c0,1-0.8,1.7-1.9,1.5c-1-0.2-1.9-1.2-1.9-2.2s0.8-1.7,1.9-1.5S99.6,54.1,99.6,55.2z"/>
		<path class="st3" d="M102.6,59.2c0,0.6-0.5,1.1-1.2,0.9c-0.6-0.1-1.2-0.7-1.2-1.4c0-0.6,0.5-1.1,1.2-0.9
			C102,57.9,102.6,58.5,102.6,59.2z"/>
	</g>
	<g>
		<g>
			<path class="st4" d="M93.7,35.9L91,35.1v-3c0-1.1,0.5-1.9,1.4-2.3l1.9-0.9c0.5-0.2,0.8-0.7,0.8-1.3c0-1.7-1.3-3-2.6-3.4
				c-1.4-0.4-2.5,0.4-2.5,1.8v1.7L87.3,27v-1.7c0-2.9,2.3-4.5,5.2-3.6c2.6,0.8,5.3,3.6,5.3,6.9c0,1.4-0.7,2.6-1.8,3.1L94,32.5
				c-0.2,0.1-0.3,0.3-0.3,0.5V35.9z"/>
		</g>
		<polygon class="st4" points="93.7,39.5 91,38.7 91,35.8 93.7,36.6 		"/>
	</g>
</g>
<g>
	<polygon class="st3" points="238.4,78.7 160.9,46.5 160.9,2.4 238.4,34.6 	"/>
	<g>
		<g>
			<path class="st5" d="M185.4,33.2c0,3.8-3.1,5.7-6.9,4.1s-6.9-6-6.9-9.8s3.1-5.7,6.9-4.1C182.2,25,185.4,29.4,185.4,33.2z"/>
			<polygon class="st6" points="205.7,48.5 191.9,42.9 191.9,29.1 205.7,34.8 			"/>
		</g>
		<polygon class="st7" points="212.1,50.9 219.9,40.6 227.8,57.4 		"/>
	</g>
	<g>
		<polygon class="st8" points="164.9,0 242.3,32.2 238.4,34.6 160.9,2.4 		"/>
	</g>
	<g>
		<polygon class="st8" points="242.3,76.6 242.3,32.2 238.4,34.6 238.4,79 		"/>
	</g>
</g>
<g>
	<g>
		<g>
			<g>
				<g>
					<path class="st9" d="M162.5,99.7L162.5,99.7c-0.4,0-0.7-0.3-0.7-0.6v-10h1.3v10C163.1,99.4,162.8,99.7,162.5,99.7z"/>
					<path class="st9" d="M102.9,74.2L102.9,74.2c-0.4,0-0.7-0.3-0.7-0.6v-10h1.3v10C103.5,73.9,103.2,74.2,102.9,74.2z"/>
				</g>
			</g>
			<g>
				<g>
					<path class="st9" d="M174.6,92.5L174.6,92.5c-0.4,0-0.7-0.3-0.7-0.6v-10h1.3v10C175.2,92.3,174.9,92.5,174.6,92.5z"/>
				</g>
			</g>
			<g>
				<g>
					<polygon class="st3" points="114.3,56.4 175.2,81.9 163.1,89.1 102.2,63.6 					"/>
				</g>
				<polygon class="st10" points="163.1,90.7 102.2,65.2 102.2,63.6 163.1,89.1 				"/>
				<polygon class="st10" points="163.1,90.7 175.2,83.5 175.2,81.9 163.1,89.1 				"/>
			</g>
			<g>
				<polyline class="st11" points="110.2,72.6 112.9,72.3 112.7,77.1 114.3,76.3 				"/>
				<polyline class="st11" points="113.5,73.7 116.2,73.4 116,78.2 117.7,77.5 				"/>
				<g>
					<g>
						<g>
							<path class="st9" d="M109.7,77.2L109.7,77.2c-0.2,0-0.3-0.1-0.3-0.3v-4.6h0.6v4.6C110,77,109.9,77.2,109.7,77.2z"/>
						</g>
						<g>
							<path class="st9" d="M116.5,80L116.5,80c-0.2,0-0.3-0.1-0.3-0.3v-4.6h0.6v4.6C116.8,79.9,116.7,80,116.5,80z"/>
						</g>
					</g>
					<g>
						<g>
							<polygon class="st12" points="109.4,72 116.8,75.1 111.9,78 104.5,74.9 							"/>
						</g>
						<g>
							<circle class="st4" cx="110.4" cy="58.6" r="2.7"/>
							<path class="st4" d="M112.5,74.7l-3.9-1.6c-0.9-0.4-1.5-1.3-1.5-2.2v-7.4c0-1.3,1.3-2.2,2.5-1.7l3.3,1.4
								c0.7,0.3,1.1,0.9,1.1,1.7v8.8C114.1,74.5,113.3,75,112.5,74.7z"/>
							<path class="st13" d="M108.7,68.8c0,0-2.4-4.1,0.6-6"/>
							<path class="st13" d="M113.4,64.9c0,0,0.9,2.3,5,3.1"/>
						</g>
						<polygon class="st9" points="111.9,73.6 104.5,70.5 104.5,66.3 111.9,69.4 						"/>
						<polygon class="st9" points="105.1,75.1 104.5,74.8 104.5,69.9 105.1,70.2 						"/>
						<polygon class="st9" points="111.9,78 111.3,77.7 111.3,72.8 111.9,73 						"/>
					</g>
					<g>
						<g>
							<path class="st9" d="M104.8,79.8L104.8,79.8c-0.2,0-0.3-0.1-0.3-0.3v-4.6h0.6v4.6C105.1,79.6,105,79.8,104.8,79.8z"/>
						</g>
						<g>
							<path class="st9" d="M111.6,82.6L111.6,82.6c-0.2,0-0.3-0.1-0.3-0.3v-4.6h0.6v4.6C111.9,82.5,111.7,82.6,111.6,82.6z"/>
						</g>
					</g>
				</g>
				<polyline class="st14" points="130.2,81 132.9,80.7 132.7,85.5 134.3,84.8 				"/>
				<polyline class="st14" points="133.5,82.1 136.2,81.8 136,86.6 137.7,85.9 				"/>
				<g>
					<g>
						<g>
							<path class="st9" d="M129.7,85.6L129.7,85.6c-0.2,0-0.3-0.1-0.3-0.3v-4.6h0.6v4.6C130,85.5,129.9,85.6,129.7,85.6z"/>
						</g>
						<g>
							<path class="st9" d="M136.5,88.4L136.5,88.4c-0.2,0-0.3-0.1-0.3-0.3v-4.6h0.6v4.6C136.8,88.3,136.7,88.4,136.5,88.4z"/>
						</g>
					</g>
					<g>
						<g>
							<polygon class="st12" points="129.4,80.4 136.8,83.5 131.9,86.4 124.5,83.3 							"/>
						</g>
						<g>
							<circle class="st15" cx="130.4" cy="67" r="2.7"/>
							<path class="st15" d="M132.5,83.1l-3.9-1.6c-0.9-0.4-1.5-1.3-1.5-2.2v-7.4c0-1.3,1.3-2.2,2.5-1.7l3.3,1.4
								c0.7,0.3,1.1,0.9,1.1,1.7v8.8C134.2,82.9,133.3,83.4,132.5,83.1z"/>
							<path class="st16" d="M128.7,77.2c0,0-2.4-4.1,0.6-6"/>
							<path class="st16" d="M133.4,73.3c0,0,2,1.8,5-1.1"/>
						</g>
						<polygon class="st9" points="131.9,82 124.5,78.9 124.5,74.7 131.9,77.8 						"/>
						<polygon class="st9" points="125.1,83.6 124.5,83.3 124.5,78.4 125.1,78.6 						"/>
						<polygon class="st9" points="131.9,86.4 131.3,86.1 131.3,81.2 131.9,81.5 						"/>
					</g>
					<g>
						<g>
							<path class="st9" d="M124.8,88.2L124.8,88.2c-0.2,0-0.3-0.1-0.3-0.3v-4.6h0.6v4.6C125.1,88.1,125,88.2,124.8,88.2z"/>
						</g>
						<g>
							<path class="st9" d="M131.6,91L131.6,91c-0.2,0-0.3-0.1-0.3-0.3v-4.6h0.6v4.6C131.9,90.9,131.8,91,131.6,91z"/>
						</g>
					</g>
				</g>
				<polyline class="st17" points="150.9,89.6 153.6,89.3 153.4,94.2 155,93.4 				"/>
				<polyline class="st17" points="154.2,90.8 156.9,90.4 156.7,95.3 158.3,94.5 				"/>
				<g>
					<g>
						<g>
							<path class="st9" d="M150.4,94.2L150.4,94.2c-0.2,0-0.3-0.1-0.3-0.3v-4.6h0.6v4.6C150.7,94.1,150.6,94.2,150.4,94.2z"/>
						</g>
						<g>
							<path class="st9" d="M157.2,97.1L157.2,97.1c-0.2,0-0.3-0.1-0.3-0.3v-4.6h0.6v4.6C157.5,96.9,157.4,97.1,157.2,97.1z"/>
						</g>
					</g>
					<g>
						<g>
							<polygon class="st12" points="150.1,89 157.5,92.1 152.6,95 145.2,91.9 							"/>
						</g>
						<g>
							<circle class="st18" cx="151.1" cy="75.6" r="2.7"/>
							<path class="st18" d="M153.2,91.8l-3.9-1.6c-0.9-0.4-1.5-1.3-1.5-2.2v-7.4c0-1.3,1.3-2.2,2.5-1.7l3.3,1.4
								c0.7,0.3,1.1,0.9,1.1,1.7v8.8C154.8,91.5,154,92.1,153.2,91.8z"/>
							<path class="st19" d="M149.3,85.9c0,0-2.4-4.1,0.6-6"/>
							<path class="st19" d="M154.1,81.9c0,0,0.9,2.3,5,3.1"/>
						</g>
						<polygon class="st9" points="152.6,90.6 145.2,87.6 145.2,83.3 152.6,86.4 						"/>
						<polygon class="st9" points="145.8,92.2 145.2,91.9 145.2,87 145.8,87.3 						"/>
						<polygon class="st9" points="152.6,95 151.9,94.7 151.9,89.8 152.6,90.1 						"/>
					</g>
					<g>
						<g>
							<path class="st9" d="M145.5,96.8L145.5,96.8c-0.2,0-0.3-0.1-0.3-0.3v-4.6h0.6v4.6C145.8,96.7,145.7,96.8,145.5,96.8z"/>
						</g>
						<g>
							<path class="st9" d="M152.3,99.7L152.3,99.7c-0.2,0-0.3-0.1-0.3-0.3v-4.6h0.6v4.6C152.6,99.5,152.4,99.7,152.3,99.7z"/>
						</g>
					</g>
				</g>
				<line class="st11" x1="113.5" y1="73.7" x2="116.2" y2="73.4"/>
			</g>
		</g>
		<line class="st14" x1="133.5" y1="82.1" x2="136.2" y2="81.8"/>
		<line class="st17" x1="154.2" y1="90.8" x2="156.9" y2="90.4"/>
	</g>
	<g>
		<g>
			<g>
				<g>
					<path class="st9" d="M132,118.7L132,118.7c-0.4,0-0.7-0.3-0.7-0.6v-10h1.3v10C132.7,118.4,132.4,118.7,132,118.7z"/>
					<path class="st9" d="M72.4,93.2L72.4,93.2c-0.4,0-0.7-0.3-0.7-0.6v-10h1.3v10C73.1,92.9,72.8,93.2,72.4,93.2z"/>
				</g>
			</g>
			<g>
				<g>
					<path class="st9" d="M144.1,111.5L144.1,111.5c-0.4,0-0.7-0.3-0.7-0.6v-10h1.3v10C144.8,111.3,144.5,111.5,144.1,111.5z"/>
				</g>
			</g>
			<g>
				<g>
					<polygon class="st3" points="83.9,75.4 144.8,100.9 132.7,108.1 71.8,82.6 					"/>
				</g>
				<polygon class="st10" points="132.7,109.7 71.8,84.2 71.8,82.6 132.7,108.1 				"/>
				<polygon class="st10" points="132.7,109.7 144.8,102.5 144.8,100.9 132.7,108.1 				"/>
			</g>
			<g>
				<polyline class="st11" points="88.5,95.2 91.2,94.9 91,99.7 92.7,99 				"/>
				<polyline class="st11" points="91.9,96.3 94.6,96 94.4,100.8 96,100.1 				"/>
				<g>
					<g>
						<g>
							<path class="st9" d="M88.1,99.8L88.1,99.8c-0.2,0-0.3-0.1-0.3-0.3v-4.6h0.6v4.6C88.4,99.7,88.2,99.8,88.1,99.8z"/>
						</g>
						<g>
							<path class="st9" d="M94.9,102.6L94.9,102.6c-0.2,0-0.3-0.1-0.3-0.3v-4.6h0.6v4.6C95.2,102.5,95,102.6,94.9,102.6z"/>
						</g>
					</g>
					<g>
						<g>
							<polygon class="st12" points="87.7,94.6 95.2,97.7 90.3,100.6 82.8,97.5 							"/>
						</g>
						<g>
							<circle class="st4" cx="88.7" cy="81.2" r="2.7"/>
							<path class="st4" d="M90.9,97.3L87,95.7c-0.9-0.4-1.5-1.3-1.5-2.2v-7.4c0-1.3,1.3-2.2,2.5-1.7l3.3,1.4
								c0.7,0.3,1.1,0.9,1.1,1.7v8.8C92.5,97.1,91.7,97.6,90.9,97.3z"/>
							<path class="st13" d="M87,91.4c0,0-2.4-4.1,0.6-6"/>
							<path class="st13" d="M91.7,87.5c0,0,0.9,2.3,5,3.1"/>
						</g>
						<polygon class="st9" points="90.2,96.2 82.8,93.1 82.8,88.9 90.2,92 						"/>
						<polygon class="st9" points="83.4,97.8 82.8,97.5 82.8,92.5 83.4,92.8 						"/>
						<polygon class="st9" points="90.2,100.6 89.6,100.3 89.6,95.4 90.2,95.7 						"/>
					</g>
					<g>
						<g>
							<path class="st9" d="M83.2,102.4L83.2,102.4c-0.2,0-0.3-0.1-0.3-0.3v-4.6h0.6v4.6C83.4,102.3,83.3,102.4,83.2,102.4z"/>
						</g>
						<g>
							<path class="st9" d="M89.9,105.2L89.9,105.2c-0.2,0-0.3-0.1-0.3-0.3v-4.6h0.6v4.6C90.2,105.1,90.1,105.2,89.9,105.2z"/>
						</g>
					</g>
				</g>
				<polyline class="st17" points="112.3,105 115,104.7 114.8,109.6 116.4,108.8 				"/>
				<polyline class="st17" points="115.6,106.2 118.3,105.8 118.1,110.7 119.8,109.9 				"/>
				<g>
					<g>
						<g>
							<path class="st9" d="M111.8,109.6L111.8,109.6c-0.2,0-0.3-0.1-0.3-0.3v-4.6h0.6v4.6C112.1,109.5,112,109.6,111.8,109.6z"/>
						</g>
						<g>
							<path class="st9" d="M118.6,112.5L118.6,112.5c-0.2,0-0.3-0.1-0.3-0.3v-4.6h0.6v4.6C118.9,112.3,118.8,112.5,118.6,112.5z"/>
						</g>
					</g>
					<g>
						<g>
							<polygon class="st12" points="111.5,104.4 118.9,107.5 114,110.4 106.6,107.3 							"/>
						</g>
						<g>
							<circle class="st18" cx="112.5" cy="91" r="2.7"/>
							<path class="st18" d="M114.6,107.2l-3.9-1.6c-0.9-0.4-1.5-1.3-1.5-2.2v-7.4c0-1.3,1.3-2.2,2.5-1.7l3.3,1.4
								c0.7,0.3,1.1,0.9,1.1,1.7v8.8C116.2,106.9,115.4,107.5,114.6,107.2z"/>
							<path class="st19" d="M105.1,96c0,0,3.3,1.1,6.3-0.8"/>
							<path class="st19" d="M115.5,97.3c0,0,2.8-0.6,3.1-4.9"/>
						</g>
						<polygon class="st9" points="114,106 106.6,103 106.6,98.7 114,101.8 						"/>
						<polygon class="st9" points="107.2,107.6 106.6,107.3 106.6,102.4 107.2,102.7 						"/>
						<polygon class="st9" points="114,110.4 113.4,110.1 113.4,105.2 114,105.5 						"/>
					</g>
					<g>
						<g>
							<path class="st9" d="M106.9,112.2L106.9,112.2c-0.2,0-0.3-0.1-0.3-0.3v-4.6h0.6v4.6C107.2,112.1,107.1,112.2,106.9,112.2z"/>
						</g>
						<g>
							<path class="st9" d="M113.7,115.1L113.7,115.1c-0.2,0-0.3-0.1-0.3-0.3v-4.6h0.6v4.6C114,114.9,113.8,115.1,113.7,115.1z"/>
						</g>
					</g>
				</g>
				<line class="st11" x1="91.9" y1="96.3" x2="94.6" y2="96"/>
			</g>
		</g>
		<line class="st17" x1="115.6" y1="106.2" x2="118.3" y2="105.8"/>
	</g>
	<g>
		<g>
			<g>
				<g>
					<path class="st9" d="M100.6,137.8L100.6,137.8c-0.4,0-0.7-0.3-0.7-0.6v-10h1.3v10C101.3,137.5,101,137.8,100.6,137.8z"/>
					<path class="st9" d="M41,112.3L41,112.3c-0.4,0-0.7-0.3-0.7-0.6v-10h1.3v10C41.7,112,41.4,112.3,41,112.3z"/>
				</g>
			</g>
			<g>
				<g>
					<path class="st9" d="M112.7,130.7L112.7,130.7c-0.4,0-0.7-0.3-0.7-0.6v-10h1.3v10C113.4,130.4,113.1,130.7,112.7,130.7z"/>
				</g>
			</g>
			<g>
				<g>
					<polygon class="st3" points="52.5,94.5 113.4,120 101.3,127.2 40.4,101.7 					"/>
				</g>
				<polygon class="st10" points="101.3,128.8 40.4,103.4 40.4,101.7 101.3,127.2 				"/>
				<polygon class="st10" points="101.3,128.8 113.4,121.7 113.4,120 101.3,127.2 				"/>
			</g>
			<g>
				<polyline class="st11" points="48.3,110.7 51,110.4 50.8,115.2 52.5,114.5 				"/>
				<polyline class="st11" points="51.7,111.8 54.4,111.5 54.2,116.3 55.8,115.6 				"/>
				<g>
					<g>
						<g>
							<path class="st9" d="M47.9,115.3L47.9,115.3c-0.2,0-0.3-0.1-0.3-0.3v-4.6h0.6v4.6C48.2,115.2,48.1,115.3,47.9,115.3z"/>
						</g>
						<g>
							<path class="st9" d="M54.7,118.1L54.7,118.1c-0.2,0-0.3-0.1-0.3-0.3v-4.6H55v4.6C55,118,54.8,118.1,54.7,118.1z"/>
						</g>
					</g>
					<g>
						<g>
							<polygon class="st12" points="47.5,110.1 55,113.2 50.1,116.1 42.6,113 							"/>
						</g>
						<g>
							<circle class="st4" cx="48.5" cy="96.7" r="2.7"/>
							<path class="st4" d="M50.7,112.8l-3.9-1.6c-0.9-0.4-1.5-1.3-1.5-2.2v-7.4c0-1.3,1.3-2.2,2.5-1.7l3.3,1.4
								c0.7,0.3,1.1,0.9,1.1,1.7v8.8C52.3,112.6,51.5,113.1,50.7,112.8z"/>
							<path class="st13" d="M46.8,106.9c0,0-2.4-4.1,0.6-6"/>
							<path class="st13" d="M51.5,103c0,0,0.9,2.3,5,3.1"/>
						</g>
						<polygon class="st9" points="50,111.7 42.6,108.6 42.6,104.4 50,107.5 						"/>
						<polygon class="st9" points="43.3,113.3 42.6,113 42.6,108.1 43.3,108.3 						"/>
						<polygon class="st9" points="50,116.1 49.4,115.8 49.4,110.9 50,111.2 						"/>
					</g>
					<g>
						<g>
							<path class="st9" d="M43,117.9L43,117.9c-0.2,0-0.3-0.1-0.3-0.3V113h0.6v4.6C43.3,117.8,43.1,117.9,43,117.9z"/>
						</g>
						<g>
							<path class="st9" d="M49.7,120.7L49.7,120.7c-0.2,0-0.3-0.1-0.3-0.3v-4.6H50v4.6C50,120.6,49.9,120.7,49.7,120.7z"/>
						</g>
					</g>
				</g>
				<polyline class="st14" points="68.3,119.1 71,118.8 70.8,123.6 72.5,122.9 				"/>
				<polyline class="st14" points="71.7,120.3 74.4,119.9 74.2,124.8 75.8,124 				"/>
				<g>
					<g>
						<g>
							<path class="st9" d="M67.9,123.7L67.9,123.7c-0.2,0-0.3-0.1-0.3-0.3v-4.6h0.6v4.6C68.2,123.6,68.1,123.7,67.9,123.7z"/>
						</g>
						<g>
							<path class="st9" d="M74.7,126.5L74.7,126.5c-0.2,0-0.3-0.1-0.3-0.3v-4.6H75v4.6C75,126.4,74.8,126.5,74.7,126.5z"/>
						</g>
					</g>
					<g>
						<g>
							<polygon class="st12" points="67.5,118.5 75,121.6 70.1,124.5 62.6,121.4 							"/>
						</g>
						<g>
							<circle class="st15" cx="68.5" cy="105.1" r="2.7"/>
							<path class="st15" d="M70.7,121.3l-3.9-1.6c-0.9-0.4-1.5-1.3-1.5-2.2V110c0-1.3,1.3-2.2,2.5-1.7l3.3,1.4
								c0.7,0.3,1.1,0.9,1.1,1.7v8.8C72.3,121,71.5,121.6,70.7,121.3z"/>
							<path class="st16" d="M66.8,115.3c0,0-2.4-4.1,0.6-6"/>
							<path class="st16" d="M71.6,111.4c0,0,2,1.8,5-1.1"/>
						</g>
						<polygon class="st9" points="70,120.1 62.6,117 62.6,112.8 70,115.9 						"/>
						<polygon class="st9" points="63.3,121.7 62.6,121.4 62.6,116.5 63.3,116.8 						"/>
						<polygon class="st9" points="70,124.5 69.4,124.2 69.4,119.3 70,119.6 						"/>
					</g>
					<g>
						<g>
							<path class="st9" d="M63,126.3L63,126.3c-0.2,0-0.3-0.1-0.3-0.3v-4.6h0.6v4.6C63.3,126.2,63.1,126.3,63,126.3z"/>
						</g>
						<g>
							<path class="st9" d="M69.7,129.1L69.7,129.1c-0.2,0-0.3-0.1-0.3-0.3v-4.6H70v4.6C70,129,69.9,129.1,69.7,129.1z"/>
						</g>
					</g>
				</g>
				<polyline class="st17" points="89,127.8 91.7,127.5 91.5,132.3 93.2,131.5 				"/>
				<polyline class="st17" points="92.4,128.9 95.1,128.6 94.9,133.4 96.5,132.7 				"/>
				<g>
					<g>
						<g>
							<path class="st9" d="M88.6,132.4L88.6,132.4c-0.2,0-0.3-0.1-0.3-0.3v-4.6h0.6v4.6C88.9,132.2,88.7,132.4,88.6,132.4z"/>
						</g>
						<g>
							<path class="st9" d="M95.4,135.2L95.4,135.2c-0.2,0-0.3-0.1-0.3-0.3v-4.6h0.6v4.6C95.7,135,95.5,135.2,95.4,135.2z"/>
						</g>
					</g>
					<g>
						<g>
							<polygon class="st12" points="88.2,127.2 95.7,130.2 90.8,133.2 83.3,130.1 							"/>
						</g>
						<g>
							<circle class="st18" cx="89.2" cy="113.8" r="2.7"/>
							<path class="st18" d="M91.4,129.9l-3.9-1.6c-0.9-0.4-1.5-1.3-1.5-2.2v-7.4c0-1.3,1.3-2.2,2.5-1.7l3.3,1.4
								c0.7,0.3,1.1,0.9,1.1,1.7v8.8C93,129.6,92.2,130.2,91.4,129.9z"/>
							<path class="st19" d="M87.5,124c0,0-2.4-4.1,0.6-6"/>
							<path class="st19" d="M92.2,120.1c0,0,0.9,2.3,5,3.1"/>
						</g>
						<polygon class="st9" points="90.7,128.8 83.3,125.7 83.3,121.5 90.7,124.6 						"/>
						<polygon class="st9" points="83.9,130.3 83.3,130 83.3,125.1 83.9,125.4 						"/>
						<polygon class="st9" points="90.7,133.2 90.1,132.9 90.1,128 90.7,128.2 						"/>
					</g>
					<g>
						<g>
							<path class="st9" d="M83.6,135L83.6,135c-0.2,0-0.3-0.1-0.3-0.3V130h0.6v4.6C83.9,134.8,83.8,135,83.6,135z"/>
						</g>
						<g>
							<path class="st9" d="M90.4,137.8L90.4,137.8c-0.2,0-0.3-0.1-0.3-0.3v-4.6h0.6v4.6C90.7,137.7,90.6,137.8,90.4,137.8z"/>
						</g>
					</g>
				</g>
				<line class="st11" x1="51.7" y1="111.8" x2="54.4" y2="111.5"/>
			</g>
		</g>
		<line class="st14" x1="71.7" y1="120.3" x2="74.4" y2="119.9"/>
		<line class="st17" x1="92.4" y1="128.9" x2="95.1" y2="128.6"/>
	</g>
	<g>
		<g>
			<g>
				<g>
					<path class="st9" d="M231.9,130.5L231.9,130.5c-0.4,0-0.7-0.3-0.7-0.6v-10h1.3v10C232.6,130.2,232.3,130.5,231.9,130.5z"/>
					<path class="st9" d="M172.3,105L172.3,105c-0.4,0-0.7-0.3-0.7-0.6v-10h1.3v10C173,104.7,172.7,105,172.3,105z"/>
				</g>
			</g>
			<g>
				<g>
					<path class="st9" d="M244,123.3L244,123.3c-0.4,0-0.7-0.3-0.7-0.6v-10h1.3v10C244.7,123,244.4,123.3,244,123.3z"/>
				</g>
			</g>
			<g>
				<g>
					<polygon class="st3" points="183.8,87.2 244.7,112.6 232.6,119.8 171.7,94.3 					"/>
				</g>
				<polygon class="st10" points="232.6,121.5 171.7,96 171.7,94.3 232.6,119.8 				"/>
				<polygon class="st10" points="232.6,121.5 244.7,114.3 244.7,112.6 232.6,119.8 				"/>
			</g>
			<g>
				<polyline class="st11" points="179.6,103.4 182.3,103 182.1,107.9 183.8,107.1 				"/>
				<polyline class="st11" points="183,104.5 185.7,104.2 185.5,109 187.1,108.2 				"/>
				<g>
					<g>
						<g>
							<path class="st9" d="M179.2,107.9L179.2,107.9c-0.2,0-0.3-0.1-0.3-0.3V103h0.6v4.6C179.5,107.8,179.4,107.9,179.2,107.9z"/>
						</g>
						<g>
							<path class="st9" d="M186,110.8L186,110.8c-0.2,0-0.3-0.1-0.3-0.3v-4.6h0.6v4.6C186.3,110.6,186.1,110.8,186,110.8z"/>
						</g>
					</g>
					<g>
						<g>
							<polygon class="st12" points="178.8,102.7 186.3,105.8 181.4,108.7 173.9,105.7 							"/>
						</g>
						<g>
							<circle class="st4" cx="179.8" cy="89.4" r="2.7"/>
							<path class="st4" d="M182,105.5l-3.9-1.6c-0.9-0.4-1.5-1.3-1.5-2.2v-7.4c0-1.3,1.3-2.2,2.5-1.7l3.3,1.4
								c0.7,0.3,1.1,0.9,1.1,1.7v8.8C183.6,105.2,182.8,105.8,182,105.5z"/>
							<path class="st13" d="M178.1,99.6c0,0-2.4-4.1,0.6-6"/>
							<path class="st13" d="M182.8,95.6c0,0,0.9,2.3,5,3.1"/>
						</g>
						<polygon class="st9" points="181.3,104.3 173.9,101.3 173.9,97.1 181.3,100.1 						"/>
						<polygon class="st9" points="174.6,105.9 173.9,105.6 173.9,100.7 174.6,101 						"/>
						<polygon class="st9" points="181.3,108.7 180.7,108.5 180.7,103.5 181.3,103.8 						"/>
					</g>
					<g>
						<g>
							<path class="st9" d="M174.3,110.5L174.3,110.5c-0.2,0-0.3-0.1-0.3-0.3v-4.6h0.6v4.6C174.6,110.4,174.4,110.5,174.3,110.5z"/>
						</g>
						<g>
							<path class="st9" d="M181,113.4L181,113.4c-0.2,0-0.3-0.1-0.3-0.3v-4.6h0.6v4.6C181.3,113.2,181.2,113.4,181,113.4z"/>
						</g>
					</g>
				</g>
				<polyline class="st14" points="199.6,111.8 202.3,111.5 202.1,116.3 203.8,115.5 				"/>
				<polyline class="st14" points="203,112.9 205.7,112.6 205.5,117.4 207.1,116.7 				"/>
				<g>
					<g>
						<g>
							<path class="st9" d="M199.2,116.4L199.2,116.4c-0.2,0-0.3-0.1-0.3-0.3v-4.6h0.6v4.6C199.5,116.2,199.4,116.4,199.2,116.4z"/>
						</g>
						<g>
							<path class="st9" d="M206,119.2L206,119.2c-0.2,0-0.3-0.1-0.3-0.3v-4.6h0.6v4.6C206.3,119.1,206.1,119.2,206,119.2z"/>
						</g>
					</g>
					<g>
						<g>
							<polygon class="st12" points="198.8,111.2 206.3,114.3 201.4,117.2 193.9,114.1 							"/>
						</g>
						<g>
							<circle class="st15" cx="199.8" cy="97.8" r="2.7"/>
							<path class="st15" d="M202,113.9l-3.9-1.6c-0.9-0.4-1.5-1.3-1.5-2.2v-7.4c0-1.3,1.3-2.2,2.5-1.7l3.3,1.4
								c0.7,0.3,1.1,0.9,1.1,1.7v8.8C203.6,113.7,202.8,114.2,202,113.9z"/>
							<path class="st16" d="M198.1,108c0,0-2.4-4.1,0.6-6"/>
							<path class="st16" d="M202.8,104.1c0,0,2,1.8,5-1.1"/>
						</g>
						<polygon class="st9" points="201.3,112.8 193.9,109.7 193.9,105.5 201.3,108.6 						"/>
						<polygon class="st9" points="194.6,114.3 193.9,114 193.9,109.1 194.6,109.4 						"/>
						<polygon class="st9" points="201.3,117.2 200.7,116.9 200.7,112 201.3,112.3 						"/>
					</g>
					<g>
						<g>
							<path class="st9" d="M194.3,119L194.3,119c-0.2,0-0.3-0.1-0.3-0.3V114h0.6v4.6C194.6,118.8,194.4,119,194.3,119z"/>
						</g>
						<g>
							<path class="st9" d="M201,121.8L201,121.8c-0.2,0-0.3-0.1-0.3-0.3v-4.6h0.6v4.6C201.3,121.7,201.2,121.8,201,121.8z"/>
						</g>
					</g>
				</g>
				<polyline class="st11" points="220.3,120.4 223,120.1 222.8,124.9 224.5,124.2 				"/>
				<polyline class="st11" points="223.7,121.5 226.3,121.2 226.2,126.1 227.8,125.3 				"/>
				<g>
					<g>
						<g>
							<path class="st9" d="M219.9,125L219.9,125c-0.2,0-0.3-0.1-0.3-0.3v-4.6h0.6v4.6C220.2,124.9,220,125,219.9,125z"/>
						</g>
						<g>
							<path class="st9" d="M226.7,127.8L226.7,127.8c-0.2,0-0.3-0.1-0.3-0.3v-4.6h0.6v4.6C226.9,127.7,226.8,127.8,226.7,127.8z"/>
						</g>
					</g>
					<g>
						<g>
							<polygon class="st12" points="219.5,119.8 226.9,122.9 222,125.8 214.6,122.7 							"/>
						</g>
						<g>
							<circle class="st4" cx="220.5" cy="106.4" r="2.7"/>
							<path class="st4" d="M222.7,122.5l-3.9-1.6c-0.9-0.4-1.5-1.3-1.5-2.2v-7.4c0-1.3,1.3-2.2,2.5-1.7l3.3,1.4
								c0.7,0.3,1.1,0.9,1.1,1.7v8.8C224.3,122.3,223.4,122.9,222.7,122.5z"/>
							<path class="st13" d="M218.8,116.6c0,0-2.4-4.1,0.6-6"/>
							<path class="st13" d="M223.5,112.7c0,0,0.7-1.3,4.8-4.6"/>
						</g>
						<polygon class="st9" points="222,121.4 214.6,118.3 214.6,114.1 222,117.2 						"/>
						<polygon class="st9" points="215.2,123 214.6,122.7 214.6,117.8 215.2,118.1 						"/>
						<polygon class="st9" points="222,125.8 221.4,125.5 221.4,120.6 222,120.9 						"/>
					</g>
					<g>
						<g>
							<path class="st9" d="M214.9,127.6L214.9,127.6c-0.2,0-0.3-0.1-0.3-0.3v-4.6h0.6v4.6C215.2,127.5,215.1,127.6,214.9,127.6z"/>
						</g>
						<g>
							<path class="st9" d="M221.7,130.4L221.7,130.4c-0.2,0-0.3-0.1-0.3-0.3v-4.6h0.6v4.6C222,130.3,221.9,130.4,221.7,130.4z"/>
						</g>
					</g>
				</g>
				<line class="st11" x1="183" y1="104.5" x2="185.7" y2="104.2"/>
			</g>
		</g>
		<line class="st14" x1="203" y1="112.9" x2="205.7" y2="112.6"/>
		<line class="st11" x1="223.7" y1="121.5" x2="226.3" y2="121.2"/>
	</g>
	<g>
		<g>
			<g>
				<g>
					<path class="st9" d="M201.5,149.5L201.5,149.5c-0.4,0-0.7-0.3-0.7-0.6v-10h1.3v10C202.1,149.2,201.8,149.5,201.5,149.5z"/>
					<path class="st9" d="M141.9,124L141.9,124c-0.4,0-0.7-0.3-0.7-0.6v-10h1.3v10C142.5,123.7,142.2,124,141.9,124z"/>
				</g>
			</g>
			<g>
				<g>
					<path class="st9" d="M213.6,142.3L213.6,142.3c-0.4,0-0.7-0.3-0.7-0.6v-10h1.3v10C214.2,142,213.9,142.3,213.6,142.3z"/>
				</g>
			</g>
			<g>
				<g>
					<polygon class="st3" points="153.3,106.2 214.2,131.6 202.1,138.8 141.2,113.3 					"/>
				</g>
				<polygon class="st10" points="202.1,140.5 141.2,115 141.2,113.3 202.1,138.8 				"/>
				<polygon class="st10" points="202.1,140.5 214.2,133.3 214.2,131.6 202.1,138.8 				"/>
			</g>
			<g>
				<polyline class="st14" points="158,126 160.7,125.7 160.5,130.5 162.1,129.7 				"/>
				<polyline class="st14" points="161.3,127.1 164,126.8 163.8,131.6 165.5,130.9 				"/>
				<g>
					<g>
						<g>
							<path class="st9" d="M157.5,130.6L157.5,130.6c-0.2,0-0.3-0.1-0.3-0.3v-4.6h0.6v4.6C157.8,130.4,157.7,130.6,157.5,130.6z"/>
						</g>
						<g>
							<path class="st9" d="M164.3,133.4L164.3,133.4c-0.2,0-0.3-0.1-0.3-0.3v-4.6h0.6v4.6C164.6,133.3,164.5,133.4,164.3,133.4z"/>
						</g>
					</g>
					<g>
						<g>
							<polygon class="st12" points="157.2,125.4 164.6,128.5 159.7,131.4 152.3,128.3 							"/>
						</g>
						<g>
							<circle class="st15" cx="158.2" cy="112" r="2.7"/>
							<path class="st15" d="M160.4,128.1l-3.9-1.6c-0.9-0.4-1.5-1.3-1.5-2.2v-7.4c0-1.3,1.3-2.2,2.5-1.7l3.3,1.4
								c0.7,0.3,1.1,0.9,1.1,1.7v8.8C162,127.9,161.1,128.4,160.4,128.1z"/>
							<path class="st16" d="M156.5,122.2c0,0-2.4-4.1,0.6-6"/>
							<path class="st16" d="M161.2,118.3c0,0,0.9,2.3,5,3.1"/>
						</g>
						<polygon class="st9" points="159.7,127 152.3,123.9 152.3,119.7 159.7,122.8 						"/>
						<polygon class="st9" points="152.9,128.5 152.3,128.2 152.3,123.3 152.9,123.6 						"/>
						<polygon class="st9" points="159.7,131.4 159.1,131.1 159.1,126.2 159.7,126.5 						"/>
					</g>
					<g>
						<g>
							<path class="st9" d="M152.6,133.2L152.6,133.2c-0.2,0-0.3-0.1-0.3-0.3v-4.6h0.6v4.6C152.9,133,152.8,133.2,152.6,133.2z"/>
						</g>
						<g>
							<path class="st9" d="M159.4,136L159.4,136c-0.2,0-0.3-0.1-0.3-0.3v-4.6h0.6v4.6C159.7,135.9,159.6,136,159.4,136z"/>
						</g>
					</g>
				</g>
				<polyline class="st17" points="181.7,135.8 184.4,135.5 184.2,140.3 185.9,139.6 				"/>
				<polyline class="st17" points="185.1,136.9 187.8,136.6 187.6,141.5 189.2,140.7 				"/>
				<g>
					<g>
						<g>
							<path class="st9" d="M181.3,140.4L181.3,140.4c-0.2,0-0.3-0.1-0.3-0.3v-4.6h0.6v4.6C181.6,140.3,181.4,140.4,181.3,140.4z"/>
						</g>
						<g>
							<path class="st9" d="M188.1,143.2L188.1,143.2c-0.2,0-0.3-0.1-0.3-0.3v-4.6h0.6v4.6C188.4,143.1,188.2,143.2,188.1,143.2z"/>
						</g>
					</g>
					<g>
						<g>
							<polygon class="st12" points="180.9,135.2 188.4,138.3 183.5,141.2 176,138.1 							"/>
						</g>
						<g>
							<circle class="st18" cx="181.9" cy="121.8" r="2.7"/>
							<path class="st18" d="M184.1,137.9l-3.9-1.6c-0.9-0.4-1.5-1.3-1.5-2.2v-7.4c0-1.3,1.3-2.2,2.5-1.7l3.3,1.4
								c0.7,0.3,1.1,0.9,1.1,1.7v8.8C185.7,137.7,184.9,138.3,184.1,137.9z"/>
							<path class="st19" d="M174.6,126.8c0,0,3.3,1.1,6.3-0.8"/>
							<path class="st19" d="M184.9,128.1c0,0,2.1,2.9,4.3-0.3"/>
						</g>
						<polygon class="st9" points="183.4,136.8 176,133.7 176,129.5 183.4,132.6 						"/>
						<polygon class="st9" points="176.6,138.4 176,138.1 176,133.2 176.6,133.5 						"/>
						<polygon class="st9" points="183.4,141.2 182.8,140.9 182.8,136 183.4,136.3 						"/>
					</g>
					<g>
						<g>
							<path class="st9" d="M176.4,143L176.4,143c-0.2,0-0.3-0.1-0.3-0.3v-4.6h0.6v4.6C176.6,142.9,176.5,143,176.4,143z"/>
						</g>
						<g>
							<path class="st9" d="M183.1,145.8L183.1,145.8c-0.2,0-0.3-0.1-0.3-0.3v-4.6h0.6v4.6C183.4,145.7,183.3,145.8,183.1,145.8z"/>
						</g>
					</g>
				</g>
				<line class="st14" x1="161.3" y1="127.1" x2="164" y2="126.8"/>
			</g>
		</g>
		<line class="st17" x1="185.1" y1="136.9" x2="187.8" y2="136.6"/>
	</g>
	<g>
		<g>
			<g>
				<g>
					<path class="st9" d="M170.1,168.6L170.1,168.6c-0.4,0-0.7-0.3-0.7-0.6v-10h1.3v10C170.7,168.3,170.4,168.6,170.1,168.6z"/>
					<path class="st9" d="M110.5,143.1L110.5,143.1c-0.4,0-0.7-0.3-0.7-0.6v-10h1.3v10C111.1,142.8,110.8,143.1,110.5,143.1z"/>
				</g>
			</g>
			<g>
				<g>
					<path class="st9" d="M182.2,161.4L182.2,161.4c-0.4,0-0.7-0.3-0.7-0.6v-10h1.3v10C182.8,161.2,182.5,161.4,182.2,161.4z"/>
				</g>
			</g>
			<g>
				<g>
					<polygon class="st3" points="121.9,125.3 182.8,150.8 170.7,158 109.8,132.5 					"/>
				</g>
				<polygon class="st10" points="170.7,159.6 109.8,134.1 109.8,132.5 170.7,158 				"/>
				<polygon class="st10" points="170.7,159.6 182.8,152.4 182.8,150.8 170.7,158 				"/>
			</g>
			<g>
				<polyline class="st11" points="117.8,141.5 120.5,141.2 120.3,146 121.9,145.2 				"/>
				<polyline class="st11" points="121.1,142.6 123.8,142.3 123.6,147.1 125.3,146.4 				"/>
				<g>
					<g>
						<g>
							<path class="st9" d="M117.3,146.1L117.3,146.1c-0.2,0-0.3-0.1-0.3-0.3v-4.6h0.6v4.6C117.6,145.9,117.5,146.1,117.3,146.1z"/>
						</g>
						<g>
							<path class="st9" d="M124.1,148.9L124.1,148.9c-0.2,0-0.3-0.1-0.3-0.3V144h0.6v4.6C124.4,148.8,124.3,148.9,124.1,148.9z"/>
						</g>
					</g>
					<g>
						<g>
							<polygon class="st12" points="117,140.9 124.4,144 119.5,146.9 112.1,143.8 							"/>
						</g>
						<g>
							<circle class="st4" cx="118" cy="127.5" r="2.7"/>
							<path class="st4" d="M120.2,143.6l-3.9-1.6c-0.9-0.4-1.5-1.3-1.5-2.2v-7.4c0-1.3,1.3-2.2,2.5-1.7l3.3,1.4
								c0.7,0.3,1.1,0.9,1.1,1.7v8.8C121.8,143.4,120.9,143.9,120.2,143.6z"/>
							<path class="st13" d="M116.3,137.7c0,0-2.4-4.1,0.6-6"/>
							<path class="st13" d="M121,133.8c0,0,0.9,2.3,5,3.1"/>
						</g>
						<polygon class="st9" points="119.5,142.5 112.1,139.4 112.1,135.2 119.5,138.3 						"/>
						<polygon class="st9" points="112.7,144 112.1,143.7 112.1,138.8 112.7,139.1 						"/>
						<polygon class="st9" points="119.5,146.9 118.9,146.6 118.9,141.7 119.5,142 						"/>
					</g>
					<g>
						<g>
							<path class="st9" d="M112.4,148.7L112.4,148.7c-0.2,0-0.3-0.1-0.3-0.3v-4.6h0.6v4.6C112.7,148.5,112.6,148.7,112.4,148.7z"/>
						</g>
						<g>
							<path class="st9" d="M119.2,151.5L119.2,151.5c-0.2,0-0.3-0.1-0.3-0.3v-4.6h0.6v4.6C119.5,151.4,119.4,151.5,119.2,151.5z"/>
						</g>
					</g>
				</g>
				<polyline class="st17" points="158.5,158.5 161.2,158.2 161,163.1 162.6,162.3 				"/>
				<polyline class="st17" points="161.8,159.7 164.5,159.4 164.3,164.2 166,163.4 				"/>
				<g>
					<g>
						<g>
							<path class="st9" d="M158,163.1L158,163.1c-0.2,0-0.3-0.1-0.3-0.3v-4.6h0.6v4.6C158.3,163,158.2,163.1,158,163.1z"/>
						</g>
						<g>
							<path class="st9" d="M164.8,166L164.8,166c-0.2,0-0.3-0.1-0.3-0.3V161h0.6v4.6C165.1,165.8,165,166,164.8,166z"/>
						</g>
					</g>
					<g>
						<g>
							<polygon class="st12" points="157.7,157.9 165.1,161 160.2,163.9 152.8,160.8 							"/>
						</g>
						<g>
							<circle class="st18" cx="158.7" cy="144.6" r="2.7"/>
							<path class="st18" d="M160.8,160.7l-3.9-1.6c-0.9-0.4-1.5-1.3-1.5-2.2v-7.4c0-1.3,1.3-2.2,2.5-1.7l3.3,1.4
								c0.7,0.3,1.1,0.9,1.1,1.7v8.8C162.4,160.4,161.6,161,160.8,160.7z"/>
							<path class="st19" d="M157,154.8c0,0-2.4-4.1,0.6-6"/>
							<path class="st19" d="M161.7,150.8c0,0,0.9,2.3,5,3.1"/>
						</g>
						<polygon class="st9" points="160.2,159.5 152.8,156.5 152.8,152.3 160.2,155.3 						"/>
						<polygon class="st9" points="153.4,161.1 152.8,160.8 152.8,155.9 153.4,156.2 						"/>
						<polygon class="st9" points="160.2,163.9 159.6,163.6 159.6,158.7 160.2,159 						"/>
					</g>
					<g>
						<g>
							<path class="st9" d="M153.1,165.7L153.1,165.7c-0.2,0-0.3-0.1-0.3-0.3v-4.6h0.6v4.6C153.4,165.6,153.3,165.7,153.1,165.7z"/>
						</g>
						<g>
							<path class="st9" d="M159.9,168.6L159.9,168.6c-0.2,0-0.3-0.1-0.3-0.3v-4.6h0.6v4.6C160.2,168.4,160,168.6,159.9,168.6z"/>
						</g>
					</g>
				</g>
				<line class="st11" x1="121.1" y1="142.6" x2="123.8" y2="142.3"/>
			</g>
		</g>
		<line class="st17" x1="161.8" y1="159.7" x2="164.5" y2="159.4"/>
	</g>
</g>
<g>
	<path class="st3" d="M66.9,78.8c0-7.4-6.9-15.5-15.4-18.1s-15.4,1.4-15.4,8.8c0,7.4,6.7,15.4,15.1,18l-0.1,2.9l2.1-2.4
		C61.3,89.9,66.9,85.9,66.9,78.8z"/>
	<g>
		<g>
			<polygon class="st9" points="44.8,69.9 42.5,68.9 42.5,66.7 44.8,67.7 			"/>
			<polygon class="st9" points="48.5,71.6 46.3,70.6 46.3,68.4 48.5,69.3 			"/>
			<polygon class="st9" points="52.3,73.2 50.1,72.2 50.1,70 52.3,71 			"/>
			<polygon class="st9" points="56.1,74.9 53.8,73.9 53.8,71.7 56.1,72.7 			"/>
			<polygon class="st9" points="59.8,76.6 57.6,75.6 57.6,73.4 59.8,74.4 			"/>
		</g>
		<g>
			<polygon class="st9" points="44.8,73.8 42.5,72.8 42.5,70.6 44.8,71.6 			"/>
			<polygon class="st9" points="48.5,75.5 46.3,74.5 46.3,72.3 48.5,73.3 			"/>
			<polygon class="st9" points="52.3,77.2 50.1,76.2 50.1,74 52.3,74.9 			"/>
			<polygon class="st9" points="56.1,78.8 53.8,77.9 53.8,75.6 56.1,76.6 			"/>
			<polygon class="st9" points="59.8,80.5 57.6,79.5 57.6,77.3 59.8,78.3 			"/>
		</g>
	</g>
</g>
<g>
	<g>
		<path class="st3" d="M293.9,67.4c0,10.1-10.9,15.5-24.4,12.1c-13.5-3.3-24.4-14.2-24.4-24.3s10.9-15.5,24.4-12.1
			C283,46.5,293.9,57.4,293.9,67.4z"/>
		<polyline class="st3" points="258.1,73.4 256.3,79.6 262.9,75.7 		"/>
	</g>
	<g>
		<g>
			<path class="st5" d="M261.2,58.8c0,2.1-1.7,3.1-3.7,2.2c-2.1-0.9-3.7-3.2-3.7-5.3c0-2.1,1.7-3.1,3.7-2.2
				C259.5,54.4,261.2,56.8,261.2,58.8z"/>
			<polygon class="st6" points="272.2,67.1 264.7,64.1 264.7,56.6 272.2,59.7 			"/>
		</g>
		<polygon class="st7" points="275.6,68.4 279.8,62.8 284.1,71.9 		"/>
	</g>
</g>
<g>
	<g>
		<g>
			<circle class="st20" cx="246" cy="78.4" r="2.7"/>
			<path class="st20" d="M248.7,94.8l-7-2.9v-9c0-1.3,1.3-2.2,2.5-1.7l3.3,1.4c0.7,0.3,1.1,0.9,1.1,1.7V94.8z"/>
			<path class="st21" d="M237.3,80.3c0,0,2.7,1.5,6.5,1.9"/>
			<polyline class="st21" points="243.2,91.2 243.2,100.1 241.3,101 			"/>
			<polyline class="st21" points="246.5,92.9 246.5,101.3 244.6,102.3 			"/>
		</g>
	</g>
	<line class="st21" x1="247.9" y1="84.3" x2="253.3" y2="89.6"/>
</g>
<line class="st22" x1="232.3" y1="67.8" x2="236.8" y2="80.4"/>
<polygon class="st12" points="168.4,195.6 0,126.6 0,114.9 168.4,183.9 "/>
<polygon class="st9" points="168.4,195.6 282.4,125.4 282.4,113.8 168.4,183.9 "/>
</svg>
