<?xml version="1.0" encoding="utf-8"?>
<!-- Generator: Adobe Illustrator 20.1.0, SVG Export Plug-In . SVG Version: 6.00 Build 0)  -->
<svg version="1.1" id="レイヤー_1" xmlns="http://www.w3.org/2000/svg" xmlns:xlink="http://www.w3.org/1999/xlink" x="0px"
	 y="0px" width="358.4px" height="265.6px" viewBox="0 0 358.4 265.6" style="enable-background:new 0 0 358.4 265.6;"
	 xml:space="preserve">
<style type="text/css">
	.st0{opacity:0.2;}
	.st1{fill:url(#SVGID_1_);}
	.st2{fill:#5380E3;}
	.st3{fill:#E1E1E1;}
	.st4{clip-path:url(#SVGID_3_);fill:#D5D5D9;}
	.st5{fill:#70A71B;}
	.st6{fill:none;stroke:#70A71B;stroke-width:2;stroke-linecap:round;stroke-miterlimit:10;}
	.st7{fill:none;stroke:#FF5936;stroke-width:2;stroke-linecap:round;stroke-miterlimit:10;}
	.st8{fill:#EFEFEF;}
	.st9{fill:#FFFFFF;}
	.st10{fill:none;stroke:#5380E3;stroke-width:2;stroke-linecap:round;stroke-miterlimit:10;}
	.st11{fill:#FFEEC6;}
	.st12{fill:#80808B;}
	.st13{fill:#FF5936;}
	.st14{fill:#FFB400;}
	.st15{fill:none;stroke:#FFB400;stroke-width:2;stroke-linecap:round;stroke-miterlimit:10;}
	.st16{fill:#D1E1CC;}
	.st17{fill:#95959E;}
	.st18{fill:#C1D4BC;}
	.st19{fill:#F7F7F7;}
	.st20{opacity:3.000000e-02;fill:url(#SVGID_4_);}
	.st21{fill:#DCDDDD;}
</style>
<g class="st0">
	<linearGradient id="SVGID_1_" gradientUnits="userSpaceOnUse" x1="78.4449" y1="274.4247" x2="280.9128" y2="71.9569">
		<stop  offset="0" style="stop-color:#001336"/>
		<stop  offset="1" style="stop-color:#FFFFFF"/>
	</linearGradient>
	<polygon class="st1" points="190.9,81 358.4,149.4 168.5,265.4 1,197 	"/>
</g>
<polygon class="st2" points="283,183.7 114.7,114.9 114.7,14 283,82.8 "/>
<g>
	<polygon class="st3" points="114.1,114.7 282.4,183.7 168.4,253.9 0,184.9 	"/>
</g>
<g>
	<defs>
		<polygon id="SVGID_2_" points="114.1,114.7 282.4,183.7 168.4,253.9 0,184.9 		"/>
	</defs>
	<clipPath id="SVGID_3_">
		<use xlink:href="#SVGID_2_"  style="overflow:visible;"/>
	</clipPath>
	<path class="st4" d="M273.7,174.8c-4.6,12.3-24,20.1-43.3,17.4s-31.2-14.8-26.6-27.1s24-20.1,43.3-17.4
		C266.4,150.4,278.3,162.5,273.7,174.8z"/>
</g>
<g>
	<g>
		<g>
			<g>
				<circle class="st5" cx="101.6" cy="135" r="2.7"/>
				<path class="st5" d="M104.4,151.5l-7-2.9v-9c0-1.3,1.3-2.2,2.5-1.7l3.3,1.4c0.7,0.3,1.1,0.9,1.1,1.7V151.5z"/>
				<path class="st6" d="M93.2,139.9c0,0,3.2,2.8,6.3-1"/>
				<path class="st6" d="M102.6,140.9c0,0,3.2,2.8,6.3-1"/>
			</g>
		</g>
		<path class="st7" d="M99.5,147.9"/>
		<path class="st7" d="M103.6,141"/>
		<path class="st7" d="M99.5,147.9"/>
		<path class="st7" d="M103.6,141"/>
	</g>
</g>
<g>
	<circle class="st5" cx="132.3" cy="132.3" r="2.7"/>
	<path class="st5" d="M128.5,149l7-2.9v-9c0-1.3-1.3-2.2-2.5-1.7l-3.3,1.4c-0.7,0.3-1.1,0.9-1.1,1.7V149z"/>
	<path class="st6" d="M139.7,135.1c0,0-3.4,3.3-6.4,1.4"/>
	<line class="st6" x1="129.3" y1="138.5" x2="125" y2="144.4"/>
	<polyline class="st6" points="133.9,145.5 133.9,153.9 136.5,155.2 	"/>
	<polyline class="st6" points="130.6,147.1 130.6,155.5 133.2,156.8 	"/>
</g>
<g>
	<polygon class="st8" points="116.7,174.4 57.3,149.4 57.3,138.4 116.7,163.4 	"/>
	<g>
		<g>
			<polygon class="st9" points="66.5,132.9 125.9,158 116.7,163.4 57.3,138.4 			"/>
			<polygon class="st9" points="116.7,163.4 106.3,159.1 164.7,124.4 175.2,128.7 			"/>
		</g>
	</g>
	<polygon class="st8" points="116.7,174.4 175.2,139.7 175.2,128.7 116.7,163.4 	"/>
</g>
<g>
	<circle class="st2" cx="83" cy="142" r="2.7"/>
	<path class="st2" d="M86.8,158.7l-7-2.9v-9c0-1.3,1.3-2.2,2.5-1.7l3.3,1.4c0.7,0.3,1.1,0.9,1.1,1.7V158.7z"/>
	<path class="st10" d="M76.1,152.8c0,0,2.9-4.7,5.8-6.6"/>
	<line class="st10" x1="86" y1="148.2" x2="91.1" y2="149.8"/>
	<polyline class="st10" points="81.4,155.1 81.4,163.6 83,162.8 	"/>
	<polyline class="st10" points="84.7,156.8 84.7,165.2 86.3,164.5 	"/>
</g>
<g>
	<path class="st11" d="M274.6,99.5c0,4.8-3.9,7.5-8.7,6c-4.8-1.5-8.7-6.6-8.7-11.4c0-4.8,3.9-7.5,8.7-6S274.6,94.7,274.6,99.5z"/>
	<polygon class="st11" points="197,79.8 195.1,77.3 197,76 198.9,78.5 	"/>
	<polygon class="st11" points="252.2,108.1 250.3,105.6 252.2,104.3 254,106.8 	"/>
	<polygon class="st11" points="155.2,86.4 153.3,83.9 155.2,82.6 157.1,85.1 	"/>
	<polygon class="st11" points="152.7,52.6 150.8,50.2 152.7,48.9 154.6,51.3 	"/>
	<polygon class="st11" points="132.4,54.4 131,52.6 132.4,51.7 133.8,53.5 	"/>
	<polygon class="st11" points="158.9,62.1 157.9,60.7 158.9,60 160,61.4 	"/>
	<polygon class="st11" points="214.1,91.4 210.6,86.9 214.1,84.5 217.6,89 	"/>
	<polygon class="st11" points="200.4,94.5 197.9,91.1 200.4,89.4 203,92.7 	"/>
</g>
<g>
	<g>
		<circle class="st5" cx="156.9" cy="189.1" r="2.7"/>
		<path class="st5" d="M153.1,205.9l7-2.9v-9c0-1.3-1.3-2.2-2.5-1.7l-3.3,1.4c-0.7,0.3-1.1,0.9-1.1,1.7V205.9z"/>
		<path class="st6" d="M164.3,191.9c0,0-3.4,3.3-6.4,1.4"/>
		<line class="st6" x1="153.8" y1="195.4" x2="149.6" y2="201.2"/>
		<polyline class="st6" points="158.5,202.3 158.5,210.7 161,212 		"/>
		<polyline class="st6" points="155.2,204 155.2,212.4 157.7,213.7 		"/>
	</g>
	<g>
		<path class="st12" d="M172.7,238.3h-0.5c-0.3,0-0.6-0.3-0.6-0.6v-13.4h1.8v13.4C173.3,238,173.1,238.3,172.7,238.3z"/>
		<path class="st12" d="M141.5,224.6H141c-0.3,0-0.6-0.3-0.6-0.6v-13.4h1.8V224C142.1,224.3,141.9,224.6,141.5,224.6z"/>
	</g>
	<g>
		<path class="st12" d="M203.9,219.7h-0.5c-0.3,0-0.6-0.3-0.6-0.6v-13.4h1.8V219C204.5,219.4,204.3,219.7,203.9,219.7z"/>
	</g>
	<g>
		<polygon class="st8" points="173.3,227.4 140.4,213.8 140.4,210.6 173.3,224.3 		"/>
		<g>
			<g>
				<polygon class="st9" points="171.7,192 204.5,205.7 173.3,224.3 140.4,210.6 				"/>
			</g>
			<polygon class="st8" points="173.3,227.4 204.5,208.8 204.5,205.7 173.3,224.3 			"/>
		</g>
	</g>
	<g>
		<circle class="st13" cx="189.6" cy="207.7" r="2.7"/>
		<path class="st13" d="M185.9,224.5l7-2.9v-9c0-1.3-1.3-2.2-2.5-1.7l-3.3,1.4c-0.7,0.3-1.1,0.9-1.1,1.7V224.5z"/>
		<path class="st7" d="M196.9,211.6c0,0-3.2,2.2-6.1,0.3"/>
		<line class="st7" x1="186.6" y1="214" x2="180" y2="216.1"/>
		<polyline class="st7" points="191.3,220.9 191.3,229.3 189.6,228.6 		"/>
		<polyline class="st7" points="188,222.6 188,231 186.3,230.2 		"/>
	</g>
</g>
<polygon class="st9" points="261,174.9 220.7,158.4 220.7,108.4 261,124.8 "/>
<polygon class="st2" points="241.5,166.9 240.3,166.3 240.3,116.4 241.5,116.9 "/>
<g>
	<g>
		<circle class="st14" cx="222.5" cy="145.3" r="2.7"/>
		<path class="st14" d="M225.2,161.7l-7-2.9v-9c0-1.3,1.3-2.2,2.5-1.7l3.3,1.4c0.7,0.3,1.1,0.9,1.1,1.7V161.7z"/>
		<path class="st15" d="M213.1,149.1c0,0,3.5-0.4,7.2,0"/>
		<polyline class="st15" points="219.8,158.1 224.1,166.5 222.1,167.4 		"/>
		<polyline class="st15" points="223.1,159.8 217.8,166.5 215.9,166 		"/>
	</g>
</g>
<line class="st15" x1="224.5" y1="151.2" x2="227.4" y2="158.7"/>
<g>
	<g>
		<circle class="st13" cx="43.5" cy="171.1" r="2.7"/>
		<path class="st13" d="M46.2,187.5l-7-2.9v-9c0-1.3,1.3-2.2,2.5-1.7l3.3,1.4c0.7,0.3,1.1,0.9,1.1,1.7V187.5z"/>
		<path class="st7" d="M36.9,180.7c0,0,2.4-3.6,4.5-5.7"/>
		<polyline class="st7" points="40.8,184 45.1,192.4 43.1,193.3 		"/>
		<polyline class="st7" points="44.1,185.6 38.9,192.4 36.9,191.8 		"/>
	</g>
</g>
<line class="st7" x1="45.5" y1="177" x2="48.5" y2="184.6"/>
<path class="st9" d="M103,115.4c0-9.7-11.7-20.4-26-23.7c-14.4-3.4-26,1.8-26,11.6c0,9.6,11.4,20.1,25.6,23.6l2.4,4.5l1.1-3.8
	C93.4,130,103,124.7,103,115.4z"/>
<g>
	<g>
		<polygon class="st12" points="64.9,103.1 61.9,101.7 61.9,98.7 64.9,100.1 		"/>
		<polygon class="st12" points="70,105.3 67,104 67,101 70,102.3 		"/>
		<polygon class="st12" points="75.1,107.6 72.1,106.3 72.1,103.3 75.1,104.6 		"/>
		<polygon class="st12" points="80.2,109.9 77.2,108.5 77.2,105.5 80.2,106.9 		"/>
		<polygon class="st12" points="85.3,112.2 82.3,110.8 82.3,107.8 85.3,109.2 		"/>
		<polygon class="st12" points="90.4,114.4 87.4,113.1 87.4,110.1 90.4,111.4 		"/>
	</g>
	<g>
		<polygon class="st12" points="64.9,108.4 61.9,107 61.9,104 64.9,105.4 		"/>
		<polygon class="st12" points="70,110.7 67,109.3 67,106.3 70,107.7 		"/>
		<polygon class="st12" points="75.1,112.9 72.1,111.6 72.1,108.6 75.1,109.9 		"/>
		<polygon class="st12" points="80.2,115.2 77.2,113.9 77.2,110.9 80.2,112.2 		"/>
		<polygon class="st12" points="85.3,117.5 82.3,116.1 82.3,113.1 85.3,114.5 		"/>
		<polygon class="st12" points="90.4,119.7 87.4,118.4 87.4,115.4 90.4,116.7 		"/>
	</g>
</g>
<path class="st9" d="M167.9,163.6c-0.1-6.4-6.7-8.9-14.7-5.6c-8.1,3.3-14.6,11.2-14.5,17.6c0.1,6.3,6.5,8.9,14.4,5.7l1.3,2.1
	l0.6-2.9C162.6,176.9,168,169.7,167.9,163.6z"/>
<g>
	<path class="st13" d="M153.9,171.5l-1.9-4.8c-0.4-1,0.5-2.9,1.9-3.7l0,0c1.3-0.8,2.3-0.1,1.9,1.4L153.9,171.5z"/>
	<path class="st13" d="M155,173.1c0,0.6-0.5,1.4-1.1,1.8c-0.6,0.4-1.1,0.2-1.1-0.4c0-0.6,0.5-1.4,1.1-1.8
		C154.5,172.2,155,172.4,155,173.1z"/>
</g>
<g>
	<g>
		<g>
			<path class="st3" d="M169.7,43.9c-0.3,18.6-15.4,29.6-33.9,24.6s-33.2-24.1-32.9-42.7s15.4-29.6,33.9-24.6S169.9,25.3,169.7,43.9
				z"/>
			<polygon class="st3" points="112.8,4.8 105.4,10.7 154.3,69.2 160.3,64.4 166.3,46.4 151.8,18.9 			"/>
		</g>
		<path class="st9" d="M163.4,48.9c-0.3,18.6-15.4,29.6-33.9,24.6c-18.4-5-33.2-24.1-32.9-42.7s15.4-29.6,33.9-24.6
			S163.7,30.3,163.4,48.9z"/>
		<path class="st16" d="M160.4,48c-0.2,16.9-14,26.9-30.8,22.3c-16.7-4.5-30.1-21.9-29.9-38.8c0.2-16.9,14-26.9,30.8-22.3
			S160.6,31.2,160.4,48z"/>
	</g>
	<polygon class="st12" points="116.3,51.5 115,48.6 128.7,43.4 128.5,17 131.6,17.4 131.6,45.7 	"/>
</g>
<polygon class="st17" points="168.4,265.6 0,196.6 0,184.9 168.4,253.9 "/>
<polygon class="st12" points="168.4,265.6 282.5,195.4 282.5,183.8 168.4,253.9 "/>
<g>
	<g>
		<polygon class="st16" points="154.2,209.3 160.2,211.8 156.2,214.2 150.2,211.7 		"/>
	</g>
	<g>
		<polygon class="st8" points="154.3,209.9 155.3,210.3 152.4,212 151.4,211.6 		"/>
	</g>
	<polygon class="st18" points="156.2,215 150.2,212.4 150.2,211.7 156.2,214.2 	"/>
	<polygon class="st8" points="156.2,215 160.2,212.6 160.2,211.8 156.2,214.2 	"/>
</g>
<g>
	<g>
		<polygon class="st16" points="155,208.1 161.1,210.6 157.1,213 151.1,210.4 		"/>
	</g>
	<g>
		<polygon class="st8" points="155.2,208.6 156.2,209 153.3,210.7 152.3,210.3 		"/>
	</g>
	<polygon class="st18" points="157.1,213.7 151.1,211.2 151.1,210.4 157.1,213 	"/>
	<polygon class="st8" points="157.1,213.7 161.1,211.3 161.1,210.6 157.1,213 	"/>
</g>
<g>
	<g>
		<polygon class="st16" points="153.6,207.2 159.7,209.7 155.7,212.1 149.6,209.6 		"/>
	</g>
	<g>
		<polygon class="st8" points="153.7,207.7 154.7,208.1 151.8,209.8 150.8,209.4 		"/>
	</g>
	<polygon class="st18" points="155.7,212.8 149.6,210.3 149.6,209.6 155.7,212.1 	"/>
	<polygon class="st8" points="155.7,212.8 159.7,210.5 159.7,209.7 155.7,212.1 	"/>
</g>
<g>
	<g>
		<g>
			<polygon class="st5" points="176.1,198.9 187.7,203.7 171.9,213.1 160.2,208.2 			"/>
		</g>
		<g>
			<polygon class="st3" points="169.3,202.5 181,207.4 171.9,212.8 160.2,207.9 			"/>
		</g>
		<g>
			<polygon class="st3" points="176.3,198.4 188,203.3 181,207.4 169.3,202.5 			"/>
		</g>
		<path class="st19" d="M169.1,202.4c-0.5-0.2-1.2,0.1-1.2,0.1l-7.7,4.6l11.7,4.9l7.7-4.6c0,0,0.7-0.4,1.2-0.1L169.1,202.4z"/>
		<linearGradient id="SVGID_4_" gradientUnits="userSpaceOnUse" x1="176.3251" y1="202.7871" x2="171.5725" y2="207.5398">
			<stop  offset="0" style="stop-color:#001336"/>
			<stop  offset="0.1397" style="stop-color:#041639"/>
			<stop  offset="0.2671" style="stop-color:#0F2142"/>
			<stop  offset="0.3899" style="stop-color:#213250"/>
			<stop  offset="0.5097" style="stop-color:#3B4A65"/>
			<stop  offset="0.6275" style="stop-color:#5D697F"/>
			<stop  offset="0.7436" style="stop-color:#868FA0"/>
			<stop  offset="0.8586" style="stop-color:#B7BDC7"/>
			<stop  offset="0.9698" style="stop-color:#EFF0F2"/>
			<stop  offset="1" style="stop-color:#FFFFFF"/>
		</linearGradient>
		<path class="st20" d="M169.1,202.4c-0.5-0.2-1.2,0.1-1.2,0.1l-0.8,0.5l11.7,4.9l0.8-0.5c0,0,0.7-0.4,1.2-0.1L169.1,202.4z"/>
		<path class="st19" d="M169.1,202.4C169.1,202.4,169,202.4,169.1,202.4c-0.6-0.3-0.6-1.1-0.1-1.4l6.3-4.2l11.7,4.8l-6.3,4.2
			c-0.5,0.3-0.5,1.1,0,1.3c0,0,0.1,0,0.1,0L169.1,202.4z"/>
	</g>
	<g>
		<polygon class="st21" points="165.7,204.8 168.4,205.9 164.9,208 162.2,206.9 		"/>
	</g>
	<g>
		<polygon class="st21" points="175.5,197.5 178.2,198.6 174.7,200.9 172,199.8 		"/>
	</g>
	<g>
		<polygon class="st21" points="176.8,200.4 179.5,201.5 176,203.8 173.3,202.7 		"/>
	</g>
	<g>
		<polygon class="st21" points="182.6,200.5 185.3,201.6 181.8,203.9 179.1,202.8 		"/>
	</g>
	<g>
		<g>
			<g>
				<polygon class="st12" points="166.3,208.7 165.8,208.6 166.2,208.4 166.6,208.5 				"/>
				<polygon class="st12" points="166.9,208.4 166.5,208.2 166.8,208 167.2,208.1 				"/>
				<polygon class="st12" points="167.5,208 167.1,207.8 167.4,207.6 167.8,207.8 				"/>
				<polygon class="st12" points="168.1,207.6 167.7,207.4 168,207.2 168.4,207.4 				"/>
				<polygon class="st12" points="168.7,207.2 168.3,207.1 168.6,206.8 169,207 				"/>
			</g>
			<g>
				<polygon class="st12" points="169.3,206.8 168.9,206.7 169.2,206.5 169.6,206.6 				"/>
				<polygon class="st12" points="169.9,206.5 169.5,206.3 169.8,206.1 170.3,206.3 				"/>
				<polygon class="st12" points="170.5,206.1 170.1,205.9 170.4,205.7 170.9,205.9 				"/>
				<polygon class="st12" points="171.1,205.7 170.7,205.5 171,205.3 171.5,205.5 				"/>
				<polygon class="st12" points="171.7,205.3 171.3,205.2 171.6,204.9 172.1,205.1 				"/>
				<polygon class="st12" points="172.3,205 171.9,204.8 172.2,204.6 172.7,204.8 				"/>
			</g>
		</g>
		<g>
			<g>
				<polygon class="st12" points="167.1,209.1 166.7,208.9 167,208.7 167.4,208.9 				"/>
				<polygon class="st12" points="167.7,208.7 167.3,208.5 167.6,208.3 168.1,208.5 				"/>
				<polygon class="st12" points="168.3,208.3 167.9,208.2 168.2,208 168.7,208.1 				"/>
				<polygon class="st12" points="168.9,208 168.5,207.8 168.8,207.6 169.3,207.7 				"/>
				<polygon class="st12" points="169.5,207.6 169.1,207.4 169.4,207.2 169.9,207.4 				"/>
			</g>
			<g>
				<polygon class="st12" points="170.1,207.2 169.7,207 170,206.8 170.5,207 				"/>
				<polygon class="st12" points="170.7,206.8 170.3,206.7 170.6,206.5 171.1,206.6 				"/>
				<polygon class="st12" points="171.3,206.4 170.9,206.3 171.2,206.1 171.7,206.2 				"/>
				<polygon class="st12" points="171.9,206.1 171.5,205.9 171.8,205.7 172.3,205.9 				"/>
				<polygon class="st12" points="172.5,205.7 172.1,205.5 172.4,205.3 172.9,205.5 				"/>
				<polygon class="st12" points="173.1,205.3 172.7,205.1 173,204.9 173.5,205.1 				"/>
			</g>
		</g>
		<g>
			<g>
				<polygon class="st12" points="167.9,209.5 167.5,209.3 167.8,209.1 168.3,209.3 				"/>
				<polygon class="st12" points="168.5,209.1 168.1,208.9 168.4,208.7 168.9,208.9 				"/>
				<polygon class="st12" points="169.1,208.7 168.7,208.5 169,208.3 169.5,208.5 				"/>
				<polygon class="st12" points="169.7,208.3 169.3,208.1 169.6,207.9 170.1,208.1 				"/>
				<polygon class="st12" points="170.3,207.9 169.9,207.8 170.2,207.6 170.7,207.7 				"/>
			</g>
			<g>
				<polygon class="st12" points="171,207.6 170.5,207.4 170.8,207.2 171.3,207.3 				"/>
				<polygon class="st12" points="171.6,207.2 171.1,207 171.5,206.8 171.9,207 				"/>
				<polygon class="st12" points="172.2,206.8 171.7,206.6 172.1,206.4 172.5,206.6 				"/>
				<polygon class="st12" points="172.8,206.4 172.3,206.3 172.7,206.1 173.1,206.2 				"/>
				<polygon class="st12" points="173.4,206 172.9,205.9 173.3,205.7 173.7,205.8 				"/>
				<polygon class="st12" points="174,205.7 173.5,205.5 173.9,205.3 174.3,205.5 				"/>
			</g>
		</g>
		<g>
			<g>
				<polygon class="st12" points="168.8,209.8 168.3,209.6 168.6,209.4 169.1,209.6 				"/>
				<polygon class="st12" points="169.4,209.4 168.9,209.3 169.3,209 169.7,209.2 				"/>
				<polygon class="st12" points="170,209.1 169.5,208.9 169.9,208.7 170.3,208.9 				"/>
				<polygon class="st12" points="170.6,208.7 170.1,208.5 170.5,208.3 170.9,208.5 				"/>
				<polygon class="st12" points="171.2,208.3 170.7,208.1 171.1,207.9 171.5,208.1 				"/>
			</g>
			<g>
				<polygon class="st12" points="171.8,207.9 171.3,207.7 171.7,207.5 172.1,207.7 				"/>
				<polygon class="st12" points="172.4,207.6 171.9,207.4 172.3,207.2 172.7,207.3 				"/>
				<polygon class="st12" points="173,207.2 172.5,207 172.9,206.8 173.3,207 				"/>
				<polygon class="st12" points="173.6,206.8 173.1,206.6 173.5,206.4 173.9,206.6 				"/>
				<polygon class="st12" points="174.2,206.4 173.7,206.2 174.1,206 174.5,206.2 				"/>
				<polygon class="st12" points="174.8,206 174.3,205.9 174.7,205.6 175.1,205.8 				"/>
			</g>
		</g>
	</g>
</g>
</svg>
