<?xml version="1.0" encoding="utf-8"?>
<!-- Generator: Adobe Illustrator 20.1.0, SVG Export Plug-In . SVG Version: 6.00 Build 0)  -->
<svg version="1.1" id="レイヤー_1" xmlns="http://www.w3.org/2000/svg" xmlns:xlink="http://www.w3.org/1999/xlink" x="0px"
	 y="0px" width="311.8px" height="232.7px" viewBox="0 0 311.8 232.7" style="enable-background:new 0 0 311.8 232.7;"
	 xml:space="preserve">
<style type="text/css">
	.st0{opacity:0.2;}
	.st1{fill:url(#SVGID_1_);}
	.st2{fill:url(#SVGID_2_);}
	.st3{fill:#FF5936;}
	.st4{fill:none;stroke:#FF5936;stroke-width:2;stroke-linecap:round;stroke-miterlimit:10;}
	.st5{fill:#70A71B;}
	.st6{fill:#E1E1E1;}
	.st7{fill:#FFFFFF;}
	.st8{opacity:3.000000e-02;fill:url(#SVGID_3_);}
	.st9{fill:#DCDDDD;}
	.st10{fill:#EFEFEF;}
	.st11{fill:#80808B;}
	.st12{fill:#5380E3;}
	.st13{fill:none;stroke:#5380E3;stroke-width:2;stroke-linecap:round;stroke-miterlimit:10;}
	.st14{fill:#FFB400;}
	.st15{fill:none;stroke:#FFB400;stroke-width:2;stroke-linecap:round;stroke-miterlimit:10;}
	.st16{fill:#D1E1CC;}
	.st17{fill:#C1D4BC;}
	.st18{fill:none;stroke:#70A71B;stroke-width:2;stroke-linecap:round;stroke-miterlimit:10;}
</style>
<g class="st0">
	<linearGradient id="SVGID_1_" gradientUnits="userSpaceOnUse" x1="42.1259" y1="238.2878" x2="146.5877" y2="133.826">
		<stop  offset="0" style="stop-color:#001336"/>
		<stop  offset="1" style="stop-color:#FFFFFF"/>
	</linearGradient>
	<polygon class="st1" points="106.2,139.4 184.2,171.4 82.5,232.7 4.5,200.7 	"/>
</g>
<g class="st0">
	<linearGradient id="SVGID_2_" gradientUnits="userSpaceOnUse" x1="128.9862" y1="203.9306" x2="267.2217" y2="65.695">
		<stop  offset="0" style="stop-color:#001336"/>
		<stop  offset="1" style="stop-color:#FFFFFF"/>
	</linearGradient>
	<polygon class="st2" points="227,74.7 311.8,110.3 169.2,194.9 84.4,159.4 	"/>
</g>
<g>
	<g>
		<circle class="st3" cx="259.9" cy="106.6" r="2.7"/>
		<path class="st3" d="M262.7,123l-7-2.9v-9c0-1.3,1.3-2.2,2.5-1.7l3.3,1.4c0.7,0.3,1.1,0.9,1.1,1.7V123z"/>
		<path class="st4" d="M250.6,110.4c0,0,3.5-0.4,7.2,0"/>
		<polyline class="st4" points="257.2,119.5 261.5,127.9 259.5,128.8 		"/>
		<polyline class="st4" points="260.5,121.1 255.3,127.9 253.3,127.3 		"/>
	</g>
</g>
<g>
	<g>
		<g>
			<polygon class="st5" points="196.6,100.4 274.1,132.6 169.1,194.8 91.6,162.6 			"/>
		</g>
		<g>
			<polygon class="st6" points="152.1,124.6 229.6,156.8 169.1,192.6 91.6,160.3 			"/>
		</g>
		<g>
			<polygon class="st6" points="198.2,97.2 275.6,129.4 229.5,156.9 152,124.6 			"/>
		</g>
		<path class="st7" d="M150.6,123.9c-3.4-1.5-8,0.9-8,0.9l-51.1,30.4l77.5,32.2l51.1-30.4c0,0,4.5-2.4,8-0.9L150.6,123.9z"/>
		<linearGradient id="SVGID_3_" gradientUnits="userSpaceOnUse" x1="198.375" y1="126.3569" x2="166.849" y2="157.8829">
			<stop  offset="0" style="stop-color:#001336"/>
			<stop  offset="0.1397" style="stop-color:#041639"/>
			<stop  offset="0.2671" style="stop-color:#0F2142"/>
			<stop  offset="0.3899" style="stop-color:#213250"/>
			<stop  offset="0.5097" style="stop-color:#3B4A65"/>
			<stop  offset="0.6275" style="stop-color:#5D697F"/>
			<stop  offset="0.7436" style="stop-color:#868FA0"/>
			<stop  offset="0.8586" style="stop-color:#B7BDC7"/>
			<stop  offset="0.9698" style="stop-color:#EFF0F2"/>
			<stop  offset="1" style="stop-color:#FFFFFF"/>
		</linearGradient>
		<path class="st8" d="M150.6,123.9c-3.4-1.5-8,0.9-8,0.9l-5.6,3.3l77.5,32.2l5.6-3.3c0,0,4.5-2.4,8-0.9L150.6,123.9z"/>
		<path class="st7" d="M150.5,124.1c-0.2-0.1-0.4-0.2-0.6-0.3c-3.3-1.8-3.3-6.7-0.1-8.8l42-28.1l77.6,32l-42,28.1
			c-3.2,2.1-3.2,7,0.1,8.8c0.2,0.1,0.4,0.2,0.6,0.3L150.5,124.1z"/>
	</g>
	<g>
		<polygon class="st9" points="128,139.8 145.9,147.1 122.3,160.7 104.4,153.4 		"/>
	</g>
	<g>
		<polygon class="st10" points="192.7,91.1 210.6,98.4 187.5,113.6 169.6,106.4 		"/>
	</g>
	<g>
		<polygon class="st10" points="201.5,110.3 219.4,117.5 196.4,132.7 178.4,125.5 		"/>
	</g>
	<g>
		<polygon class="st10" points="240,111.2 258,118.5 234.9,133.7 216.9,126.5 		"/>
	</g>
	<g>
		<g>
			<g>
				<polygon class="st11" points="131.8,165.9 128.9,164.7 131.1,163.3 134,164.5 				"/>
				<polygon class="st11" points="135.8,163.3 132.9,162.1 135.1,160.7 138.1,161.9 				"/>
				<polygon class="st11" points="139.9,160.9 136.9,159.7 139.1,158.4 142.1,159.5 				"/>
				<polygon class="st11" points="143.9,158.3 140.9,157.2 143.1,155.8 146.1,156.9 				"/>
				<polygon class="st11" points="147.8,155.8 144.9,154.7 147.1,153.3 150.1,154.5 				"/>
			</g>
			<g>
				<polygon class="st11" points="151.8,153.3 148.9,152.1 151.1,150.7 154.1,151.9 				"/>
				<polygon class="st11" points="155.9,150.9 152.9,149.7 155.2,148.3 158.1,149.5 				"/>
				<polygon class="st11" points="159.9,148.3 156.9,147.1 159.1,145.7 162.1,146.9 				"/>
				<polygon class="st11" points="163.8,145.8 160.9,144.7 163.1,143.3 166.1,144.4 				"/>
				<polygon class="st11" points="167.8,143.2 164.9,142.1 167.1,140.7 170.1,141.8 				"/>
				<polygon class="st11" points="171.8,140.8 168.8,139.6 171.1,138.2 174,139.4 				"/>
			</g>
		</g>
		<g>
			<g>
				<polygon class="st11" points="137.3,168.2 134.3,167.1 136.5,165.7 139.5,166.8 				"/>
				<polygon class="st11" points="141.3,165.6 138.3,164.5 140.6,163.1 143.5,164.2 				"/>
				<polygon class="st11" points="145.3,163.2 142.4,162.1 144.6,160.7 147.5,161.8 				"/>
				<polygon class="st11" points="149.3,160.7 146.3,159.5 148.6,158.1 151.5,159.3 				"/>
				<polygon class="st11" points="153.3,158.2 150.3,157 152.5,155.7 155.5,156.8 				"/>
			</g>
			<g>
				<polygon class="st11" points="157.3,155.6 154.3,154.5 156.6,153.1 159.5,154.2 				"/>
				<polygon class="st11" points="161.3,153.2 158.4,152.1 160.6,150.7 163.6,151.8 				"/>
				<polygon class="st11" points="165.3,150.6 162.4,149.5 164.6,148.1 167.5,149.2 				"/>
				<polygon class="st11" points="169.3,148.2 166.3,147 168.6,145.6 171.5,146.8 				"/>
				<polygon class="st11" points="173.3,145.6 170.3,144.4 172.5,143 175.5,144.2 				"/>
				<polygon class="st11" points="177.2,143.1 174.3,142 176.5,140.6 179.5,141.7 				"/>
			</g>
		</g>
		<g>
			<g>
				<polygon class="st11" points="142.7,170.6 139.7,169.5 142,168.1 144.9,169.2 				"/>
				<polygon class="st11" points="146.7,168 143.8,166.9 146,165.5 149,166.6 				"/>
				<polygon class="st11" points="150.8,165.6 147.8,164.5 150,163.1 153,164.3 				"/>
				<polygon class="st11" points="154.7,163.1 151.8,161.9 154,160.5 157,161.7 				"/>
				<polygon class="st11" points="158.7,160.6 155.8,159.5 158,158.1 160.9,159.2 				"/>
			</g>
			<g>
				<polygon class="st11" points="162.7,158 159.8,156.9 162,155.5 165,156.6 				"/>
				<polygon class="st11" points="166.8,155.6 163.8,154.5 166,153.1 169,154.2 				"/>
				<polygon class="st11" points="170.8,153 167.8,151.9 170,150.5 173,151.6 				"/>
				<polygon class="st11" points="174.7,150.6 171.8,149.4 174,148 177,149.2 				"/>
				<polygon class="st11" points="178.7,148 175.8,146.8 178,145.4 180.9,146.6 				"/>
				<polygon class="st11" points="182.7,145.5 179.7,144.4 182,143 184.9,144.1 				"/>
			</g>
		</g>
		<g>
			<g>
				<polygon class="st11" points="148.1,173 145.2,171.8 147.4,170.4 150.4,171.6 				"/>
				<polygon class="st11" points="152.2,170.4 149.2,169.2 151.5,167.8 154.4,169 				"/>
				<polygon class="st11" points="156.2,168 153.2,166.8 155.5,165.5 158.4,166.6 				"/>
				<polygon class="st11" points="160.2,165.4 157.2,164.3 159.5,162.9 162.4,164 				"/>
				<polygon class="st11" points="164.2,162.9 161.2,161.8 163.4,160.4 166.4,161.6 				"/>
			</g>
			<g>
				<polygon class="st11" points="168.2,160.4 165.2,159.2 167.5,157.8 170.4,159 				"/>
				<polygon class="st11" points="172.2,158 169.3,156.8 171.5,155.4 174.4,156.6 				"/>
				<polygon class="st11" points="176.2,155.4 173.3,154.2 175.5,152.8 178.4,154 				"/>
				<polygon class="st11" points="180.2,152.9 177.2,151.8 179.5,150.4 182.4,151.5 				"/>
				<polygon class="st11" points="184.2,150.3 181.2,149.2 183.4,147.8 186.4,148.9 				"/>
				<polygon class="st11" points="188.1,147.9 185.2,146.7 187.4,145.3 190.4,146.5 				"/>
			</g>
		</g>
	</g>
</g>
<g>
	<circle class="st12" cx="245.6" cy="131.6" r="2.7"/>
	<path class="st12" d="M241.8,148.4l7-2.9v-9c0-1.3-1.3-2.2-2.5-1.7l-3.3,1.4c-0.7,0.3-1.1,0.9-1.1,1.7V148.4z"/>
	<path class="st13" d="M252.8,135.5c0,0-3.2,2.2-6.1,0.3"/>
	<line class="st13" x1="242.6" y1="137.9" x2="236" y2="140"/>
	<polyline class="st13" points="247.3,144.8 247.3,153.2 245.6,152.5 	"/>
	<polyline class="st13" points="244,146.5 244,154.9 242.3,154.1 	"/>
</g>
<g>
	<circle class="st14" cx="159.2" cy="176.1" r="2.7"/>
	<path class="st14" d="M163,192.9l-7-2.9v-9c0-1.3,1.3-2.2,2.5-1.7l3.3,1.4c0.7,0.3,1.1,0.9,1.1,1.7V192.9z"/>
	<path class="st15" d="M152.3,187c0,0,2.9-4.7,5.8-6.6"/>
	<line class="st15" x1="162.3" y1="182.4" x2="166.7" y2="187.6"/>
	<polyline class="st15" points="157.6,189.3 157.6,197.7 159.2,197 	"/>
	<polyline class="st15" points="160.9,191 160.9,199.4 162.5,198.7 	"/>
</g>
<g>
	<g>
		<g>
			<polygon class="st16" points="55.6,160.3 133.1,192.6 82,222.9 4.5,190.7 			"/>
		</g>
		<g>
			<polygon class="st10" points="57.3,167.2 69.9,172.3 33.1,194.3 20.4,189.1 			"/>
		</g>
		<polygon class="st17" points="82,232.4 4.5,200.2 4.5,190.7 82,222.9 		"/>
		<polygon class="st7" points="82,232.4 133.1,202.1 133.1,192.6 82,222.9 		"/>
	</g>
	<g>
		<g>
			<polygon class="st16" points="51.1,146.4 128.5,178.6 77.5,208.9 0,176.7 			"/>
		</g>
		<g>
			<polygon class="st10" points="52.8,153.2 65.4,158.3 28.5,180.3 15.9,175.1 			"/>
		</g>
		<polygon class="st17" points="77.5,218.4 0,186.2 0,176.7 77.5,208.9 		"/>
		<polygon class="st7" points="77.5,218.4 128.5,188.1 128.5,178.6 77.5,208.9 		"/>
	</g>
	<g>
		<g>
			<polygon class="st16" points="53.8,132.3 131.3,164.5 80.2,194.9 2.8,162.6 			"/>
		</g>
		<g>
			<polygon class="st10" points="55.5,139.1 68.2,144.2 31.3,166.2 18.6,161 			"/>
		</g>
		<polygon class="st17" points="80.2,204.4 2.8,172.1 2.8,162.6 80.2,194.9 		"/>
		<polygon class="st7" points="80.2,204.4 131.3,174 131.3,164.5 80.2,194.9 		"/>
	</g>
</g>
<g>
	<circle class="st5" cx="81.5" cy="136.9" r="2.7"/>
	<path class="st5" d="M77.7,153.6l7-2.9v-9c0-1.3-1.3-2.2-2.5-1.7l-3.3,1.4c-0.7,0.3-1.1,0.9-1.1,1.7V153.6z"/>
	<path class="st18" d="M88.9,139.7c0,0-3.4,3.3-6.4,1.4"/>
	<line class="st18" x1="78.4" y1="143.1" x2="74.2" y2="149"/>
	<polyline class="st18" points="83.1,150.1 83.1,158.5 85.7,159.8 	"/>
	<polyline class="st18" points="79.8,151.7 79.8,160.1 82.4,161.4 	"/>
</g>
<line class="st4" x1="261.9" y1="112.5" x2="257.8" y2="119.5"/>
<path class="st7" d="M257.3,73.4c0-11.7-14.1-24.6-31.4-28.6s-31.4,2.2-31.4,13.9c0,11.6,13.7,24.3,30.8,28.5l2.8,5.5l1.3-4.6
	C245.8,91,257.3,84.6,257.3,73.4z"/>
<path class="st7" d="M104.7,87.7c-0.1-13-13.5-18.1-29.8-11.3c-16.4,6.7-29.5,22.8-29.4,35.8c0.1,12.9,13.2,18,29.3,11.6l2.7,4.2
	l1.1-5.9C94,114.7,104.8,100.1,104.7,87.7z"/>
<g>
	<path class="st7" d="M191.5,25.9c0,11.8-10.1,19.4-22.6,17.1c-12.5-2.3-22.6-13.7-22.6-25.5s10.1-19.4,22.6-17.1
		C181.4,2.7,191.5,14.1,191.5,25.9z"/>
	<path class="st7" d="M176.7,44.5c0,2.1-2.3,3.3-5.2,2.8c-2.9-0.5-5.2-2.6-5.2-4.7s2.3-3.3,5.2-2.8
		C174.4,40.3,176.7,42.4,176.7,44.5z"/>
	<path class="st7" d="M178.1,53.7c0,1.3-1.1,2.2-2.4,2c-1.3-0.2-2.4-1.5-2.4-2.9c0-1.3,1.1-2.2,2.4-2C177,51,178.1,52.3,178.1,53.7z
		"/>
	<path class="st7" d="M181.9,58.8c0,0.8-0.7,1.4-1.5,1.2c-0.8-0.2-1.5-0.9-1.5-1.8s0.7-1.4,1.5-1.2C181.2,57.2,181.9,58,181.9,58.8z
		"/>
</g>
<g>
	<g>
		<polygon class="st11" points="211.4,58.5 207.8,56.9 207.8,53.3 211.4,54.9 		"/>
		<polygon class="st11" points="217.5,61.3 213.9,59.6 213.9,56 217.5,57.6 		"/>
		<polygon class="st11" points="223.7,64 220.1,62.4 220.1,58.8 223.7,60.4 		"/>
		<polygon class="st11" points="229.8,66.7 226.2,65.1 226.2,61.5 229.8,63.1 		"/>
		<polygon class="st11" points="236,69.5 232.4,67.9 232.4,64.3 236,65.9 		"/>
		<polygon class="st11" points="242.1,72.2 238.5,70.6 238.5,67 242.1,68.6 		"/>
	</g>
	<g>
		<polygon class="st11" points="211.4,64.9 207.8,63.3 207.8,59.7 211.4,61.3 		"/>
		<polygon class="st11" points="217.5,67.7 213.9,66.1 213.9,62.4 217.5,64.1 		"/>
		<polygon class="st11" points="223.7,70.4 220.1,68.8 220.1,65.2 223.7,66.8 		"/>
		<polygon class="st11" points="229.8,73.2 226.2,71.5 226.2,67.9 229.8,69.5 		"/>
		<polygon class="st11" points="236,75.9 232.4,74.3 232.4,70.7 236,72.3 		"/>
		<polygon class="st11" points="242.1,78.6 238.5,77 238.5,73.4 242.1,75 		"/>
	</g>
</g>
<g>
	<g>
		<path class="st14" d="M170.4,28.9l-3.4-1.1V24c0-1.4,0.7-2.4,1.7-2.9l2.5-1.1c0.6-0.3,1-0.9,1-1.7c0-2.2-1.7-3.9-3.3-4.4
			c-1.8-0.5-3.2,0.5-3.2,2.3v2.2l-3.4-1.1v-2.2c0-3.7,3-5.8,6.7-4.6c3.3,1,6.8,4.6,6.8,8.8c0,1.9-0.9,3.4-2.4,4l-2.5,1.1
			c-0.3,0.1-0.4,0.3-0.4,0.6V28.9z"/>
	</g>
	<polygon class="st14" points="170.4,33.5 167,32.4 167,28.7 170.4,29.8 	"/>
</g>
<g>
	<path class="st3" d="M76.3,103.9l-3.8-9.8c-0.8-2.1,1.1-5.9,3.8-7.6l0,0c2.7-1.6,4.7-0.2,3.8,2.9L76.3,103.9z"/>
	<path class="st3" d="M78.6,107c0,1.3-1,2.9-2.3,3.7S74,111,74,109.7s1-2.9,2.3-3.7S78.6,105.7,78.6,107z"/>
</g>
</svg>
