<?xml version="1.0" encoding="utf-8"?>
<!-- Generator: Adobe Illustrator 16.0.0, SVG Export Plug-In . SVG Version: 6.00 Build 0)  -->
<!DOCTYPE svg PUBLIC "-//W3C//DTD SVG 1.1//EN" "http://www.w3.org/Graphics/SVG/1.1/DTD/svg11.dtd">
<svg version="1.1" id="レイヤー_1" xmlns="http://www.w3.org/2000/svg" xmlns:xlink="http://www.w3.org/1999/xlink" x="0px"
	 y="0px" width="17.008px" height="15.617px" viewBox="0 0 17.008 15.617" enable-background="new 0 0 17.008 15.617"
	 xml:space="preserve">
<g>
	<defs>
		<rect id="SVGID_1_" width="17.008" height="15.617"/>
	</defs>
	<clipPath id="SVGID_2_">
		<use xlink:href="#SVGID_1_"  overflow="visible"/>
	</clipPath>
	<path clip-path="url(#SVGID_2_)" fill="#FFFFFF" d="M3.744,15.617H0.428V5.008h3.316V15.617z M2.002,3.681H1.978
		C0.778,3.681,0,2.87,0,1.842C0,0.794,0.802,0,2.025,0C3.248,0,4,0.792,4.024,1.839C4.024,2.867,3.248,3.681,2.002,3.681
		 M17.008,15.617h-3.759v-5.49c0-1.437-0.588-2.418-1.881-2.418c-0.989,0-1.539,0.662-1.795,1.3
		C9.477,9.238,9.492,9.557,9.492,9.876v5.741H5.768c0,0,0.048-9.725,0-10.609h3.725v1.665c0.22-0.728,1.409-1.767,3.31-1.767
		c2.355,0,4.206,1.526,4.206,4.812V15.617z"/>
</g>
</svg>
