<?xml version="1.0" encoding="utf-8"?>
<!-- Generator: Adobe Illustrator 16.0.0, SVG Export Plug-In . SVG Version: 6.00 Build 0)  -->
<!DOCTYPE svg PUBLIC "-//W3C//DTD SVG 1.1//EN" "http://www.w3.org/Graphics/SVG/1.1/DTD/svg11.dtd">
<svg version="1.1" id="レイヤー_1" xmlns="http://www.w3.org/2000/svg" xmlns:xlink="http://www.w3.org/1999/xlink" x="0px"
	 y="0px" width="704.628px" height="64.518px" viewBox="0 0 704.628 64.518" enable-background="new 0 0 704.628 64.518"
	 xml:space="preserve">
<g>
	<defs>
		<rect id="SVGID_1_" width="704.628" height="64.518"/>
	</defs>
	<clipPath id="SVGID_2_">
		<use xlink:href="#SVGID_1_"  overflow="visible"/>
	</clipPath>
	<path clip-path="url(#SVGID_2_)" fill="#331700" d="M650.309,17.711c-4.519,0-8.367,1.557-11.438,4.631
		c-3.477,3.527-5.242,8.109-5.242,13.622c0,5.705,1.779,10.354,5.291,13.818c3.068,3.068,6.903,4.627,11.389,4.627
		c4.554,0,8.263-1.498,11.341-4.576c3.515-3.466,5.296-8.164,5.296-13.965c0-5.447-1.765-9.999-5.245-13.528
		C658.628,19.269,654.799,17.711,650.309,17.711 M650.309,51.67c-4.155,0-7.351-1.899-9.493-5.643
		c-1.58-2.789-2.349-6.112-2.349-10.155c0-4.489,1.021-8.179,3.032-10.968c2.208-3.093,5.095-4.596,8.81-4.596
		c3.408,0,6.219,1.361,8.356,4.05c2.28,2.832,3.439,6.769,3.439,11.701c0,4.616-1.033,8.335-3.075,11.061
		C656.834,50.138,653.903,51.67,650.309,51.67"/>
	<path clip-path="url(#SVGID_2_)" fill="#331700" d="M614.654,19.237c-0.01-0.02-0.019-0.036-0.029-0.051
		c-0.283-0.429-0.723-0.654-1.275-0.654h-0.002h-13.186h-1.558h-13.187c-0.551,0-0.993,0.225-1.277,0.654
		c-0.009,0.015-0.02,0.031-0.03,0.051c-0.278,0.558-0.206,1.111,0.212,1.597c0.942,0.948,1.71,1.649,2.424,2.234
		c0.301,0.288,0.601,0.351,0.803,0.351c0.24,0,0.598-0.086,0.955-0.493l0.854-1.031c0.183-0.185,0.646-0.608,1.222-0.846
		c0.513-0.211,1.285-0.332,2.052-0.343h4.661v28.189l-1,0.828c-0.405,0.354-0.491,0.715-0.491,0.952c0,0.204,0.062,0.505,0.35,0.804
		c0.584,0.718,1.517,1.664,2.46,2.606c0.381,0.423,1.168,0.544,1.831,0.302c0.022-0.006,0.035-0.02,0.054-0.029
		c0.562-0.281,0.875-0.695,0.836-1.502l0.002-0.049V20.706h4.8c0.768,0.011,1.539,0.132,2.054,0.343
		c0.573,0.238,1.037,0.661,1.224,0.846l0.853,1.031c0.355,0.407,0.714,0.493,0.956,0.493c0.201,0,0.5-0.063,0.801-0.351
		c0.715-0.585,1.479-1.286,2.424-2.234C614.86,20.348,614.935,19.795,614.654,19.237"/>
	<path clip-path="url(#SVGID_2_)" fill="#331700" d="M626.121,20.438c-0.587-0.717-1.515-1.664-2.461-2.608
		c-0.38-0.423-1.164-0.542-1.828-0.302c-0.023,0.007-0.035,0.021-0.056,0.031c-0.468,0.234-0.761,0.566-0.823,1.139l-0.015-0.004
		v0.397v0.019l-0.027,29.785l-1.001,0.828c-0.405,0.354-0.488,0.715-0.488,0.952c0,0.204,0.06,0.505,0.348,0.804
		c0.585,0.718,1.514,1.664,2.46,2.607c0.381,0.422,1.166,0.543,1.83,0.301c0.021-0.007,0.034-0.02,0.053-0.029
		c0.563-0.281,0.877-0.695,0.834-1.502l0.006-0.049l0.025-29.787l1.002-0.828c0.405-0.353,0.491-0.713,0.491-0.951
		C626.471,21.038,626.408,20.735,626.121,20.438"/>
	<path clip-path="url(#SVGID_2_)" fill="#331700" d="M696.27,46.618c0.452,0.62,0.782,1.08,0.951,1.61
		c0.232,0.736,0.272,1.756-0.093,2.312c-0.618,0.558-1.287,1.148-1.682,1.463c-0.417,0.35-0.425,0.871-0.281,1.085
		c0.182,0.433,0.792,0.388,0.792,0.388h5.207c0.262,0.048,0.542,0.029,0.818-0.035c0.044-0.008,0.087-0.017,0.129-0.028
		c0.036-0.011,0.074-0.012,0.108-0.023c0.019-0.008,0.033-0.021,0.051-0.03c0.005-0.002,0.008-0.006,0.013-0.008
		c0.263-0.108,0.487-0.28,0.653-0.529c0.011-0.016,0.018-0.032,0.027-0.051c0.15-0.295,0.191-0.588,0.143-0.873
		c0-0.016,0.004-0.025,0.003-0.041l0.004-0.049l0.026-28.788l0.998-0.828c0.406-0.352,0.49-0.713,0.49-0.951
		c0-0.203-0.059-0.506-0.35-0.803c-0.581-0.716-1.514-1.664-2.458-2.608c-0.379-0.423-1.166-0.542-1.832-0.302
		c-0.018,0.007-0.031,0.022-0.051,0.031c-0.472,0.234-0.765,0.567-0.825,1.139l-0.011-0.004v0.398l-0.003,0.018l-0.027,27.55
		l-21.136-28.731l0.394,0.531c-0.091-0.122-0.195-0.224-0.303-0.311c-0.144-0.254-0.357-0.445-0.65-0.59
		c-0.013-0.009-0.031-0.024-0.048-0.031c-0.666-0.24-1.452-0.121-1.831,0.302c-0.946,0.944-1.877,1.892-2.461,2.608
		c-0.289,0.297-0.347,0.6-0.347,0.803c0,0.238,0.083,0.599,0.488,0.951l0.996,0.828v25.875l-0.996,0.828
		c-0.405,0.354-0.488,0.715-0.488,0.952c0,0.204,0.058,0.505,0.347,0.804c0.584,0.718,1.515,1.664,2.461,2.606
		c0.379,0.423,1.165,0.544,1.831,0.303c0.017-0.008,0.035-0.021,0.048-0.03c0.565-0.281,0.879-0.695,0.84-1.502l0.002-0.049V22.143
		L696.27,46.618z"/>
	<path clip-path="url(#SVGID_2_)" fill="#331700" d="M521.334,38.862c-1.606-1.764-4.987-3.576-10.052-5.393l-1.215-0.435
		c-4.121-1.468-6.121-3.517-6.121-6.264c0-1.549,0.539-2.92,1.605-4.079c1.293-1.434,3.087-2.161,5.314-2.161
		c2.802,0,5.041,0.887,6.662,2.632c0.004,0.004,0.006,0.007,0.01,0.012c0,0,0.031,0.033,0.059,0.059
		c0.062,0.07,0.124,0.141,0.188,0.211c0.006,0.007,0.018,0.006,0.023,0.012c0.559,0.591,1.869,1.993,2.497,2.833
		c0.351,0.416,0.871,0.423,1.085,0.278c0.43-0.182,0.387-0.79,0.387-0.79l0.002-5.704l-0.002-0.002c0-0.549-0.226-0.99-0.656-1.274
		c-0.014-0.011-0.028-0.019-0.049-0.031c-0.556-0.277-1.11-0.205-1.597,0.212c-0.391,0.389-0.7,0.773-0.979,1.146
		c-2.549-1.37-5.161-2.07-7.772-2.07c-3.092,0-5.581,0.788-7.61,2.411c-2.216,1.762-3.34,4.162-3.34,7.13
		c0,2.666,1.077,4.837,3.207,6.46c1.112,0.82,3.342,1.884,7.019,3.344l0.927,0.393c3.312,1.345,5.49,2.57,6.474,3.646
		c1.098,1.189,1.655,2.561,1.655,4.079c0,2.05-0.629,3.633-1.924,4.831c-1.235,1.146-2.87,1.702-4.999,1.702
		c-3.289,0-5.687-0.994-7.807-3.195c-0.021-0.021-2.249-2.257-2.734-2.792c-0.124-0.146-0.761-0.886-1.316-0.969
		c-0.346-0.046-0.581,0.074-0.71,0.188c-0.234,0.198-0.357,0.521-0.362,0.963v0.445c0,0.012,0.006,0.021,0.008,0.033v5.539v0.002
		c0,0.458,0.165,0.835,0.464,1.114c0.186,0.23,0.47,0.368,0.85,0.368c0.191,0,0.398-0.034,0.583-0.13
		c0.139-0.062,0.275-0.145,0.406-0.257c0.549-0.547,0.952-1.086,1.304-1.59c0.261,0.125,0.559,0.293,0.86,0.462
		c2.524,1.647,5.367,2.486,8.455,2.486c2.758,0,5.177-0.673,7.19-2.002c2.785-1.822,4.196-4.488,4.196-7.929
		C523.518,42.506,522.784,40.512,521.334,38.862"/>
	<path clip-path="url(#SVGID_2_)" fill="#331700" d="M557.715,19.237c-0.01-0.02-0.022-0.036-0.031-0.051
		c-0.282-0.429-0.724-0.654-1.275-0.654h-0.002h-13.186h-1.558h-13.185c-0.555,0-0.996,0.225-1.279,0.654
		c-0.009,0.015-0.018,0.031-0.027,0.051c-0.279,0.558-0.207,1.111,0.209,1.597c0.944,0.948,1.709,1.649,2.426,2.234
		c0.297,0.288,0.597,0.351,0.802,0.351c0.239,0,0.599-0.086,0.952-0.493l0.854-1.031c0.185-0.185,0.648-0.608,1.224-0.846
		c0.513-0.211,1.283-0.332,2.052-0.343h4.661v28.189l-0.998,0.828c-0.407,0.354-0.493,0.715-0.493,0.952
		c0,0.204,0.065,0.505,0.353,0.804c0.584,0.718,1.514,1.664,2.459,2.606c0.381,0.423,1.168,0.544,1.831,0.302
		c0.019-0.006,0.032-0.02,0.052-0.029c0.563-0.281,0.877-0.695,0.835-1.502l0.005-0.049V20.706h4.798
		c0.766,0.011,1.539,0.132,2.051,0.343c0.574,0.238,1.041,0.661,1.226,0.846l0.854,1.031c0.354,0.407,0.714,0.493,0.951,0.493
		c0.205,0,0.505-0.063,0.803-0.351c0.72-0.585,1.484-1.286,2.429-2.234C557.922,20.348,557.993,19.795,557.715,19.237"/>
	<path clip-path="url(#SVGID_2_)" fill="#331700" d="M586.361,51.077c-0.363-0.36-0.75-0.687-1.071-1.214
		c-0.431-0.711-0.734-1.529-0.734-1.529L572.76,19.112c0,0-0.608-1.172-1.702-1.027c-0.495,0.042-1.034,0.333-1.484,1.168
		l-11.307,28.773c-0.142,0.359-0.306,0.677-0.474,0.984c-0.254,0.479-0.823,1.242-1.654,1.95c-0.4,0.34-0.987,0.698-1.382,0.946
		c-0.416,0.352-0.423,0.873-0.28,1.084c0.184,0.434,0.792,0.389,0.792,0.389l5.702,0.002l0.002-0.002
		c0.551,0,0.993-0.227,1.276-0.656c0.01-0.013,0.019-0.031,0.028-0.049c0.28-0.558,0.207-1.11-0.209-1.598
		c-0.653-0.654-1.299-1.108-1.879-1.508c0.077-0.403,0.212-0.785,0.455-1.497l2.632-6.687h13.845l0.004-0.028l2.841,7.035
		c0.292,0.775,0.726,1.855,0.466,2.298c0,0-0.125,0.141-0.187,0.188c-0.507,0.451-0.876,0.774-1.195,1.028
		c-0.416,0.352-0.424,0.873-0.281,1.084c0.183,0.434,0.791,0.389,0.791,0.389l5.701,0.002l0.002-0.002
		c0.554,0,0.995-0.227,1.28-0.656c0.008-0.013,0.017-0.031,0.027-0.049C586.848,52.117,586.775,51.564,586.361,51.077
		 M576.23,39.149h-12.074l5.96-15.146l6.117,15.146H576.23z"/>
	<path clip-path="url(#SVGID_2_)" fill="#003026" d="M171.721,50.813l-16.872-17.408l10.298-7.441l4.008-2.871
		c0.087-0.05,0.183-0.109,0.298-0.193c0.731-0.541,1.666-1.076,2.612-2.024c0.417-0.488,0.487-1.041,0.208-1.599
		c-0.007-0.016-0.018-0.033-0.029-0.05c-0.282-0.429-0.724-0.653-1.277-0.653l-0.002-0.002l-5.699,0.002
		c-0.188,0-0.358,0.109-0.44,0.279c-0.078,0.17-0.054,0.369,0.066,0.514l0.988,1.194c0.267,0.41,0.648,1.348-0.366,2.48
		L149.539,34.57V19.118l-0.004-0.017v-0.396l-0.013,0.003c-0.059-0.574-0.352-0.906-0.824-1.141
		c-0.016-0.008-0.034-0.023-0.049-0.03c-0.668-0.243-1.451-0.121-1.832,0.302c-0.947,0.944-1.876,1.889-2.461,2.608
		c-0.288,0.299-0.35,0.599-0.35,0.802c0,0.239,0.085,0.598,0.491,0.953l0.999,0.829v25.873l-0.999,0.827
		c-0.406,0.356-0.491,0.714-0.491,0.956c0,0.2,0.062,0.502,0.35,0.801c0.585,0.717,1.514,1.663,2.461,2.607
		c0.381,0.423,1.164,0.543,1.832,0.303c0.015-0.008,0.033-0.021,0.049-0.031c0.564-0.281,0.877-0.696,0.836-1.502l0.005-0.05V37.242
		l2.002-1.446l13.096,13.536c0.004,0.001,0.006,0.004,0.009,0.006l0.481,0.498c0.434,0.498,0.631,0.906,0.638,1.274
		c0.009,0.365-0.151,0.647-0.249,0.79l-0.624,0.752c-0.12,0.143-0.144,0.342-0.066,0.513c0.082,0.17,0.252,0.279,0.44,0.281h5.699
		h0.002c0.553,0,0.995-0.228,1.277-0.659c0.011-0.014,0.022-0.027,0.029-0.048c0.279-0.557,0.209-1.109-0.208-1.598
		C171.95,51.027,171.836,50.917,171.721,50.813"/>
	<path clip-path="url(#SVGID_2_)" fill="#003026" d="M206.918,19.227c-0.281-0.429-0.725-0.653-1.276-0.653l-0.001-0.002
		l-5.703,0.002c-0.188,0-0.359,0.109-0.44,0.279c-0.08,0.17-0.052,0.369,0.068,0.514l1.745,2.107c0.032,0.045,0.591,0.8,0.377,1.775
		c-0.061,0.285-0.199,0.604-0.391,0.948l-9.104,14.125l-8.215-15.869c-0.261-0.502-0.357-0.925-0.349-1.274
		c0.011-0.432,0.252-0.81,0.377-0.976l0.691-0.836c0.119-0.145,0.147-0.344,0.067-0.514s-0.252-0.279-0.44-0.279l-5.701-0.002
		l-0.002,0.002c-0.551,0-0.993,0.224-1.277,0.653c-0.01,0.017-0.02,0.034-0.03,0.05c-0.278,0.558-0.206,1.111,0.211,1.599
		c0.647,0.651,1.289,1.103,1.866,1.5l10.654,20.553v5.975l-0.998,0.827c-0.406,0.356-0.489,0.714-0.489,0.956
		c0,0.2,0.059,0.502,0.349,0.801c0.583,0.717,1.513,1.663,2.46,2.607c0.379,0.423,1.164,0.543,1.831,0.303
		c0.017-0.008,0.034-0.022,0.05-0.031c0.564-0.281,0.877-0.696,0.836-1.502l0.004-0.05V39.379l9.209-14.303l1.899-2.926
		c0.489-0.346,1.013-0.744,1.542-1.274c0.416-0.488,0.489-1.041,0.209-1.599C206.938,19.261,206.929,19.244,206.918,19.227"/>
	<path clip-path="url(#SVGID_2_)" fill="#003026" d="M225.266,17.722c-4.521,0-8.369,1.557-11.439,4.627
		c-3.477,3.529-5.245,8.11-5.245,13.624c0,5.704,1.782,10.354,5.292,13.817c3.072,3.072,6.904,4.627,11.392,4.627
		c4.551,0,8.262-1.498,11.338-4.576c3.516-3.467,5.297-8.164,5.297-13.963c0-5.45-1.766-10-5.246-13.531
		C233.584,19.279,229.752,17.722,225.266,17.722 M225.266,51.678c-4.156,0-7.354-1.898-9.496-5.643
		c-1.577-2.788-2.346-6.11-2.346-10.155c0-4.487,1.02-8.177,3.029-10.968c2.212-3.091,5.096-4.594,8.813-4.594
		c3.406,0,6.217,1.361,8.355,4.046c2.284,2.833,3.44,6.771,3.44,11.704c0,4.615-1.035,8.339-3.076,11.061
		C231.791,50.148,228.859,51.678,225.266,51.678"/>
	<path clip-path="url(#SVGID_2_)" fill="#003026" d="M121.49,17.722c-4.519,0-8.365,1.557-11.438,4.627
		c-3.479,3.529-5.243,8.11-5.243,13.624c0,5.704,1.78,10.354,5.293,13.817c3.071,3.072,6.901,4.627,11.388,4.627
		c4.553,0,8.263-1.498,11.341-4.576c3.514-3.467,5.294-8.164,5.294-13.963c0-5.45-1.763-10-5.242-13.531
		C129.811,19.279,125.979,17.722,121.49,17.722 M121.49,51.678c-4.157,0-7.351-1.898-9.495-5.643
		c-1.578-2.788-2.346-6.11-2.346-10.155c0-4.487,1.02-8.177,3.029-10.968c2.213-3.091,5.096-4.594,8.812-4.594
		c3.407,0,6.22,1.361,8.358,4.046c2.28,2.833,3.44,6.771,3.44,11.704c0,4.615-1.038,8.339-3.078,11.061
		C128.016,50.148,125.083,51.678,121.49,51.678"/>
	<path clip-path="url(#SVGID_2_)" fill="#003026" d="M103.196,19.246c-0.011-0.018-0.018-0.035-0.029-0.052
		c-0.285-0.428-0.726-0.655-1.278-0.655h-0.001H88.704h-1.559H73.96c-0.553,0-0.994,0.227-1.278,0.655
		c-0.011,0.017-0.019,0.034-0.027,0.052c-0.281,0.557-0.209,1.109,0.207,1.598c0.945,0.948,1.708,1.649,2.426,2.234
		c0.299,0.287,0.599,0.351,0.803,0.351c0.238,0,0.6-0.085,0.953-0.494l0.855-1.03c0.184-0.185,0.648-0.61,1.223-0.847
		c0.515-0.21,1.285-0.332,2.052-0.342h4.659v28.188l-0.996,0.827c-0.407,0.356-0.493,0.714-0.493,0.956
		c0,0.2,0.062,0.502,0.35,0.801c0.584,0.717,1.514,1.663,2.461,2.607c0.381,0.424,1.166,0.543,1.829,0.303
		c0.02-0.007,0.034-0.022,0.054-0.031c0.562-0.281,0.875-0.696,0.836-1.502l0.002-0.05l-0.002-32.099h4.801
		c0.767,0.01,1.539,0.132,2.053,0.342c0.574,0.237,1.039,0.662,1.221,0.847l0.857,1.03c0.354,0.409,0.714,0.494,0.952,0.494
		c0.202,0,0.504-0.064,0.803-0.351c0.717-0.585,1.481-1.286,2.424-2.234C103.404,20.354,103.476,19.803,103.196,19.246"/>
	<path clip-path="url(#SVGID_2_)" fill="#01133E" d="M449.069,19.223c-0.01-0.017-0.015-0.032-0.026-0.05
		c-0.282-0.422-0.717-0.647-1.265-0.647h-5.647c-0.184,0.002-0.354,0.109-0.432,0.276c-0.078,0.17-0.054,0.367,0.065,0.509
		l1.164,1.409c0.099,0.136,0.292,0.42,0.476,0.815c0.145,0.309,0.331,0.895,0.348,1.668v16.092c0,8.17-3.278,12.142-10.028,12.142
		c-6.808,0-10.123-3.972-10.123-12.142V21.983c0.01-0.523,0.053-0.921,0.178-1.257c0.089-0.217,0.183-0.397,0.329-0.586l0.688-0.829
		c0.117-0.142,0.144-0.339,0.062-0.509c-0.079-0.167-0.247-0.274-0.433-0.276h-5.644c-0.548,0-0.986,0.225-1.264,0.647
		c-0.013,0.018-0.024,0.033-0.032,0.05c-0.274,0.554-0.2,1.101,0.21,1.584c0.633,0.635,1.261,1.081,1.823,1.47v17.498
		c0,9.81,4.666,14.783,13.872,14.783c8.913,0,13.438-5.067,13.438-15.07V22.423c0.614-0.425,1.321-0.902,2.037-1.616
		C449.274,20.324,449.347,19.777,449.069,19.223"/>
	<path clip-path="url(#SVGID_2_)" fill="#01133E" d="M413.194,19.237c-0.009-0.02-0.02-0.036-0.028-0.051
		c-0.283-0.429-0.726-0.654-1.275-0.654h-0.002h-13.186h-1.56h-13.185c-0.553,0-0.994,0.225-1.278,0.654
		c-0.009,0.015-0.019,0.031-0.028,0.051c-0.279,0.558-0.21,1.111,0.213,1.597c0.938,0.948,1.704,1.649,2.423,2.234
		c0.298,0.288,0.6,0.351,0.8,0.351c0.24,0,0.601-0.086,0.955-0.493l0.854-1.031c0.185-0.185,0.648-0.608,1.224-0.846
		c0.513-0.211,1.286-0.332,2.053-0.343h4.658v28.189l-0.996,0.828c-0.407,0.354-0.493,0.715-0.493,0.952
		c0,0.204,0.063,0.505,0.35,0.804c0.586,0.718,1.513,1.664,2.462,2.606c0.381,0.423,1.165,0.544,1.831,0.302
		c0.019-0.006,0.031-0.02,0.05-0.029c0.563-0.281,0.877-0.695,0.836-1.502l0.006-0.049l-0.004-32.101h4.801
		c0.765,0.011,1.536,0.132,2.05,0.343c0.576,0.238,1.042,0.661,1.228,0.846l0.854,1.031c0.354,0.407,0.711,0.493,0.952,0.493
		c0.205,0,0.504-0.063,0.803-0.351c0.715-0.585,1.48-1.286,2.426-2.234C413.401,20.348,413.474,19.795,413.194,19.237"/>
	<path clip-path="url(#SVGID_2_)" fill="#01133E" d="M281.198,38.862c-1.605-1.764-4.987-3.576-10.051-5.393l-1.215-0.435
		c-4.121-1.468-6.121-3.517-6.121-6.264c0-1.549,0.539-2.92,1.605-4.079c1.293-1.434,3.087-2.161,5.315-2.161
		c2.802,0,5.041,0.887,6.662,2.632c0.004,0.004,0.006,0.007,0.01,0.012c0,0,0.031,0.033,0.058,0.059
		c0.062,0.07,0.124,0.141,0.188,0.211c0.006,0.007,0.017,0.006,0.023,0.012c0.559,0.591,1.869,1.993,2.497,2.833
		c0.351,0.416,0.871,0.423,1.085,0.278c0.43-0.182,0.387-0.79,0.387-0.79l0.002-5.704l-0.002-0.002c0-0.549-0.226-0.99-0.656-1.274
		c-0.014-0.011-0.029-0.019-0.049-0.031c-0.556-0.277-1.111-0.205-1.597,0.212c-0.39,0.389-0.7,0.773-0.979,1.146
		c-2.549-1.37-5.162-2.07-7.773-2.07c-3.092,0-5.581,0.788-7.61,2.411c-2.216,1.762-3.34,4.162-3.34,7.13
		c0,2.666,1.077,4.837,3.208,6.46c1.111,0.82,3.341,1.884,7.018,3.344l0.926,0.393c3.313,1.345,5.491,2.57,6.473,3.646
		c1.099,1.189,1.656,2.561,1.656,4.079c0,2.05-0.629,3.633-1.924,4.831c-1.235,1.146-2.87,1.702-4.999,1.702
		c-3.289,0-5.686-0.994-7.806-3.195c-0.021-0.021-2.249-2.257-2.735-2.792c-0.124-0.146-0.76-0.886-1.316-0.969
		c-0.346-0.046-0.581,0.074-0.71,0.188c-0.234,0.198-0.357,0.521-0.362,0.963v0.445c0,0.012,0.006,0.021,0.007,0.033v5.539v0.002
		c0,0.458,0.166,0.835,0.464,1.114c0.186,0.23,0.47,0.368,0.85,0.368c0.191,0,0.398-0.034,0.583-0.13
		c0.139-0.062,0.275-0.145,0.406-0.257c0.549-0.547,0.952-1.086,1.304-1.59c0.261,0.125,0.559,0.293,0.86,0.462
		c2.525,1.647,5.367,2.486,8.455,2.486c2.758,0,5.177-0.673,7.191-2.002c2.785-1.822,4.196-4.488,4.196-7.929
		C283.382,42.506,282.649,40.512,281.198,38.862"/>
	<path clip-path="url(#SVGID_2_)" fill="#01133E" d="M317.607,19.237c-0.009-0.02-0.022-0.036-0.031-0.051
		c-0.281-0.429-0.723-0.654-1.275-0.654h-0.002h-13.186h-1.557h-13.185c-0.555,0-0.997,0.225-1.279,0.654
		c-0.008,0.015-0.018,0.031-0.028,0.051c-0.279,0.558-0.207,1.111,0.209,1.597c0.945,0.948,1.709,1.649,2.426,2.234
		c0.297,0.288,0.597,0.351,0.803,0.351c0.238,0,0.598-0.086,0.951-0.493l0.855-1.031c0.184-0.185,0.648-0.608,1.223-0.846
		c0.514-0.211,1.284-0.332,2.053-0.343h4.66v28.189l-0.998,0.828c-0.407,0.354-0.493,0.715-0.493,0.952
		c0,0.204,0.065,0.505,0.352,0.804c0.584,0.718,1.514,1.664,2.459,2.606c0.381,0.423,1.168,0.544,1.832,0.302
		c0.018-0.006,0.032-0.02,0.051-0.029c0.564-0.281,0.877-0.695,0.835-1.502l0.005-0.049V20.706h4.798
		c0.766,0.011,1.539,0.132,2.051,0.343c0.574,0.238,1.041,0.661,1.225,0.846l0.855,1.031c0.354,0.407,0.714,0.493,0.951,0.493
		c0.205,0,0.505-0.063,0.803-0.351c0.719-0.585,1.484-1.286,2.428-2.234C317.814,20.348,317.886,19.795,317.607,19.237"/>
	<path clip-path="url(#SVGID_2_)" fill="#01133E" d="M346.225,51.077c-0.364-0.36-0.75-0.687-1.071-1.214
		c-0.431-0.711-0.734-1.529-0.734-1.529l-11.796-29.222c0,0-0.609-1.172-1.702-1.027c-0.495,0.042-1.035,0.333-1.485,1.168
		l-11.306,28.773c-0.142,0.359-0.307,0.677-0.474,0.984c-0.254,0.479-0.823,1.242-1.654,1.95c-0.401,0.34-0.988,0.698-1.382,0.946
		c-0.416,0.352-0.424,0.873-0.28,1.084c0.183,0.434,0.792,0.389,0.792,0.389l5.702,0.002l0.002-0.002
		c0.55,0,0.993-0.227,1.275-0.656c0.011-0.013,0.02-0.031,0.029-0.049c0.281-0.558,0.207-1.11-0.209-1.598
		c-0.654-0.654-1.298-1.108-1.878-1.508c0.077-0.403,0.211-0.785,0.455-1.497l2.631-6.687h13.845l0.004-0.028l2.841,7.035
		c0.292,0.775,0.725,1.855,0.466,2.298c0,0-0.125,0.141-0.187,0.188c-0.507,0.451-0.876,0.774-1.195,1.028
		c-0.416,0.352-0.425,0.873-0.281,1.084c0.182,0.434,0.791,0.389,0.791,0.389l5.701,0.002l0.002-0.002
		c0.553,0,0.995-0.227,1.28-0.656c0.008-0.013,0.017-0.031,0.027-0.049C346.712,52.117,346.639,51.564,346.225,51.077
		 M336.094,39.149h-12.074l5.96-15.146l6.117,15.146H336.094z"/>
	<path clip-path="url(#SVGID_2_)" fill="#01133E" d="M381.896,51.336c-0.946-0.945-1.884-1.483-2.612-2.023
		c-0.387-0.283-0.602-0.35-0.804-0.35c-0.239,0-0.396,0.122-0.782,0.438c0,0-0.294,0.271-0.705,0.646
		c-0.638-1.261-1.564-3.184-1.95-3.976c-0.901-1.841-1.562-3.128-2.032-4.004c-1.798-3.349-3.087-4.478-5.488-5.197v-0.146
		c2.235-0.145,4.358-0.643,5.958-1.614c1.611-0.903,2.719-2.116,3.361-3.624c0.462-1.082,0.652-2.345,0.685-3.697l0.006-0.272
		c0.016-0.734-0.021-1.249-0.021-1.249c-0.135-1.937-0.83-3.46-2.069-4.708c-0.611-0.618-1.357-1.168-2.234-1.668
		c-1.943-1.117-4.567-1.649-7.918-1.649h-7.225c-0.137-0.306-0.37-0.523-0.698-0.685c-0.019-0.01-0.031-0.024-0.051-0.031
		c-0.667-0.24-1.45-0.121-1.83,0.302c-0.949,0.944-1.875,1.891-2.463,2.608c-0.287,0.297-0.349,0.6-0.349,0.803
		c0,0.238,0.084,0.599,0.491,0.951l1,0.828v25.875l-1,0.828c-0.407,0.354-0.491,0.715-0.491,0.952c0,0.204,0.062,0.505,0.349,0.804
		c0.588,0.718,1.514,1.664,2.463,2.607c0.38,0.422,1.163,0.543,1.83,0.301c0.02-0.006,0.032-0.02,0.051-0.029
		c0.563-0.281,0.878-0.695,0.835-1.502l0.006-0.049V37.211h3.441c2.621,0,4.854,1.214,6.604,3.691c2.09,2.9,4.09,6.83,6.043,11.688
		c-0.1,0.263-0.084,0.525,0.007,0.66c0.183,0.433,0.792,0.388,0.792,0.388l5.703,0.002v-0.002c0.552,0,0.996-0.226,1.278-0.655
		c0.012-0.014,0.02-0.031,0.026-0.05C382.382,52.377,382.31,51.824,381.896,51.336 M362.569,35.274h-4.362V20.519
		c0.943-0.396,3.524-0.483,4.313-0.483l1.921,0.024c2.554,0,4.575,0.386,6.077,1.164c1.113,0.576,1.958,1.362,2.507,2.37
		c0.429,0.785,0.678,1.703,0.734,2.763c0.014,0.251,0.022,1.427,0.021,1.692c-0.008,1.001-0.203,2.032-0.424,2.65
		c-0.313,0.813-0.804,1.488-1.473,2.096C370.073,34.445,366.968,35.274,362.569,35.274"/>
	<path clip-path="url(#SVGID_2_)" fill="#01133E" d="M479.468,19.893c-1.943-1.117-4.564-1.649-7.916-1.649h-3.125h-7.99
		c-0.146-0.696-0.895-0.895-1.345-0.909c-0.821-0.025-1.527,0.669-1.527,0.669c-0.947,0.945-1.684,1.717-2.27,2.434
		c-0.286,0.297-0.351,0.599-0.351,0.803c0,0.238,0.087,0.598,0.492,0.951l0.996,0.828v25.875l-0.996,0.828
		c-0.405,0.355-0.492,0.715-0.492,0.952c0,0.204,0.064,0.505,0.351,0.804c0.586,0.719,1.513,1.664,2.462,2.606
		c0.379,0.423,1.165,0.544,1.829,0.302c0.02-0.007,0.033-0.019,0.052-0.029c0.562-0.281,0.875-0.695,0.834-1.502l0.006-0.049V38.36
		l7.066-0.067c2.255-0.025,5.604-0.2,5.604-0.2c2.741-0.241,5.38-0.767,6.984-1.74c2.767-1.555,4.084-5.125,3.943-8.563
		C483.951,24.781,482.285,21.496,479.468,19.893 M472.281,36.014c-1.049,0.105-2.8,0.201-4.055,0.201h-7.749V20.602
		c1.701-0.249,6.789-0.422,7.566-0.422l3.543,0.041c2.124,0.063,3.64,0.206,4.91,0.776c2.67,1.201,3.784,4.488,3.756,7.133
		C480.206,32.489,478.128,35.431,472.281,36.014"/>
	<path clip-path="url(#SVGID_2_)" fill="#01133E" d="M40.198,6.261c-0.46-0.262-1.2-0.262-1.65,0L19.193,17.436
		c-0.456,0.262-1.198,0.262-1.651,0l-3.6-2.078c-0.254-0.145-0.443-0.221-0.634-0.252c-0.343-0.059-0.601,0.016-0.67,0.067
		l-3.603,2.079c-0.354,0.18-0.546,0.347-0.612,0.541c-0.079,0.23,0.022,0.455,0.267,0.597l8.852,5.109
		c0.453,0.262,1.195,0.262,1.651,0l19.355-11.174c0.45-0.262,1.19-0.262,1.65,0l3.599,2.078c0.453,0.263,1.197,0.263,1.646,0
		l3.605-2.078c0.452-0.262,0.452-0.692,0-0.956L40.198,6.261z"/>
	<path clip-path="url(#SVGID_2_)" fill="#01133E" d="M24.44,26.531c-0.451,0.262-0.451,0.69,0,0.953l3.605,2.078
		c0.453,0.258,1.196,0.258,1.649,0l19.355-11.174c0.452-0.264,0.452-0.692-0.3-1.137l-3.604-2.079
		c-0.15-0.079-0.894-0.079-1.348,0.183L24.44,26.531z"/>
	<path clip-path="url(#SVGID_2_)" fill="#01133E" d="M33.296,3.229c0.453-0.262,0.453-0.691,0-0.952l-3.603-2.079
		c-0.453-0.264-1.193-0.264-1.648,0L8.69,11.371c-0.455,0.261-0.455,0.691,0,0.954l3.603,2.079c0.452,0.262,1.196,0.262,1.648,0
		L33.296,3.229z"/>
	<path clip-path="url(#SVGID_2_)" fill="#331700" d="M32.352,58.343c-0.454,0.26-0.821,0.904-0.821,1.43l-0.003,4.159
		c0,0.521,0.37,0.736,0.824,0.474l19.357-11.175c0.515-0.289,0.828-0.906,0.828-1.106v-4.158c0.055-0.912-0.375-1.061-0.828-0.8
		L32.352,58.343z"/>
	<path clip-path="url(#SVGID_2_)" fill="#331700" d="M32.183,40.248c-0.453,0.264-0.652,0.81-0.652,1.335v10.22
		c0,0.526,0.367,0.74,0.82,0.479l19.357-11.177c0.453-0.261,0.828-0.048,0.828,0.477v4.157c0,0.522,0.366,0.739,0.823,0.476
		l3.599-2.078c0.454-0.261,0.829-0.905,0.829-1.428V32.487c0-0.525-0.375-0.737-0.827-0.476L37.605,43.187
		c-0.453,0.26-0.827,0.044-0.827-0.479l0.002-4.158c0-0.525-0.372-0.738-0.825-0.478L32.183,40.248z"/>
	<path clip-path="url(#SVGID_2_)" fill="#331700" d="M56.96,25.946c0.162-0.116,0.398-0.25,0.577-0.391
		c0.217-0.173,0.25-0.589,0.25-0.693v-4.158c0-0.416-0.14-0.653-0.337-0.757c-0.208-0.112-0.484-0.069-0.719,0.066L37.606,31.059
		c-0.209,0.121-0.426,0.316-0.57,0.532c-0.171,0.252-0.256,0.53-0.256,0.715v4.103c0,0.34,0.048,0.621,0.227,0.732
		c0.164,0.104,0.363,0.116,0.599-0.02L56.96,25.946z"/>
	<path clip-path="url(#SVGID_2_)" fill="#003026" d="M0.966,19.966C0.414,19.645,0,20.063,0,20.588v3.933
		c0,0.522,0.142,1.049,0.598,1.308l8.224,4.753c0.453,0.261,0.825,0.903,0.825,1.43v23.505c0,0.523,0.073,0.958,0.523,1.245
		l3.601,2.079c0.754,0.445,1.146,0.048,1.125-0.596l0.001-23.204c0-0.522,0.369-0.739,0.825-0.477l9.526,5.478
		c0.453,0.263,1.037,0.115,1.007-0.666v-3.973c0-0.409-0.372-1.053-0.825-1.315L0.966,19.966z"/>
</g>
</svg>
