<?xml version="1.0" encoding="utf-8"?>
<!-- Generator: Adobe Illustrator 15.0.0, SVG Export Plug-In . SVG Version: 6.00 Build 0)  -->
<!DOCTYPE svg PUBLIC "-//W3C//DTD SVG 1.1//EN" "http://www.w3.org/Graphics/SVG/1.1/DTD/svg11.dtd">
<svg version="1.1" id="レイヤー_1" xmlns="http://www.w3.org/2000/svg" xmlns:xlink="http://www.w3.org/1999/xlink" x="0px"
	 y="0px" width="36.355px" height="36.355px" viewBox="0 0 36.355 36.355" enable-background="new 0 0 36.355 36.355"
	 xml:space="preserve">
<circle fill="none" stroke="#282B30" stroke-width="1.5" stroke-miterlimit="10" cx="18.178" cy="18.178" r="17.427"/>
<path fill="#282B30" d="M13.303,11.092c-1.063,0.69-1.272,2.847-0.871,4.604c0.313,1.37,0.978,3.206,2.099,4.935
	c1.055,1.627,2.527,3.085,3.649,3.929c1.44,1.084,3.495,1.772,4.56,1.083c0.538-0.35,1.337-1.303,1.373-1.474
	c0,0-0.468-0.722-0.571-0.881l-1.572-2.424c-0.116-0.18-0.849-0.016-1.221,0.195c-0.502,0.284-0.964,1.049-0.964,1.049
	c-0.344,0.197-0.633,0-1.235-0.277c-0.74-0.341-1.572-1.399-2.234-2.357c-0.605-0.996-1.231-2.188-1.241-3.001
	c-0.007-0.663-0.07-1.007,0.251-1.24c0,0,0.886-0.111,1.35-0.453c0.344-0.253,0.794-0.855,0.676-1.036l-1.571-2.422
	c-0.103-0.16-0.572-0.882-0.572-0.882C15.037,10.403,13.841,10.743,13.303,11.092"/>
<path fill="none" stroke="#282B30" stroke-width="1.5" stroke-miterlimit="10" d="M13.303,11.092
	c-1.063,0.69-1.272,2.847-0.871,4.604c0.313,1.37,0.978,3.206,2.099,4.935c1.055,1.627,2.527,3.085,3.649,3.929
	c1.44,1.084,3.495,1.772,4.56,1.083c0.538-0.35,1.337-1.303,1.373-1.474c0,0-0.468-0.722-0.571-0.881l-1.572-2.424
	c-0.116-0.18-0.849-0.016-1.221,0.195c-0.502,0.284-0.964,1.049-0.964,1.049c-0.344,0.197-0.633,0-1.235-0.277
	c-0.74-0.341-1.572-1.399-2.234-2.357c-0.605-0.996-1.231-2.188-1.241-3.001c-0.007-0.663-0.07-1.007,0.251-1.24
	c0,0,0.886-0.111,1.35-0.453c0.344-0.253,0.794-0.855,0.676-1.036l-1.571-2.422c-0.103-0.16-0.572-0.882-0.572-0.882
	C15.037,10.403,13.841,10.743,13.303,11.092z"/>
</svg>
