<?xml version="1.0" encoding="utf-8"?>
<!-- Generator: Adobe Illustrator 16.0.0, SVG Export Plug-In . SVG Version: 6.00 Build 0)  -->
<!DOCTYPE svg PUBLIC "-//W3C//DTD SVG 1.1//EN" "http://www.w3.org/Graphics/SVG/1.1/DTD/svg11.dtd">
<svg version="1.1" id="レイヤー_1" xmlns="http://www.w3.org/2000/svg" xmlns:xlink="http://www.w3.org/1999/xlink" x="0px"
	 y="0px" width="511.986px" height="511.999px" viewBox="0 0 511.986 511.999" enable-background="new 0 0 511.986 511.999"
	 xml:space="preserve">
<g>
	<defs>
		<rect id="SVGID_1_" width="511.986" height="511.999"/>
	</defs>
	<clipPath id="SVGID_2_">
		<use xlink:href="#SVGID_1_"  overflow="visible"/>
	</clipPath>
	<path clip-path="url(#SVGID_2_)" fill="#BAB3A4" d="M496.997,258.8L262.091,23.873c-8.977-8.954-20.938-14.277-33.581-14.911
		L53.742,0.066C39.29-0.674,25.213,4.755,14.967,14.989C4.745,25.224-0.683,39.312,0.069,53.764l8.883,174.757
		c0.634,12.655,5.945,24.616,14.899,33.57l234.927,234.928c19.976,19.974,52.382,19.974,72.356,0l165.862-165.874
		C516.995,311.157,516.972,278.764,496.997,258.8 M154.58,154.589c-16.45,16.45-43.098,16.45-59.548,0
		c-16.45-16.45-16.45-43.11,0-59.56c16.45-16.45,43.098-16.45,59.548,0C171.03,111.479,171.03,138.14,154.58,154.589"/>
</g>
</svg>
