<?xml version="1.0" encoding="utf-8"?>
<!-- Generator: Adobe Illustrator 15.0.0, SVG Export Plug-In . SVG Version: 6.00 Build 0)  -->
<!DOCTYPE svg PUBLIC "-//W3C//DTD SVG 1.1//EN" "http://www.w3.org/Graphics/SVG/1.1/DTD/svg11.dtd">
<svg version="1.1" id="レイヤー_1" xmlns="http://www.w3.org/2000/svg" xmlns:xlink="http://www.w3.org/1999/xlink" x="0px"
	 y="0px" width="125.631px" height="158.577px" viewBox="0 0 125.631 158.577" enable-background="new 0 0 125.631 158.577"
	 xml:space="preserve">
<ellipse opacity="0.7" fill="#DDDDDD" cx="63.25" cy="146.994" rx="32.5" ry="11.583"/>
<polygon fill="#4E750C" points="62.815,75.904 34.814,75.904 62.815,143.41 90.815,75.904 "/>
<polygon fill="#669D11" points="34.815,75.904 62.815,143.41 62.815,75.904 "/>
<polygon fill="#4E750C" points="62.815,75.904 62.815,143.41 90.815,75.904 "/>
<g>
	<defs>
		<rect id="SVGID_1_" width="125.63" height="143.41"/>
	</defs>
	<clipPath id="SVGID_2_">
		<use xlink:href="#SVGID_1_"  overflow="visible"/>
	</clipPath>
	<path clip-path="url(#SVGID_2_)" fill="#669D11" d="M125.631,62.815c0,34.691-28.124,62.814-62.815,62.814
		C28.124,125.63,0,97.507,0,62.815C0,28.123,28.124,0,62.815,0C97.507,0,125.631,28.123,125.631,62.815"/>
	<path clip-path="url(#SVGID_2_)" fill="#FFFFFF" d="M45.958,86.431H19.44v-2.957h26.519c1.679,0,3.045-1.365,3.045-3.045
		c0-1.679-1.366-3.045-3.045-3.045h-9.661c-3.31,0-6.003-2.692-6.003-6.002c0-3.31,2.693-6.003,6.003-6.003h69.892v2.957H36.298
		c-1.679,0-3.045,1.366-3.045,3.046c0,1.679,1.366,3.045,3.045,3.045h9.661c3.31,0,6.002,2.692,6.002,6.002
		C51.961,83.739,49.269,86.431,45.958,86.431"/>
	<path clip-path="url(#SVGID_2_)" fill="#FFFFFF" d="M73.66,80.369c-11.949,0-21.67-9.721-21.67-21.67
		c0-11.948,9.721-21.67,21.67-21.67c11.949,0,21.67,9.722,21.67,21.67C95.33,70.648,85.609,80.369,73.66,80.369 M73.66,39.987
		c-10.317,0-18.712,8.394-18.712,18.712c0,10.319,8.395,18.713,18.712,18.713c10.318,0,18.713-8.394,18.713-18.713
		C92.373,48.381,83.979,39.987,73.66,39.987"/>
</g>
</svg>
