<?xml version="1.0" encoding="utf-8"?>
<!-- Generator: Adobe Illustrator 15.0.0, SVG Export Plug-In . SVG Version: 6.00 Build 0)  -->
<!DOCTYPE svg PUBLIC "-//W3C//DTD SVG 1.1//EN" "http://www.w3.org/Graphics/SVG/1.1/DTD/svg11.dtd">
<svg version="1.1" id="レイヤー_1" xmlns="http://www.w3.org/2000/svg" xmlns:xlink="http://www.w3.org/1999/xlink" x="0px"
	 y="0px" width="283.465px" height="37.366px" viewBox="0 0 283.465 37.366" enable-background="new 0 0 283.465 37.366"
	 xml:space="preserve">
<g>
	<defs>
		<rect id="SVGID_1_" width="283.465" height="37.366"/>
	</defs>
	<clipPath id="SVGID_2_">
		<use xlink:href="#SVGID_1_"  overflow="visible"/>
	</clipPath>
	<path clip-path="url(#SVGID_2_)" d="M12.871,23.795h52.932v-2.532H12.871c-2.569,0-4.66,2.09-4.66,4.659
		c0,2.568,2.091,4.659,4.66,4.659h7.246c1.172,0,2.126,0.953,2.126,2.127c0,1.172-0.954,2.127-2.126,2.127H0v2.531h20.117
		c2.569,0,4.659-2.091,4.659-4.658c0-2.569-2.09-4.659-4.659-4.659h-7.246c-1.172,0-2.126-0.954-2.126-2.127
		S11.699,23.795,12.871,23.795"/>
	<path clip-path="url(#SVGID_2_)" fill="#D7000F" d="M41.187,0c-9.049,0-16.411,7.362-16.411,16.41
		c0,9.049,7.362,16.411,16.411,16.411c9.048,0,16.41-7.361,16.41-16.411C57.596,7.362,50.234,0,41.187,0 M55.063,16.41
		c0,7.652-6.225,13.878-13.877,13.878c-7.653,0-13.878-6.227-13.878-13.878S33.533,2.532,41.187,2.532
		C48.838,2.532,55.063,8.758,55.063,16.41"/>
	<path clip-path="url(#SVGID_2_)" d="M149.435,20.568c0,1.182-0.962,2.144-2.144,2.144c-1.181,0-2.143-0.962-2.143-2.144V12.49
		h-2.39v8.078c0,2.499,2.033,4.53,4.532,4.53s4.532-2.031,4.532-4.53V12.49h-2.389V20.568z"/>
	<polygon clip-path="url(#SVGID_2_)" points="129.013,14.653 132.548,14.653 132.548,24.876 134.963,24.876 134.963,14.653 
		138.5,14.653 138.5,12.469 129.013,12.469 	"/>
	<polygon clip-path="url(#SVGID_2_)" points="89.243,14.653 92.779,14.653 92.779,24.876 95.192,24.876 95.192,14.653 98.73,14.653 
		98.73,12.469 89.243,12.469 	"/>
	<path clip-path="url(#SVGID_2_)" d="M162.512,12.491l-5.138,0.003v12.404h2.414v-4.687h2.724c2.129,0,3.861-1.732,3.861-3.86
		C166.373,14.223,164.641,12.491,162.512,12.491 M163.984,16.351c0,0.812-0.66,1.473-1.473,1.473h-2.724v-2.945h2.724
		C163.324,14.879,163.984,15.539,163.984,16.351"/>
	<path clip-path="url(#SVGID_2_)" d="M104.727,22.093h3.899l0.915,2.782h2.435l-4.046-12.294l-0.037-0.112h-2.433l-4.088,12.407
		h2.436L104.727,22.093z M105.398,20.054l1.278-3.882l1.279,3.882H105.398z"/>
	<path clip-path="url(#SVGID_2_)" d="M80.597,17.461c-1.13-0.177-1.861-0.607-2.058-1.211c-0.146-0.449,0.034-0.969,0.457-1.327
		c0.992-0.839,2.949-0.638,4.552,0.468l0.122,0.085l1.342-1.764l-0.051-0.035c-2.535-1.749-5.715-1.889-7.559-0.331
		c-1.075,0.908-1.512,2.288-1.113,3.516c0.458,1.409,1.884,2.398,3.912,2.714c3.154,0.495,2.984,1.548,2.893,2.113
		c-0.043,0.268-0.412,0.769-1.249,1.052c-0.678,0.23-2.499,0.575-4.796-1.223l-0.12-0.095l-1.43,1.706l0.024,0.019
		c1.633,1.28,3.351,1.929,5.105,1.929c0.898-0.001,1.603-0.177,2.036-0.323c1.505-0.513,2.559-1.565,2.752-2.749
		C85.689,20.319,85.076,18.164,80.597,17.461"/>
	<path clip-path="url(#SVGID_2_)" d="M125.722,24.876l-2.998-4.859c1.621-0.493,2.733-1.978,2.733-3.688
		c0-2.128-1.731-3.86-3.86-3.86l-5.139,0.003v12.404h2.415v-4.687h1.289l2.901,4.687H125.722z M118.873,14.856h2.724
		c0.812,0,1.472,0.66,1.472,1.472s-0.66,1.473-1.472,1.473h-2.724V14.856z"/>
	<path clip-path="url(#SVGID_2_)" d="M196.68,20.568c0,1.182-0.962,2.144-2.145,2.144c-1.182,0-2.143-0.962-2.143-2.144V12.49
		h-2.389v8.078c0,2.499,2.032,4.53,4.531,4.53s4.532-2.031,4.532-4.53V12.49h-2.388V20.568z"/>
	<path clip-path="url(#SVGID_2_)" d="M209.15,12.493h-4.525v12.407h4.787c2.322,0,4.212-1.701,4.212-3.791
		c0-1.134-0.552-2.186-1.522-2.911c0.587-0.628,0.908-1.414,0.908-2.232C213.01,14.051,211.278,12.493,209.15,12.493
		 M207.039,19.466h2.373c1.006,0,1.824,0.737,1.824,1.643s-0.818,1.643-1.824,1.643h-2.373V19.466z M209.15,17.292h-2.111v-2.65
		h2.111c0.812,0,1.472,0.594,1.472,1.324C210.622,16.697,209.962,17.292,209.15,17.292"/>
	<polygon clip-path="url(#SVGID_2_)" points="175.371,12.49 175.371,24.897 177.786,24.897 177.786,19.553 182.02,19.553 
		182.02,24.897 184.435,24.897 184.435,12.49 182.02,12.49 182.02,17.367 177.786,17.367 177.786,12.49 	"/>
	<path clip-path="url(#SVGID_2_)" d="M239.182,12.288c-2.499,0-4.53,2.033-4.53,4.532v3.749c0,2.499,2.031,4.532,4.53,4.532
		s4.532-2.033,4.532-4.532v-3.749C243.714,14.32,241.681,12.288,239.182,12.288 M241.326,20.568c0,1.183-0.961,2.145-2.145,2.145
		c-1.181,0-2.143-0.962-2.143-2.145v-3.749c0-1.182,0.961-2.144,2.143-2.144c1.183,0,2.145,0.962,2.145,2.144v2.486V20.568z"/>
	<path clip-path="url(#SVGID_2_)" d="M278.933,12.288c-2.499,0-4.532,2.033-4.532,4.532v3.749c0,2.499,2.033,4.532,4.532,4.532
		s4.532-2.033,4.532-4.532v-3.749C283.465,14.32,281.432,12.288,278.933,12.288 M281.076,20.568c0,1.183-0.962,2.145-2.144,2.145
		s-2.143-0.962-2.143-2.145l-0.001-3.749c0-1.182,0.962-2.144,2.144-2.144s2.144,0.962,2.144,2.144v2.486V20.568z"/>
	<polygon clip-path="url(#SVGID_2_)" points="265.919,16.804 263.395,12.49 260.928,12.49 264.713,19.036 264.713,24.897 
		267.127,24.897 267.127,19.032 270.912,12.49 268.445,12.49 	"/>
	<polygon clip-path="url(#SVGID_2_)" points="221.695,14.675 225.231,14.675 225.231,24.897 227.646,24.897 227.646,14.675 
		231.184,14.675 231.184,12.491 221.695,12.491 	"/>
	<polygon clip-path="url(#SVGID_2_)" points="258.117,24.897 253.452,17.861 258.126,12.491 255.244,12.491 251.271,16.998 
		251.271,12.491 248.857,12.491 248.857,24.897 251.271,24.897 251.271,20.365 251.795,19.766 255.304,24.897 	"/>
</g>
</svg>
