<?xml version="1.0" encoding="utf-8"?>
<!-- Generator: Adobe Illustrator 15.0.0, SVG Export Plug-In . SVG Version: 6.00 Build 0)  -->
<!DOCTYPE svg PUBLIC "-//W3C//DTD SVG 1.1//EN" "http://www.w3.org/Graphics/SVG/1.1/DTD/svg11.dtd">
<svg version="1.1" id="レイヤー_1" xmlns="http://www.w3.org/2000/svg" xmlns:xlink="http://www.w3.org/1999/xlink" x="0px"
	 y="0px" width="283.465px" height="60.576px" viewBox="0 0 283.465 60.576" enable-background="new 0 0 283.465 60.576"
	 xml:space="preserve">
<g>
	<defs>
		<rect id="SVGID_1_" y="0" width="283.465" height="60.576"/>
	</defs>
	<clipPath id="SVGID_2_">
		<use xlink:href="#SVGID_1_"  overflow="visible"/>
	</clipPath>
	<path clip-path="url(#SVGID_2_)" d="M32.517,60.576H0V56.95h32.517c2.059,0,3.734-1.675,3.734-3.734
		c0-2.059-1.675-3.733-3.734-3.733H20.67c-4.058,0-7.359-3.301-7.359-7.36c0-4.058,3.301-7.36,7.359-7.36h85.702v3.626H20.67
		c-2.059,0-3.733,1.676-3.733,3.734c0,2.06,1.674,3.734,3.733,3.734h11.847c4.058,0,7.36,3.302,7.36,7.359
		C39.877,57.274,36.575,60.576,32.517,60.576"/>
	<path clip-path="url(#SVGID_2_)" fill="#D7000F" d="M66.484,53.143c-14.651,0-26.571-11.92-26.571-26.572
		C39.914,11.92,51.833,0,66.484,0c14.651,0,26.571,11.92,26.571,26.571C93.056,41.223,81.136,53.143,66.484,53.143 M66.484,3.626
		c-12.652,0-22.945,10.293-22.945,22.945c0,12.652,10.293,22.946,22.945,22.946c12.652,0,22.945-10.294,22.945-22.946
		C89.43,13.919,79.137,3.626,66.484,3.626"/>
	<path clip-path="url(#SVGID_2_)" d="M263.228,19.484c0,1.407-1.145,2.553-2.552,2.553s-2.553-1.146-2.553-2.553V9.866h-2.843v9.618
		c0,2.975,2.42,5.396,5.396,5.396c2.975,0,5.396-2.421,5.396-5.396V9.866h-2.844V19.484z"/>
	<path clip-path="url(#SVGID_2_)" d="M278.137,9.869h-5.388v14.772h5.7c2.765,0,5.015-2.025,5.015-4.513
		c0-1.35-0.656-2.603-1.812-3.466c0.699-0.748,1.081-1.684,1.081-2.657C282.733,11.724,280.672,9.869,278.137,9.869 M275.624,18.172
		h2.825c1.197,0,2.172,0.877,2.172,1.956c0,1.077-0.975,1.955-2.172,1.955h-2.825V18.172z M278.137,15.583h-2.513v-3.156h2.513
		c0.967,0,1.753,0.708,1.753,1.578C279.89,14.875,279.104,15.583,278.137,15.583"/>
	<polygon clip-path="url(#SVGID_2_)" points="237.857,9.866 237.857,24.639 240.732,24.639 240.732,18.274 245.774,18.274 
		245.774,24.639 248.649,24.639 248.649,9.866 245.774,9.866 245.774,15.674 240.732,15.674 240.732,9.866 	"/>
	<path clip-path="url(#SVGID_2_)" d="M207.669,19.484c0,1.407-1.145,2.553-2.552,2.553s-2.553-1.146-2.553-2.553V9.866h-2.844v9.618
		c0,2.975,2.42,5.396,5.396,5.396c2.975,0,5.395-2.421,5.395-5.396V9.866h-2.843V19.484z"/>
	<polygon clip-path="url(#SVGID_2_)" points="183.405,12.468 187.615,12.468 187.615,24.639 190.49,24.639 190.49,12.468 
		194.702,12.468 194.702,9.867 183.405,9.867 	"/>
	<polygon clip-path="url(#SVGID_2_)" points="136.053,12.468 140.263,12.468 140.263,24.639 143.138,24.639 143.138,12.468 
		147.35,12.468 147.35,9.867 136.053,9.867 	"/>
	<path clip-path="url(#SVGID_2_)" d="M223.239,9.866l-6.118,0.004v14.769h2.875v-5.581h3.243c2.535,0,4.598-2.062,4.598-4.596
		S225.774,9.866,223.239,9.866 M224.993,14.462c0,0.967-0.787,1.753-1.754,1.753h-3.243v-3.506h3.243
		C224.206,12.709,224.993,13.496,224.993,14.462"/>
	<path clip-path="url(#SVGID_2_)" d="M154.489,21.325h4.643l1.088,3.315h2.9L158.302,10l-0.043-0.133h-2.897l-4.867,14.773h2.899
		L154.489,21.325z M155.288,18.897l1.521-4.623l1.523,4.623H155.288z"/>
	<path clip-path="url(#SVGID_2_)" d="M125.759,15.812c-1.346-0.211-2.216-0.723-2.45-1.443c-0.174-0.533,0.039-1.153,0.544-1.579
		c1.18-0.999,3.51-0.759,5.419,0.557l0.146,0.101l1.597-2.1l-0.06-0.042c-3.019-2.082-6.804-2.248-9-0.394
		c-1.28,1.082-1.8,2.725-1.325,4.187c0.545,1.677,2.243,2.855,4.658,3.233c3.755,0.589,3.552,1.841,3.443,2.514
		c-0.051,0.318-0.49,0.915-1.487,1.254c-0.806,0.274-2.976,0.685-5.709-1.457l-0.144-0.112l-1.702,2.031l0.028,0.022
		c1.945,1.524,3.99,2.297,6.079,2.297c1.069-0.001,1.908-0.21,2.424-0.386c1.792-0.609,3.047-1.864,3.276-3.273
		C131.822,19.214,131.091,16.647,125.759,15.812"/>
	<path clip-path="url(#SVGID_2_)" d="M179.485,24.639l-3.569-5.786c1.931-0.587,3.256-2.354,3.256-4.39
		c0-2.534-2.063-4.596-4.598-4.596l-6.118,0.004v14.768h2.875v-5.58h1.535l3.454,5.58H179.485z M171.331,12.709h3.243
		c0.967,0,1.753,0.786,1.753,1.753c0,0.966-0.786,1.753-1.753,1.753h-3.243V12.709z"/>
	<path clip-path="url(#SVGID_2_)" d="M141.336,35.696c-2.976,0-5.396,2.42-5.396,5.396v4.464c0,2.975,2.42,5.396,5.396,5.396
		s5.396-2.421,5.396-5.396v-4.464C146.731,38.116,144.312,35.696,141.336,35.696 M143.889,45.555c0,1.407-1.146,2.553-2.553,2.553
		c-1.407,0-2.553-1.146-2.553-2.553v-4.464c0-1.407,1.145-2.554,2.553-2.554c1.407,0,2.553,1.146,2.553,2.554v2.96V45.555z"/>
	<path clip-path="url(#SVGID_2_)" d="M189.054,35.696c-2.976,0-5.396,2.42-5.396,5.396v4.464c0,2.975,2.42,5.396,5.396,5.396
		s5.396-2.421,5.396-5.396v-4.464C194.449,38.116,192.029,35.696,189.054,35.696 M191.606,45.555c0,1.407-1.146,2.553-2.553,2.553
		c-1.406,0-2.553-1.146-2.553-2.553v-4.464c0-1.407,1.146-2.554,2.553-2.554s2.553,1.146,2.553,2.554v2.96V45.555z"/>
	<polygon clip-path="url(#SVGID_2_)" points="173.541,41.073 170.534,35.937 167.598,35.937 172.104,43.729 172.104,50.709 
		174.979,50.709 174.979,43.726 179.485,35.937 176.548,35.937 	"/>
	<polygon clip-path="url(#SVGID_2_)" points="119.977,38.538 124.187,38.538 124.187,50.709 127.062,50.709 127.062,38.538 
		131.273,38.538 131.273,35.937 119.977,35.937 	"/>
	<polygon clip-path="url(#SVGID_2_)" points="163.838,50.709 158.284,42.332 163.848,35.936 160.418,35.936 155.688,41.303 
		155.688,35.936 152.813,35.936 152.813,50.709 155.688,50.709 155.688,45.313 156.311,44.598 160.489,50.709 	"/>
</g>
</svg>
