<?xml version="1.0" encoding="utf-8"?>
<!-- Generator: Adobe Illustrator 16.0.0, SVG Export Plug-In . SVG Version: 6.00 Build 0)  -->
<!DOCTYPE svg PUBLIC "-//W3C//DTD SVG 1.1//EN" "http://www.w3.org/Graphics/SVG/1.1/DTD/svg11.dtd">
<svg version="1.1" id="レイヤー_1" xmlns="http://www.w3.org/2000/svg" xmlns:xlink="http://www.w3.org/1999/xlink" x="0px"
	 y="0px" width="184.252px" height="212.824px" viewBox="0 0 184.252 212.824" enable-background="new 0 0 184.252 212.824"
	 xml:space="preserve">
<g>
	<g>
		<defs>
			<rect id="SVGID_1_" width="184.252" height="212.824"/>
		</defs>
		<clipPath id="SVGID_2_">
			<use xlink:href="#SVGID_1_"  overflow="visible"/>
		</clipPath>
		<path clip-path="url(#SVGID_2_)" d="M56.324,104.927H0v-6.281h56.324c3.566,0,6.467-2.901,6.467-6.467
			c0-3.567-2.901-6.468-6.467-6.468h-20.52c-7.029,0-12.748-5.719-12.748-12.748c0-7.03,5.719-12.749,12.748-12.749h148.448v6.281
			H35.804c-3.567,0-6.467,2.901-6.467,6.468c0,3.566,2.9,6.467,6.467,6.467h20.52c7.029,0,12.748,5.719,12.748,12.749
			C69.072,99.208,63.353,104.927,56.324,104.927"/>
	</g>
	<g>
		<defs>
			<rect id="SVGID_3_" width="184.252" height="212.824"/>
		</defs>
		<clipPath id="SVGID_4_">
			<use xlink:href="#SVGID_3_"  overflow="visible"/>
		</clipPath>
		
			<circle clip-path="url(#SVGID_4_)" fill="none" stroke="#D7000F" stroke-width="6" stroke-miterlimit="10" cx="115.069" cy="46.051" r="43"/>
	</g>
	<g>
		<defs>
			<rect id="SVGID_5_" width="184.252" height="212.824"/>
		</defs>
		<clipPath id="SVGID_6_">
			<use xlink:href="#SVGID_5_"  overflow="visible"/>
		</clipPath>
		<path clip-path="url(#SVGID_6_)" d="M135.517,140.323c0,1.771-1.441,3.213-3.213,3.213c-1.771,0-3.212-1.442-3.212-3.213v-12.104
			h-3.579v12.104c0,3.743,3.047,6.79,6.791,6.79s6.791-3.047,6.791-6.79v-12.104h-3.578V140.323L135.517,140.323z"/>
	</g>
	<g>
		<defs>
			<rect id="SVGID_7_" width="184.252" height="212.824"/>
		</defs>
		<clipPath id="SVGID_8_">
			<use xlink:href="#SVGID_7_"  overflow="visible"/>
		</clipPath>
		<path clip-path="url(#SVGID_8_)" d="M71.591,161.077h-6.535v18.592h6.927c3.481,0,6.313-2.548,6.313-5.681
			c0-1.698-0.828-3.275-2.282-4.361c0.88-0.939,1.362-2.119,1.362-3.344C77.376,163.412,74.781,161.077,71.591,161.077
			 M68.675,171.527h3.308c1.507,0,2.734,1.104,2.734,2.461c0,1.355-1.227,2.461-2.734,2.461h-3.308V171.527z M71.591,168.27h-2.916
			v-3.973h2.916c1.216,0,2.206,0.893,2.206,1.986S72.807,168.27,71.591,168.27"/>
	</g>
	<g>
		<defs>
			<rect id="SVGID_9_" width="184.252" height="212.824"/>
		</defs>
		<clipPath id="SVGID_10_">
			<use xlink:href="#SVGID_9_"  overflow="visible"/>
		</clipPath>
		<polygon clip-path="url(#SVGID_10_)" points="23.615,161.077 23.615,179.669 27.233,179.669 27.233,171.659 33.215,171.659 
			33.215,179.669 36.833,179.669 36.833,161.077 33.215,161.077 33.215,168.387 27.233,168.387 27.233,161.077 		"/>
	</g>
	<g>
		<defs>
			<rect id="SVGID_11_" width="184.252" height="212.824"/>
		</defs>
		<clipPath id="SVGID_12_">
			<use xlink:href="#SVGID_11_"  overflow="visible"/>
		</clipPath>
		<path clip-path="url(#SVGID_12_)" d="M54.028,161.077v12.228c0,1.701-1.383,3.084-3.083,3.084c-1.7,0-3.083-1.383-3.083-3.084
			v-12.228h-3.585v12.228c0,3.678,2.991,6.668,6.668,6.668c3.677,0,6.668-2.99,6.668-6.668v-12.228H54.028z"/>
	</g>
	<g>
		<defs>
			<rect id="SVGID_13_" width="184.252" height="212.824"/>
		</defs>
		<clipPath id="SVGID_14_">
			<use xlink:href="#SVGID_13_"  overflow="visible"/>
		</clipPath>
		<polygon clip-path="url(#SVGID_14_)" points="104.466,131.493 109.765,131.493 109.765,146.811 113.382,146.811 113.382,131.493 
			118.683,131.493 118.683,128.219 104.466,128.219 		"/>
	</g>
	<g>
		<defs>
			<rect id="SVGID_15_" width="184.252" height="212.824"/>
		</defs>
		<clipPath id="SVGID_16_">
			<use xlink:href="#SVGID_15_"  overflow="visible"/>
		</clipPath>
		<polygon clip-path="url(#SVGID_16_)" points="43.663,131.493 48.961,131.493 48.961,146.811 52.579,146.811 52.579,131.493 
			57.88,131.493 57.88,128.219 43.663,128.219 		"/>
	</g>
	<g>
		<defs>
			<rect id="SVGID_17_" width="184.252" height="212.824"/>
		</defs>
		<clipPath id="SVGID_18_">
			<use xlink:href="#SVGID_17_"  overflow="visible"/>
		</clipPath>
		<path clip-path="url(#SVGID_18_)" d="M155.483,128.219l-7.7,0.006v18.588h3.618v-7.023h4.082c3.19,0,5.785-2.596,5.785-5.785
			C161.271,130.814,158.675,128.219,155.483,128.219 M157.69,134.003c0,1.218-0.99,2.207-2.207,2.207h-4.082v-4.413h4.082
			C156.7,131.797,157.69,132.787,157.69,134.003"/>
	</g>
	<g>
		<defs>
			<rect id="SVGID_19_" width="184.252" height="212.824"/>
		</defs>
		<clipPath id="SVGID_20_">
			<use xlink:href="#SVGID_19_"  overflow="visible"/>
		</clipPath>
		<path clip-path="url(#SVGID_20_)" d="M67.548,142.639h5.842l1.371,4.172h3.649l-6.063-18.425l-0.055-0.167h-3.646l-6.126,18.592
			h3.65L67.548,142.639z M68.554,139.585l1.916-5.817l1.916,5.817H68.554z"/>
	</g>
	<g>
		<defs>
			<rect id="SVGID_21_" width="184.252" height="212.824"/>
		</defs>
		<clipPath id="SVGID_22_">
			<use xlink:href="#SVGID_21_"  overflow="visible"/>
		</clipPath>
		<path clip-path="url(#SVGID_22_)" d="M30.631,135.702c-1.694-0.265-2.789-0.91-3.084-1.813c-0.218-0.674,0.05-1.453,0.685-1.99
			c1.485-1.256,4.418-0.955,6.82,0.703l0.184,0.127l2.01-2.645l-0.076-0.052c-3.799-2.621-8.563-2.83-11.326-0.497
			c-1.611,1.361-2.266,3.43-1.668,5.27c0.686,2.11,2.823,3.594,5.862,4.068c4.726,0.741,4.471,2.316,4.334,3.165
			c-0.065,0.399-0.617,1.151-1.872,1.578c-1.015,0.345-3.745,0.86-7.185-1.834l-0.181-0.142l-2.143,2.557l0.036,0.027
			c2.448,1.918,5.022,2.891,7.65,2.891c1.346-0.002,2.402-0.264,3.051-0.485c2.255-0.767,3.835-2.346,4.123-4.119
			C38.261,139.984,37.341,136.753,30.631,135.702"/>
	</g>
	<g>
		<defs>
			<rect id="SVGID_23_" width="184.252" height="212.824"/>
		</defs>
		<clipPath id="SVGID_24_">
			<use xlink:href="#SVGID_23_"  overflow="visible"/>
		</clipPath>
		<path clip-path="url(#SVGID_24_)" d="M50.525,193.626c-3.745,0-6.791,3.046-6.791,6.79v5.618c0,3.743,3.046,6.789,6.791,6.789
			c3.744,0,6.791-3.046,6.791-6.789v-5.618C57.316,196.672,54.269,193.626,50.525,193.626 M53.737,206.034
			c0,1.771-1.441,3.213-3.212,3.213s-3.212-1.442-3.212-3.213l-0.001-5.618c0-1.771,1.441-3.213,3.213-3.213
			c1.77,0,3.212,1.441,3.212,3.213v3.727V206.034z"/>
	</g>
	<g>
		<defs>
			<rect id="SVGID_25_" width="184.252" height="212.824"/>
		</defs>
		<clipPath id="SVGID_26_">
			<use xlink:href="#SVGID_25_"  overflow="visible"/>
		</clipPath>
		<path clip-path="url(#SVGID_26_)" d="M111.547,193.626c-3.745,0-6.791,3.046-6.791,6.79v5.618c0,3.743,3.046,6.789,6.791,6.789
			c3.744,0,6.791-3.046,6.791-6.789v-5.618C118.338,196.672,115.291,193.626,111.547,193.626 M114.759,206.034
			c0,1.771-1.439,3.213-3.212,3.213c-1.771,0-3.212-1.442-3.212-3.213l-0.001-5.618c0-1.771,1.442-3.213,3.213-3.213
			s3.212,1.441,3.212,3.213v3.727V206.034z"/>
	</g>
	<g>
		<defs>
			<rect id="SVGID_27_" width="184.252" height="212.824"/>
		</defs>
		<clipPath id="SVGID_28_">
			<use xlink:href="#SVGID_27_"  overflow="visible"/>
		</clipPath>
		<polygon clip-path="url(#SVGID_28_)" points="91.693,200.393 87.909,193.93 84.212,193.93 89.884,203.736 89.884,212.521 
			93.503,212.521 93.503,203.732 99.174,193.93 95.479,193.93 		"/>
	</g>
	<g>
		<defs>
			<rect id="SVGID_29_" width="184.252" height="212.824"/>
		</defs>
		<clipPath id="SVGID_30_">
			<use xlink:href="#SVGID_29_"  overflow="visible"/>
		</clipPath>
		<polygon clip-path="url(#SVGID_30_)" points="23.252,197.203 28.551,197.203 28.551,212.521 32.168,212.521 32.168,197.203 
			37.47,197.203 37.47,193.93 23.252,193.93 		"/>
	</g>
	<g>
		<defs>
			<rect id="SVGID_31_" width="184.252" height="212.824"/>
		</defs>
		<clipPath id="SVGID_32_">
			<use xlink:href="#SVGID_31_"  overflow="visible"/>
		</clipPath>
		<path clip-path="url(#SVGID_32_)" d="M99.09,146.811l-4.491-7.281c2.428-0.738,4.096-2.963,4.096-5.524
			c0-3.19-2.594-5.784-5.785-5.784l-7.699,0.006v18.586h3.618v-7.023h1.931l4.348,7.023h3.983V146.811z M88.828,131.798h4.081
			c1.218,0,2.207,0.989,2.207,2.206s-0.989,2.206-2.207,2.206h-4.081V131.798z"/>
	</g>
	<g>
		<defs>
			<rect id="SVGID_33_" width="184.252" height="212.824"/>
		</defs>
		<clipPath id="SVGID_34_">
			<use xlink:href="#SVGID_33_"  overflow="visible"/>
		</clipPath>
		<polygon clip-path="url(#SVGID_34_)" points="78.92,212.521 71.931,201.977 78.934,193.93 74.616,193.93 68.664,200.684 
			68.664,193.93 65.045,193.93 65.045,212.521 68.664,212.521 68.664,205.729 69.447,204.831 74.707,212.521 		"/>
	</g>
</g>
</svg>
