<?xml version="1.0" encoding="utf-8"?>
<!-- Generator: Adobe Illustrator 16.0.0, SVG Export Plug-In . SVG Version: 6.00 Build 0)  -->
<!DOCTYPE svg PUBLIC "-//W3C//DTD SVG 1.1//EN" "http://www.w3.org/Graphics/SVG/1.1/DTD/svg11.dtd">
<svg version="1.1" id="レイヤー_1" xmlns="http://www.w3.org/2000/svg" xmlns:xlink="http://www.w3.org/1999/xlink" x="0px"
	 y="0px" width="284px" height="49.9px" viewBox="0 0 284 49.9" style="enable-background:new 0 0 284 49.9;" xml:space="preserve">
<style type="text/css">
<![CDATA[
	.st0{clip-path:url(#SVGID_2_);fill:#FFFFFF;}
	.st1{clip-path:url(#SVGID_2_);fill:#02A040;}
]]>
</style>
<g>
	<defs>
		<rect id="SVGID_1_" y="0" width="284" height="49.9"/>
	</defs>
	<clipPath id="SVGID_2_">
		<use xlink:href="#SVGID_1_"  style="overflow:visible;"/>
	</clipPath>
	<path class="st1" d="M14.6,2.9H8.7v1h4.9V9H9.6c1.4,1.5,3.6,2.7,5.2,3.2l-0.7,1.1c-0.7-0.3-3.4-1.4-5.4-3.8v4.1H7.6V9.5
		c-1.3,1.6-3.4,3-5.4,3.8l-0.7-1.1c2-0.8,3.9-1.8,5.2-3.2H2.7V3.8h4.9v-1H1.7v-1h5.9V0.6h1.1v1.2h5.9V2.9z M3.8,6h3.8V4.8H3.8V6z
		 M3.8,8.1h3.8V6.9H3.8V8.1z M12.6,4.8H8.7V6h3.9V4.8z M12.6,6.9H8.7v1.2h3.9V6.9z"/>
	<path class="st1" d="M15.5,12.3c0.6-0.4,1.9-1.2,3-3.1l1,0.6c-0.7,1-1.7,2.3-3.2,3.4L15.5,12.3z M28.6,2.9H15.7V1.8h5.8V0.6h1.2
		v1.2h5.9V2.9z M27.1,8.6h-4.5v3.8c0,0.7-0.2,1.2-1.2,1.2h-2.1l-0.3-1.2l1.9,0c0.4,0,0.5,0,0.5-0.4V8.6h-4.5V4.1h10.1V8.6z M26,5.1
		h-7.8v2.5H26V5.1z M25.4,9.2c1.1,1.5,2,2.3,3.2,3l-0.8,1c-1.6-0.9-2.5-2-3.5-3.4L25.4,9.2z"/>
	<path class="st1" d="M36,11.6c1.4-0.2,4.8-0.6,4.8-4.6c0-1.1-0.3-4.2-4.2-4.3c-0.1,1.6-0.4,5.1-1.8,7.4c-0.8,1.3-1.7,1.6-2.3,1.6
		c-1.4,0-2.5-1.6-2.5-3.9c0-3.8,2.8-6.2,6.5-6.2c4.5,0,5.7,3.1,5.7,5.5c0,1.7-0.6,3.3-1.9,4.4c-0.9,0.8-2.3,1.2-3.9,1.4L36,11.6z
		 M33.1,3.7c-1.3,1-1.9,2.5-1.9,4.1c0,1,0.4,2.6,1.3,2.6c0.6,0,1-0.5,1.4-1.1c1.2-2,1.4-4.8,1.5-6.5C34.6,3,33.8,3.2,33.1,3.7"/>
	<path class="st1" d="M57.8,12.2l-0.2,1.1h-6.2c-2.7,0-4-0.8-5.2-2.6c-0.4,1.8-0.8,2.6-1,3l-0.7-1c0.3-0.7,1.1-2.1,1.1-5.5h1
		c0,0.5,0,1-0.1,2.1c0.3,0.5,0.6,1,0.9,1.4V6.1h-2.7v-1h2.7V3.3H45v-1h2.4V0.6h1.1v1.6h1.9v1h-1.9v1.8h2.2v1h-2.2V8h2v1h-2v2.5
		c0.8,0.4,2,0.6,2.9,0.6H57.8z M57.2,5.8h-4.8v3.6c0,0.4,0.3,0.4,0.5,0.4h3c0.6,0,0.7,0,0.7-2l1.1,0.3c-0.1,2.1-0.2,2.8-1.5,2.8
		h-3.8c-0.4,0-1.2-0.1-1.2-1.1V4.8h4.8V2.2H51v-1h6.2V5.8z"/>
	<path class="st1" d="M71.5,13.4c-2.8-0.9-3.9-1.8-5.2-3v3.2h-1.1v-3.2c-1.6,1.6-3.4,2.4-5.2,3l-0.6-1c2.7-0.8,3.8-1.5,5-2.5h-5v-1
		h5.9v-1h-4.9V7h4.9V6h-5.3V5.1h3c-0.1-0.3-0.2-0.8-0.4-1.3h-3.2v-1h2.3C61.3,2.1,61.2,2,60.7,1l1.1-0.4c0.4,0.8,0.7,1.3,0.9,2.2
		h1.2V0.6H65v2.1h1.5V0.6h1.1v2.1h1.1c0.1-0.2,0.6-1.2,0.9-2.2L70.7,1c-0.3,0.6-0.5,1.1-0.9,1.8h2.3v1h-3.3
		c-0.2,0.6-0.2,0.7-0.4,1.3h3.1V6h-5.3v1h5v0.9h-5v1h5.9v1h-5c1.7,1.4,3.1,2,5,2.5L71.5,13.4z M67.3,5.1c0.2-0.4,0.3-0.7,0.4-1.3
		h-4.1c0.1,0.4,0.3,1,0.4,1.3H67.3z"/>
	<path class="st1" d="M78.9,7.1c0,0.8-0.6,1.4-1.4,1.4c-0.8,0-1.4-0.7-1.4-1.4c0-0.8,0.7-1.4,1.4-1.4C78.2,5.7,78.9,6.3,78.9,7.1"/>
	<path class="st1" d="M93.3,1.9c-0.7,2.8-1.8,4.5-2.7,5.7c2.4,1.9,3.7,3.2,4.8,4.2l-1.1,1c-2-2.2-4-3.9-4.5-4.2
		c-0.7,0.8-2.6,2.9-5.7,4.3l-0.8-1c1.2-0.5,3.2-1.5,5.2-3.8c1.7-1.9,2.5-3.6,3-5h-7.5V1.9H93.3z"/>
	<path class="st1" d="M97.1,6.1c1.7-1,2.9-2.3,3.7-4.2h7.2c-0.3,2.3-1,9-9.4,11.1l-0.6-1.2c2.3-0.5,4.5-1.6,6.1-3.3
		c-1.2-1-2.4-1.9-4.4-2.9c-0.4,0.4-0.8,0.8-1.8,1.4L97.1,6.1z M101.7,3c-0.6,1-0.8,1.3-1.2,1.8c1.5,0.7,3.1,1.6,4.4,2.8
		c0.7-1.1,1.4-2.4,1.7-4.5H101.7z"/>
	<rect x="110.8" y="6.4" class="st1" width="12" height="1.3"/>
	<path class="st1" d="M134.3,9c-1-0.6-3.2-2-6.2-3V13h-1.4v-12h1.4v3.6c2.6,0.8,4.8,1.9,6.8,3L134.3,9z"/>
	<path class="st1" d="M149.2,1.7c-0.5,3.7-2.6,4.9-4.4,5.8l-0.8-1c2.7-1.1,3.3-2.5,3.6-3.6h-10V1.7H149.2z M137.9,11.9
		c3.8-1.6,4.3-4.4,4.3-7.5l1.3,0c0,2.7-0.2,6.3-4.8,8.5L137.9,11.9z"/>
	<path class="st1" d="M152.2,8.4C152,7,151.6,6,151.1,5l1-0.3c0.7,1.3,1,2.6,1.2,3.4L152.2,8.4z M152.2,12.1
		c4.3-0.9,6.3-2.8,7.1-7.8l1.2,0.3c-0.9,4.8-2.7,7.4-7.5,8.5L152.2,12.1z M155.3,7.7c-0.2-1.1-0.5-2.3-0.9-3.3l1-0.2
		c0.4,0.9,0.8,2.4,1,3.3L155.3,7.7z"/>
	<path class="st1" d="M171.7,2.3l1.5,1.8c-0.4,2.2-0.9,3.8-2.2,5.5c-0.7,0.8-2.5,2.8-6,3.3l-0.6-1.2c4.5-0.7,7-3.1,7.6-8.1h-8.7V2.3
		H171.7z M176.2,1.9c0,1.1-0.9,1.9-1.9,1.9c-1.1,0-1.9-0.9-1.9-1.9c0-1.1,0.9-1.9,1.9-1.9C175.3,0,176.2,0.9,176.2,1.9 M173.2,1.9
		c0,0.6,0.5,1.1,1.1,1.1c0.6,0,1.1-0.5,1.1-1.1c0-0.6-0.5-1.1-1.1-1.1S173.2,1.3,173.2,1.9"/>
	<path class="st1" d="M190.7,13.4c-2.1-0.3-4.2-0.9-6-2c-2.3,1.4-5.2,1.9-5.9,2.1l-0.5-1.2c1-0.1,3.3-0.4,5.4-1.6
		c-1.5-1.2-2.2-2.3-2.8-3.3l1-0.6c0.8,1.4,1.6,2.2,2.9,3.2c1.2-0.9,2-1.8,3.1-3.6h-8.6V5.3h4.9v-2h-5.9V2.2h5.9V0.6h1.1v1.6h5.9v1.1
		h-5.9v2h4v1.1c-1,1.9-2.1,3.2-3.5,4.3c1,0.5,2.5,1.3,5.4,1.6L190.7,13.4z"/>
	<path class="st1" d="M197.4,7.7c-0.4,0.2-0.7,0.3-1.2,0.6v4.2c0,0.4,0,1.1-1.1,1.1h-1.5l-0.1-1.1h1.2c0.2,0,0.4,0,0.4-0.4V8.7
		c-0.9,0.3-1.3,0.4-1.7,0.5l-0.1-1.2c0.4-0.1,1-0.2,1.8-0.5V4.2h-1.7v-1h1.7V0.6h1.1v2.5h1.3v1h-1.3v2.9c0.4-0.2,0.8-0.3,1.2-0.5
		L197.4,7.7z M196.6,12.8c1.6-1.5,2.7-3,3.2-5.1h-2.1V6.8h2.2C200,6.2,200,6,200,5.6h-2.1V4.7h5.7c0.6-1,1.1-2,1.4-2.6l1,0.4
		c-0.4,1-1,1.9-1.2,2.2h1.1v0.9h-4.9c0,0.4,0,0.6-0.1,1.1h5.3v0.9h-5.4c-0.1,0.5-0.2,0.8-0.3,1h4.9v0.9c-0.2,0.4-0.7,1.2-1.8,2.1
		c1.2,0.5,2.1,0.6,2.8,0.7l-0.6,1.1c-0.4-0.1-1.8-0.4-3.2-1.2c-1.3,0.7-2.5,1-3.2,1.2l-0.5-1.1c0.6-0.1,1.5-0.2,2.7-0.8
		c-0.9-0.7-1.1-1.1-1.3-1.4l0.9-0.5c0.3,0.3,0.6,0.8,1.4,1.4c0.9-0.6,1.3-1.2,1.6-1.6h-4.1c-0.6,1.4-1.3,2.6-2.8,4L196.6,12.8z
		 M197.5,1.5c0.8,0,5.4,0,8-0.8l0.5,1c-2.2,0.6-6.1,0.9-8.2,0.9L197.5,1.5z M198.8,4.6c-0.1-0.3-0.3-0.9-0.7-1.6l1.1-0.3
		c0.3,0.6,0.5,1.2,0.6,1.7L198.8,4.6z M201.5,4.5c-0.1-0.5-0.4-1.2-0.7-1.8l1.1-0.3c0.3,0.7,0.5,1.3,0.6,1.8L201.5,4.5z"/>
	<path class="st1" d="M213.6,2.2c-1,1.8-2.5,3.9-2.9,4.4c0.3,0,1.5-0.1,1.7-0.1c-0.2-0.6-0.3-0.7-0.4-0.9l0.9-0.4
		c0.4,0.7,0.8,1.6,1,2.5l-0.9,0.4c-0.1-0.4-0.2-0.5-0.2-0.7c-0.3,0-0.8,0.1-1.1,0.1v6.1h-1.1v-6c-0.3,0-1.9,0.1-2,0.1l-0.1-1
		c0.3,0,0.4,0,1,0c0.1-0.2,0.4-0.5,0.8-1.1c-0.8-0.9-1.6-1.6-1.9-1.8l0.6-0.9c0.2,0.2,0.3,0.2,0.4,0.3c0.7-1.1,1.1-2.1,1.3-2.5
		l1.1,0.3c-0.6,1.2-1.5,2.6-1.6,2.8c0.4,0.4,0.6,0.6,0.8,0.8c0.7-1,1-1.6,1.6-2.8L213.6,2.2z M208.5,12.3c0.6-1.8,0.6-3.1,0.6-3.7
		l1,0.2c0,0.5-0.1,2.4-0.6,3.9L208.5,12.3z M212.6,11.2c0-0.8-0.1-1.7-0.3-2.4l0.9-0.2c0.3,1.3,0.3,2,0.4,2.4L212.6,11.2z
		 M213.2,12.5c0.8-1.2,1-2.7,1-3.3l1,0.2c-0.1,1.3-0.5,2.7-0.9,3.5L213.2,12.5z M213.4,3.6c1.1-0.8,1.9-1.8,2.5-3l1,0.4
		c-0.7,1.3-1.7,2.5-2.8,3.4L213.4,3.6z M217.7,3.1c-0.4,1.1-1,2.4-1.4,3.1c0.6,0,2.3-0.1,3.1-0.2c-0.6-0.9-0.8-1.2-1.2-1.6l0.9-0.6
		c0.9,0.9,1.7,2.2,2.3,3.2l-1,0.6c-0.2-0.3-0.2-0.5-0.4-0.9c-2.4,0.3-3.6,0.3-5.7,0.3l0-1c0.4,0,0.6,0,0.9,0c0.4-0.8,1-2.2,1.4-3.4
		L217.7,3.1z M218.2,9.5c-0.6-0.5-1.5-1-2.6-1.4l0.6-0.9c1,0.4,1.8,0.8,2.6,1.4L218.2,9.5z M216.9,12.1c0,0.2,0,0.3,0.3,0.3h0.9
		c0.3,0,0.5,0,0.6-1.5l1.1,0.2c-0.2,1.7-0.3,2.3-1.2,2.3h-1.8c-0.6,0-1-0.2-1-0.8V9.5h1.1V12.1z M219.4,0.6c0.9,1.7,1.9,2.4,2.4,2.8
		l-0.7,0.9c-1.1-0.8-2.1-1.9-2.7-3.2L219.4,0.6z M220.7,12.7c-0.3-1.4-0.6-2.3-1.1-3.5l1-0.4c0.5,0.9,1,2.4,1.3,3.5L220.7,12.7z"/>
	<path class="st1" d="M235.4,6c-1.2-0.5-1.8-0.9-2.4-1.3v1h-7v-1c-0.9,0.6-1.5,0.9-2.5,1.3l-0.7-1.2c2.3-0.8,4.5-2.2,6-4.2h1.2
		c1.8,2.2,3.6,3.3,6.1,4.2L235.4,6z M234.4,13.3h-10v-6h10V13.3z M233.2,8.4h-7.6v3.9h7.6V8.4z M232.9,4.6c-2-1.4-2.9-2.3-3.5-3
		c-1.3,1.6-2.8,2.6-3.4,3H232.9z"/>
	<path class="st1" d="M250.1,3.8V5h-2.4v1.8c0,5.1-4.5,6-6.6,6.2l-0.5-1.2c4-0.4,5.8-2,5.8-5.1V5h-4.9v3.8h-1.3V5h-2.4V3.8h2.4V1.2
		h1.3v2.6h4.9V1.2h1.3v2.7H250.1z"/>
	<path class="st1" d="M259.4,13h-1.3V6.5c-1.9,1.3-3.7,2.2-5.5,2.8L252,8.1c4-1.2,7.4-3.8,10-7l1.2,0.8c-0.6,0.7-1.8,2.1-3.7,3.6V13
		z"/>
	<path class="st1" d="M275.6,9c-1-0.6-3.2-2-6.2-3V13h-1.4v-12h1.4v3.6c2.6,0.8,4.8,1.9,6.8,3L275.6,9z"/>
	<path class="st0" d="M35.2,28.5h-15v1.4H33v11h-9.4c5,3.2,10.2,4.5,12.3,5l-2.7,3.5c-3.9-1.2-9.1-3.7-12.9-7v7.4h-4.5v-7.4
		c-2.4,2.4-6.9,5.1-13.1,7.1L0,46.1C8.1,43.9,10.9,42,12.4,41H3.1v-11h12.6v-1.4H0.6v-3.1h15.1v-2.1h4.5v2.1h15V28.5z M7.4,34.3h8.3
		v-1.7H7.4V34.3z M7.4,38.4h8.3v-1.7H7.4V38.4z M20.2,34.3h8.4v-1.7h-8.4V34.3z M20.2,38.4h8.4v-1.7h-8.4V38.4z"/>
	<path class="st0" d="M38.5,46.7c4.1-2.1,6.5-4.6,7.6-5.9l3.9,1.8c-1.8,2.2-5.1,5.1-8.4,6.8L38.5,46.7z M73.5,28.7H38.9v-3.3h14.7
		v-2.2h4.8v2.2h15.1V28.7z M70,40.3H58.4v6.8c0,0.7,0,2.8-3.4,2.8H49L48,46.3h4.8c0.7,0,1.1,0,1.1-0.7v-5.3H42.4v-9.7H70V40.3z
		 M65.4,33.6H47v3.6h18.4V33.6z M65.5,40.7c2.2,2.3,4.9,4.1,8.2,5.5l-3.2,3c-4.2-2-6.1-3.6-9-6.7L65.5,40.7z"/>
	<path class="st0" d="M98.3,25.5v-1.6h13.3v3.2c-0.7,1.9-2.8,5.5-3.8,7c1.7,1.5,4.3,3.9,4.3,7.7c0,5.4-3.9,5.4-5.7,5.4h-2.6
		l-0.6-3.4h1.8c1.1,0,2.4-0.1,2.4-2.1c0-3.6-2.9-6-4.4-7.1c0.5-0.7,2.5-4.1,3.8-7.5h-4.1v22.7h-4.5V25.7c-1,1.5-2.5,3.6-4.5,5.9h3.2
		v3.1h-6.4c-0.8,0.6-1.3,1-2.5,1.9h7.4v12.8H79.9v-8.5c-0.4,0.2-0.6,0.3-1.9,0.8l-1.4-3.2c1.8-0.6,4.8-1.7,8-3.8h-7.6v-3.1h6.6v-2.8
		h-5.6v-3h5.6v-2.4H88v2.4h5.1v0.7c0.6-0.8,0.8-1.3,1.3-2.1L98.3,25.5z M91.3,39.2h-7.2v2.3h7.2V39.2z M91.3,44.1h-7.2v2.3h7.2V44.1
		z M88.7,31.6c1-1,2-2,2.7-2.9H88v2.9H88.7z"/>
	<path class="st0" d="M135.3,31.9v8.9h-13.4c-0.3,3.2-1.4,6.7-3.8,9.1l-3.2-2.7c1.3-1.6,2.9-3.8,2.9-7.7v-7.6H135.3z M132.9,30.9
		h-11.4v-1.2c-1.7,1-2.9,1.5-4.9,2.2l-1.6-3.3c5.9-1.7,8.6-4.1,9.7-5.3h4.8c2.4,1.9,4.5,3,8.1,4.1l-1.8,3.2c-1.5-0.6-2-0.8-2.8-1.2
		V30.9z M136.1,49.4h-14.3v-7.5h14.3V49.4z M121.9,35.4h9.5v-1.3h-9.5V35.4z M121.9,38.7h9.5v-1.4h-9.5V38.7z M131.1,28.4
		c-1.7-1-2.7-1.6-3.9-2.7c-1.6,1.4-2.5,2-3.5,2.7H131.1z M125.8,46.9h6.3v-2.6h-6.3V46.9z M141.9,43.2h-4.2V24.7h4.2V43.2z
		 M148.9,23.3v23.8c0,1.5-0.7,2.6-3.5,2.6h-5.3l-0.8-3.5h4.3c0.4,0,0.9,0,0.9-0.5V23.3H148.9z"/>
	<path class="st0" d="M186.3,49.5c-4-1-8.2-2.2-12.8-5.3v5.6H169v-5.5c-4.1,2.8-8.5,4.1-12.8,5.2l-2.2-3.1c3.5-0.7,8-1.8,11.9-3.8
		H154v-2.8h15v-1.5h-12.5V36H169v-1.4h-13.3v-2.7h7.4c-0.1-0.4-0.6-1.5-0.9-1.9H154v-2.9h5.2c-0.3-0.5-0.7-1.4-1.9-3.1l4.5-0.8
		c0.9,1.4,1.3,2.2,1.9,3.9h2v-3.7h4.2v3.7h2.7v-3.7h4.2v3.7h2c0.7-1.1,1.4-2.8,1.8-3.9l4.5,0.8c-0.1,0.3-0.8,1.7-1.8,3.1h5.1V30
		h-8.1c-0.5,1-0.6,1.3-0.9,1.9h7.6v2.7h-13.6V36h12.6v2.4h-12.6v1.5h15v2.8h-11.7c4.1,2.2,8.9,3.2,11.9,3.7L186.3,49.5z M174.8,31.9
		c0.2-0.4,0.5-0.9,0.8-1.9h-8.7c0.1,0.3,0.7,1.6,0.9,1.9H174.8z"/>
	<polygon class="st0" points="218.9,43.5 202.3,25.2 197.1,25.2 197.1,49 201.6,49 201.6,30.7 218.2,49 223.4,49 223.4,25.2 
		218.9,25.2 	"/>
	<polygon class="st0" points="234,38.7 247.2,38.7 247.2,34.6 234,34.6 234,29.4 253,29.4 253,25.2 229.5,25.2 229.5,49 253.8,49 
		253.8,44.8 234,44.8 	"/>
	<polygon class="st0" points="258.1,25.2 258.1,29.4 268.8,29.4 268.8,49 273.3,49 273.3,29.4 284,29.4 284,25.2 	"/>
</g>
</svg>
