<?xml version="1.0" encoding="utf-8"?>
<!-- Generator: Adobe Illustrator 15.0.0, SVG Export Plug-In . SVG Version: 6.00 Build 0)  -->
<!DOCTYPE svg PUBLIC "-//W3C//DTD SVG 1.1//EN" "http://www.w3.org/Graphics/SVG/1.1/DTD/svg11.dtd">
<svg version="1.1" id="レイヤー_1" xmlns="http://www.w3.org/2000/svg" xmlns:xlink="http://www.w3.org/1999/xlink" x="0px"
	 y="0px" width="679.699px" height="83.38px" viewBox="0 0 679.699 83.38" enable-background="new 0 0 679.699 83.38"
	 xml:space="preserve">
<g>
	<defs>
		<rect id="SVGID_1_" y="0" width="679.699" height="83.381"/>
	</defs>
	<clipPath id="SVGID_2_">
		<use xlink:href="#SVGID_1_"  overflow="visible"/>
	</clipPath>
	<path clip-path="url(#SVGID_2_)" fill="#01123E" d="M412.314,66.25c-0.299-0.861-1.127-1.408-2.017-1.331
		c-0.218,0.021-0.435,0.075-0.663,0.175c-0.003,0.001-0.324,0.142-0.88,0.192c-0.947,0.083-2.095-0.096-4.241-1.51l-13.119-8.91
		h17.592c0.049,0,0.089-0.011,0.132-0.014h1.102c0.645,0,1.159-0.266,1.49-0.764c0.012-0.019,0.022-0.039,0.034-0.059
		c0.326-0.652,0.238-1.297-0.245-1.866c-1.101-1.104-1.992-1.922-2.827-2.603c-0.35-0.336-0.7-0.408-0.936-0.408
		c-0.28,0-0.702,0.099-1.112,0.572l-1.638,1.971h-16.301v-3.762h16.011c1.002,0,1.527-0.797,1.527-1.585s-0.525-1.583-1.527-1.583
		h-16.011v-3.015h18.186c0.05,0,0.09-0.011,0.133-0.015h1.1h0.002c0.643,0,1.158-0.264,1.49-0.762
		c0.01-0.019,0.021-0.038,0.034-0.059c0.326-0.652,0.237-1.295-0.248-1.865c-1.101-1.105-1.991-1.923-2.827-2.604
		c-0.349-0.337-0.7-0.408-0.934-0.408c-0.28,0-0.701,0.1-1.112,0.572l-1.638,1.972h-8.405l3.826-5.574h10.694
		c0.049,0,0.089-0.011,0.132-0.015h1.102c0.645,0,1.159-0.264,1.49-0.764c0.012-0.017,0.022-0.037,0.034-0.058
		c0.326-0.651,0.238-1.295-0.245-1.865c-1.101-1.104-1.992-1.922-2.827-2.604c-0.35-0.336-0.7-0.407-0.936-0.407
		c-0.28,0-0.702,0.098-1.112,0.571l-1.638,1.973h-6.726l1.965-3.027l2.464-0.292c0.619-0.088,0.934-0.387,1.083-0.621
		c0.126-0.197,0.262-0.531,0.165-1.006c-0.104-0.989-0.291-2.091-0.573-3.449c-0.014-0.365-0.161-0.699-0.384-0.963
		c-0.261-0.338-0.638-0.545-1.117-0.599c-0.021-0.002-0.047-0.004-0.067-0.004c-0.039,0-0.078,0.014-0.117,0.017
		c-0.473,0.01-0.957,0.229-1.295,0.747l-5.967,9.197h-1.127v-9.862c0-2.191-3.451-2.191-3.451,0v9.862h-5.59v-9.862
		c0-2.191-3.449-2.191-3.449,0v9.862h-3.376c1.748-2.616-2.213-6.283-2.213-6.283c-0.793-0.815-2.319-1.822-3.205-2.239
		c-0.627-0.295-1.356-0.13-1.789,0.42c-0.366,0.46-0.348,1.065,0.052,1.513c0.718,0.765,1.373,1.581,1.986,2.456
		c0.417,0.684,0.741,1.416,1.053,2.127c0.244,0.562,0.434,1.14,0.733,1.694c0.057,0.113,0.131,0.214,0.212,0.312h-10.501
		c-0.6,0-0.959,0.269-1.155,0.496c-0.242,0.279-0.375,0.654-0.375,1.055c0,0.784,0.538,1.618,1.53,1.618h11.823l3.828,5.574H365.41
		c-0.599,0-0.958,0.27-1.152,0.497c-0.242,0.278-0.375,0.652-0.375,1.054c0,0.784,0.535,1.618,1.527,1.618h19.315v3.015h-15.79
		c-1.003,0-1.528,0.795-1.528,1.583s0.525,1.585,1.528,1.585h15.79v3.762h-20.974c-0.6,0-0.959,0.272-1.155,0.498
		c-0.242,0.28-0.375,0.653-0.375,1.053c0,0.785,0.538,1.619,1.53,1.619h18.341c-3.874,6.693-11.798,8.988-19.486,11.205
		l-0.304,0.088c-0.67,0.21-1.048,0.813-0.942,1.503c0.108,0.712,0.679,1.21,1.383,1.21c0.066,0,0.138-0.004,0.241-0.02
		c8.234-1.787,16.561-4.121,21.741-10.57v5.058l-1.165,0.967c-0.472,0.414-0.572,0.832-0.572,1.11c0,0.236,0.07,0.588,0.408,0.936
		c0.684,0.836,1.498,1.727,2.605,2.829c0.568,0.485,1.214,0.571,1.863,0.245c0.022-0.012,0.041-0.023,0.06-0.034
		c0.5-0.331,0.763-0.847,0.763-1.489v-0.001v-6.651c0-0.003-0.002-0.004-0.002-0.009v-3.588l13.459,9.15
		c2.721,2.127,5.219,2.4,6.831,2.259c0.853-0.074,1.671-0.28,2.444-0.619c0.044-0.015,0.087-0.036,0.126-0.063
		C412.292,67.902,412.595,67.064,412.314,66.25 M383.249,38.583l-3.831-5.574h15.031l-3.828,5.574H383.249z"/>
	<path clip-path="url(#SVGID_2_)" fill="#01123E" d="M337.049,22.025h1.304c0.675,0,1.162,0.608,1.162,1.446v30.732
		c0,1.426,1.085,2.173,2.154,2.173c0.612,0,1.195-0.238,1.603-0.653c0.409-0.419,0.618-0.987,0.602-1.633V24.207
		c0-3.377-1.84-5.238-5.181-5.238h-1.644c-0.444,0-0.837,0.175-1.104,0.49c-0.233,0.272-0.359,0.634-0.359,1.021
		C335.586,21.229,336.099,22.025,337.049,22.025"/>
	<path clip-path="url(#SVGID_2_)" fill="#01123E" d="M355.098,22.163c-0.683-0.837-1.5-1.726-2.604-2.828
		c-0.232-0.196-0.476-0.325-0.727-0.389c-0.276-0.099-0.573-0.15-0.866-0.15c-1.133,0-2.278,0.752-2.278,2.186v33.994
		c-0.041,3.556-1.024,6.147-3.014,7.926c-1.575,1.407-2.701,2.192-4.796,3.344c-0.052,0.026-1.237,0.614-1.917,1.009
		c-0.68,0.394-1.438,0.94-1.278,1.642c0.034,0.391,0.363,1.138,1.349,1.166h0.039c0.487,0,1.311-0.255,2.048-0.638
		c2.562-1.33,5.433-2.908,7.308-4.524c1.371-1.176,2.759-2.545,3.638-4.556c0.825-1.888,1.209-4.274,1.209-7.515V25.643l1.724-1.432
		c0.475-0.413,0.573-0.832,0.573-1.112C355.505,22.863,355.434,22.513,355.098,22.163"/>
	<path clip-path="url(#SVGID_2_)" fill="#01123E" d="M332.91,52.742c-0.211-0.299-0.516-0.498-0.846-0.597
		c-0.407-0.143-0.834-0.111-1.266,0.104c-0.019,0.01-0.039,0.022-0.056,0.034c-0.036,0.023-0.058,0.053-0.09,0.075
		c-0.394,0.27-0.679,0.715-0.68,1.333v0.954l-16.312,0.001c0,0-0.082-0.005-0.215-0.005c-0.551,0-1.24,0.062-1.73,0.281
		c0.498-1.319,0.951-2.662,1.327-4h16.699c0.285,0.215,0.636,0.347,1.013,0.347c0.792,0,1.596-0.547,1.596-1.593v-0.469v-8.586
		l1.907-1.586c0.474-0.412,0.572-0.833,0.572-1.111c0-0.236-0.069-0.588-0.406-0.937c-0.628-0.77-1.383-1.594-2.359-2.579
		c-0.209-0.299-0.516-0.498-0.846-0.597c-0.404-0.143-0.833-0.111-1.264,0.104c-0.023,0.01-0.041,0.021-0.058,0.034
		c-0.034,0.022-0.061,0.053-0.09,0.076c-0.393,0.27-0.68,0.714-0.681,1.332v0.954l-16.505,0.002c0,0-0.064-0.008-0.178-0.008
		c-1.288,0-2.71,0.717-2.833,2.749v7.561l-0.037,1.329c-0.018,1.656-0.346,2.994-0.352,3.017c-0.91,4.042-2.984,8.754-6.342,14.404
		c-0.474,0.799-0.637,1.666-0.429,2.265c0.109,0.315,0.322,0.546,0.599,0.651c0.145,0.057,0.299,0.084,0.461,0.084
		c0.631,0,1.283-0.419,1.836-1.177c1.53-2.104,3.447-5.432,5.108-9.184v6.945l-0.031,1.767c-0.006,0.049-0.132,1.215,0.656,1.984
		c0.528,0.517,1.333,0.531,2.562,0.555h17.543c0.135,0.032,0.274,0.056,0.418,0.056c0.792,0,1.594-0.548,1.594-1.59V67.25h0.002
		v-8.296l1.906-1.584c0.474-0.414,0.574-0.835,0.574-1.111c0-0.237-0.072-0.588-0.408-0.938
		C334.64,54.55,333.886,53.728,332.91,52.742 M313.527,45h15.599v2.755h-15.599V45z M329.125,41.832h-15.599v-2.352h15.599V41.832z
		 M329.97,66.087h-15.657v-8.272h15.659L329.97,66.087z"/>
	<path clip-path="url(#SVGID_2_)" fill="#01123E" d="M337.287,31.91c-0.566-0.895-1.477-1.898-2.856-3.148
		c-1.89-1.709-5.332-3.989-8.251-5.676c-1.155-0.668-2.256-1.252-3.203-1.734c0.493-0.276,0.757-0.829,0.757-1.362
		c0-0.75-0.502-1.512-1.463-1.512c0,0-2.861,0.014-2.9,0.026c-0.588-0.055-1.118,0.11-1.559,0.488
		c-0.666,0.576-0.89,1.455-0.886,1.455l-0.457,1.225c-0.696,1.66-1.322,2.761-1.32,2.76c-1.354,2.201-2.832,4.165-4.392,5.839
		c-2.173,2.334-4.06,4.092-6.12,5.701c-0.842,0.659-1.313,1.367-1.323,1.993c-0.005,0.341,0.13,0.642,0.379,0.85
		c0.242,0.202,0.559,0.309,0.914,0.309c0.498,0,1.055-0.206,1.614-0.598c1.958-1.375,4.074-3.16,6.051-5.089h15.983
		c1.003,0,1.528-0.798,1.528-1.584c0-0.788-0.525-1.585-1.528-1.585h-12.994c1.305-1.512,2.483-3.075,3.495-4.664
		c0.678-1.064,1.175-2.004,1.528-2.842c0.038,0.025,0.075,0.051,0.114,0.076c0.494,0.297,2.022,1.269,3.384,2.258
		c1.255,0.906,2.253,1.734,3.032,2.361c1.645,1.318,3.332,3.039,4.078,3.866c0.624,0.689,1.153,1.223,1.683,1.945
		c0.402,0.55,0.819,1.118,1.277,1.645c0.321,0.38,0.722,0.633,1.165,0.731c0.92,0.204,1.898-0.326,2.473-1.166
		C337.942,33.813,337.885,32.697,337.287,31.91"/>
	<path clip-path="url(#SVGID_2_)" fill="#331700" d="M469.055,62.138c-0.228-0.91-1.028-1.549-1.952-1.549
		c-0.222,0-0.449,0.039-0.692,0.117c-0.003,0.002-0.343,0.12-0.92,0.12c-0.982,0-2.511-0.335-4.218-1.935l-10.981-10.264
		c4.139-4.486,6.416-9.537,6.778-15.066l-0.001-0.082c0.038-0.678-0.226-1.365-0.714-1.885c-0.457-0.482-1.047-0.75-1.647-0.75
		h-0.002l-2.169-0.057h-17.692l-1.341-1.613c-0.408-0.473-0.829-0.572-1.109-0.572c-0.236,0-0.589,0.072-0.938,0.408
		c-0.835,0.682-1.727,1.5-2.827,2.606c-0.485,0.568-0.569,1.212-0.246,1.863c0.013,0.021,0.024,0.041,0.036,0.058
		c0.328,0.499,0.846,0.764,1.488,0.766h0.001l6.653-0.003c0.012,0,0.022-0.005,0.037-0.005h15.317c0.039,0,0.064,0.011,0.066,0.006
		c0,0.008-0.006,0.06-0.006,0.06c-0.564,6.404-4.182,11.855-11.388,17.157c-4.088,3.052-8.581,5.48-12.028,7.251
		c-0.743,0.357-1.493,0.729-2.243,1.103c-1.842,0.914-3.744,1.86-5.715,2.622c-0.951,0.392-1.25,1.367-0.99,2.082
		c0.187,0.511,0.688,0.955,1.437,0.955c0.22,0,0.459-0.038,0.716-0.122c8.596-3.45,15.595-6.66,21.799-11.1
		c1.263-0.844,2.438-1.795,3.366-2.578c0.234,0.046,0.472-0.061,0.596-0.268l11.04,10.321c2.601,2.429,5.139,2.938,6.807,2.938
		c0.884,0,1.742-0.136,2.565-0.414c0.046-0.012,0.093-0.026,0.136-0.051C468.883,63.831,469.27,62.999,469.055,62.138"/>
	<path clip-path="url(#SVGID_2_)" fill="#331700" d="M513.695,36.076c-0.341-0.486-0.913-0.789-1.5-0.789
		c-0.649,0-1.196,0.352-1.504,0.969c-0.049,0.097-1.258,2.406-5.442,2.406H475.17c-1.136,0-1.734,0.861-1.734,1.709
		c0,0.845,0.608,1.742,1.734,1.742h16.998c0.004,0.479,0.016,0.885,0.023,1.293c0.018,0.491,0.031,0.982,0.031,1.603
		c0.054,9.661-11.189,18.045-18.293,21.058c-0.031,0.012-0.06,0.03-0.087,0.045c-0.573,0.373-0.818,1.041-0.622,1.703
		c0.202,0.678,0.786,1.135,1.456,1.135c0.224,0,0.451-0.051,0.647-0.141c10.311-4.148,21.427-12.548,21.705-23.645
		c0.085-1.02,0.079-1.641,0.066-2.428c-0.001-0.192-0.003-0.398-0.005-0.623h8.158c5.535,0,7.828-3.014,8.567-4.329
		c0.025-0.036,0.045-0.074,0.061-0.114C514.081,37.12,514.014,36.541,513.695,36.076"/>
	<path clip-path="url(#SVGID_2_)" fill="#331700" d="M480.324,31.209c0.33,0.498,0.847,0.764,1.489,0.764h0.002h0.247
		c0.006,0,0.009,0.002,0.011,0.002h22.835c1.139,0,1.733-0.861,1.733-1.709c0-0.846-0.605-1.743-1.733-1.743h-18.104l-1.392-1.677
		c-0.411-0.473-0.833-0.573-1.111-0.573c-0.236,0-0.587,0.073-0.936,0.409c-0.838,0.681-1.729,1.5-2.832,2.603
		c-0.483,0.57-0.568,1.215-0.243,1.865C480.302,31.171,480.313,31.19,480.324,31.209"/>
	<path clip-path="url(#SVGID_2_)" fill="#331700" d="M553.885,41.761c-0.364-0.508-0.995-0.824-1.646-0.824
		c-0.748,0-1.393,0.392-1.783,1.094c-0.013,0.021-1.183,2.182-4.991,2.182h-23.086l-0.967-1.163
		c-0.413-0.474-0.833-0.573-1.111-0.573c-0.234,0-0.589,0.071-0.937,0.409c-0.835,0.681-1.726,1.499-2.826,2.604
		c-0.488,0.568-0.572,1.212-0.245,1.863c0.007,0.021,0.021,0.04,0.033,0.06c0.332,0.498,0.845,0.763,1.489,0.764l6.65-0.002
		c0.007,0,0.007-0.001,0.007-0.001h20.992c5.514,0,7.823-3.173,8.57-4.556c0.027-0.041,0.044-0.084,0.064-0.128
		C554.31,42.869,554.235,42.254,553.885,41.761"/>
	<path clip-path="url(#SVGID_2_)" fill="#331700" d="M627.736,41.665h-13.545l-1.584-1.909c-0.414-0.473-0.833-0.572-1.11-0.572
		c-0.237,0-0.586,0.072-0.937,0.408c-0.769,0.628-1.596,1.383-2.576,2.359c-0.303,0.211-0.502,0.515-0.602,0.844
		c-0.142,0.406-0.109,0.834,0.106,1.266c0.01,0.021,0.02,0.041,0.032,0.06c0.023,0.034,0.054,0.059,0.078,0.089
		c0.267,0.393,0.713,0.681,1.33,0.681h16.769v6.746h-16.6c-0.864,0-1.519,0.687-1.519,1.6c0,0.779,0.521,1.568,1.519,1.568h16.6
		v7.254h-17.112c-0.466,0-0.886,0.185-1.175,0.521c-0.25,0.291-0.389,0.674-0.389,1.078c0,0.779,0.538,1.569,1.563,1.569h19.377
		c1.165,0,2.149-1.038,2.149-2.265V43.928C630.112,42.49,629.247,41.665,627.736,41.665"/>
	<path clip-path="url(#SVGID_2_)" fill="#003026" d="M207.982,63.179l-19.686-20.309l12.016-8.683l4.676-3.35
		c0.103-0.058,0.215-0.129,0.351-0.226c0.849-0.633,1.946-1.257,3.045-2.362c0.488-0.569,0.569-1.215,0.243-1.865
		c-0.008-0.018-0.021-0.039-0.035-0.059c-0.325-0.5-0.84-0.763-1.489-0.763l-0.002-0.002l-6.648,0.002
		c-0.22,0-0.418,0.129-0.513,0.328c-0.091,0.197-0.063,0.43,0.075,0.598l1.155,1.394c0.31,0.479,0.755,1.57-0.428,2.893
		l-18.643,13.457V26.197l-0.004-0.019v-0.463l-0.015,0.005c-0.069-0.67-0.41-1.059-0.961-1.33c-0.021-0.01-0.039-0.029-0.059-0.037
		c-0.776-0.283-1.692-0.141-2.137,0.353c-1.101,1.102-2.188,2.203-2.871,3.043c-0.336,0.348-0.409,0.698-0.409,0.935
		c0,0.277,0.101,0.7,0.575,1.114l1.166,0.965v30.191l-1.166,0.968c-0.474,0.408-0.575,0.827-0.575,1.112
		c0,0.23,0.073,0.586,0.409,0.937c0.683,0.831,1.77,1.939,2.871,3.044c0.445,0.488,1.361,0.625,2.137,0.354
		c0.02-0.007,0.038-0.025,0.059-0.039c0.661-0.331,1.023-0.814,0.974-1.754l0.006-0.059V47.346l2.338-1.685l15.279,15.793
		c0.004,0,0.008,0.004,0.012,0.008l0.561,0.578c0.507,0.58,0.736,1.057,0.743,1.489c0.011,0.426-0.172,0.752-0.288,0.923
		l-0.729,0.873c-0.138,0.168-0.166,0.396-0.075,0.6c0.095,0.197,0.293,0.322,0.513,0.324h6.648h0.002
		c0.649,0,1.164-0.259,1.489-0.765c0.014-0.015,0.027-0.03,0.035-0.056c0.326-0.652,0.245-1.297-0.243-1.864
		C208.253,63.433,208.117,63.3,207.982,63.179"/>
	<path clip-path="url(#SVGID_2_)" fill="#003026" d="M250.887,26.326c-0.331-0.5-0.849-0.764-1.49-0.764l-0.001-0.002l-6.654,0.002
		c-0.219,0-0.418,0.129-0.512,0.328c-0.096,0.198-0.061,0.43,0.078,0.598l2.035,2.459c0.037,0.053,0.689,0.933,0.442,2.072
		c-0.073,0.332-0.233,0.704-0.457,1.105l-10.625,16.482L224.12,30.09c-0.307-0.586-0.417-1.08-0.408-1.487
		c0.012-0.504,0.295-0.946,0.439-1.14l0.808-0.975c0.14-0.168,0.17-0.4,0.079-0.598c-0.094-0.199-0.296-0.328-0.513-0.328
		l-6.656-0.002v0.002c-0.643,0-1.159,0.264-1.493,0.764c-0.01,0.02-0.021,0.04-0.033,0.059c-0.326,0.65-0.238,1.296,0.248,1.865
		c0.753,0.758,1.503,1.289,2.176,1.752l12.43,23.978v6.975l-1.162,0.969c-0.477,0.407-0.571,0.826-0.571,1.111
		c0,0.23,0.071,0.586,0.406,0.938c0.68,0.831,1.764,1.938,2.869,3.043c0.443,0.489,1.36,0.625,2.139,0.354
		c0.02-0.008,0.04-0.024,0.059-0.039c0.655-0.331,1.021-0.814,0.974-1.754l0.004-0.059V49.842l10.745-16.694l2.216-3.412
		c0.571-0.402,1.182-0.867,1.802-1.486c0.483-0.569,0.569-1.215,0.241-1.865C250.907,26.366,250.898,26.346,250.887,26.326"/>
	<path clip-path="url(#SVGID_2_)" fill="#003026" d="M273.127,24.568c-5.275,0-9.764,1.818-13.347,5.4
		c-4.056,4.117-6.119,9.463-6.119,15.903c0,6.648,2.078,12.077,6.176,16.118c3.582,3.584,8.053,5.398,13.29,5.398
		c5.312,0,9.642-1.75,13.231-5.342c4.1-4.042,6.179-9.526,6.179-16.285c0-6.365-2.061-11.676-6.122-15.795
		C282.835,26.386,278.364,24.568,273.127,24.568 M273.127,64.189c-4.851,0-8.579-2.211-11.079-6.582
		c-1.84-3.256-2.736-7.134-2.736-11.844c0-5.242,1.186-9.547,3.531-12.804c2.582-3.608,5.947-5.362,10.284-5.362
		c3.975,0,7.255,1.588,9.751,4.722c2.662,3.304,4.014,7.899,4.014,13.657c0,5.384-1.21,9.728-3.59,12.902
		C280.742,62.411,277.319,64.189,273.127,64.189"/>
	<path clip-path="url(#SVGID_2_)" fill="#003026" d="M148.373,24.568c-5.273,0-9.763,1.818-13.348,5.4
		c-4.058,4.117-6.117,9.463-6.117,15.903c0,6.648,2.078,12.077,6.176,16.118c3.582,3.584,8.053,5.398,13.289,5.398
		c5.312,0,9.641-1.75,13.232-5.342c4.101-4.042,6.176-9.526,6.176-16.285c0-6.365-2.056-11.676-6.115-15.795
		C158.082,26.386,153.609,24.568,148.373,24.568 M148.373,64.189c-4.852,0-8.578-2.211-11.078-6.582
		c-1.842-3.256-2.738-7.134-2.738-11.844c0-5.242,1.189-9.547,3.533-12.804c2.583-3.608,5.945-5.362,10.283-5.362
		c3.975,0,7.256,1.588,9.752,4.722c2.658,3.304,4.014,7.899,4.014,13.657c0,5.384-1.212,9.728-3.592,12.902
		C155.988,62.411,152.564,64.189,148.373,64.189"/>
	<path clip-path="url(#SVGID_2_)" fill="#003026" d="M126.2,26.347c-0.012-0.021-0.02-0.041-0.034-0.061
		c-0.332-0.5-0.846-0.765-1.49-0.765h-0.001h-16.384h-1.818H90.086c-0.645,0-1.16,0.265-1.49,0.765
		c-0.013,0.02-0.023,0.04-0.034,0.061c-0.326,0.648-0.242,1.295,0.245,1.864c1.101,1.108,1.992,1.924,2.83,2.608
		c0.349,0.333,0.699,0.409,0.937,0.409c0.277,0,0.699-0.101,1.111-0.577l0.998-1.202c0.214-0.216,0.756-0.711,1.426-0.989
		c0.602-0.245,1.502-0.385,2.395-0.398h6.435v32.892l-1.16,0.968c-0.476,0.408-0.574,0.827-0.574,1.113
		c0,0.229,0.07,0.585,0.408,0.936c0.68,0.831,1.764,1.939,2.871,3.044c0.442,0.488,1.36,0.625,2.134,0.354
		c0.023-0.007,0.039-0.025,0.063-0.039c0.655-0.331,1.02-0.814,0.975-1.753l0.002-0.06l-0.002-37.455h6.6
		c0.896,0.013,1.798,0.153,2.397,0.398c0.67,0.278,1.212,0.773,1.427,0.989l0.999,1.202c0.413,0.476,0.833,0.577,1.11,0.577
		c0.235,0,0.589-0.076,0.936-0.409c0.838-0.684,1.728-1.5,2.829-2.608C126.444,27.643,126.526,26.996,126.2,26.347"/>
	<path clip-path="url(#SVGID_2_)" fill="#331700" d="M562.084,28.794c2.104,0.702,4.106,1.631,6.104,2.829
		c0.784,0.501,1.479,1.113,2.155,1.704c0.512,0.449,1.041,0.912,1.603,1.329c0.394,0.301,0.842,0.46,1.297,0.46
		c0.943,0,1.853-0.703,2.16-1.673c0.285-0.898-0.025-1.801-0.789-2.346c-3.414-2.615-7.313-4.442-11.604-5.427
		c-0.917-0.206-1.803,0.415-1.967,1.353C560.904,27.809,561.316,28.518,562.084,28.794"/>
	<path clip-path="url(#SVGID_2_)" fill="#331700" d="M570.342,46.041c0.513,0.447,1.041,0.912,1.604,1.326
		c0.392,0.303,0.841,0.462,1.296,0.462c0.943,0,1.852-0.703,2.161-1.671c0.285-0.9-0.026-1.804-0.79-2.347
		c-3.414-2.616-7.314-4.442-11.604-5.428c-0.918-0.205-1.803,0.416-1.968,1.353c-0.138,0.785,0.275,1.494,1.041,1.772
		c2.105,0.701,4.107,1.629,6.105,2.828C568.972,44.837,569.666,45.449,570.342,46.041"/>
	<path clip-path="url(#SVGID_2_)" fill="#331700" d="M563.436,64.038c-0.002,1.221,0.854,2.114,2.308,2.114
		c0.095,0,0.194-0.006,0.274-0.015c4.758-0.387,9.278-2.345,13.125-4.791c9.434-6.006,16.094-16.474,21.591-24.934
		c0.297-0.467,0.313-1.008,0.054-1.48c-0.305-0.555-0.947-0.927-1.594-0.927c-0.515,0-0.965,0.228-1.267,0.645
		c-4.271,5.993-8.452,12.451-13.909,17.571c-3.674,3.478-8.533,7.526-14.25,8.916l-1.469-1.686c-0.473-0.413-0.9-0.454-1.18-0.417
		c-0.233,0.033-0.573,0.152-0.873,0.533c-0.733,0.789-1.311,1.616-2.249,2.862C563.997,62.43,563.437,63.251,563.436,64.038"/>
	<path clip-path="url(#SVGID_2_)" fill="#331700" d="M648.407,36.906c0.515,0.523,1.045,1.064,1.61,1.584
		c0.446,0.379,1.004,0.587,1.577,0.587c0.679,0,1.341-0.292,1.826-0.819c0.888-1.036,0.789-2.529-0.221-3.393
		c-3.316-2.966-7.38-4.836-11.226-6.484c-0.826-0.413-1.801,0.079-2.047,0.98c-0.179,0.663,0.077,1.312,0.64,1.643
		c0.375,0.237,0.75,0.472,1.124,0.709c1.472,0.918,2.984,1.869,4.32,2.935C646.87,35.342,647.652,36.138,648.407,36.906"/>
	<path clip-path="url(#SVGID_2_)" fill="#331700" d="M642.165,64.038c-0.003,1.221,0.854,2.114,2.308,2.114
		c0.095,0,0.194-0.006,0.275-0.015c4.757-0.387,9.277-2.345,13.123-4.791c9.435-6.006,16.095-16.474,21.592-24.934
		c0.297-0.467,0.313-1.008,0.053-1.48c-0.304-0.555-0.946-0.927-1.593-0.927c-0.515,0-0.965,0.228-1.267,0.645
		c-4.271,5.993-8.451,12.451-13.91,17.571c-3.673,3.478-8.532,7.526-14.25,8.916l-1.468-1.686c-0.473-0.413-0.9-0.454-1.18-0.417
		c-0.233,0.033-0.573,0.152-0.874,0.533c-0.732,0.789-1.31,1.616-2.249,2.862C642.726,62.43,642.166,63.251,642.165,64.038"/>
	<path clip-path="url(#SVGID_2_)" fill="#01123E" d="M51.95,8.092c-0.594-0.338-1.551-0.338-2.133,0l-25.013,14.44
		c-0.588,0.339-1.547,0.339-2.133,0l-4.654-2.686c-0.327-0.187-0.572-0.283-0.819-0.325c-0.442-0.074-0.775,0.022-0.865,0.088
		l-4.656,2.686c-0.457,0.232-0.706,0.448-0.791,0.7c-0.102,0.295,0.029,0.588,0.344,0.772l11.441,6.601
		c0.586,0.338,1.545,0.338,2.133,0l25.013-14.441c0.582-0.338,1.539-0.338,2.133,0l4.651,2.686c0.586,0.339,1.548,0.339,2.128,0
		l4.66-2.686c0.584-0.338,0.584-0.893,0-1.234L51.95,8.092z"/>
	<path clip-path="url(#SVGID_2_)" fill="#01123E" d="M31.586,34.286c-0.584,0.34-0.584,0.895,0,1.232l4.658,2.686
		c0.586,0.334,1.545,0.334,2.131,0l25.014-14.439c0.584-0.342,0.584-0.896-0.387-1.471l-4.657-2.688
		c-0.196-0.1-1.157-0.1-1.743,0.238L31.586,34.286z"/>
	<path clip-path="url(#SVGID_2_)" fill="#01123E" d="M43.03,4.175c0.586-0.34,0.586-0.895,0-1.232l-4.655-2.688
		c-0.586-0.34-1.543-0.34-2.129,0L11.23,14.694c-0.587,0.339-0.587,0.894,0,1.232l4.656,2.687c0.585,0.338,1.546,0.338,2.131,0
		L43.03,4.175z"/>
	<path clip-path="url(#SVGID_2_)" fill="#331700" d="M41.811,75.399c-0.586,0.337-1.062,1.17-1.062,1.849l-0.003,5.375
		c0,0.675,0.479,0.952,1.065,0.612l25.016-14.44c0.665-0.374,1.069-1.171,1.069-1.432V61.99c0.071-1.179-0.484-1.371-1.069-1.032
		L41.811,75.399z"/>
	<path clip-path="url(#SVGID_2_)" fill="#331700" d="M41.592,52.015c-0.584,0.34-0.843,1.046-0.843,1.725v13.208
		c0,0.679,0.476,0.957,1.062,0.618l25.015-14.444c0.585-0.337,1.07-0.061,1.07,0.616v5.373c0,0.676,0.472,0.954,1.064,0.614
		l4.651-2.686c0.586-0.338,1.07-1.17,1.07-1.845V41.985c0-0.68-0.484-0.954-1.068-0.616L48.6,55.811
		c-0.586,0.338-1.069,0.059-1.069-0.616l0.002-5.374c0-0.679-0.48-0.955-1.066-0.617L41.592,52.015z"/>
	<path clip-path="url(#SVGID_2_)" fill="#331700" d="M73.612,33.531c0.21-0.149,0.515-0.323,0.746-0.505
		c0.28-0.224,0.322-0.762,0.322-0.894v-5.375c0-0.539-0.18-0.844-0.434-0.979c-0.27-0.144-0.625-0.09-0.93,0.086L48.599,40.139
		c-0.269,0.157-0.549,0.409-0.736,0.688c-0.221,0.326-0.33,0.684-0.33,0.924v5.301c0,0.44,0.061,0.802,0.293,0.947
		c0.213,0.135,0.469,0.15,0.773-0.026L73.612,33.531z"/>
	<path clip-path="url(#SVGID_2_)" fill="#003026" d="M1.249,25.804C0.536,25.388,0,25.929,0,26.606v5.082
		c0,0.676,0.185,1.357,0.774,1.693l10.627,6.141c0.586,0.338,1.067,1.168,1.067,1.848v30.376c0,0.678,0.095,1.239,0.676,1.611
		l4.654,2.685c0.974,0.576,1.48,0.064,1.453-0.768l0.002-29.989c0-0.675,0.476-0.956,1.066-0.616l12.312,7.079
		c0.586,0.34,1.34,0.149,1.301-0.861v-5.135c0-0.527-0.483-1.359-1.067-1.698L1.249,25.804z"/>
</g>
</svg>
