<?xml version="1.0" encoding="utf-8"?>
<!-- Generator: Adobe Illustrator 16.0.0, SVG Export Plug-In . SVG Version: 6.00 Build 0)  -->
<!DOCTYPE svg PUBLIC "-//W3C//DTD SVG 1.1//EN" "http://www.w3.org/Graphics/SVG/1.1/DTD/svg11.dtd">
<svg version="1.1" id="レイヤー_1" xmlns="http://www.w3.org/2000/svg" xmlns:xlink="http://www.w3.org/1999/xlink" x="0px"
	 y="0px" width="110.184px" height="28.348px" viewBox="0 0 110.184 28.348" enable-background="new 0 0 110.184 28.348"
	 xml:space="preserve">
<g>
	<defs>
		<rect id="SVGID_1_" y="0" width="110.184" height="28.348"/>
	</defs>
	<clipPath id="SVGID_2_">
		<use xlink:href="#SVGID_1_"  overflow="visible"/>
	</clipPath>
	<path clip-path="url(#SVGID_2_)" fill="#00A040" d="M13.749,28.348h0.85c0-7.686,6.118-13.942,13.749-14.167
		c0-0.002,0-0.004,0-0.007C28.348,6.346,22.001,0,14.174,0C6.346,0,0,6.346,0,14.174v0.007
		C7.632,14.406,13.749,20.662,13.749,28.348"/>
	<path clip-path="url(#SVGID_2_)" fill="#898989" d="M51.086,2.834h-1.955v1.84h-9.417v1.681h9.417v1.719h-6.44h-1.799v1.564v1.752
		v1.408v1.753v1.563h1.799h4.711c-1.003,1.006-3.39,3.007-7.688,4.494v1.897c0,0,5.553-1.812,9.417-6.033v6.147h1.955v-6.147
		c3.865,4.222,9.417,6.033,9.417,6.033v-1.897c-4.298-1.487-6.685-3.488-7.688-4.494h4.711h1.8v-1.563v-1.753v-1.408V9.639V8.075
		h-1.8h-6.44V6.355h9.417V4.675h-9.417V2.834z M42.691,9.639h6.44v1.753h-6.44V9.639z M42.691,12.799h6.44v1.752h-6.44V12.799z
		 M57.526,14.552h-6.44V12.8h6.44V14.552z M57.526,11.391h-6.44V9.638h6.44V11.391z"/>
	<path clip-path="url(#SVGID_2_)" fill="#898989" d="M68.547,16.479c0,0-1.915,2.233-4.738,3.851v2.047c0,0,4.372-2.372,7.152-5.897
		H68.547z"/>
	<path clip-path="url(#SVGID_2_)" fill="#898989" d="M79.628,16.479h-2.285c2.845,3.644,7.255,5.893,7.255,5.893v-2.048
		C81.773,18.707,79.628,16.479,79.628,16.479"/>
	<path clip-path="url(#SVGID_2_)" fill="#898989" d="M80.949,14.649h1.896v-1.564v-3.33V8.192h-1.896H67.458h-1.897v1.564v3.33
		v1.564h1.897h5.729v5.377c0,0.719-0.396,0.913-0.96,0.913h-2.371v1.682h2.853c1.766,0,2.512-0.825,2.512-2.063v-5.908H80.949z
		 M67.458,9.756h13.491v3.33H67.458V9.756z"/>
	<polygon clip-path="url(#SVGID_2_)" fill="#898989" points="75.22,2.835 73.187,2.835 73.187,4.675 63.809,4.675 63.809,6.356 
		84.598,6.356 84.598,4.675 75.22,4.675 	"/>
	<path clip-path="url(#SVGID_2_)" fill="#898989" d="M107.598,10.543l2.393-7.448h-6.912h-1.642v1.584v17.551h1.642V4.679h4.738
		l-1.965,5.972c0,0,2.586,2.888,2.586,5.561c0,2.608-2.414,2.608-2.414,2.608h-1.444v1.66h1.401c0,0,4.204-0.021,4.204-4.29
		C110.185,13.281,107.598,10.543,107.598,10.543"/>
	<path clip-path="url(#SVGID_2_)" fill="#898989" d="M98.562,3.095c-0.188,0.548-0.407,1.071-0.645,1.579h-3.814V2.677h-1.76v1.997
		h-3.979V6.16h3.979v3.112H87.75v1.486h5.42c-1.547,1.301-3.215,2.322-4.806,3.073v1.799c0.356-0.164,0.731-0.353,1.112-0.553v7.153
		h1.386h0.374h6.857h1.622V20.9v-2.737v-1.33v-2.737v-1.329h-1.622h-4.99c0.79-0.601,1.57-1.271,2.322-2.009h4.29V9.272h-2.911
		c1.472-1.748,2.712-3.803,3.438-6.177H98.562z M98.094,20.9h-6.857v-2.737h6.857V20.9z M98.094,16.833h-6.857v-2.737h6.857V16.833z
		 M94.103,9.272V6.16h3.029c-0.688,1.151-1.494,2.187-2.377,3.112H94.103z"/>
</g>
</svg>
