<?xml version="1.0" encoding="utf-8"?>
<!-- Generator: Adobe Illustrator 20.1.0, SVG Export Plug-In . SVG Version: 6.00 Build 0)  -->
<svg version="1.1" id="レイヤー_1" xmlns="http://www.w3.org/2000/svg" xmlns:xlink="http://www.w3.org/1999/xlink" x="0px"
	 y="0px" width="96.3px" height="96.3px" viewBox="0 0 96.3 96.3" style="enable-background:new 0 0 96.3 96.3;"
	 xml:space="preserve">
<style type="text/css">
	.st0{fill:none;stroke:#26292E;stroke-width:4;stroke-linecap:square;stroke-linejoin:round;stroke-miterlimit:10;}
	.st1{fill:none;stroke:#26292E;stroke-width:4;stroke-linecap:round;stroke-linejoin:round;stroke-miterlimit:10;}
</style>
<g>
	<g>
		<path class="st0" d="M53.4,44H39.1c0,0-11.9-6.8-13.6-8.3c-1.9-1.4-6.2-2.3-7.7-0.7c-1.5,1.6-3,4.7,1,8.7
			c2.9,2.9,23.8,16.2,23.8,16.2c1.1,0.7,2.4,1,3.7,0.8l20.2-4.6c0.5-0.1,1.1,0.1,1.5,0.4l17.8,17.3"/>
		<path class="st1" d="M93.4,57.3L74,41.8c-3.4-3.3-6.4-7.3-16-7.3c-3.4,0-11.2,0-13.1,0c-6,0-6.6,2.8-6.6,4.9
			c0,3.1,5.1,4.6,7.2,4.6"/>
	</g>
	<circle class="st1" cx="48.2" cy="48.2" r="46.2"/>
</g>
</svg>
